<?xml version="1.0" encoding="utf-8"?>
<svg width="14px" height="18px" viewbox="0 0 14 18" version="1.1" xmlns:xlink="http://www.w3.org/1999/xlink" xmlns="http://www.w3.org/2000/svg">
  <g id="noun_activity_1603738">
    <g id="Group">
      <path d="M12 0.857143L11.1429 0.857143L11.1429 0L2.57143 0L2.57143 0.857143L1.71429 0.857143C0.767526 0.857143 0 1.62467 0 2.57143L0 16.2857C0 17.2325 0.767526 18 1.71429 18L12 18C12.9468 18 13.7143 17.2325 13.7143 16.2857L13.7143 2.57143C13.7143 1.62467 12.9468 0.857143 12 0.857143L12 0.857143ZM3.42857 0.857143L10.2857 0.857143L10.2857 1.71429L3.42857 1.71429L3.42857 0.857143L3.42857 0.857143ZM12.8571 16.2857C12.8571 16.7583 12.4726 17.1429 12 17.1429L1.71429 17.1429C1.24166 17.1429 0.857143 16.7583 0.857143 16.2857L0.857143 2.57143C0.857143 2.09881 1.24166 1.71429 1.71429 1.71429L2.57143 1.71429L2.57143 2.57143L11.1429 2.57143L11.1429 1.71429L12 1.71429C12.4726 1.71429 12.8571 2.09881 12.8571 2.57143L12.8571 16.2857L12.8571 16.2857ZM5.14286 5.14286L11.1429 5.14286L11.1429 6L5.14286 6L5.14286 5.14286L5.14286 5.14286ZM5.14286 7.71429L11.1429 7.71429L11.1429 8.57143L5.14286 8.57143L5.14286 7.71429L5.14286 7.71429ZM5.14286 10.2857L11.1429 10.2857L11.1429 11.1429L5.14286 11.1429L5.14286 10.2857L5.14286 10.2857ZM5.14286 12.8571L11.1429 12.8571L11.1429 13.7143L5.14286 13.7143L5.14286 12.8571L5.14286 12.8571ZM3.42857 6L2.57143 6L2.57143 5.14286L3.42857 5.14286L3.42857 6L3.42857 6ZM3.42857 8.57143L2.57143 8.57143L2.57143 7.71429L3.42857 7.71429L3.42857 8.57143L3.42857 8.57143ZM3.42857 11.1429L2.57143 11.1429L2.57143 10.2857L3.42857 10.2857L3.42857 11.1429L3.42857 11.1429ZM3.42857 13.7143L2.57143 13.7143L2.57143 12.8571L3.42857 12.8571L3.42857 13.7143L3.42857 13.7143Z" id="Shape" fill="#87909E" fill-rule="evenodd" stroke="none" />
    </g>
  </g>
</svg>