<?xml version="1.0" encoding="utf-8"?>
<svg width="14px" height="14px" viewBox="0 0 14 14" version="1.1" xmlns:xlink="http://www.w3.org/1999/xlink" xmlns="http://www.w3.org/2000/svg">
  <g id="Group-2">
    <path d="M6.06671 7.46667C8.12857 7.46667 9.80004 5.7952 9.80004 3.73334C9.80004 1.67148 8.12858 7.34329e-06 6.06672 0C4.00486 -7.12077e-06 2.33339 1.67145 2.33337 3.73331C2.33562 5.79413 4.0057 7.4643 6.06661 7.46667L6.06671 7.46667ZM6.06672 0.93335C7.61312 0.93335 8.86672 2.18695 8.86672 3.73334C8.86673 5.27974 7.61313 6.53334 6.06673 6.53335C4.52034 6.53335 3.26673 5.27976 3.26672 3.73336C3.26823 2.18765 4.52091 0.934919 6.06668 0.93335L6.06672 0.93335Z" id="Shape" fill="#FFFFFF" fill-rule="evenodd" stroke="none" />
    <path d="M9.0412 8.40002L3.09213 8.40002C1.38532 8.40182 0.0020579 9.78488 2.22524e-07 11.4917L0 14L0.933333 14L0.933333 11.4917C0.934979 10.2999 1.90076 9.33454 3.09232 9.33336L9.0412 9.33336C10.2328 9.33464 11.1985 10.3001 11.2 11.4917L11.2 14L12.1333 14L12.1333 11.4917C12.1314 9.78507 10.7482 8.40193 9.04139 8.40002L9.0412 8.40002Z" id="Shape" fill="#FFFFFF" fill-rule="evenodd" stroke="none" />
    <path d="M13.9897 6.06155L12.5948 6.06155L12.5948 4.66669L11.6615 4.66669L11.6615 6.06155L10.2666 6.06155L10.2666 6.99489L11.6615 6.99489L11.6615 8.38975L12.5948 8.38975L12.5948 6.99489L13.9897 6.99489L13.9897 6.06155L13.9897 6.06155Z" id="Polygon" fill="#FFFFFF" fill-rule="evenodd" stroke="none" />
  </g>
</svg>