<?xml version="1.0" encoding="utf-8"?>
<svg width="30px" height="30px" viewBox="0 0 30 30" version="1.1" xmlns:xlink="http://www.w3.org/1999/xlink" xmlns="http://www.w3.org/2000/svg">
  <g id="Group-2">
    <path d="M13 16C17.4183 16 21 12.4183 21 8C21 3.58173 17.4183 1.57356e-05 13 0C8.58175 -1.52588e-05 5.00002 3.58168 5 7.99994C5.00482 12.416 8.58355 15.9949 12.9998 16L13 16ZM13 2C16.3137 2 19 4.68628 19 7.99998C19 11.3137 16.3137 14 13 14C9.68631 14 7.00002 11.3137 7 8.00002C7.00323 4.68778 9.68754 2.00336 12.9999 2L13 2Z" id="Shape" fill="#EB8242" fill-rule="evenodd" stroke="none" />
    <path d="M19.374 18L6.62599 18C2.96855 18.0039 0.00440978 20.9675 4.76836e-07 24.625L0 30L2 30L2 24.625C2.00352 22.0713 4.07305 20.0025 6.62639 20L19.374 20C21.9273 20.0028 23.9967 22.0717 24 24.625L24 30L26 30L26 24.625C25.9958 20.9679 23.0318 18.0041 19.3744 18L19.374 18Z" id="Shape" fill="#EB8242" fill-rule="evenodd" stroke="none" />
    <path d="M29.9777 12.989L26.9887 12.989L26.9887 10L24.9888 10L24.9888 12.989L21.9998 12.989L21.9998 14.989L24.9888 14.989L24.9888 17.978L26.9887 17.978L26.9887 14.989L29.9777 14.989L29.9777 12.989L29.9777 12.989Z" id="Polygon" fill="#EB8242" fill-rule="evenodd" stroke="none" />
  </g>
</svg>