<?xml version="1.0" encoding="utf-8"?>
<svg width="42px" height="42px" viewBox="0 0 42 42" version="1.1" xmlns:xlink="http://www.w3.org/1999/xlink" xmlns="http://www.w3.org/2000/svg">
  <g id="Group-4">
    <path d="M0 21C0 9.40202 9.40202 0 21 0C32.598 0 42 9.40202 42 21C42 32.598 32.598 42 21 42C9.40202 42 0 32.598 0 21Z" id="Ellipse" fill="#C9EFFA" fill-rule="evenodd" stroke="none" />
    <g id="Group-2" transform="translate(12.318237 8.166992)">
      <path d="M4.77272 12.833C2.13609 12.833 0 14.9701 0 17.6057C0 20.2417 2.13609 22.3791 4.77272 22.3791C7.40839 22.3791 9.54607 20.2417 9.54607 17.6057C9.54607 14.9701 7.40839 12.833 4.77272 12.833L4.77272 12.833ZM6.39587 18.4463C6.39587 19.1817 5.91284 19.6396 5.18798 19.7548L5.18798 20.3307L4.22541 20.3307L4.22573 19.7217C3.65138 19.6278 3.18712 19.266 3.18712 19.266L3.72424 18.5564C3.72424 18.5564 4.21841 18.9462 4.82873 18.9462C5.21725 18.9462 5.45177 18.7916 5.45177 18.5383L5.45177 18.5262C5.45177 18.2853 5.30348 18.1622 4.58212 17.9767C3.71215 17.7549 3.15021 17.5143 3.15021 16.6568L3.15021 16.645C3.15021 15.9975 3.5801 15.5326 4.22605 15.3894L4.22605 14.8831L5.18829 14.8818L5.18829 15.397C5.69519 15.4473 6.03185 15.7248 6.03185 15.7248L5.55645 16.4722C5.55645 16.4722 5.17875 16.1814 4.64926 16.1814C4.28523 16.1814 4.094 16.3475 4.094 16.5584L4.094 16.5709C4.094 16.8553 4.27919 16.9473 5.02569 17.1379C5.90202 17.3673 6.39619 17.6804 6.39619 18.4336L6.39587 18.4463L6.39587 18.4463L6.39587 18.4463Z" id="Shape-2" fill="#41C3E8" fill-rule="evenodd" stroke="none" />
      <g id="Group" transform="translate(3.9277954 0)">
        <path d="M13.4358 16.7226L13.4358 4.66181C13.4358 4.00122 12.8996 3.46505 12.2384 3.46505C11.5778 3.46505 11.0419 4.00122 11.0419 4.66181L11.0419 8.00516L12.1537 13.042L11.8562 13.042L9.1375 1.08044C8.9714 0.346984 8.29299 -0.123319 7.62126 0.0284638C6.95049 0.180883 6.54065 0.897474 6.70643 1.63061L8.2774 8.56742L9.08754 10.6074L8.84062 10.6074L7.6394 7.77733L3.47795 1.78017C3.08688 1.21727 2.3146 1.0779 1.75075 1.46833C1.18785 1.85876 1.04816 2.632 1.43891 3.1949L5.4244 8.94004L5.64809 9.53444C5.50204 9.52139 5.35598 9.5093 5.20547 9.5093C2.95324 9.5093 1.26708 10.413 0.0680943 12.2598C0.322656 12.2226 0.5804 12.1972 0.844508 12.1972C1.64065 12.1972 2.39447 12.3744 3.07574 12.6843C3.53936 12.3372 4.07776 12.1402 4.72594 12.0782L4.72817 12.0832C7.76573 12.0832 7.24674 14.2919 7.24674 17.3269C7.24674 20.3037 7.79373 22.9919 4.89745 23.0845C4.83986 23.0864 4.78704 23.093 4.72817 23.093L4.7288 23.0956C4.09017 23.0354 3.5435 22.849 3.07511 22.5292C2.39352 22.8391 1.64001 23.016 0.844509 23.016C0.556536 23.016 0.275882 22.9868 0 22.9432C1.18626 24.7264 2.97106 25.6667 5.20579 25.6667C8.73879 25.6667 11.7468 23.3867 12.8414 20.2222C13.2245 19.2711 13.4355 18.2322 13.4355 17.1433L13.4313 17.1433L13.4313 16.7627C13.4316 16.7487 13.4358 16.7363 13.4358 16.7226L13.4358 16.7226Z" id="Shape" fill="#41C3E8" fill-rule="evenodd" stroke="none" />
      </g>
    </g>
  </g>
</svg>