<?xml version="1.0" encoding="utf-8"?>
<svg width="16px" height="16px" viewBox="0 0 16 16" version="1.1" xmlns:xlink="http://www.w3.org/1999/xlink" xmlns="http://www.w3.org/2000/svg">
  <g id="search-line">
    <g id="Group">
      <path d="M0 0L16 0L16 16L0 16L0 0Z" id="Shape" fill="none" fill-rule="evenodd" stroke="none" />
      <path d="M12.0233 11.0787L14.8786 13.9333L13.9353 14.8767L11.0806 12.0213C10.0184 12.8728 8.69727 13.3359 7.33594 13.334C4.02394 13.334 1.33594 10.646 1.33594 7.33398C1.33594 4.02198 4.02394 1.33398 7.33594 1.33398C10.6479 1.33398 13.3359 4.02198 13.3359 7.33398C13.3378 8.69557 12.8746 10.0167 12.0231 11.0788L12.0233 11.0787ZM10.6885 10.5846C11.5346 9.71456 12.0071 8.54826 12.0052 7.33464C12.0052 4.75597 9.91654 2.66797 7.33854 2.66797C4.75988 2.66797 2.67188 4.75597 2.67188 7.33464C2.67188 9.91264 4.75988 12.0013 7.33854 12.0013C8.55216 12.0032 9.71847 11.5307 10.5885 10.6846L10.6885 10.5846L10.6885 10.5846Z" id="Shape" fill="#85929E" fill-rule="evenodd" stroke="none" />
    </g>
  </g>
</svg>