<?xml version="1.0" encoding="utf-8"?>
<svg width="17px" height="18px" viewbox="0 0 17 18" version="1.1" xmlns:xlink="http://www.w3.org/1999/xlink" xmlns="http://www.w3.org/2000/svg">
  <g id="noun_Attachment_3564727">
    <g id="Group">
      <path d="M4.60898 12.465C4.38919 12.771 4.38919 13.1832 4.60898 13.4892C4.91805 13.7773 5.39728 13.7773 5.70635 13.4892L13.9733 5.22232C14.3686 4.77585 14.6008 4.2084 14.6317 3.61284C14.6021 3.03866 14.3687 2.49388 13.9733 2.07651C13.5601 1.65192 12.9928 1.41241 12.4003 1.41241C11.8079 1.41241 11.2406 1.65192 10.8274 2.07651L2.56054 10.3434C1.87331 11.0499 1.48092 11.9916 1.46317 12.9771C1.52212 14.4388 2.42982 15.7312 3.78477 16.2826C5.13972 16.834 6.69191 16.5428 7.75479 15.5377L11.3396 11.9529C11.6486 11.6648 12.1279 11.6648 12.4369 11.9529C12.6567 12.2589 12.6567 12.6711 12.4369 12.9771L8.77901 16.5619C7.29794 17.9764 5.12391 18.3887 3.22782 17.6144C1.33174 16.8402 0.0676152 15.0241 0 12.9771C0.00795649 11.6024 0.560439 10.2871 1.5364 9.31912L9.80322 1.05229C11.2504 -0.350764 13.5503 -0.350764 14.9975 1.05229C15.6801 1.73212 16.0734 2.64965 16.0948 3.61284C16.0771 4.5983 15.6847 5.54002 14.9975 6.24653L6.73057 14.5134C6.31739 14.938 5.75011 15.1775 5.15767 15.1775C4.56522 15.1775 3.99794 14.938 3.58476 14.5134C2.77526 13.6211 2.77526 12.26 3.58476 11.3676L9.29112 5.73443C9.58238 5.51599 9.98994 5.54495 10.2474 5.80239C10.5048 6.05983 10.5338 6.46739 10.3153 6.75865L4.60898 12.465Z" id="Shape" fill="#8C8FA1" fill-rule="evenodd" stroke="none" />
    </g>
  </g>
</svg>