<?xml version="1.0" encoding="utf-8"?>
<svg width="18px" height="14px" viewbox="0 0 18 14" version="1.1" xmlns:xlink="http://www.w3.org/1999/xlink" xmlns="http://www.w3.org/2000/svg">
  <defs>
    <filter id="filter_1">
      <feColorMatrix in="SourceGraphic" type="matrix" values="0 0 0 0 0.18431373 0 0 0 0 0.19607843 0 0 0 0 0.22745098 0 0 0 1 0" />
    </filter>
  </defs>
  <g id="Group" filter="url(#filter_1)">
    <path d="M3.11732 3.46605L6.33671 3.46605L13.9138 0.0519201C14.209 -0.103512 14.5726 0.107849 14.5726 0.449262L14.5726 12.4823C14.5679 12.8028 14.2406 13.0267 13.9392 12.8911L6.33693 9.46547L5.98047 9.46547L5.98047 12.1314C5.98047 12.8279 5.41826 13.3412 4.73252 13.3412C4.06834 13.3412 3.52275 12.7958 3.52275 12.1314L3.52275 9.46547L3.11732 9.46547C2.86935 9.46547 2.6681 9.26422 2.6681 9.01624L2.6681 8.74222L1.51448 8.74222C1.26651 8.74222 1.06526 8.54096 1.06526 8.29299L1.06526 7.46169C-0.355872 7.46169 -0.354299 5.46982 1.06526 5.46982L1.06526 4.63853C1.06526 4.39055 1.26651 4.1893 1.51448 4.1893L2.6681 4.1893L2.6681 3.91527C2.6681 3.6673 2.86935 3.46604 3.11732 3.46604L3.11732 3.46605ZM2.66728 7.8439L2.66728 5.08789L1.96289 5.08789L1.96289 7.8439L2.66728 7.8439L2.66728 7.8439ZM17.5603 9.39389C17.9779 9.81144 17.3427 10.4467 16.9251 10.0291L15.533 8.63694C15.1154 8.21938 15.7506 7.58418 16.1682 8.00173L17.5603 9.39389L17.5603 9.39389ZM16.1682 4.92948C15.7506 5.34704 15.1154 4.71183 15.533 4.29428L16.9251 2.90212C17.3427 2.48457 17.9779 3.11977 17.5603 3.53733L16.1682 4.92948L16.1682 4.92948ZM15.5622 6.91408C14.9715 6.91408 14.9715 6.01563 15.5622 6.01563L17.5312 6.01563C18.0435 6.01563 18.2618 6.90689 17.5312 6.91408L15.5622 6.91408L15.5622 6.91408ZM5.08269 9.46484L4.42188 9.46484L4.42188 12.1308C4.42188 12.3033 4.56046 12.4421 4.73319 12.4421C4.92591 12.4421 5.08269 12.3356 5.08269 12.1308L5.08269 9.46484L5.08269 9.46484ZM6.83398 4.226L6.83398 8.70749L13.673 11.789L13.673 1.14453L6.83398 4.226L6.83398 4.226ZM5.93653 4.36328L3.56641 4.36328L3.56641 8.5658L5.93653 8.5658L5.93653 4.36328L5.93653 4.36328Z" id="Shape" fill="#000000" fill-rule="evenodd" stroke="none" />
  </g>
</svg>