<?xml version="1.0" encoding="utf-8"?>
<svg width="23px" height="24px" viewbox="0 0 23 24" version="1.1" xmlns:xlink="http://www.w3.org/1999/xlink" xmlns="http://www.w3.org/2000/svg">
  <g id="noun_filter_2355398">
    <path d="M4.39014 3.45743L4.39014 0.797867C4.39014 0.357217 4.03292 0 3.59227 0C3.15162 0 2.7944 0.357217 2.7944 0.797867L2.7944 3.45743C1.15944 3.83118 0 5.28558 0 6.96272C-5.0727e-07 8.63986 1.15944 10.0943 2.7944 10.468L2.7944 23.1967C2.7944 23.6373 3.15162 23.9945 3.59227 23.9945C4.03292 23.9945 4.39014 23.6373 4.39014 23.1967L4.39014 10.468C6.0251 10.0943 7.18454 8.63986 7.18454 6.96272C7.18454 5.28558 6.0251 3.83118 4.39014 3.45743L4.39014 3.45743ZM3.59271 8.9629C2.78284 8.96721 2.05031 8.48266 1.7374 7.73567C1.42448 6.98868 1.59296 6.12671 2.1641 5.55251C2.73525 4.97831 3.59631 4.80524 4.34496 5.11417C5.09361 5.42309 5.58205 6.15303 5.58206 6.96291C5.57917 8.06215 4.69189 8.95416 3.5927 8.9629L3.59271 8.9629Z" id="Shape" fill="#87909E" fill-rule="evenodd" stroke="none" />
    <path d="M4.39014 13.5265L4.39014 0.797867C4.39014 0.357217 4.03292 0 3.59227 0C3.15162 0 2.79441 0.357217 2.79441 0.797867L2.79441 13.5265C1.15944 13.9003 0 15.3547 0 17.0318C0 18.7089 1.15944 20.1634 2.79441 20.5371L2.79441 23.1967C2.79441 23.6373 3.15162 23.9945 3.59227 23.9945C4.03292 23.9945 4.39014 23.6373 4.39014 23.1967L4.39014 20.5371C6.0251 20.1634 7.18455 18.7089 7.18455 17.0318C7.18455 15.3547 6.0251 13.9003 4.39014 13.5265L4.39014 13.5265ZM3.59184 19.0371C2.78292 19.0371 2.05366 18.5499 1.74409 17.8025C1.43453 17.0552 1.60565 16.1949 2.17764 15.6229C2.74963 15.051 3.60986 14.8798 4.3572 15.1894C5.10455 15.499 5.59183 16.2282 5.59183 17.0372C5.5889 18.1405 4.69519 19.0342 3.59184 19.0371L3.59184 19.0371Z" transform="translate(7.8398438 0.0053710938)" id="Shape" fill="#87909E" fill-rule="evenodd" stroke="none" />
    <path d="M7.18799 10.5957C7.18575 8.91842 6.02554 7.46468 4.39035 7.09043L4.39014 0.797867C4.39014 0.357217 4.03292 0 3.59227 0C3.15162 0 2.7944 0.357217 2.7944 0.797867L2.7944 7.09038C1.15944 7.46414 0 8.91854 0 10.5957C-2.02908e-06 12.2728 1.15944 13.7272 2.7944 14.101L2.7944 23.1913C2.7944 23.632 3.15162 23.9892 3.59227 23.9892C4.03292 23.9892 4.39014 23.632 4.39014 23.1913L4.39014 14.1223C6.03313 13.7463 7.19559 12.2811 7.18799 10.5957L7.18799 10.5957ZM3.59184 12.5957C2.78292 12.5957 2.05365 12.1085 1.7441 11.3611C1.43454 10.6138 1.60565 9.75354 2.17764 9.18154C2.74963 8.60955 3.60986 8.43844 4.3572 8.748C5.10455 9.05756 5.59183 9.78683 5.59183 10.5957C5.58895 11.699 4.69528 12.5928 3.59193 12.5957L3.59184 12.5957Z" transform="translate(15.681641 0.0053710938)" id="Shape" fill="#87909E" fill-rule="evenodd" stroke="none" />
  </g>
</svg>