<?xml version="1.0" encoding="utf-8"?>
<svg width="16px" height="16px" viewBox="0 0 16 16" version="1.1" xmlns:xlink="http://www.w3.org/1999/xlink" xmlns="http://www.w3.org/2000/svg">
  <path d="M674.914 497C674.68 497 674.444 497.091 674.266 497.268C673.911 497.623 673.911 498.209 674.266 498.564L680.702 505L674.266 511.436C673.911 511.791 673.911 512.377 674.266 512.732C674.438 512.904 674.678 513 674.914 513C675.15 513 675.39 512.904 675.562 512.732L681.998 506.296L688.434 512.732C688.606 512.904 688.846 513 689.082 513C689.314 513 689.547 512.915 689.73 512.732C690.085 512.377 690.085 511.791 689.73 511.436L683.294 505L689.73 498.564C690.085 498.209 690.085 497.623 689.73 497.268C689.375 496.914 688.789 496.914 688.435 497.268L681.998 503.705L675.562 497.268C675.385 497.091 675.148 497 674.914 497L674.914 497Z" id="Shape" fill="#87909E" fill-rule="evenodd" stroke="none" />
</svg>