<?xml version="1.0" encoding="utf-8"?>
<svg width="24px" height="18px" viewbox="0 0 24 18" version="1.1" xmlns:xlink="http://www.w3.org/1999/xlink" xmlns="http://www.w3.org/2000/svg">
  <g id="noun_cart_3540752">
    <g id="Group">
      <path d="M0.81843 1.63686L3.42104 1.63686L5.29797 11.0161C4.1358 11.3271 3.27372 12.3801 3.27372 13.6405C3.27372 14.3716 3.55744 15.0591 4.07032 15.5611C4.485 15.9812 5.0197 16.2431 5.5926 16.3249C5.91998 17.2962 6.83116 18 7.91149 18C8.97545 18 9.87572 17.3125 10.214 16.3631L14.3334 16.3631C14.6717 17.3125 15.572 18 16.636 18C17.6999 18 18.6002 17.3125 18.9385 16.3631L19.3695 16.3631C19.8224 16.3631 20.1879 15.9976 20.1879 15.5447C20.1879 15.0918 19.8224 14.7263 19.3695 14.7263L18.9439 14.7263C18.6056 13.7769 17.7054 13.0894 16.6414 13.0894C15.5774 13.0894 14.6772 13.7769 14.3389 14.7263L10.2195 14.7263C9.88118 13.7769 8.9809 13.0894 7.91694 13.0894C6.87481 13.0894 5.99091 13.7442 5.63625 14.6553C5.48894 14.6008 5.35253 14.5189 5.23795 14.3989C5.03062 14.197 4.92149 13.9242 4.92149 13.635C4.92149 13.0349 5.41255 12.5438 6.01273 12.5438L6.27463 12.5438L13.3677 12.5438L19.3695 12.5438C19.7132 12.5438 20.0133 12.331 20.1334 12.0145L23.4071 3.28463C23.4998 3.03365 23.4671 2.74992 23.3143 2.53168C23.1616 2.31343 22.9106 2.17702 22.6432 2.17702L8.45711 2.17702C8.00424 2.17702 7.63868 2.54259 7.63868 2.99545C7.63868 3.44832 8.00424 3.81388 8.45711 3.81388L21.4647 3.81388L18.8021 10.9069L13.3677 10.9069L6.94574 10.9069L4.89421 0.6602C4.81782 0.27281 4.47954 0 4.09215 0L0.81843 0C0.365565 0 0 0.365565 0 0.81843C0 1.27129 0.365565 1.63686 0.81843 1.63686L0.81843 1.63686ZM16.6426 14.7324C17.0955 14.7324 17.4611 15.098 17.4611 15.5509C17.4611 16.0037 17.0955 16.3693 16.6426 16.3693C16.1898 16.3693 15.8242 16.0037 15.8242 15.5509C15.8242 15.098 16.1898 14.7324 16.6426 14.7324L16.6426 14.7324ZM7.91218 14.7324C8.36504 14.7324 8.73061 15.098 8.73061 15.5509C8.73061 16.0037 8.36504 16.3693 7.91218 16.3693C7.45932 16.3693 7.09375 16.0037 7.09375 15.5509C7.09375 15.098 7.45932 14.7324 7.91218 14.7324L7.91218 14.7324Z" id="Shape" fill="#252B3B" fill-rule="evenodd" stroke="none" />
    </g>
  </g>
</svg>