<?xml version="1.0" encoding="utf-8"?>
<svg width="15px" height="12px" viewbox="0 0 15 12" version="1.1" xmlns:xlink="http://www.w3.org/1999/xlink" xmlns="http://www.w3.org/2000/svg">
  <g id="Group">
    <g id="Group">
      <path d="M13.5 5.61369L7.34435 11.7693C7.03681 12.0769 6.53819 12.0769 6.23065 11.7693C5.92312 11.4618 5.92312 10.9632 6.23065 10.6557L12.3863 4.5L9.75 4.5C9.33579 4.5 9 4.16421 9 3.75C9 3.33579 9.33579 3 9.75 3L14.25 3C14.6642 3 15 3.33579 15 3.75L15 8.25C15 8.66421 14.6642 9 14.25 9C13.8358 9 13.5 8.66421 13.5 8.25L13.5 5.61369L13.5 5.61369ZM1.5 6.38631L7.65565 0.230654C7.96319 -0.0768844 8.46181 -0.0768844 8.76935 0.230654C9.07689 0.538191 9.07689 1.03681 8.76935 1.34435L2.61369 7.5L5.25 7.5C5.66421 7.5 6 7.83579 6 8.25C6 8.66421 5.66421 9 5.25 9L0.75 9C0.335786 9 0 8.66421 0 8.25L0 3.75C0 3.33579 0.335786 3 0.75 3C1.16421 3 1.5 3.33579 1.5 3.75L1.5 6.38631L1.5 6.38631Z" id="Shape" fill="#87909E" fill-rule="evenodd" stroke="none" />
    </g>
  </g>
</svg>