<?xml version="1.0" encoding="utf-8"?>
<svg width="32px" height="31px" viewBox="0 0 32 31" version="1.1" xmlns:xlink="http://www.w3.org/1999/xlink" xmlns="http://www.w3.org/2000/svg">
  <g id="Chat" transform="translate(0.25 0.25)">
    <path d="M20.7302 9.3368C21.1262 9.34027 21.5207 9.36409 21.9137 9.41173C22.6988 9.50652 23.4725 9.69211 24.2148 9.96406C25.4073 10.4008 26.5155 11.0608 27.4702 11.8979C28.499 12.8001 29.3465 13.9053 29.9485 15.134C30.3673 15.9895 30.6661 16.9031 30.8338 17.8405C31.0368 18.9759 31.0487 20.1456 30.8695 21.2845C30.738 22.1197 30.5028 22.9385 30.1708 23.7161C30.0051 24.1057 29.814 24.4838 29.6021 24.8505L30.9747 28.9684C30.9792 28.9863 30.9852 29.0041 30.9886 29.023C30.9956 29.0597 30.9971 29.0974 30.9936 29.1346C30.9901 29.1724 30.9817 29.2091 30.9678 29.2443C30.9127 29.3862 30.7787 29.4875 30.6264 29.5019C30.5892 29.5053 30.5514 29.5038 30.5147 29.4969C30.4959 29.4934 30.478 29.4875 30.4601 29.483L26.5294 28.1724C26.4534 28.2245 26.4534 28.224 26.3775 28.2751C26.2956 28.3292 26.2956 28.3292 26.2127 28.3828C26.0743 28.4702 25.9343 28.556 25.7919 28.6379C25.4768 28.818 25.1528 28.9818 24.8208 29.1282C23.8337 29.5629 22.7792 29.8403 21.7063 29.948C20.3252 30.0864 18.9179 29.9475 17.5929 29.5351C16.3568 29.15 15.197 28.5297 14.1891 27.7178C13.2061 26.9258 12.3694 25.9542 11.7332 24.8634C11.1814 23.9176 10.7819 22.8839 10.5551 21.812C10.3333 20.7629 10.2767 19.6796 10.3854 18.6127C10.4846 17.6356 10.7243 16.6733 11.096 15.7642C11.5838 14.5717 12.2969 13.4735 13.1862 12.5411C14.0879 11.5952 15.1682 10.8221 16.3558 10.2762C17.2237 9.87672 18.1472 9.59981 19.0916 9.4554C19.5898 9.37948 20.093 9.34126 20.5972 9.3368C20.6414 9.3363 20.686 9.3363 20.7302 9.3368L20.7302 9.3368ZM20.6024 10.1509C20.118 10.1553 19.6342 10.1936 19.1558 10.2695C18.2879 10.4079 17.4398 10.668 16.6438 11.0402C15.4662 11.5905 14.4057 12.3835 13.5432 13.3557C12.7542 14.2449 12.1329 15.2811 11.7235 16.3977C11.3965 17.2899 11.2064 18.2303 11.1583 19.1791C11.1101 20.1225 11.2009 21.0728 11.4312 21.9894C11.6853 23.0017 12.1081 23.9704 12.6768 24.8453C13.3105 25.8204 14.1233 26.6779 15.0627 27.3633C16.0294 28.0684 17.1276 28.589 18.2864 28.8872C19.526 29.2063 20.8296 29.2713 22.0956 29.0798C23.1015 28.9279 24.0816 28.6128 24.9877 28.1493C25.284 27.9975 25.5728 27.8302 25.8517 27.6486C25.9787 27.5657 26.1028 27.4794 26.2263 27.3916L26.273 27.3628C26.3172 27.3429 26.3276 27.3355 26.3752 27.3251C26.4288 27.3131 26.4849 27.3126 26.5385 27.3226C26.5564 27.326 26.5737 27.332 26.5916 27.3365L29.9457 28.4545L28.7716 24.9321L28.7587 24.8835C28.7527 24.8393 28.7488 24.8284 28.7513 24.7838C28.7537 24.7336 28.7652 24.684 28.7855 24.6384C28.7924 24.623 28.8009 24.6086 28.8088 24.5937C28.85 24.5257 28.8495 24.5257 28.8902 24.4572C29.0882 24.1143 29.2679 23.7615 29.4232 23.3972C29.7393 22.6563 29.9601 21.8748 30.0782 21.0778C30.2365 20.0143 30.2142 18.9236 30.0117 17.8675C29.8465 17.0075 29.5611 16.1709 29.1666 15.3893C28.6158 14.298 27.8531 13.316 26.9345 12.5105C26.069 11.7518 25.0676 11.1513 23.9898 10.7489C23.3079 10.4943 22.5973 10.3191 21.8757 10.2273C21.5145 10.1811 21.1512 10.1573 20.787 10.1514C20.7254 10.1509 20.6639 10.1509 20.6024 10.1509L20.6024 10.1509Z" id="Shape" fill="#EB8242" fill-rule="evenodd" stroke="#EB8242" stroke-width="0.5" />
    <path d="M10.3989 0C10.9027 0.00497923 11.4056 0.0428206 11.904 0.119001C12.8486 0.263395 13.7717 0.540234 14.6396 0.939559C15.8271 1.48527 16.9076 2.25852 17.8093 3.20456C18.6985 4.13714 19.412 5.23504 19.8995 6.42754C20.1997 7.16196 20.4138 7.93073 20.5373 8.71394C20.2625 8.71743 19.9896 8.73038 19.7193 8.75378C19.6232 8.1772 19.4738 7.60958 19.2726 7.06038C18.8633 5.94406 18.242 4.90741 17.4528 4.01814C16.5904 3.04622 15.5298 2.25305 14.3523 1.70286C13.5561 1.33092 12.7082 1.07051 11.8403 0.93209C11.3613 0.855909 10.8783 0.818068 10.3934 0.813587C10.3321 0.813089 10.2704 0.813587 10.2092 0.814085C9.84468 0.82006 9.48121 0.843959 9.12022 0.889767C8.39825 0.981881 7.68773 1.15665 7.00659 1.41108C5.92861 1.81389 4.92682 2.41437 4.06145 3.17319C3.1428 3.97881 2.38 4.96069 1.82931 6.05161C1.43447 6.83383 1.14917 7.67032 0.984357 8.53021C0.781708 9.58628 0.759302 10.6772 0.917637 11.7407C1.03614 12.5374 1.25671 13.3191 1.57289 14.06C1.72824 14.424 1.90748 14.777 2.10565 15.1196C2.14598 15.1883 2.14598 15.1883 2.18731 15.2565C2.19478 15.2714 2.20374 15.2859 2.21021 15.3008C2.23063 15.3466 2.24258 15.3964 2.24457 15.4467C2.24706 15.491 2.24308 15.502 2.2371 15.5463L2.22416 15.5946L1.05008 19.1173L4.40451 17.999C4.42194 17.9945 4.43936 17.9885 4.45729 17.9851C4.51106 17.9751 4.56683 17.9761 4.6206 17.9875C4.6684 17.998 4.67886 18.0055 4.72317 18.0254L4.76948 18.0538C4.89296 18.1419 5.01744 18.2285 5.1444 18.3112C5.42323 18.4929 5.71202 18.6602 6.00828 18.8121C6.91448 19.2751 7.89437 19.5908 8.90065 19.7427C9.16902 19.783 9.43988 19.8124 9.71124 19.8298C9.71523 20.1047 9.72917 20.3775 9.75307 20.6474C9.59822 20.6389 9.44387 20.6265 9.28951 20.611C8.21652 20.5035 7.16194 20.2262 6.17508 19.7915C5.84297 19.6451 5.51883 19.4813 5.20415 19.301C5.06175 19.2194 4.92134 19.1337 4.78292 19.0461C4.70027 18.9928 4.70027 18.9928 4.61811 18.9385C4.54193 18.8878 4.54193 18.8878 4.46675 18.836L0.53574 20.146C0.517317 20.151 0.49989 20.1569 0.481467 20.1604C0.444124 20.1669 0.406781 20.1689 0.368939 20.1654C0.217077 20.151 0.0831387 20.0494 0.0278706 19.9075C0.0144267 19.8721 0.00546452 19.8358 0.00197915 19.7979C-0.00150621 19.7606 0.000485292 19.7233 0.0069579 19.6859C0.0104437 19.6675 0.0164182 19.6496 0.0213975 19.6316L1.39364 15.5134C1.18203 15.147 0.990831 14.769 0.824528 14.3792C0.492919 13.6019 0.257905 12.7834 0.126457 11.9479C-0.053289 10.8087 -0.0413391 9.63906 0.161809 8.50383C0.329605 7.56626 0.628351 6.65259 1.04759 5.79718C1.64907 4.56833 2.49651 3.46347 3.5252 2.56125C4.48019 1.72427 5.58854 1.06453 6.78104 0.627368C7.52342 0.355011 8.29718 0.169788 9.08189 0.0746865C9.47474 0.0273853 9.86958 0.00398348 10.2654 0L10.3989 0L10.3989 0Z" id="Shape" fill="#EB8242" fill-rule="evenodd" stroke="#EB8242" stroke-width="0.5" />
  </g>
</svg>