<?xml version="1.0" encoding="utf-8"?>
<svg width="39px" height="39px" viewBox="0 0 39 39" version="1.1" xmlns:xlink="http://www.w3.org/1999/xlink" xmlns="http://www.w3.org/2000/svg">
  <defs>
    <path d="M18.999 0L19.001 0Q19.4674 0 19.9332 0.0228851Q20.3991 0.0457703 20.8632 0.0914854Q21.3274 0.1372 21.7887 0.205635Q22.2501 0.27407 22.7075 0.36506Q23.165 0.45605 23.6174 0.569376Q24.0698 0.682702 24.5161 0.818091Q24.9624 0.953479 25.4016 1.1106Q25.8407 1.26773 26.2716 1.44621Q26.7025 1.6247 27.1241 1.82411Q27.5457 2.02352 27.9571 2.24338Q28.3684 2.46324 28.7684 2.70301Q29.1685 2.94279 29.5563 3.20191Q29.9441 3.46103 30.3187 3.73886Q30.6933 4.01669 31.0538 4.31257Q31.4144 4.60845 31.7599 4.92167Q32.1055 5.23488 32.4353 5.56468Q32.7651 5.89447 33.0783 6.24005Q33.3915 6.58563 33.6874 6.94616Q33.9833 7.30669 34.2611 7.68131Q34.539 8.05592 34.7981 8.44372Q35.0572 8.83152 35.297 9.23156Q35.5368 9.63161 35.7566 10.0429Q35.9765 10.4543 36.1759 10.8759Q36.3753 11.2975 36.5538 11.7284Q36.7323 12.1593 36.8894 12.5984Q37.0465 13.0376 37.1819 13.4839Q37.3173 13.9302 37.4306 14.3826Q37.5439 14.835 37.6349 15.2925Q37.7259 15.7499 37.7944 16.2113Q37.8628 16.6726 37.9085 17.1368Q37.9542 17.6009 37.9771 18.0668Q38 18.5326 38 18.999L38 19.001Q38 19.4674 37.9771 19.9332Q37.9542 20.3991 37.9085 20.8632Q37.8628 21.3274 37.7944 21.7887Q37.7259 22.2501 37.6349 22.7075Q37.5439 23.165 37.4306 23.6174Q37.3173 24.0698 37.1819 24.5161Q37.0465 24.9624 36.8894 25.4016Q36.7323 25.8407 36.5538 26.2716Q36.3753 26.7025 36.1759 27.1241Q35.9765 27.5457 35.7566 27.9571Q35.5368 28.3684 35.297 28.7684Q35.0572 29.1685 34.7981 29.5563Q34.539 29.9441 34.2611 30.3187Q33.9833 30.6933 33.6874 31.0538Q33.3915 31.4144 33.0783 31.7599Q32.7651 32.1055 32.4353 32.4353Q32.1055 32.7651 31.7599 33.0783Q31.4144 33.3915 31.0538 33.6874Q30.6933 33.9833 30.3187 34.2611Q29.9441 34.539 29.5563 34.7981Q29.1685 35.0572 28.7684 35.297Q28.3684 35.5368 27.9571 35.7566Q27.5457 35.9765 27.1241 36.1759Q26.7025 36.3753 26.2716 36.5538Q25.8407 36.7323 25.4016 36.8894Q24.9624 37.0465 24.5161 37.1819Q24.0698 37.3173 23.6174 37.4306Q23.165 37.5439 22.7075 37.6349Q22.2501 37.7259 21.7887 37.7944Q21.3274 37.8628 20.8632 37.9085Q20.3991 37.9542 19.9332 37.9771Q19.4674 38 19.001 38L18.999 38Q18.5326 38 18.0668 37.9771Q17.6009 37.9542 17.1368 37.9085Q16.6726 37.8628 16.2113 37.7944Q15.7499 37.7259 15.2925 37.6349Q14.835 37.5439 14.3826 37.4306Q13.9302 37.3173 13.4839 37.1819Q13.0376 37.0465 12.5984 36.8894Q12.1593 36.7323 11.7284 36.5538Q11.2975 36.3753 10.8759 36.1759Q10.4543 35.9765 10.0429 35.7566Q9.63161 35.5368 9.23156 35.297Q8.83152 35.0572 8.44372 34.7981Q8.05592 34.539 7.68131 34.2611Q7.30669 33.9833 6.94616 33.6874Q6.58563 33.3915 6.24005 33.0783Q5.89447 32.7651 5.56468 32.4353Q5.23488 32.1055 4.92167 31.7599Q4.60845 31.4144 4.31257 31.0538Q4.01669 30.6933 3.73886 30.3187Q3.46103 29.9441 3.20191 29.5563Q2.94279 29.1685 2.70301 28.7684Q2.46324 28.3684 2.24338 27.9571Q2.02352 27.5457 1.82411 27.1241Q1.6247 26.7025 1.44621 26.2716Q1.26773 25.8407 1.1106 25.4016Q0.953479 24.9624 0.81809 24.5161Q0.682702 24.0698 0.569376 23.6174Q0.45605 23.165 0.36506 22.7075Q0.27407 22.2501 0.205635 21.7887Q0.1372 21.3274 0.0914854 20.8632Q0.0457703 20.3991 0.0228851 19.9332Q0 19.4674 0 19.001L0 18.999Q0 18.5326 0.0228851 18.0668Q0.0457703 17.6009 0.0914854 17.1368Q0.1372 16.6726 0.205635 16.2113Q0.27407 15.7499 0.36506 15.2925Q0.45605 14.835 0.569376 14.3826Q0.682702 13.9302 0.818091 13.4839Q0.953479 13.0376 1.1106 12.5984Q1.26773 12.1593 1.44621 11.7284Q1.6247 11.2975 1.82411 10.8759Q2.02352 10.4543 2.24338 10.0429Q2.46324 9.63161 2.70301 9.23156Q2.94279 8.83152 3.20191 8.44372Q3.46103 8.05592 3.73886 7.68131Q4.01669 7.30669 4.31257 6.94616Q4.60845 6.58563 4.92167 6.24005Q5.23488 5.89447 5.56468 5.56468Q5.89447 5.23488 6.24005 4.92167Q6.58563 4.60845 6.94616 4.31257Q7.30669 4.01669 7.68131 3.73886Q8.05592 3.46103 8.44372 3.20191Q8.83152 2.94279 9.23156 2.70301Q9.63161 2.46324 10.0429 2.24338Q10.4543 2.02352 10.8759 1.82411Q11.2975 1.6247 11.7284 1.44621Q12.1593 1.26773 12.5984 1.1106Q13.0376 0.953479 13.4839 0.81809Q13.9302 0.682702 14.3826 0.569376Q14.835 0.45605 15.2925 0.36506Q15.7499 0.27407 16.2113 0.205635Q16.6726 0.1372 17.1368 0.0914854Q17.6009 0.0457703 18.0668 0.0228851Q18.5326 0 18.999 0Z" id="path_1" />
    <clipPath id="clip_1">
      <use xlink:href="#path_1" />
    </clipPath>
  </defs>
  <g id="CTA-3" transform="translate(0.25 0.25)">
    <g id="Rectangle-3">
      <use stroke="none" fill="#EB8242" xlink:href="#path_1" fill-rule="evenodd" />
      <g clip-path="url(#clip_1)">
        <use xlink:href="#path_1" fill="none" stroke="#EB8242" stroke-width="2" />
      </g>
    </g>
    <g id="Chat" transform="translate(10.734375 11)">
      <path d="M11.0561 4.97969C11.2673 4.98154 11.4777 4.99425 11.6873 5.01966C12.106 5.07021 12.5186 5.16919 12.9146 5.31423C13.5505 5.54713 14.1415 5.89914 14.6508 6.34563C15.1994 6.82679 15.6515 7.41621 15.9725 8.07152C16.1959 8.5278 16.3552 9.01505 16.4447 9.51501C16.5529 10.1206 16.5593 10.7444 16.4637 11.3518C16.3936 11.7972 16.2681 12.2339 16.0911 12.6487C16.0027 12.8564 15.9008 13.0581 15.7878 13.2537L16.5198 15.4499C16.5222 15.4594 16.5254 15.4689 16.5272 15.479C16.5309 15.4986 16.5317 15.5187 16.5299 15.5385C16.528 15.5587 16.5235 15.5782 16.5161 15.597C16.4867 15.6727 16.4153 15.7267 16.334 15.7344C16.3142 15.7362 16.2941 15.7355 16.2745 15.7317C16.2644 15.7299 16.2549 15.7267 16.2454 15.7243L14.149 15.0254C14.1085 15.0531 14.1085 15.0529 14.068 15.0801C14.0243 15.109 14.0243 15.109 13.9801 15.1376C13.9063 15.1841 13.8316 15.2299 13.7557 15.2736C13.5876 15.3697 13.4148 15.457 13.2377 15.5351C12.7113 15.7669 12.1489 15.9149 11.5767 15.9723C10.8401 16.0462 10.0895 15.9721 9.38285 15.7521C8.72357 15.5467 8.10504 15.2159 7.56751 14.7829C7.0432 14.3605 6.59698 13.8423 6.25768 13.2606C5.96337 12.7561 5.75031 12.2048 5.62936 11.6331C5.51105 11.0736 5.48088 10.4959 5.53884 9.92683C5.59178 9.4057 5.71961 8.89251 5.91785 8.40764C6.17801 7.77165 6.55834 7.18595 7.03262 6.68864C7.51352 6.18419 8.08969 5.77184 8.72304 5.4807C9.18594 5.26765 9.67848 5.11996 10.1821 5.04295C10.4479 5.00245 10.7162 4.98207 10.9851 4.97969C11.0087 4.97943 11.0325 4.97943 11.0561 4.97969L11.0561 4.97969ZM10.9879 5.41382C10.7295 5.4162 10.4715 5.43658 10.2164 5.47707C9.75346 5.55092 9.30115 5.6896 8.87662 5.8881C8.24857 6.18161 7.68298 6.60455 7.22299 7.12303C6.80217 7.59731 6.47081 8.14993 6.25246 8.74543C6.07805 9.2213 5.97668 9.72285 5.951 10.2289C5.92533 10.732 5.97377 11.2389 6.09657 11.7277C6.23208 12.2676 6.45758 12.7842 6.76088 13.2508C7.09886 13.7709 7.53238 14.2283 8.0334 14.5938C8.54897 14.9698 9.13467 15.2475 9.75267 15.4065C10.4138 15.5767 11.1091 15.6114 11.7842 15.5092C12.3207 15.4282 12.8434 15.2602 13.3267 15.013C13.4847 14.932 13.6388 14.8428 13.7875 14.7459C13.8553 14.7017 13.9214 14.6557 13.9873 14.6088L14.0122 14.5935C14.0358 14.5829 14.0413 14.5789 14.0667 14.5734C14.0953 14.567 14.1252 14.5668 14.1538 14.5721C14.1633 14.5739 14.1726 14.5771 14.1821 14.5795L15.971 15.1758L15.3448 13.2972L15.3379 13.2712C15.3347 13.2477 15.3326 13.2418 15.3339 13.218C15.3353 13.1913 15.3414 13.1648 15.3522 13.1405C15.3559 13.1323 15.3604 13.1246 15.3646 13.1167C15.3866 13.0804 15.3863 13.0804 15.408 13.0439C15.5136 12.861 15.6095 12.6728 15.6923 12.4785C15.8609 12.0834 15.9787 11.6666 16.0417 11.2415C16.1261 10.6743 16.1142 10.0926 16.0062 9.52937C15.9181 9.07071 15.7659 8.62448 15.5555 8.20763C15.2617 7.62563 14.8549 7.10186 14.365 6.6723C13.9034 6.26763 13.3693 5.94738 12.7945 5.73274C12.4308 5.59697 12.0518 5.50354 11.667 5.45458C11.4743 5.42996 11.2806 5.41726 11.0863 5.41408C11.0535 5.41382 11.0207 5.41382 10.9879 5.41382L10.9879 5.41382Z" id="Shape" fill="#FFFFFF" fill-rule="evenodd" stroke="#FFFFFF" stroke-width="0.5" />
      <path d="M5.54606 0C5.8148 0.00265559 6.083 0.0228376 6.34882 0.0634672C6.85258 0.140477 7.34491 0.288125 7.80777 0.501098C8.44111 0.792143 9.01736 1.20455 9.49828 1.7091C9.97255 2.20648 10.3531 2.79202 10.6131 3.42802C10.7732 3.81971 10.8874 4.22972 10.9532 4.64744C10.8067 4.6493 10.6611 4.6562 10.5169 4.66868C10.4657 4.36117 10.386 4.05844 10.2787 3.76554C10.0605 3.17017 9.72904 2.61729 9.30814 2.14301C8.8482 1.62465 8.28258 1.20163 7.65455 0.90819C7.22993 0.709822 6.77769 0.570938 6.31483 0.497114C6.05937 0.456485 5.80179 0.436303 5.54314 0.433913C5.51047 0.433648 5.47755 0.433913 5.44488 0.434179C5.2505 0.437365 5.05664 0.450112 4.86412 0.474542C4.47907 0.52367 4.10012 0.616879 3.73685 0.752576C3.16193 0.967408 2.62764 1.28767 2.16611 1.69237C1.67616 2.12203 1.26933 2.6457 0.975633 3.22753C0.76505 3.64471 0.612889 4.09084 0.524991 4.54945C0.416911 5.11268 0.404961 5.69451 0.489407 6.26173C0.552608 6.68662 0.670248 7.10353 0.838874 7.49867C0.921726 7.69279 1.01733 7.88107 1.12301 8.06377C1.14452 8.10042 1.14452 8.10042 1.16657 8.1368C1.17055 8.14477 1.17533 8.15247 1.17878 8.16043C1.18967 8.18486 1.19604 8.21142 1.1971 8.23824C1.19843 8.26187 1.19631 8.26772 1.19312 8.29135L1.18622 8.31711L0.560044 10.1959L2.34907 9.59946C2.35837 9.59707 2.36766 9.59389 2.37722 9.59203C2.4059 9.58672 2.43564 9.58725 2.46432 9.59335C2.48981 9.59893 2.49539 9.60291 2.51902 9.61354L2.54372 9.62867C2.60958 9.67568 2.67597 9.72188 2.74368 9.76596C2.89239 9.86289 3.04641 9.95212 3.20442 10.0331C3.68772 10.2801 4.21033 10.4484 4.74701 10.5294C4.89014 10.5509 5.0346 10.5666 5.17933 10.5759C5.18145 10.7225 5.18889 10.868 5.20164 11.0119C5.11905 11.0074 5.03673 11.0008 4.95441 10.9926C4.38214 10.9352 3.8197 10.7873 3.29338 10.5555C3.11625 10.4774 2.94338 10.39 2.77555 10.2939C2.6996 10.2503 2.62471 10.2047 2.55089 10.1579C2.50681 10.1295 2.50681 10.1295 2.46299 10.1006C2.42236 10.0735 2.42236 10.0735 2.38227 10.0459L0.285728 10.7445C0.275902 10.7472 0.266608 10.7504 0.256782 10.7522C0.236866 10.7557 0.21695 10.7567 0.196768 10.7549C0.115774 10.7472 0.0443406 10.693 0.0148643 10.6173C0.00769426 10.5985 0.00291441 10.5791 0.00105555 10.5589C-0.000803311 10.539 0.000258822 10.5191 0.00371088 10.4992C0.00556999 10.4893 0.00875639 10.4798 0.011412 10.4702L0.743275 8.27382C0.630415 8.07838 0.528443 7.87682 0.439748 7.66889C0.26289 7.25437 0.13755 6.8178 0.0674437 6.3722C-0.0284208 5.76462 -0.0220475 5.14083 0.0862979 4.53537C0.175789 4.03534 0.33512 3.54805 0.558716 3.09183C0.879503 2.43645 1.33147 1.84718 1.88011 1.366C2.38944 0.919609 2.98056 0.567751 3.61655 0.334596C4.01249 0.189339 4.42516 0.0905533 4.84367 0.0398328C5.05319 0.0146055 5.26378 0.00212452 5.47489 0L5.54606 0L5.54606 0Z" id="Shape" fill="#FFFFFF" fill-rule="evenodd" stroke="#FFFFFF" stroke-width="0.5" />
    </g>
  </g>
</svg>