<?xml version="1.0" encoding="utf-8"?>
<svg width="32px" height="30px" viewBox="0 0 32 30" version="1.1" xmlns:xlink="http://www.w3.org/1999/xlink" xmlns="http://www.w3.org/2000/svg">
  <path d="M696.434 499.264C695.616 498.03 694.491 497.04 693.179 496.399L693.045 496.334L692.997 496.193C692.427 494.496 691.343 492.959 689.941 491.87C688.368 490.646 686.488 490 684.504 490C681.843 490 679.336 491.195 677.623 493.277L677.434 493.508L677.173 493.361C676.427 492.94 675.581 492.716 674.73 492.716C671.953 492.716 669.694 495.017 669.694 497.846C669.694 498.075 669.708 498.304 669.739 498.531L669.769 498.764L669.564 498.883C667.366 500.161 666 502.557 666 505.139C666 509.112 669.171 512.346 673.07 512.346L681.356 512.346L681.356 519.433C681.356 519.746 681.611 520 681.923 520C682.235 520 682.489 519.746 682.489 519.433L682.489 512.346L689.62 512.346C691.818 512.346 693.886 511.472 695.44 509.885C696.991 508.302 697.846 506.198 697.846 503.96C697.846 502.276 697.358 500.652 696.434 499.264L696.434 499.264ZM689.62 511.212L682.489 511.212L682.489 504.183L686.739 508.436C686.954 508.649 687.326 508.651 687.541 508.436C687.762 508.214 687.762 507.855 687.54 507.633L682.323 502.415C682.108 502.202 681.737 502.202 681.522 502.415L676.304 507.633C676.084 507.855 676.084 508.214 676.304 508.436C676.519 508.649 676.891 508.649 677.106 508.435L681.356 504.183L681.356 511.212L673.07 511.212C669.796 511.212 667.133 508.487 667.133 505.138C667.133 502.742 668.517 500.564 670.659 499.59L671.097 499.392L670.971 498.926C670.876 498.578 670.828 498.214 670.828 497.846C670.828 495.642 672.578 493.849 674.73 493.849C675.642 493.849 676.493 494.16 677.195 494.748L677.679 495.155L678.029 494.63C679.495 492.439 681.916 491.133 684.504 491.133C686.233 491.133 687.873 491.697 689.247 492.764C690.578 493.799 691.566 495.268 692.031 496.9L692.105 497.161L692.353 497.266C695.001 498.397 696.712 501.025 696.712 503.96C696.712 507.958 693.531 511.212 689.62 511.212L689.62 511.212Z" id="Shape" fill="#062441" fill-rule="evenodd" stroke="none" />
</svg>