<?xml version="1.0" encoding="utf-8"?>
<svg width="42px" height="42px" viewBox="0 0 42 42" version="1.1" xmlns:xlink="http://www.w3.org/1999/xlink" xmlns="http://www.w3.org/2000/svg">
  <g id="Group-5">
    <path d="M0 21C0 9.40202 9.40202 0 21 0C32.598 0 42 9.40202 42 21C42 32.598 32.598 42 21 42C9.40202 42 0 32.598 0 21Z" id="Ellipse" fill="#FEF5C9" fill-rule="evenodd" stroke="none" />
    <path d="M32.6668 24.507C32.6668 27.1296 30.5342 29.2623 27.9162 29.2623L14.2288 29.2623C11.5315 29.2623 9.3335 27.0643 9.3335 24.3623C9.3335 21.8469 11.2608 19.7516 13.7155 19.4996C13.9955 15.7336 17.1782 12.7376 21.0002 12.7376C24.9342 12.7376 28.1542 15.869 28.2988 19.7703C30.7395 19.9663 32.6668 22.0149 32.6668 24.507L32.6668 24.507Z" id="Shape" fill="#FFCF17" fill-rule="evenodd" stroke="none" />
  </g>
</svg>