<?xml version="1.0" encoding="utf-8"?>
<svg width="15px" height="15px" viewbox="0 0 15 15" version="1.1" xmlns:xlink="http://www.w3.org/1999/xlink" xmlns="http://www.w3.org/2000/svg">
  <g id="dashboard-line">
    <g id="Group">
      <path d="M0 0L15 0L15 15L0 15L0 0Z" id="Shape" fill="none" fill-rule="evenodd" stroke="none" />
      <path d="M6.25 11.25L6.25 5L11.25 5L11.25 11.25L6.25 11.25L6.25 11.25ZM0 6.25L0 0L5 0L5 6.25L0 6.25L0 6.25ZM3.75 5L3.75 1.25L1.25 1.25L1.25 5L3.75 5L3.75 5ZM0 11.25L0 7.5L5 7.5L5 11.25L0 11.25L0 11.25ZM1.25 10L3.75 10L3.75 8.75L1.25 8.75L1.25 10L1.25 10ZM7.5 10L10 10L10 6.25L7.5 6.25L7.5 10L7.5 10ZM6.25 0L11.25 0L11.25 3.75L6.25 3.75L6.25 0L6.25 0ZM7.5 1.25L7.5 2.5L10 2.5L10 1.25L7.5 1.25L7.5 1.25Z" transform="translate(1.875 1.875)" id="Shape" fill="#FFFFFF" fill-rule="evenodd" stroke="none" />
    </g>
  </g>
</svg>