<?xml version="1.0" encoding="utf-8"?>
<svg width="31px" height="31px" viewBox="0 0 31 31" version="1.1" xmlns:xlink="http://www.w3.org/1999/xlink" xmlns="http://www.w3.org/2000/svg">
  <g id="Group-9" transform="translate(0.375 0.375)">
    <path d="M14.6564 0C10.5881 0 7.27539 3.30179 7.27539 7.37008C7.27539 11.4384 10.5881 14.7402 14.6564 14.7402C18.7247 14.7402 22.0264 11.4384 22.0264 7.37008C22.0264 3.30179 18.7247 0 14.6564 0L14.6564 0ZM14.6561 0.697754C18.3473 0.697754 21.3284 3.67888 21.3284 7.37007C21.3284 11.0613 18.3473 14.0424 14.6561 14.0424C10.9649 14.0424 7.9729 11.0613 7.9729 7.37007C7.9729 3.67888 10.9649 0.697754 14.6561 0.697754L14.6561 0.697754ZM14.7325 2.91097C14.5528 2.93349 14.4201 3.08977 14.4272 3.27075L14.4272 3.97941C13.437 4.15886 12.661 4.8744 12.661 5.81103C12.661 6.39842 12.9452 6.86034 13.3369 7.14113C13.7287 7.42192 14.201 7.56529 14.678 7.69716C15.1361 7.82383 15.5425 7.96984 15.8009 8.15506C16.0593 8.34028 16.1934 8.51828 16.1934 8.90733C16.1934 9.52236 15.5359 10.0957 14.6343 10.0957C14.143 10.0957 13.4256 9.93569 13.2279 9.76863C13.1337 9.67958 12.9978 9.65016 12.8751 9.69223C12.7525 9.73429 12.6633 9.84091 12.6435 9.96907C12.6237 10.0972 12.6766 10.2258 12.7809 10.3028C13.2232 10.6767 13.8699 10.7766 14.4272 10.7935L14.4272 11.4694C14.4254 11.5952 14.4915 11.7123 14.6002 11.7757C14.7089 11.8391 14.8433 11.8391 14.952 11.7757C15.0606 11.7123 15.1267 11.5952 15.125 11.4694L15.125 10.7499C16.1122 10.5671 16.8912 9.84055 16.8912 8.90733C16.8912 8.31994 16.6069 7.86892 16.2152 7.58813C15.8235 7.30734 15.3402 7.16397 14.8633 7.03211C14.4051 6.90543 13.9987 6.75942 13.7403 6.5742C13.4819 6.38898 13.3588 6.20008 13.3588 5.81103C13.3588 5.196 14.0054 4.62266 14.9069 4.62266C15.3982 4.62266 16.1157 4.79358 16.3133 4.96064C16.4076 5.04968 16.5435 5.0791 16.6661 5.03703C16.7888 4.99497 16.878 4.88835 16.8978 4.7602C16.9175 4.63204 16.8646 4.5035 16.7603 4.42642C16.321 4.05506 15.6798 3.95559 15.125 3.9358L15.125 3.27075C15.129 3.16827 15.0877 3.06922 15.0121 2.99992C14.9365 2.93061 14.8342 2.89808 14.7325 2.91097L14.7325 2.91097ZM1.91105 7.16299C1.73531 7.16728 1.55993 7.20712 1.39863 7.28292C1.07602 7.43452 0.834852 7.78195 0.798994 8.19873L0.0249182 17.1388C-0.0680774 18.2197 0.0547656 19.6653 1.16968 20.7802L6.04309 25.6536C6.50178 26.1123 6.75679 26.4865 6.76265 27.0273L6.78445 29.3277C6.78628 29.4525 6.85455 29.5667 6.96352 29.6274C7.07249 29.6881 7.20558 29.6861 7.3126 29.622C7.41962 29.5579 7.48429 29.4415 7.48221 29.3168L7.46041 27.0164C7.45206 26.2461 7.05283 25.6712 6.5446 25.163L1.66029 20.2896C0.740915 19.3703 0.638431 18.1725 0.722677 17.1933L1.49675 8.25324C1.51576 8.03233 1.57693 7.9698 1.693 7.91526C1.80906 7.86072 2.01644 7.84959 2.24902 7.91526C2.71418 8.04661 3.22575 8.47406 3.35017 9.04912L4.14606 12.7015C4.16003 12.8352 4.24966 12.9491 4.37644 12.9941C4.50322 13.039 4.64456 13.0071 4.73971 12.912C4.83486 12.8169 4.86688 12.6756 4.82201 12.5488L4.03703 8.89649C3.84781 8.02197 3.1364 7.43754 2.43437 7.23931C2.25886 7.18975 2.08678 7.1587 1.91105 7.16299L1.91105 7.16299ZM27.4008 7.16299C27.2251 7.1587 27.053 7.18975 26.8775 7.23931C26.1754 7.43754 25.464 8.02197 25.2748 8.89649L24.4898 12.5488C24.445 12.6756 24.477 12.8169 24.5721 12.912C24.6673 13.0071 24.8086 13.039 24.9354 12.9941C25.0622 12.9491 25.1518 12.8352 25.1658 12.7015L25.9617 9.04912C26.0861 8.47406 26.5977 8.04661 27.0628 7.91526C27.2954 7.84959 27.5028 7.86072 27.6189 7.91526C27.7349 7.9698 27.7961 8.03233 27.8151 8.25324L28.5892 17.1933C28.6734 18.1725 28.5709 19.3703 27.6516 20.2896L22.7673 25.163C22.259 25.6712 21.8598 26.2461 21.8514 27.0164L21.8296 29.3168C21.8276 29.4415 21.8922 29.5579 21.9993 29.622C22.1063 29.6861 22.2394 29.6881 22.3483 29.6274C22.4573 29.5667 22.5256 29.4524 22.5274 29.3277L22.5492 27.0273C22.5551 26.4865 22.8101 26.1123 23.2688 25.6536L28.1422 20.7802C29.2571 19.6653 29.3799 18.2197 29.2869 17.1388L28.5129 8.19873C28.477 7.78195 28.2358 7.43452 27.9132 7.28292C27.7519 7.20712 27.5765 7.16729 27.4008 7.16299L27.4008 7.16299ZM4.61519 14.664C3.78104 14.7756 3.23915 15.477 3.02342 16.2013C2.81159 16.9125 2.87583 17.7279 3.42682 18.2073L3.44862 18.2291C3.45089 18.2326 3.44635 18.2383 3.44862 18.24L7.35171 22.1322C7.43554 22.2362 7.57141 22.2833 7.70161 22.2533C7.83181 22.2234 7.93347 22.1217 7.96342 21.9915C7.99337 21.8613 7.94635 21.7254 7.84232 21.6416L3.91743 17.7167C3.91048 17.7091 3.90321 17.7018 3.89562 17.6949C3.63808 17.4837 3.53953 16.9342 3.69938 16.3975C3.84293 15.9155 4.16686 15.5514 4.58248 15.4272L7.72239 18.5562C7.78233 18.62 7.86405 18.6589 7.95134 18.6652C10.4311 18.7914 12.1348 20.1819 12.2687 22.0559L12.8138 29.6767C12.8234 29.8016 12.8988 29.9118 13.0117 29.9658C13.1247 30.0199 13.2579 30.0095 13.361 29.9385C13.4642 29.8676 13.5216 29.747 13.5116 29.6222L12.9665 22.0123C12.8076 19.7882 10.7935 18.1985 8.14759 18.0002L4.90955 14.7621C4.83217 14.6852 4.72325 14.6489 4.61519 14.664L4.61519 14.664ZM24.5883 14.6635C24.5179 14.6764 24.4532 14.7106 24.403 14.7616L21.1649 17.9996C18.519 18.198 16.505 19.7877 16.3461 22.0117L15.8009 29.6217C15.7909 29.7464 15.8483 29.8671 15.9515 29.938C16.0547 30.0089 16.1879 30.0193 16.3008 29.9653C16.4137 29.9112 16.4892 29.801 16.4987 29.6762L17.0438 22.0553C17.1777 20.1813 18.8815 18.7908 21.3612 18.6647C21.4485 18.6583 21.5302 18.6194 21.5901 18.5556L24.7301 15.4266C25.1457 15.5508 25.4696 15.915 25.6132 16.397C25.773 16.9337 25.6745 17.4832 25.4169 17.6944C25.4093 17.7013 25.4021 17.7086 25.3951 17.7162L21.4702 21.641C21.3662 21.7249 21.3192 21.8607 21.3491 21.9909C21.3791 22.1211 21.4807 22.2228 21.6109 22.2528C21.7411 22.2827 21.877 22.2357 21.9608 22.1317L25.8639 18.2395L25.8639 18.2286L25.8857 18.2068C26.4367 17.7274 26.5009 16.912 26.2891 16.2007C26.0734 15.4764 25.5315 14.7751 24.6973 14.6635C24.6612 14.6578 24.6244 14.6578 24.5883 14.6635L24.5883 14.6635Z" id="Shape" fill="#EB8242" fill-rule="evenodd" stroke="#EB8242" stroke-width="0.75" />
  </g>
</svg>