<?xml version="1.0" encoding="utf-8"?>
<svg width="21px" height="26px" viewBox="0 0 21 26" version="1.1" xmlns:xlink="http://www.w3.org/1999/xlink" xmlns="http://www.w3.org/2000/svg">
  <defs>
    <filter id="filter_1">
      <feColorMatrix in="SourceGraphic" type="matrix" values="0 0 0 0 1 0 0 0 0 1 0 0 0 0 1 0 0 0 1 0" />
    </filter>
    <path d="M0 0L20 0L20 25L0 25L0 0Z" id="path_1" />
    <clipPath id="mask_1">
      <use xlink:href="#path_1" />
    </clipPath>
  </defs>
  <g id="noun_Donate_3349360" transform="translate(0.25 0.25)" filter="url(#filter_1)">
    <path d="M0 0L20 0L20 25L0 25L0 0Z" id="Background" fill="none" fill-rule="evenodd" stroke="none" />
    <g clip-path="url(#mask_1)">
      <path d="M9.06236 4.36312L4.6306 4.36312C4.45801 4.36312 4.3181 4.22321 4.3181 4.05062C4.3181 3.87803 4.45801 3.73812 4.6306 3.73812L9.06236 3.73812C9.35717 3.73894 9.62995 3.58213 9.7776 3.32695C9.92525 3.07177 9.92525 2.75714 9.77761 2.50195C9.62996 2.24677 9.35719 2.08995 9.06237 2.09078L5.87998 2.09078C5.80905 2.09059 5.74024 2.06651 5.68467 2.02242L4.79539 1.31075C3.89495 0.588124 2.66895 0.422105 1.60875 0.879232L0.435621 1.38277C0.277185 1.45086 0.0935459 1.37763 0.0254527 1.21919C-0.0426406 1.06075 0.0305972 0.877113 0.189034 0.80902L1.36216 0.305482C2.63434 -0.242311 4.10496 -0.0434887 5.18601 0.822451L5.98986 1.46574L9.06236 1.46574C9.86245 1.46574 10.511 2.11434 10.511 2.91443C10.511 3.71452 9.86245 4.36312 9.06236 4.36312L9.06236 4.36312Z" transform="translate(4.0625 10.8203125)" id="Shape" fill="#000000" fill-rule="evenodd" stroke="#808080" stroke-width="0.5" />
      <path d="M6.47954 6.83449C6.14574 6.83463 5.81412 6.78083 5.49749 6.67519L0.214892 4.91432C0.10853 4.8793 0.0290167 4.79007 0.00643253 4.68039C-0.0161517 4.57072 0.0216413 4.45733 0.105515 4.38314C0.189388 4.30895 0.306534 4.28527 0.412638 4.32107L5.69585 6.08193C6.38181 6.30825 7.13221 6.22586 7.75272 5.8561L13.9197 2.15676C14.1724 2.00543 14.325 1.73076 14.3201 1.43631C14.3152 1.14185 14.1536 0.8724 13.896 0.72953C13.6385 0.58666 13.3243 0.592103 13.0719 0.743806L10.4651 2.30754C10.3171 2.3962 10.1253 2.3481 10.0367 2.20012C9.94801 2.05214 9.9961 1.8603 10.1441 1.77165L12.7503 0.2079C13.1942 -0.0596178 13.7472 -0.0696123 14.2005 0.181689C14.6538 0.432991 14.9383 0.907303 14.9466 1.42553C14.9549 1.94376 14.6858 2.42694 14.2408 2.69265L8.07439 6.39199C7.59273 6.68138 7.04144 6.83433 6.47954 6.83449L6.47954 6.83449Z" transform="translate(4.1171875 11.603516)" id="Shape" fill="#000000" fill-rule="evenodd" stroke="#808080" stroke-width="0.5" />
      <path d="M3.4375 6.875L0.3125 6.875C0.139911 6.875 0 6.73509 0 6.5625C0 6.38991 0.139911 6.25 0.3125 6.25L3.125 6.25L3.125 0.625L0.3125 0.625C0.139911 0.625 0 0.485089 0 0.3125C0 0.139911 0.139911 0 0.3125 0L3.4375 0C3.5204 -4.76837e-05 3.59991 0.03286 3.65852 0.0914765C3.71714 0.150092 3.75005 0.229605 3.75 0.3125L3.75 6.5625C3.75005 6.64539 3.71714 6.72491 3.65853 6.78352C3.59991 6.84214 3.5204 6.87505 3.43751 6.875L3.4375 6.875Z" transform="translate(0.9375 10.3125)" id="Shape" fill="#000000" fill-rule="evenodd" stroke="#808080" stroke-width="0.5" />
      <path d="M0 0.625C0 0.279822 0.279822 0 0.625 0C0.970178 0 1.25 0.279822 1.25 0.625C1.25 0.970178 0.970178 1.25 0.625 1.25C0.279822 1.25 0 0.970178 0 0.625Z" transform="translate(1.25 11.5625)" id="Circle" fill="#000000" fill-rule="evenodd" stroke="#808080" stroke-width="0.5" />
      <path d="M4.375 8.75C1.95875 8.75 0 6.79125 0 4.375C0 1.95875 1.95875 0 4.375 0C6.79125 0 8.75 1.95876 8.75 4.375C8.74699 6.79018 6.78989 8.74716 4.37485 8.75L4.375 8.75ZM4.375 0.625C2.30393 0.625 0.625 2.30393 0.625 4.375C0.625 6.44607 2.30393 8.125 4.375 8.125C6.44607 8.125 8.125 6.44607 8.125 4.375C8.12263 2.30468 6.44494 0.627155 4.37481 0.625L4.375 0.625Z" transform="translate(6.5625 1.5625)" id="Shape" fill="#000000" fill-rule="evenodd" stroke="#808080" stroke-width="0.5" />
      <path d="M0.3125 1.19875C0.229605 1.1988 0.150092 1.16589 0.0914764 1.10727C0.03286 1.04866 -4.76837e-05 0.969145 0 0.88625L0 0.3125C0 0.139911 0.139911 0 0.3125 0C0.485089 0 0.625 0.139911 0.625 0.3125L0.625 0.88625C0.625049 0.969139 0.592142 1.04865 0.533528 1.10727C0.474913 1.16589 0.395401 1.1988 0.312506 1.19875L0.3125 1.19875Z" transform="translate(10.625 3.1582031)" id="Shape" fill="#000000" fill-rule="evenodd" stroke="#808080" stroke-width="0.5" />
      <path d="M0.3125 1.19875C0.229605 1.1988 0.150092 1.16589 0.0914764 1.10727C0.03286 1.04866 -4.76837e-05 0.969145 0 0.88625L0 0.3125C0 0.139911 0.139911 0 0.3125 0C0.485089 0 0.625 0.139911 0.625 0.3125L0.625 0.88625C0.625049 0.969139 0.592142 1.04865 0.533528 1.10727C0.474913 1.16589 0.395401 1.1988 0.312505 1.19875L0.3125 1.19875Z" transform="translate(10.625 7.517578)" id="Shape" fill="#000000" fill-rule="evenodd" stroke="#808080" stroke-width="0.5" />
      <path d="M1.31608 4.35546C0.620935 4.38417 0.0330585 3.84619 0.00015676 3.15124C0.000157356 2.97865 0.140068 2.83874 0.312657 2.83874C0.485246 2.83874 0.625157 2.97865 0.625157 3.15124C0.684545 3.48631 0.975787 3.73047 1.31608 3.73047C1.65636 3.73047 1.94761 3.48631 2.00699 3.15124C2.01757 2.89895 1.85295 2.67262 1.60966 2.60499L0.824745 2.34374C0.327413 2.18904 -0.00839055 1.72498 0.000157356 1.20421C0.0607056 0.52257 0.631752 0 1.31608 0C2.0004 0 2.57144 0.522569 2.63199 1.20421C2.63166 1.37656 2.49184 1.5161 2.31949 1.5161C2.14714 1.5161 2.00733 1.37656 2.00699 1.20421C1.9476 0.869144 1.65636 0.624986 1.31608 0.624986C0.975788 0.624986 0.684547 0.869144 0.625157 1.20421C0.614579 1.4565 0.779207 1.68283 1.0225 1.75046L1.80741 2.01171C2.30474 2.16641 2.64054 2.63047 2.63199 3.15123C2.59909 3.84619 2.01122 4.38417 1.31607 4.35546L1.31608 4.35546Z" transform="translate(9.621094 3.7597656)" id="Shape" fill="#000000" fill-rule="evenodd" stroke="#808080" stroke-width="0.5" />
    </g>
  </g>
</svg>