<?xml version="1.0" encoding="utf-8"?>
<svg width="17px" height="17px" viewBox="0 0 17 17" version="1.1" xmlns:xlink="http://www.w3.org/1999/xlink" xmlns="http://www.w3.org/2000/svg">
  <g id="Group" transform="translate(0.375 0.375)">
    <path d="M7.81666 0C5.6469 0 3.88013 1.76096 3.88013 3.93071C3.88013 6.10047 5.6469 7.86143 7.81666 7.86143C9.98641 7.86143 11.7474 6.10047 11.7474 3.93071C11.7474 1.76096 9.98641 0 7.81666 0L7.81666 0ZM7.81659 0.37207C9.78523 0.37207 11.3752 1.96201 11.3752 3.93064C11.3752 5.89928 9.78523 7.48922 7.81659 7.48922C5.84795 7.48922 4.2522 5.89928 4.2522 3.93064C4.2522 1.96201 5.84795 0.37207 7.81659 0.37207L7.81659 0.37207ZM7.85727 1.5525C7.76142 1.56451 7.6907 1.64786 7.69446 1.74439L7.69446 2.12234C7.16635 2.21805 6.75248 2.59966 6.75248 3.0992C6.75248 3.41248 6.90408 3.65884 7.11299 3.80859C7.3219 3.95835 7.57384 4.03481 7.82819 4.10514C8.07254 4.1727 8.2893 4.25057 8.4271 4.34936C8.56491 4.44814 8.63643 4.54307 8.63643 4.75057C8.63643 5.07858 8.28574 5.38437 7.80494 5.38437C7.54291 5.38437 7.16026 5.29903 7.05484 5.20993C7.00457 5.16244 6.93211 5.14674 6.86669 5.16918C6.80127 5.19162 6.75369 5.24848 6.74315 5.31683C6.7326 5.38517 6.76083 5.45373 6.81644 5.49484C7.05232 5.69422 7.39721 5.74751 7.69446 5.7565L7.69446 6.11701C7.69351 6.18412 7.72876 6.24653 7.78672 6.28036C7.84468 6.31419 7.91637 6.31419 7.97433 6.28036C8.03229 6.24653 8.06754 6.18412 8.0666 6.11701L8.0666 5.73325C8.59315 5.63577 9.00857 5.24829 9.00857 4.75057C9.00857 4.43729 8.85698 4.19675 8.64806 4.04699C8.43915 3.89724 8.1814 3.82077 7.92704 3.75044C7.6827 3.68288 7.46594 3.60501 7.32813 3.50623C7.19032 3.40744 7.12462 3.3067 7.12462 3.0992C7.12462 2.77119 7.46949 2.4654 7.9503 2.4654C8.21233 2.4654 8.59498 2.55656 8.70039 2.64566C8.75067 2.69315 8.82313 2.70884 8.88855 2.6864C8.95397 2.66397 9.00154 2.60711 9.01209 2.53876C9.02264 2.47041 8.99441 2.40185 8.9388 2.36074C8.70448 2.16268 8.36252 2.10963 8.0666 2.09908L8.0666 1.74439C8.06873 1.68973 8.04671 1.6369 8.00639 1.59994C7.96607 1.56298 7.91153 1.54563 7.85727 1.5525L7.85727 1.5525ZM1.01923 3.82028C0.925502 3.82257 0.831966 3.84381 0.745938 3.88424C0.57388 3.9651 0.445255 4.15039 0.426131 4.37267L0.0132897 9.1407C-0.036308 9.71722 0.0292084 10.4882 0.62383 11.0828L3.22299 13.682C3.46762 13.9266 3.60363 14.1262 3.60675 14.4146L3.61838 15.6415C3.61936 15.708 3.65577 15.769 3.71389 15.8013C3.772 15.8337 3.84299 15.8326 3.90006 15.7984C3.95714 15.7642 3.99163 15.7022 3.99052 15.6357L3.97889 14.4088C3.97444 13.998 3.76152 13.6913 3.49046 13.4203L0.88549 10.8211C0.395155 10.3308 0.340497 9.69205 0.385428 9.16977L0.79827 4.40175C0.808407 4.28393 0.841033 4.25058 0.902934 4.22149C0.964834 4.1924 1.07544 4.18647 1.19948 4.22149C1.44757 4.29154 1.7204 4.51952 1.78676 4.82622L2.21123 6.77413C2.21868 6.84548 2.26649 6.9062 2.33411 6.93019C2.40172 6.95417 2.4771 6.93715 2.52785 6.88644C2.5786 6.83573 2.59568 6.76036 2.57174 6.69273L2.15309 4.74481C2.05217 4.2784 1.67275 3.9667 1.29833 3.86098C1.20473 3.83455 1.11295 3.81799 1.01923 3.82028L1.01923 3.82028ZM14.6139 3.82028C14.5202 3.81799 14.4284 3.83455 14.3348 3.86098C13.9604 3.9667 13.581 4.2784 13.48 4.74481L13.0614 6.69272C13.0374 6.76036 13.0545 6.83572 13.1053 6.88644C13.156 6.93715 13.2314 6.95417 13.299 6.93018C13.3666 6.9062 13.4144 6.84548 13.4219 6.77413L13.8464 4.82622C13.9127 4.51952 14.1856 4.29154 14.4336 4.22149C14.5577 4.18647 14.6683 4.1924 14.7302 4.22149C14.7921 4.25058 14.8247 4.28392 14.8349 4.40175L15.2477 9.16977C15.2926 9.69205 15.238 10.3308 14.7476 10.8211L12.1427 13.4203C11.8716 13.6913 11.6587 13.998 11.6542 14.4088L11.6426 15.6357C11.6415 15.7022 11.676 15.7642 11.7331 15.7984C11.7901 15.8326 11.8611 15.8337 11.9192 15.8013C11.9774 15.769 12.0138 15.708 12.0147 15.6415L12.0264 14.4146C12.0295 14.1262 12.1655 13.9266 12.4101 13.682L15.0093 11.0828C15.6039 10.4882 15.6694 9.71721 15.6198 9.1407L15.207 4.37267C15.1879 4.15039 15.0592 3.96509 14.8872 3.88424C14.8012 3.84381 14.7076 3.82257 14.6139 3.82028L14.6139 3.82028ZM2.46143 7.82064C2.01656 7.88017 1.72755 8.25421 1.61249 8.64051C1.49951 9.01985 1.53378 9.45473 1.82764 9.71041L1.83926 9.72204C1.84047 9.7239 1.83806 9.72692 1.83926 9.72785L3.92092 11.8037C3.96562 11.8592 4.03809 11.8843 4.10753 11.8683C4.17697 11.8523 4.23119 11.7981 4.24716 11.7286C4.26314 11.6592 4.23806 11.5867 4.18258 11.542L2.0893 9.44875C2.08559 9.44471 2.08171 9.44082 2.07767 9.43712C1.94031 9.32449 1.88775 9.03143 1.973 8.74518C2.04956 8.48812 2.22232 8.29391 2.44399 8.22767L4.11861 9.89648C4.15058 9.93049 4.19417 9.95125 4.24072 9.95463C5.56325 10.0219 6.47191 10.7635 6.54333 11.763L6.83406 15.8274C6.83913 15.894 6.87938 15.9528 6.9396 15.9816C6.99983 16.0104 7.07087 16.0049 7.12589 15.9671C7.18091 15.9293 7.21154 15.8649 7.2062 15.7984L6.91547 11.7397C6.83071 10.5536 5.75655 9.70573 4.34539 9.59993L2.61843 7.87298C2.57716 7.83194 2.51907 7.81258 2.46143 7.82064L2.46143 7.82064ZM13.1137 7.82064C13.0762 7.82754 13.0417 7.84581 13.0149 7.87298L11.2879 9.59993C9.87677 9.70573 8.8026 10.5536 8.71784 11.7397L8.42711 15.7984C8.42178 15.8649 8.4524 15.9293 8.50743 15.9671C8.56245 16.0049 8.63348 16.0104 8.69371 15.9816C8.75394 15.9528 8.79418 15.894 8.79925 15.8274L9.08998 11.763C9.1614 10.7635 10.0701 10.0219 11.3926 9.95463C11.4391 9.95124 11.4827 9.93049 11.5147 9.89648L13.1893 8.22767C13.411 8.29391 13.5838 8.48812 13.6603 8.74518C13.7456 9.03142 13.693 9.32449 13.5556 9.43712C13.5516 9.44082 13.5477 9.4447 13.544 9.44875L11.4507 11.542C11.3953 11.5867 11.3702 11.6592 11.3861 11.7286C11.4021 11.7981 11.4563 11.8523 11.5258 11.8683C11.5952 11.8843 11.6677 11.8592 11.7124 11.8037L13.794 9.72785L13.794 9.72204L13.8057 9.71041C14.0995 9.45473 14.1338 9.01985 14.0208 8.64051C13.9058 8.25421 13.6168 7.88017 13.1719 7.82064C13.1526 7.8176 13.133 7.8176 13.1137 7.82064L13.1137 7.82064Z" id="Shape" fill="#FFFFFF" fill-rule="evenodd" stroke="#FFFFFF" stroke-width="0.75" />
  </g>
</svg>