<?xml version="1.0" encoding="utf-8"?>
<svg width="14px" height="14px" viewBox="0 0 14 14" version="1.1" xmlns:xlink="http://www.w3.org/1999/xlink" xmlns="http://www.w3.org/2000/svg">
  <g id="Group-3" transform="translate(0.25 0.25)">
    <g id="Group">
      <g id="Group">
        <path d="M6.75002 0.798431C10.0316 0.798431 12.7016 3.46841 12.7016 6.74999C12.7016 10.0316 10.0316 12.7008 6.75002 12.7008C3.46844 12.7008 0.798462 10.0308 0.798462 6.74919C0.798462 3.46761 3.46844 0.798431 6.75002 0.798431M6.75 0C3.02209 0 0 3.02209 0 6.75C0 10.4779 3.02209 13.5 6.75 13.5C10.4779 13.5 13.5 10.4779 13.5 6.75C13.5 3.02209 10.4779 0 6.75 0L6.75 0L6.75 0Z" id="Shape" fill="#87909E" fill-rule="evenodd" stroke="#87909E" stroke-width="0.5" />
      </g>
    </g>
    <g id="Group-2" transform="translate(4.7996826 2.2398376)">
      <g id="Group">
        <path d="M1.62961 8.74689L1.62961 7.6706C1.01162 7.66022 0.372871 7.4678 0 7.20192L0.2555 6.48811C0.639549 6.74361 1.19367 6.94642 1.7893 6.94642C2.54622 6.94642 3.05722 6.50967 3.05722 5.90206C3.05722 5.3168 2.64123 4.95431 1.85318 4.63494C0.7665 4.20857 0.0950138 3.71833 0.0950138 2.79214C0.0950138 1.90747 0.724183 1.23678 1.70387 1.07709L1.70387 0L2.36418 0L2.36418 1.03318C3.00293 1.05474 3.44047 1.2248 3.74947 1.40605L3.48279 2.10947C3.25923 1.98093 2.82248 1.74698 2.14061 1.74698C1.32062 1.74698 1.01162 2.23722 1.01162 2.66279C1.01162 3.21691 1.40605 3.49397 2.33224 3.87722C3.43009 4.32514 3.98421 4.87846 3.98421 5.827C3.98421 6.66856 3.39816 7.45662 2.3003 7.63786L2.3003 8.7461L1.62961 8.7461L1.62961 8.74689Z" id="Shape" fill="#87909E" fill-rule="evenodd" stroke="#87909E" stroke-width="0.5" />
      </g>
    </g>
  </g>
</svg>