<?xml version="1.0" encoding="utf-8"?>
<svg width="12px" height="17px" viewBox="0 0 12 17" version="1.1" xmlns:xlink="http://www.w3.org/1999/xlink" xmlns="http://www.w3.org/2000/svg">
  <g id="Group-2" transform="translate(0.125 0.125)">
    <path d="M11.2993 0.755513C11.2993 0.338914 10.9604 0 10.5438 0L0.755513 0C0.338929 0 0 0.338914 0 0.755513L0 15.2445C0 15.6611 0.338929 16 0.755513 16L9.03237 16C9.09928 16.0001 9.16525 15.9725 9.21199 15.9247L11.2271 13.8738C11.2729 13.827 11.2991 13.7629 11.2993 13.6973L11.2993 0.755513L11.2993 0.755513ZM0.503662 15.2445L0.503662 0.7555C0.503662 0.616639 0.616639 0.503662 0.7555 0.503662L10.5438 0.503662C10.6826 0.503662 10.7956 0.616639 10.7956 0.7555L10.7956 13.4455L9.22123 13.4455C8.97822 13.4455 8.78052 13.6432 8.78052 13.8862L8.78052 15.4963L0.7555 15.4963C0.616639 15.4963 0.503662 15.3833 0.503662 15.2445L0.503662 15.2445ZM9.28418 15.1326L9.28418 13.9492L10.4469 13.9492L9.28418 15.1326L9.28418 15.1326Z" id="Shape" fill="#87909E" fill-rule="evenodd" stroke="#87909E" stroke-width="0.25" />
    <path d="M5.64963 8.82441C7.00357 8.82441 8.10505 7.72291 8.10505 6.36899C8.10505 5.01507 7.00357 3.91357 5.64963 3.91357C4.69358 3.91357 3.8176 4.47546 3.418 5.34506C3.15858 5.90396 3.12367 6.558 3.31932 7.14266C3.65316 8.14856 4.58964 8.82441 5.64963 8.82441L5.64963 8.82441ZM3.87567 5.55535C4.19339 4.86398 4.8897 4.41724 5.64964 4.41724C6.72583 4.41724 7.60139 5.29278 7.60139 6.36898C7.60139 7.44517 6.72583 8.32072 5.64964 8.32072C4.80709 8.32072 4.06272 7.78353 3.79737 6.98398C3.64186 6.51933 3.66955 5.99946 3.87567 5.55535L3.87567 5.55535Z" id="Shape" fill="#87909E" fill-rule="evenodd" stroke="#87909E" stroke-width="0.25" />
    <path d="M5.33691 7.4112C5.38405 7.45614 5.4464 7.48073 5.51063 7.48073C5.52232 7.48073 5.53406 7.47992 5.54579 7.47827C5.622 7.46753 5.68912 7.42252 5.72801 7.35611L6.73459 5.63617C6.80484 5.51613 6.7645 5.36186 6.64446 5.29162C6.52435 5.22133 6.37015 5.26175 6.2999 5.38175L5.45404 6.82705L4.95585 6.35226C4.8552 6.2563 4.69577 6.26014 4.59981 6.36081C4.50385 6.4615 4.50768 6.62091 4.60836 6.71686L5.33691 7.4112L5.33691 7.4112Z" id="Shape" fill="#87909E" fill-rule="evenodd" stroke="#87909E" stroke-width="0.25" />
    <path d="M2.26697 10.4761L9.0324 10.4761C9.17148 10.4761 9.28424 10.3633 9.28424 10.2242C9.28424 10.0852 9.17148 9.97241 9.0324 9.97241L2.26697 9.97241C2.12788 9.97241 2.01514 10.0852 2.01514 10.2242C2.01514 10.3633 2.12788 10.4761 2.26697 10.4761L2.26697 10.4761Z" id="Shape" fill="#87909E" fill-rule="evenodd" stroke="#87909E" stroke-width="0.25" />
    <path d="M9.0324 12.0864C9.17148 12.0864 9.28424 11.9737 9.28424 11.8346C9.28424 11.6955 9.17148 11.5828 9.0324 11.5828L2.26697 11.5828C2.12788 11.5828 2.01514 11.6955 2.01514 11.8346C2.01514 11.9737 2.12788 12.0864 2.26697 12.0864L9.0324 12.0864L9.0324 12.0864Z" id="Shape" fill="#87909E" fill-rule="evenodd" stroke="#87909E" stroke-width="0.25" />
  </g>
</svg>