<?xml version="1.0" encoding="utf-8"?>
<svg width="18px" height="18px" viewbox="0 0 18 18" version="1.1" xmlns:xlink="http://www.w3.org/1999/xlink" xmlns="http://www.w3.org/2000/svg">
  <path d="M17.0086 0L0.991394 0C0.443863 7.38646e-07 7.38646e-07 0.443863 7.38646e-07 0.991395L0 17.0086C7.38646e-07 17.5561 0.443862 18 0.991393 18L9.61575 18L9.61575 11.0293L7.25732 11.0293L7.25732 8.31842L9.60413 8.31842L9.60413 6.30852C9.60413 3.98494 11.0215 2.71859 13.0895 2.71859C13.7894 2.71538 14.4888 2.75158 15.1846 2.82702L15.1846 5.25516L13.7672 5.25516C12.6364 5.25516 12.4195 5.79346 12.4195 6.5796L12.4195 8.31454L15.1304 8.31454L14.778 11.0254L12.4544 11.0254L12.4544 17.9961L17.0086 17.9961C17.5561 17.9961 18 17.5523 18 17.0047L18 0.991394C18 0.443864 17.5561 1.47729e-06 17.0086 7.38646e-07L17.0086 0Z" id="Facebook-2" fill="#252B3B" fill-rule="evenodd" stroke="none" />
</svg>