<?xml version="1.0" encoding="utf-8"?>
<svg width="91px" height="91px" viewBox="0 0 91 91" version="1.1" xmlns:xlink="http://www.w3.org/1999/xlink" xmlns="http://www.w3.org/2000/svg">
  <g id="Group" transform="translate(0.5 0.5)">
    <path d="M0 45C0 20.1472 20.1472 0 45 0C69.8528 0 90 20.1472 90 45C90 69.8528 69.8528 90 45 90C20.1472 90 0 69.8528 0 45Z" id="Ellipse" fill="#5A6978" fill-rule="evenodd" stroke="none" />
    <g id="Group" transform="translate(26.194092 20)">
      <path d="M0.0552304 49.9944L0 45.2998C0 34.9331 8.42261 26.5105 18.7783 26.5105C29.1339 26.5105 37.5566 34.9331 37.5566 45.2888L37.6118 49.9723L35.4026 49.9999L35.3473 45.3053C35.3473 36.1537 27.9134 28.7252 18.7783 28.7252C9.6432 28.7252 2.20921 36.1592 2.20921 45.2943L2.26444 49.9778L0.0552304 49.9944L0.0552304 49.9944Z" id="Shape" fill="#FFFFFF" fill-rule="evenodd" stroke="none" />
      <path d="M19.0544 23.749C12.5096 23.749 7.17993 18.4193 7.17993 11.8745C7.17993 5.32972 12.5096 0 19.0544 0C25.6047 0 30.9289 5.32972 30.9289 11.8745C30.9289 18.4193 25.6047 23.749 19.0544 23.749L19.0544 23.749ZM19.0544 2.20923C13.7247 2.20923 9.38916 6.5448 9.38916 11.8745C9.38916 17.2042 13.7247 21.5398 19.0544 21.5398C24.3842 21.5398 28.7197 17.2042 28.7197 11.8745C28.7197 6.5448 24.3842 2.20923 19.0544 2.20923L19.0544 2.20923Z" id="Shape" fill="#FFFFFF" fill-rule="evenodd" stroke="none" />
    </g>
  </g>
</svg>