<?xml version="1.0" encoding="utf-8"?>
<svg width="91px" height="91px" viewBox="0 0 91 91" version="1.1" xmlns:xlink="http://www.w3.org/1999/xlink" xmlns="http://www.w3.org/2000/svg">
  <g id="Group" transform="translate(0.5 0.5)">
    <path d="M0 45C0 20.1472 20.1472 0 45 0C69.8528 0 90 20.1472 90 45C90 69.8528 69.8528 90 45 90C20.1472 90 0 69.8528 0 45Z" id="Ellipse" fill="#5A6978" fill-rule="evenodd" stroke="none" />
    <g id="Group-2" transform="translate(20 20)">
      <path d="M25 3.44909e-06C11.215 3.44909e-06 0 11.2146 0 24.9989C0 38.7839 11.2146 50 25 50C38.785 50 50 38.7841 50 24.9989C50 11.215 38.785 0 25 0L25 3.44909e-06ZM25 45.5697C13.6584 45.5697 4.43036 36.3418 4.43036 24.9989C4.43036 13.6574 13.6574 4.43042 25 4.43042C36.3415 4.43042 45.5696 13.6575 45.5696 24.9989C45.5696 36.3416 36.3418 45.5697 25 45.5697L25 45.5697Z" id="Shape" fill="#FFFFFF" fill-rule="evenodd" stroke="none" />
      <path d="M27.396 22.992L27.396 16.9197C28.746 17.318 29.6895 17.997 30.4506 18.5546L33.0492 14.9666C31.9861 14.187 30.1924 12.8767 27.3956 12.3667L27.3956 9.8092L22.9653 9.8092L22.9653 12.3327C21.3791 12.6139 19.9659 13.2289 18.754 14.1852C16.916 15.6315 15.9444 17.5873 15.9444 19.8429C15.9444 24.6449 20.1646 26.3345 22.9653 26.927L22.9653 33.1567C21.5711 32.7996 20.4705 32.1206 19.5483 31.4447L16.9285 35.0181C17.8039 35.66 19.8829 37.1773 22.9653 37.6802L22.9653 39.8775L27.3956 39.8775L27.3956 37.5976C28.8348 37.2908 30.1266 36.6974 31.248 35.815C33.0854 34.37 34.0567 32.4137 34.0567 30.1578C34.0576 26.9958 31.9738 23.8136 27.396 22.9921L27.396 22.992ZM20.3751 19.8434C20.3751 18.9472 20.7199 18.2761 21.4961 17.6659C21.9322 17.3224 22.4232 17.0677 22.9662 16.8889L22.9662 22.3982C21.5393 21.9845 20.3751 21.2252 20.3751 19.8434L20.3751 19.8434ZM28.5082 32.3343C28.1722 32.5996 27.7943 32.7974 27.3961 32.9647L27.3961 27.5406C28.8234 27.9936 29.6264 28.9036 29.6264 30.1582C29.6273 31.0544 29.2829 31.7254 28.5081 32.3343L28.5082 32.3343Z" id="Shape" fill="#FFFFFF" fill-rule="evenodd" stroke="none" />
    </g>
  </g>
</svg>