<?xml version="1.0" encoding="utf-8"?>
<svg width="91px" height="91px" viewBox="0 0 91 91" version="1.1" xmlns:xlink="http://www.w3.org/1999/xlink" xmlns="http://www.w3.org/2000/svg">
  <g id="Group" transform="translate(0.5 0.5)">
    <path d="M0 45C0 20.1472 20.1472 0 45 0C69.8528 0 90 20.1472 90 45C90 69.8528 69.8528 90 45 90C20.1472 90 0 69.8528 0 45Z" id="Ellipse" fill="#5A6978" fill-rule="evenodd" stroke="none" />
    <path d="M68.9208 32.0979L30.4425 32.0979L28.6879 26.8266C28.5759 26.4869 28.3033 26.2255 27.9599 26.1285L21.3782 24.2544C20.807 24.0827 20.206 24.4224 20.0417 24.9936C19.8774 25.5685 20.2134 26.1695 20.7846 26.3301L26.8138 28.0511L34.2056 50.2115L33.0781 53.8402C29.8116 53.8775 27.1647 56.5393 27.1647 59.8133C27.1647 63.1098 29.8452 65.7902 33.1416 65.7902C36.0684 65.7902 38.4988 63.6735 39.0102 60.8922L51.5576 60.8922C52.069 63.6735 54.4994 65.7902 57.4262 65.7902C60.7226 65.7902 63.4031 63.106 63.4031 59.8133C63.4031 56.5169 60.7226 53.8364 57.4262 53.8364C54.4994 53.8364 52.069 55.9532 51.5576 58.7344L39.0102 58.7344C38.6257 56.6513 37.1623 54.9564 35.221 54.2322L36.1356 51.2867L62.9103 51.2867C64.3364 51.2867 65.4676 50.2488 65.5534 48.8899L69.9586 33.4792C70.052 33.1507 69.9848 32.7997 69.7832 32.531C69.5816 32.2547 69.2605 32.0979 68.9208 32.0979L68.9208 32.0979ZM57.4299 55.9978C59.5355 55.9978 61.2453 57.7076 61.2453 59.8132C61.2453 61.9187 59.5355 63.6285 57.4299 63.6285C55.3244 63.6285 53.6146 61.9187 53.6146 59.8132C53.6146 57.7076 55.3244 55.9978 57.4299 55.9978L57.4299 55.9978ZM36.9607 59.8132C36.9607 61.9187 35.2508 63.6285 33.1453 63.6285C31.0398 63.6285 29.33 61.9187 29.33 59.8132C29.33 57.7076 31.0398 55.9978 33.1453 55.9978C35.2508 55.9978 36.9607 57.7076 36.9607 59.8132L36.9607 59.8132ZM63.4404 48.4159C63.4143 48.513 63.3993 48.6138 63.3993 48.7146C63.3993 49.0356 63.0932 49.1215 62.914 49.1215L36.1356 49.1215L31.484 34.2595L67.4835 34.2595L63.4404 48.4159L63.4404 48.4159Z" id="Shape" fill="#FFFFFF" fill-rule="evenodd" stroke="none" />
  </g>
</svg>