<?xml version="1.0" encoding="utf-8"?>
<svg width="91px" height="91px" viewBox="0 0 91 91" version="1.1" xmlns:xlink="http://www.w3.org/1999/xlink" xmlns="http://www.w3.org/2000/svg">
  <g id="Group" transform="translate(0.5 0.5)">
    <path d="M0 45C0 20.1472 20.1472 0 45 0C69.8528 0 90 20.1472 90 45C90 69.8528 69.8528 90 45 90C20.1472 90 0 69.8528 0 45Z" id="Ellipse" fill="#5A6978" fill-rule="evenodd" stroke="none" />
    <path d="M43.6635 20C43.0095 20 42.355 20.2817 41.9466 20.6528C41.5383 21.0239 41.3282 21.4154 41.155 21.7323C40.8086 22.366 40.6234 22.6533 40.4662 22.7347L35.5932 25.2586L29.9337 25.2586C28.096 25.2586 26.577 26.7776 26.577 28.6152L26.577 66.6434C26.577 68.4809 28.096 70 29.9337 70L60.0663 70C61.904 70 63.4229 68.4809 63.4229 66.6434L63.4229 28.6152C63.4229 26.7776 61.904 25.2586 60.0663 25.2586L54.8077 25.2586L49.7651 22.8477C49.5082 22.569 49.2767 22.1323 48.8861 21.5267C48.6756 21.2003 48.4034 20.827 47.9711 20.514C47.5387 20.2011 46.9403 20 46.3365 20L43.6635 20L43.6635 20ZM43.6995 22.6318L46.3365 22.6318C46.4505 22.6318 46.4035 22.6312 46.429 22.6575C46.4545 22.6839 46.5479 22.7626 46.6757 22.9608C46.9314 23.3569 47.2616 24.1511 48.0225 24.873L48.1716 25.0118L52.875 27.2633L52.875 29.2577C52.875 29.987 52.3297 30.5325 51.6002 30.5325L38.3998 30.5325C37.7674 30.5325 37.125 29.7401 37.125 29.2577L37.125 27.438L41.6793 25.0838C42.7972 24.5053 43.1913 23.4991 43.463 23.0019C43.5881 22.773 43.6743 22.6705 43.6995 22.6421L43.6995 22.6318L43.6995 22.6318ZM29.9337 27.8185L34.4931 27.8185L34.4931 29.2475C34.4931 31.3182 36.1608 33.1541 38.3998 33.1541L51.6001 33.1541C53.742 33.1541 55.5068 31.3893 55.5068 29.2475L55.5068 27.8185L60.0663 27.8185C60.5311 27.8185 60.863 28.1504 60.863 28.6152L60.863 66.6434C60.863 67.1082 60.5311 67.4453 60.0663 67.4453L29.9337 67.4453C29.4688 67.4453 29.1369 67.1082 29.1369 66.6434L29.1369 28.6152C29.1369 28.1504 29.4688 27.8185 29.9337 27.8185L29.9337 27.8185ZM49.5646 37.0608L43.2831 43.7021L40.3325 40.916L38.5231 42.8282L43.3859 47.4237L51.4768 38.8702L49.5646 37.0608L49.5646 37.0608ZM34.4726 51.577L34.4726 54.2089L55.5274 54.2089L55.5274 51.577L34.4726 51.577L34.4726 51.577ZM34.4726 59.4727L34.4726 62.1045L55.5274 62.1045L55.5274 59.4727L34.4726 59.4727L34.4726 59.4727Z" id="Shape" fill="#FFFFFF" fill-rule="evenodd" stroke="none" />
  </g>
</svg>