<?xml version="1.0" encoding="utf-8"?>
<svg width="91px" height="91px" viewBox="0 0 91 91" version="1.1" xmlns:xlink="http://www.w3.org/1999/xlink" xmlns="http://www.w3.org/2000/svg">
  <g id="Group" transform="translate(0.5 0.5)">
    <path d="M0 45C0 20.1472 20.1472 0 45 0C69.8528 0 90 20.1472 90 45C90 69.8528 69.8528 90 45 90C20.1472 90 0 69.8528 0 45Z" id="Ellipse" fill="#5A6978" fill-rule="evenodd" stroke="none" />
    <g id="noun_donation_3462548" transform="translate(17.49115 20)">
      <path d="M13.891 35.4806L16.9106 32.4525L15.9734 31.5176L12.02 35.4828L17.8 41.2464L18.7349 40.3087L13.891 35.4806Z" id="Polygon" fill="#FFFFFF" fill-rule="evenodd" stroke="none" />
      <path d="M30.5029 43.9421C31.8698 42.5724 32.7063 40.7807 32.8013 39.024C32.8874 37.4388 32.3738 36.0066 31.3545 34.9907C29.1219 32.7648 25.1071 33.158 22.4053 35.8688C21.0401 37.2385 20.2019 39.0313 20.1057 40.7881L20.1057 40.7881C20.0202 42.3704 20.5344 43.8038 21.5542 44.8208C22.6377 45.9014 24.1683 46.4032 25.8615 46.235C27.5479 46.0662 29.1967 45.2528 30.5029 43.9421L30.5029 43.9421ZM22.3097 43.3357L23.1237 42.5189L23.0607 42.4509C22.51 41.8658 22.2664 41.3562 22.1218 40.9641L23.2671 40.2784C23.3881 40.6362 23.6148 41.2144 24.2009 41.7995C24.4822 42.0796 24.7589 42.2326 25.0245 42.2529C25.2495 42.2714 25.4638 42.1904 25.6269 42.0273C25.7467 41.9069 25.8103 41.7578 25.8199 41.5705C25.8379 41.2499 25.7057 40.8134 25.3659 40.0607C24.7184 38.6533 24.7831 37.7971 25.623 36.9544C26.4746 36.1 27.6813 36.0454 28.7731 36.8127L28.8389 36.8594L29.7857 35.9104L30.5254 36.6473L29.6467 37.5277L29.708 37.5963C30.2886 38.2308 30.6362 38.9402 30.7706 39.3879L29.5882 40.1096C29.4538 39.6613 29.1551 38.9272 28.538 38.3141C28.2708 38.0463 27.9873 37.8753 27.7178 37.8213C27.4281 37.7622 27.1694 37.8365 26.9691 38.0367C26.5911 38.4176 26.613 38.9115 27.0906 39.8998C27.8067 41.399 27.7696 42.3125 27.0017 43.0803C26.1877 43.8999 25.0554 43.9579 23.9759 43.2356L23.9112 43.1923L23.041 44.0631L22.3097 43.3357L22.3097 43.3357Z" id="Shape" fill="#FFFFFF" fill-rule="evenodd" stroke="none" />
      <path d="M44.8996 44.5683L28.9863 28.7017L55.0177 0L38.646 0L29.9871 5.51049L17.202 5.51049C16.3492 5.49699 15.659 5.90426 15.2135 6.55341L9.26197 14.359C8.98408 14.7263 8.51325 15.7709 8.88001 16.7464C8.88001 16.7464 9.04371 17.346 9.29572 18.2753L14.3674 12.1072C14.6386 11.7748 15.1297 11.7275 15.4627 12.0015C15.6517 12.155 15.7484 12.3778 15.7484 12.6022C15.7484 12.7777 15.6899 12.9533 15.5696 13.0973L9.80424 20.1091C10.7847 23.6519 12.2793 28.9571 12.9184 30.7414L8.30961 35.3625L20.8089 47.8247L0 47.8247L0 50L53.1681 50L53.1681 47.8247L41.6527 47.8247L44.8996 44.5683L44.8996 44.5683ZM16.7666 17.6032C18.061 16.531 19.7531 16.0568 21.5307 16.2638C24.1346 16.5704 26.2474 18.6168 26.6659 21.2343C26.9011 22.7249 26.6086 23.7892 25.5915 25.3159L21.9497 21.6854L20.1097 23.5299L16.5287 17.8422C16.6125 17.7635 16.6794 17.6746 16.7666 17.6032L16.7666 17.6032ZM17.2993 26.0121C17.3432 26.0807 17.3904 26.1449 17.4411 26.2067L16.4218 27.2272C15.6978 25.1784 15.0515 23.1933 14.8298 22.0913L17.2993 26.0121L17.2993 26.0121ZM37.8253 47.8253L41.1206 44.5193L35.3412 38.7557L34.4063 39.6929L39.2491 44.5222L35.9544 47.8253L33.1496 47.8253L36.473 44.4929L35.5347 43.558L31.2786 47.8253L22.7384 47.8253L10.238 35.3614L21.9509 23.6125L24.7849 26.4381C24.5464 26.752 24.2842 27.0861 23.9979 27.4456L22.0099 25.4633L18.0565 29.4285L18.9948 30.3628L22.0116 27.3353L23.162 28.4823C23.135 28.5155 23.1114 28.5453 23.0832 28.5785L22.7491 28.9897C22.3435 29.4904 22.1944 30.1125 22.2794 30.7032L21.8789 30.3032L16.9202 35.2776L17.8574 36.212L22.5561 31.4992C22.6866 31.7242 22.8582 31.9329 23.0725 32.1061C24.0226 32.8768 25.4183 32.7345 26.1912 31.7838L26.3251 31.6353L26.8561 32.1652L27.791 31.2269L27.2161 30.6537L28.07 29.7109L42.9735 44.5717L39.73 47.8242L37.8253 47.8242L37.8253 47.8253Z" id="Shape" fill="#FFFFFF" fill-rule="evenodd" stroke="none" />
    </g>
  </g>
</svg>