<?xml version="1.0" encoding="utf-8"?>
<svg width="91px" height="91px" viewBox="0 0 91 91" version="1.1" xmlns:xlink="http://www.w3.org/1999/xlink" xmlns="http://www.w3.org/2000/svg">
  <g id="Group" transform="translate(0.5 0.5)">
    <path d="M0 45C0 20.1472 20.1472 0 45 0C69.8528 0 90 20.1472 90 45C90 69.8528 69.8528 90 45 90C20.1472 90 0 69.8528 0 45Z" id="Ellipse" fill="#5A6978" fill-rule="evenodd" stroke="none" />
    <path d="M25.3911 34.3182L36.1224 34.3182L61.3794 22.9378C62.3632 22.4197 63.5754 23.1242 63.5754 24.2622L63.5754 64.3722C63.5597 65.4407 62.4688 66.1871 61.464 65.7349L36.1231 54.3163L34.9349 54.3163L34.9349 63.2028C34.9349 65.5245 33.0609 67.2353 30.7751 67.2353C28.5611 67.2353 26.7425 65.4174 26.7425 63.2028L26.7425 54.3163L25.3911 54.3163C24.5645 54.3163 23.8937 53.6454 23.8937 52.8189L23.8937 51.9054L20.0483 51.9054C19.2217 51.9054 18.5509 51.2346 18.5509 50.408L18.5509 47.637C13.8138 47.637 13.819 40.9975 18.5509 40.9975L18.5509 38.2265C18.5509 37.3999 19.2217 36.729 20.0483 36.729L23.8937 36.729L23.8937 35.8156C23.8937 34.989 24.5645 34.3182 25.3911 34.3182L25.3911 34.3182ZM23.8937 48.9106L23.8937 39.7239L21.5457 39.7239L21.5457 48.9106L23.8937 48.9106L23.8937 48.9106ZM73.5318 54.0767C74.9236 55.4686 72.8063 57.5859 71.4144 56.1941L66.7739 51.5536C65.382 50.1617 67.4994 48.0443 68.8913 49.4362L73.5318 54.0767L73.5318 54.0767ZM68.8913 39.1975C67.4994 40.5894 65.382 38.472 66.7739 37.0802L71.4144 32.4397C72.8063 31.0478 74.9236 33.1652 73.5318 34.557L68.8913 39.1975L68.8913 39.1975ZM66.8712 45.8147C64.9021 45.8147 64.9021 42.8198 66.8712 42.8198L73.4344 42.8198C75.1423 42.8198 75.87 45.7907 73.4344 45.8147L66.8712 45.8147L66.8712 45.8147ZM31.9401 54.3163L29.7374 54.3163L29.7374 63.2027C29.7374 63.7778 30.1993 64.2405 30.7751 64.2405C31.4175 64.2405 31.9401 63.8856 31.9401 63.2027L31.9401 54.3163L31.9401 54.3163ZM37.7838 36.8481L37.7838 51.7864L60.5805 62.058L60.5805 26.5765L37.7838 36.8481L37.7838 36.8481ZM34.7889 37.313L26.8885 37.313L26.8885 51.3215L34.7889 51.3215L34.7889 37.313L34.7889 37.313Z" id="Shape-2" fill="#FFFFFF" fill-rule="evenodd" stroke="none" />
  </g>
</svg>