<?xml version="1.0" encoding="utf-8"?>
<svg width="91px" height="91px" viewBox="0 0 91 91" version="1.1" xmlns:xlink="http://www.w3.org/1999/xlink" xmlns="http://www.w3.org/2000/svg">
  <g id="Group" transform="translate(0.5 0.5)">
    <path d="M0 45C0 20.1472 20.1472 0 45 0C69.8528 0 90 20.1472 90 45C90 69.8528 69.8528 90 45 90C20.1472 90 0 69.8528 0 45Z" id="Ellipse" fill="#5A6978" fill-rule="evenodd" stroke="none" />
    <g id="noun_Survey_38773" transform="translate(22.983276 23.450012)">
      <path d="M3.816 31.9445C1.712 31.9445 0 30.2325 0 28.128C0 26.024 1.712 24.3125 3.816 24.3125C5.92 24.3125 7.6315 26.024 7.6315 28.128C7.6315 30.2325 5.9195 31.9445 3.816 31.9445L3.816 31.9445ZM3.816 25.3125C2.2635 25.3125 1 26.5755 1 28.128C1 29.6805 2.263 30.9445 3.816 30.9445C5.3685 30.9445 6.6315 29.681 6.6315 28.128C6.6315 26.576 5.3685 25.3125 3.816 25.3125L3.816 25.3125Z" id="Shape" fill="#FFFFFF" fill-rule="evenodd" stroke="none" />
      <path d="M44.0335 28.128C44.0335 28.749 43.3645 29.253 42.538 29.253L12.7775 29.253C11.952 29.253 11.2835 28.749 11.2835 28.128L11.2835 28.128C11.2835 27.507 11.952 27.004 12.7775 27.004L42.538 27.004C43.3645 27.004 44.0335 27.507 44.0335 28.128L44.0335 28.128L44.0335 28.128Z" id="Shape" fill="#FFFFFF" fill-rule="evenodd" stroke="none" />
      <path d="M3.816 19.7875C1.712 19.7875 0 18.0755 0 15.9715C0 13.8675 1.712 12.156 3.816 12.156C5.92 12.156 7.6315 13.8675 7.6315 15.9715C7.6315 18.076 5.9195 19.7875 3.816 19.7875L3.816 19.7875ZM3.816 13.1565C2.2635 13.1565 1 14.4195 1 15.972C1 17.5245 2.263 18.788 3.816 18.788C5.3685 18.788 6.6315 17.525 6.6315 15.972C6.6315 14.4195 5.3685 13.1565 3.816 13.1565L3.816 13.1565Z" id="Shape" fill="#FFFFFF" fill-rule="evenodd" stroke="none" />
      <path d="M44.0335 15.9715C44.0335 16.5925 43.3645 17.0965 42.538 17.0965L12.7775 17.0965C11.952 17.0965 11.2835 16.5925 11.2835 15.9715L11.2835 15.9715C11.2835 15.3505 11.952 14.847 12.7775 14.847L42.538 14.847C43.3645 14.847 44.0335 15.3505 44.0335 15.9715L44.0335 15.9715L44.0335 15.9715Z" id="Shape" fill="#FFFFFF" fill-rule="evenodd" stroke="none" />
      <path d="M4.1155 7.6315C2.0115 7.6315 0.2995 5.9195 0.2995 3.8155C0.2995 1.7115 2.0115 0 4.1155 0C6.2195 0 7.931 1.7115 7.931 3.8155C7.931 5.9195 6.2195 7.6315 4.1155 7.6315L4.1155 7.6315ZM4.1155 1C2.563 1 1.2995 2.263 1.2995 3.8155C1.2995 5.368 2.5625 6.6315 4.1155 6.6315C5.668 6.6315 6.931 5.3685 6.931 3.8155C6.931 2.263 5.668 1 4.1155 1L4.1155 1Z" id="Shape" fill="#FFFFFF" fill-rule="evenodd" stroke="none" />
      <path d="M44.0335 3.81548C44.0335 4.43648 43.3705 4.94048 42.5515 4.94048L13.0635 4.94048C12.2455 4.94048 11.583 4.43648 11.583 3.81548L11.583 3.81548C11.583 3.19448 12.2455 2.69098 13.0635 2.69098L42.5515 2.69098C43.3705 2.69098 44.0335 3.19448 44.0335 3.81548L44.0335 3.81548L44.0335 3.81548Z" id="Shape" fill="#FFFFFF" fill-rule="evenodd" stroke="none" />
      <path d="M44.0335 39.7845C44.0335 40.4055 43.3645 40.9095 42.538 40.9095L12.7775 40.9095C11.952 40.9095 11.2835 40.4055 11.2835 39.7845L11.2835 39.7845C11.2835 39.1635 11.952 38.66 12.7775 38.66L42.538 38.66C43.3645 38.6595 44.0335 39.163 44.0335 39.7845L44.0335 39.7845L44.0335 39.7845Z" id="Shape" fill="#FFFFFF" fill-rule="evenodd" stroke="none" />
      <path d="M0.5 39.7845C0.5 37.9534 1.9844 36.469 3.8155 36.469C5.6466 36.469 7.131 37.9534 7.131 39.7845C7.131 41.6156 5.6466 43.1 3.8155 43.1C1.9844 43.1 0.5 41.6156 0.5 39.7845Z" id="Circle" fill="#FFFFFF" fill-rule="evenodd" stroke="#FFFFFF" stroke-width="1" />
    </g>
  </g>
</svg>