<?xml version="1.0" encoding="utf-8"?>
<svg width="91px" height="91px" viewBox="0 0 91 91" version="1.1" xmlns:xlink="http://www.w3.org/1999/xlink" xmlns="http://www.w3.org/2000/svg">
  <g id="Group" transform="translate(0.5 0.5)">
    <path d="M0 45C0 20.1472 20.1472 0 45 0C69.8528 0 90 20.1472 90 45C90 69.8528 69.8528 90 45 90C20.1472 90 0 69.8528 0 45Z" id="Ellipse" fill="#5A6978" fill-rule="evenodd" stroke="none" />
    <g id="Group" transform="translate(26.667664 20)">
      <path d="M25.8317 20.0023C25.3715 20.0023 24.9984 20.3754 24.9984 20.8355C24.9984 22.6465 24.2614 24.3792 22.9576 25.6358C21.6537 26.8924 19.8945 27.5643 18.0847 27.4974C16.2749 27.43 14.5708 26.6295 13.3632 25.2799C13.0563 24.9369 12.5296 24.9079 12.1866 25.2148C11.8437 25.5217 11.8146 26.0484 12.1215 26.3914C13.6308 28.0784 15.7612 29.0787 18.0234 29.1628C20.2855 29.2465 22.4841 28.4065 24.1142 26.8359C25.7439 25.2653 26.665 23.0992 26.665 20.8355C26.665 20.6145 26.5772 20.4025 26.421 20.2462C26.2647 20.09 26.0527 20.0022 25.8317 20.0022L25.8317 20.0023Z" id="Shape" fill="#FFFFFF" fill-rule="evenodd" stroke="none" />
      <path d="M18.3321 7.50293C16.1228 7.50553 14.0046 8.3842 12.4425 9.94622C10.8804 11.5082 10.0018 13.6265 9.99921 15.8358L9.99921 20.8355C9.9981 21.7815 10.1584 22.7212 10.4735 23.6133C10.6272 24.047 11.1033 24.2747 11.5371 24.121C11.9712 23.9674 12.1985 23.4912 12.0449 23.0575C11.793 22.3436 11.665 21.5921 11.6658 20.8355L11.6658 15.8358C11.6658 13.4542 12.9366 11.2535 14.9989 10.0627C17.0613 8.8719 19.6029 8.8719 21.6652 10.0627C23.7276 11.2535 24.9984 13.4542 24.9984 15.8358L24.9984 17.5024C24.9984 17.9625 25.3715 18.3357 25.8316 18.3357C26.2918 18.3357 26.6649 17.9625 26.6649 17.5024L26.6649 15.8358C26.6623 13.6265 25.7837 11.5083 24.2216 9.94622C22.6596 8.38412 20.5414 7.5055 18.3321 7.50293L18.3321 7.50293Z" id="Shape" fill="#FFFFFF" fill-rule="evenodd" stroke="none" />
      <path d="M21.3881 22.1688C21.2988 22.3715 21.2936 22.6014 21.374 22.8079C21.4543 23.0147 21.6139 23.1806 21.817 23.2692C22.0201 23.3581 22.25 23.3622 22.4561 23.2807C22.6622 23.1996 22.8278 23.0397 22.9155 22.8362C23.1916 22.2056 23.3333 21.5242 23.3318 20.8359L23.3318 15.8362C23.3311 14.1499 22.4807 12.5774 21.0697 11.6538C19.6591 10.7301 17.8778 10.5794 16.3318 11.2527C15.9118 11.438 15.721 11.9283 15.9048 12.3487C16.0885 12.7694 16.5777 12.9621 16.9992 12.7802C18.0296 12.3316 19.2171 12.4324 20.1575 13.048C21.0975 13.6641 21.6644 14.712 21.6652 15.8362L21.6652 20.8359C21.6663 21.2946 21.5718 21.7484 21.3881 22.1688L21.3881 22.1688Z" id="Shape" fill="#FFFFFF" fill-rule="evenodd" stroke="none" />
      <path d="M14.1656 21.6688C14.3866 21.6688 14.5987 21.581 14.7549 21.4248C14.9111 21.2685 14.9989 21.0565 14.9989 20.8355L14.9989 15.8358C14.9978 15.3771 15.0923 14.9233 15.2761 14.5029C15.458 14.0815 15.2653 13.5923 14.8446 13.4085C14.4242 13.2248 13.9339 13.4156 13.7486 13.8356C13.4726 14.4661 13.3309 15.1476 13.3323 15.8359L13.3323 20.8356C13.3323 21.0565 13.4201 21.2686 13.5764 21.4248C13.7326 21.5811 13.9447 21.6689 14.1656 21.6689L14.1656 21.6688Z" id="Shape" fill="#FFFFFF" fill-rule="evenodd" stroke="none" />
      <path d="M17.4988 15.0025L17.4988 25.002C17.4988 25.4621 17.872 25.8353 18.3321 25.8353C18.7923 25.8353 19.1654 25.4621 19.1654 25.002L19.1654 15.0025C19.1654 14.5424 18.7923 14.1693 18.3321 14.1693C17.872 14.1693 17.4988 14.5424 17.4988 15.0025L17.4988 15.0025Z" id="Shape" fill="#FFFFFF" fill-rule="evenodd" stroke="none" />
      <path d="M18.3321 3.33654C14.354 3.33654 10.539 4.91683 7.72606 7.72953C4.91336 10.5426 3.33307 14.3575 3.33307 18.3356C3.33307 22.3137 4.91336 26.1287 7.72606 28.9417C10.5391 31.7544 14.3541 33.3346 18.3321 33.3346C22.3102 33.3346 26.1252 31.7544 28.9382 28.9417C31.7509 26.1286 33.3312 22.3137 33.3312 18.3356C33.3267 14.3589 31.745 10.5466 28.933 7.73429C26.1209 4.92197 22.3087 3.34054 18.3316 3.33606L18.3321 3.33654ZM18.3322 31.6683C14.7963 31.6683 11.4051 30.2636 8.90449 27.7634C6.40426 25.2627 4.99957 21.8716 4.99957 18.3357C4.99957 14.7998 6.40426 11.4087 8.90449 8.90804C11.4051 6.4078 14.7963 5.00311 18.3322 5.00311C21.868 5.00311 25.2592 6.4078 27.7598 8.90804C30.26 11.4087 31.6647 14.7998 31.6647 18.3357C31.6606 21.8704 30.2548 25.2594 27.7553 27.7589C25.2559 30.2584 21.8669 31.6642 18.3322 31.6683L18.3322 31.6683Z" id="Shape" fill="#FFFFFF" fill-rule="evenodd" stroke="none" />
      <path d="M36.6644 18.3357C36.6651 13.7157 34.9219 9.26589 31.783 5.87637C28.6436 2.48666 24.3407 0.406776 19.7341 0.0537486C15.1276 -0.299651 10.558 1.09912 6.93865 3.97057C3.31943 6.84165 0.917751 10.9739 0.213983 15.5394C-0.489785 20.105 0.556602 24.7688 3.14353 28.5968C5.73005 32.4243 9.66697 35.1343 14.1658 36.1846L14.1658 47.5001C14.1665 48.163 14.4303 48.7984 14.8986 49.2672C15.3673 49.7355 16.0027 49.9993 16.6657 50L19.9988 50C20.6617 49.9993 21.2971 49.7355 21.7658 49.2672C22.2342 48.7984 22.4979 48.163 22.4987 47.5001L22.4987 36.1846C26.5252 35.2397 30.1147 32.963 32.6857 29.7236C35.2566 26.4838 36.6587 22.4714 36.6646 18.3357L36.6644 18.3357ZM20.8319 41.6677L15.8322 41.6677L15.8322 40.0011L20.8319 40.0011L20.8319 41.6677ZM19.9986 48.3339L16.6655 48.3339C16.2057 48.3332 15.833 47.9605 15.8322 47.5007L15.8322 43.3342L20.8319 43.3342L20.8319 47.5007C20.8312 47.9605 20.4584 48.3332 19.9986 48.3339L19.9986 48.3339ZM20.8319 38.3345L15.8322 38.3345L15.8322 36.4931C17.4906 36.7263 19.1735 36.7263 20.8319 36.4931L20.8319 38.3345ZM18.3321 35.0014C13.912 35.0014 9.67297 33.2455 6.548 30.1199C3.42246 26.9948 1.66656 22.7558 1.66656 18.3359C1.66656 13.9159 3.42247 9.67672 6.548 6.55176C9.67316 3.42622 13.9122 1.67032 18.3321 1.67032C22.752 1.67032 26.9912 3.42622 30.1162 6.55176C33.2417 9.67691 34.9976 13.9159 34.9976 18.3359C34.9924 22.7545 33.2351 26.9905 30.1107 30.1142C26.9866 33.2387 22.7506 34.9961 18.3323 35.0012L18.3321 35.0014Z" id="Shape" fill="#FFFFFF" fill-rule="evenodd" stroke="none" />
    </g>
  </g>
</svg>