<?xml version="1.0" encoding="utf-8"?>
<svg width="91px" height="91px" viewBox="0 0 91 91" version="1.1" xmlns:xlink="http://www.w3.org/1999/xlink" xmlns="http://www.w3.org/2000/svg">
  <g id="Group" transform="translate(0.5 0.5)">
    <path d="M0 45C0 20.1472 20.1472 0 45 0C69.8528 0 90 20.1472 90 45C90 69.8528 69.8528 90 45 90C20.1472 90 0 69.8528 0 45Z" id="Ellipse" fill="#5A6978" fill-rule="evenodd" stroke="none" />
    <g id="Group-2" transform="translate(20 20)">
      <path d="M25 0C18.3697 0 12.0105 2.6339 7.32236 7.32236C2.63426 12.0108 0 18.3694 0 25C0 31.6306 2.6339 37.9895 7.32236 42.6776C12.0108 47.3657 18.3694 50 25 50C31.6306 50 37.9895 47.3661 42.6776 42.6776C47.3657 37.9892 50 31.6306 50 25C49.9943 18.3715 47.3584 12.0153 42.6716 7.32844C37.9846 2.64143 31.6287 0.00571573 25 9.27577e-07L25 0ZM26.1275 38.3608C25.8273 38.6585 25.4227 38.8262 25 38.829C24.5769 38.8286 24.1713 38.6604 23.8726 38.3608C23.5748 38.0606 23.4072 37.656 23.4043 37.2333C23.4048 36.8102 23.5729 36.4046 23.8726 36.1059C24.5066 35.5113 25.4935 35.5113 26.1275 36.1059C26.4272 36.4046 26.5953 36.8102 26.5958 37.2333C26.5929 37.656 26.4253 38.0606 26.1275 38.3608L26.1275 38.3608ZM26.5958 30.8503C26.5958 31.7318 25.8815 32.4461 25 32.4461C24.1186 32.4461 23.4043 31.7318 23.4043 30.8503L23.4043 12.7654C23.4043 11.884 24.1186 11.1697 25 11.1697C25.8815 11.1697 26.5958 11.884 26.5958 12.7654L26.5958 30.8503Z" id="Shape" fill="#FFFFFF" fill-rule="evenodd" stroke="none" />
    </g>
  </g>
</svg>