<?xml version="1.0" encoding="utf-8"?>
<svg width="16.928345px" height="16.928345px" viewBox="0 0 16.928345 16.928345" version="1.1" xmlns:xlink="http://www.w3.org/1999/xlink" xmlns="http://www.w3.org/2000/svg">
  <path d="M13.3592 12.1808L16.9283 15.7491L15.7491 16.9283L12.1808 13.3592C10.8531 14.4235 9.20166 15.0024 7.5 15C3.35999 15 0 11.64 0 7.5C0 3.35999 3.35999 0 7.5 0C11.64 0 15 3.35999 15 7.5C15.0023 9.20197 14.4234 10.8534 13.3589 12.1811L13.3592 12.1808ZM11.6907 11.5633C12.7484 10.4757 13.339 9.01785 13.3366 7.50082C13.3366 4.27747 10.7258 1.66748 7.50323 1.66748C4.27991 1.66748 1.66992 4.27747 1.66992 7.50082C1.66992 10.7233 4.27991 13.3341 7.50323 13.3341C9.02026 13.3365 10.4781 12.7459 11.5657 11.6883L11.6907 11.5633L11.6907 11.5633Z" id="Shape" fill="#FFFFFF" fill-rule="evenodd" stroke="none" />
</svg>