<?xml version="1.0" encoding="utf-8"?>
<svg width="1992px" height="261px" viewBox="0 0 1992 261" version="1.1" xmlns:xlink="http://www.w3.org/1999/xlink" xmlns="http://www.w3.org/2000/svg">
  <defs>
    <filter id="filter_1">
      <feColorMatrix in="SourceGraphic" type="matrix" values="0 0 0 0 0.9529412 0 0 0 0 0.9372549 0 0 0 0 0.6901961 0 0 0 1 0" />
    </filter>
  </defs>
  <g id="Paper2" transform="matrix(-1 0 0 -1 1991.6615 260.32822)">
    <g id="XMLID_2_" filter="url(#filter_1)">
      <path d="M1981.95 31.4596C1986.2 25.0104 1955.53 21.5498 1906.45 19.5049C1906.45 19.6622 1905.82 19.8195 1904.72 19.9768C1904.72 19.8195 1904.25 19.8195 1904.25 19.8195L1906.45 19.5049C1900.95 18.0893 1891.51 17.3028 1879.4 16.9882C1855.96 16.359 1840.86 14.4714 1822.61 12.8984L1821.35 13.0557C1821.35 13.0557 1821.35 13.0557 1820.41 13.0557C1821.35 12.8984 1821.83 12.8984 1822.61 12.8984C1809.4 8.17949 1796.34 3.30326 1757.33 0C1755.76 0.314596 1754.34 0.471894 1752.93 0.629191C1751.04 1.41568 1754.82 2.04487 1757.8 2.67406C1751.83 2.20217 1746.64 1.73028 1740.66 1.10109C1732.95 0.78649 1726.5 0.78649 1718.95 1.25838L1718.95 1.10109C1709.51 1.10109 1700.86 1.10109 1691.74 1.10109C1691.74 1.57298 1691.74 1.73028 1692.53 2.04487C1692.53 3.61785 1693.31 5.03353 1693.31 6.60651C1693.31 7.2357 1693.31 7.8649 1693.31 8.65139C1667.04 11.0109 1642.19 13.3703 1625.2 16.8309C1620.33 17.932 1609.63 18.4039 1598.15 18.4039C1594.37 17.4601 1590.75 16.6736 1586.98 15.7298L1587.45 15.5725C1587.45 15.4152 1588.55 15.2579 1589.18 14.9433C1584.78 13.8422 1572.04 13.213 1568.1 14.1568C1555.36 17.7747 1528.78 16.9882 1505.34 17.3028C1452.02 18.0893 1396.96 17.6174 1344.27 19.1903C1309.82 19.0331 1276.47 19.6622 1243.13 20.7633C1206.32 20.7633 1169.98 21.7071 1133.33 22.179C1079.06 22.6509 1027 24.6958 972.573 25.0104L971.158 24.8531C919.879 25.0104 870.802 26.5833 822.039 28.1563L823.455 28.4709C822.668 28.4709 822.668 28.4709 822.039 28.4709C822.039 28.3136 822.039 28.3136 822.039 28.1563C776.265 27.999 734.896 30.0439 690.381 30.9877C659.078 31.6169 624.787 30.6731 597.418 33.5045C598.204 33.6618 598.833 33.6618 599.62 33.8191C598.833 33.8191 598.833 33.8191 598.833 33.8191L597.418 33.5045C575.711 33.9764 551.644 32.718 0 0L534.184 34.9201C533.712 34.9201 533.712 35.0774 533.712 35.2347C532.611 34.9201 532.611 34.7629 532.611 34.7629C483.062 35.0774 433.356 35.0774 385.223 36.1785C289.271 38.3807 192.218 38.8526 96.2663 40.111C64.1776 40.5829 32.2461 41.8413 0 41.3694C0 41.684 0 42.1559 0 42.4705C0 44.9872 0 47.504 0 50.0208C0 50.6499 0 51.4364 0 52.2229C0 54.7397 0 57.2565 0 59.7732C0 61.5035 0 63.3911 0 65.2787C0 66.8516 0 68.11 0 69.5257C0 72.0425 0 74.5592 0 77.076C0 78.1771 0 79.1209 0 80.222C11.9546 81.6376 11.9546 83.0533 0 84.469C0 84.9409 0 85.2555 0 85.5701C0 90.6036 0 95.7944 0 100.828C0 102.873 0 105.075 0 107.277C0 107.592 0 108.064 0 108.221C6.60651 109.007 6.60651 109.794 0 110.423C0 110.738 0 111.21 0 111.524C0 112.468 0 113.726 0 114.67C0 115.771 0 116.715 0 117.816C0 118.76 0 120.018 0 120.962C0 125.052 0 128.984 0 132.917C0 134.332 0 135.905 0 137.164C0 137.636 0 137.95 0 138.265C0 142.355 0 146.287 0 150.219C0 151.792 0 153.208 0 154.467C0 157.77 0 161.073 0 164.219C13.3703 166.421 13.3703 168.623 0 170.826C0 171.14 0 171.612 0 171.769C0 173.028 0 173.971 0 175.073C0 176.803 0 178.69 0 180.421C0 184.51 0 188.443 0 192.375C0 197.409 0 202.442 0 207.476C0 209.993 0 212.509 0 215.026C0 219.273 0 223.52 0 227.925C0 234.846 0 241.61 0 248.373C0 250.576 0 252.62 0 254.98C0 255.295 0 255.766 0 256.081C0 256.396 0 256.868 0 257.182C27.8417 257.182 55.8408 256.868 80.3792 255.452C81.1657 255.452 82.2668 255.452 82.7387 255.452L82.7387 255.452C85.7274 255.137 90.4463 255.452 93.435 255.137L93.435 254.98C96.109 254.665 99.4123 254.193 102.401 253.879C125.524 252.306 122.85 255.137 130.4 256.081L130.4 255.924C139.209 256.71 149.276 256.71 157.927 256.081C161.23 255.924 164.848 255.924 167.994 255.924C172.399 255.137 180.578 255.452 186.083 254.98C195.836 254.98 204.802 254.98 214.712 254.823C215.184 254.823 216.442 254.665 216.914 254.351C216.914 254.351 216.442 254.351 216.442 254.193C217.858 254.036 216.442 253.879 217.858 253.879C218.33 253.879 220.374 253.879 221.633 254.036C226.037 253.722 229.026 253.092 227.61 252.62C226.824 252.149 223.835 252.306 222.105 251.834C221.633 251.362 229.812 251.047 225.88 250.418C216.914 248.845 215.341 247.587 223.678 246.171C233.587 245.542 237.048 243.812 251.519 243.969C251.519 243.969 252.306 243.969 252.306 243.812C252.306 243.969 252.306 243.969 252.306 243.969C258.283 243.969 264.575 243.969 270.395 243.969C277.159 243.969 283.451 243.969 289.114 243.969C289.114 243.969 289.114 243.969 289.114 243.812C289.114 243.969 289.114 243.969 289.114 243.969C289.114 244.913 291.63 245.699 298.394 246.171C294.619 248.688 310.349 249.632 327.809 249.789C330.483 249.946 338.191 249.474 338.191 249.16C341.179 246.8 318.528 247.744 311.293 246.643C309.562 246.486 308.776 246.329 307.989 246.171C311.293 245.857 314.281 245.542 317.27 245.07C333.157 245.07 348.1 245.07 363.987 245.385C370.751 245.385 379.088 245.857 374.526 247.115C370.751 247.902 362.572 248.688 374.526 249.003C380.504 249.16 393.874 248.373 393.874 248.059C393.402 244.284 423.289 244.598 439.019 243.025L437.603 242.868L437.603 242.868C438.389 242.868 438.389 243.025 439.019 243.025C458.995 242.553 478.343 243.497 498.792 243.183C580.744 241.61 660.179 238.621 742.918 237.205C780.512 236.733 815.59 235.475 850.038 238.621C855.229 239.093 865.139 239.565 870.801 239.407C922.395 237.205 974.461 240.194 1027 238.936C1066.32 237.992 1108.95 239.565 1148.28 237.205C1157.24 236.733 1166.21 237.363 1174.7 237.363C1210.09 237.205 1246.43 237.048 1270.97 233.43C1270.97 233.273 1270.5 233.273 1269.55 233.273L1269.55 233.273L1270.97 233.43C1290.94 233.115 1302.9 231.385 1316.9 230.284C1319.1 230.127 1321.62 230.127 1324.61 230.127C1328.85 229.812 1332.79 229.498 1336.09 229.183L1336.09 229.183C1340.96 228.554 1349.62 228.711 1354.96 227.925L1354.96 228.082C1360.94 227.453 1366.92 227.453 1373.68 227.925C1377.3 228.711 1379.66 229.498 1383.59 230.284C1402.31 234.374 1415.84 234.531 1449.03 231.228C1448.08 231.228 1446.83 231.071 1446.04 230.913L1446.04 230.913L1449.03 231.228C1466.33 231.071 1475.45 229.969 1477.19 228.082L1474.67 227.767C1474.67 227.61 1475.45 227.61 1475.45 227.61C1475.93 227.767 1477.19 227.925 1477.19 227.925C1486.62 227.767 1495.12 227.453 1501.57 226.509C1531.14 222.577 1569.83 219.902 1607.43 217.071C1615.14 216.442 1622.37 215.97 1626.15 214.869C1625.05 214.712 1624.57 214.554 1623.16 214.554C1623.63 214.554 1623.63 214.554 1623.63 214.554L1625.99 214.869C1633.54 214.397 1634.95 213.611 1635.58 212.667C1634.17 212.667 1633.54 212.667 1632.6 212.667C1632.6 212.667 1632.6 212.509 1633.7 212.509L1635.74 212.667C1638.89 212.352 1642.03 212.038 1645.02 211.566L1643.45 211.408C1643.45 211.408 1643.45 211.408 1644.39 211.251C1644.39 211.408 1644.39 211.566 1645.02 211.566C1648.01 211.251 1651 210.779 1653.99 210.465L1652.57 210.307C1652.57 210.15 1653.2 210.15 1653.2 210.15C1653.99 210.307 1653.99 210.307 1653.99 210.465C1656.98 210.15 1660.75 209.835 1663.9 209.363L1662.32 209.206C1662.32 209.206 1662.32 209.206 1662.32 209.049C1663.43 209.206 1663.43 209.363 1663.9 209.363C1668.62 209.206 1675.38 209.206 1676.64 208.892C1698.5 204.802 1743.81 203.072 1762.52 198.667C1765.51 197.881 1773.22 197.251 1779.2 196.937C1824.5 194.106 1842.27 189.387 1839.28 184.196C1835.04 174.601 1855.17 165.635 1882.07 156.983C1890.56 154.309 1886.95 151.32 1898.11 149.59C1911.48 147.388 1910.23 145.815 1908.5 143.613C1906.29 139.995 1904.72 136.377 1908.5 132.917C1910.23 130.714 1911.48 128.04 1903.3 126.625C1883.8 123.479 1880.65 119.861 1870.11 116.4C1869.33 116.558 1868.7 116.558 1868.07 116.558L1868.07 116.558C1866.18 116.4 1863.19 116.243 1862.56 115.771C1862.56 115.614 1862.56 115.614 1862.56 115.614C1865.55 115.928 1862.56 116.558 1868.07 116.558L1870.11 116.4C1861.94 109.322 1854.23 102.243 1846.05 95.1651C1840.7 90.4462 1836.3 85.7272 1839.28 80.851C1842.27 77.0758 1844 73.1434 1835.04 69.2109C1828.75 66.5369 1832.52 63.5482 1832.05 60.7168C1832.05 59.1439 1838.81 58.3574 1852.18 58.3574C1859.58 58.3574 1867.13 58.3574 1874.83 58.0428C1921.87 57.099 1929.89 54.1103 1897.48 49.706C1899.06 47.5038 1889.15 46.56 1874.05 45.6162C1863.35 44.987 1846.21 44.8298 1846.21 42.7849C1863.51 40.5827 1885.53 41.0546 1906.61 41.0546C1906.61 40.8973 1907.39 40.74 1907.87 40.5827C1907.87 40.74 1908.81 40.74 1908.81 40.74L1906.61 41.0546C1911.8 42.4703 1921.08 43.0995 1934.29 43.2568C1934.29 43.0995 1935.39 43.0995 1935.39 42.9422L1935.87 42.9422L1934.14 43.2568C1937.12 43.5714 1940.43 44.0433 1943.42 44.3579C1961.35 46.0881 1974.72 45.1444 1969.84 42.7849C1962.29 39.6389 1962.76 37.2795 1986.2 35.0773C1995.48 34.291 1992.18 32.718 1981.95 31.4596L1981.95 31.4596ZM1690.8 204.488C1690.8 202.915 1692.37 202.915 1692.37 202.915C1692.37 204.488 1690.8 204.488 1692.37 204.488C1690.8 204.488 1690.8 204.488 1690.8 204.488L1690.8 204.488ZM458.21 237.362C457.685 237.756 456.637 238.542 456.637 238.935C457.511 238.542 456.637 237.756 458.21 237.362L458.21 237.362ZM1838.81 28.9429C1839.29 28.7856 1841.65 28.7856 1843.85 28.6283C1839.13 29.1002 1835.51 29.5721 1837.08 30.3586C1835.51 30.044 1833.94 29.8867 1833.94 29.5721C1834.88 29.4148 1837.08 29.1002 1838.81 28.9429L1838.81 28.9429ZM1846.05 19.8196C1849.51 19.8196 1850.77 19.8196 1853.76 19.8196C1851.4 20.1342 1851.4 20.4488 1850.77 21.3926C1849.51 20.4488 1847.62 20.1342 1846.05 19.8196L1846.05 19.8196ZM214.082 45.4594L214.082 45.4594C213.296 46.2458 213.296 47.0323 211.094 47.0323C212.667 47.0323 212.667 46.2458 214.082 45.4594L214.082 45.4594ZM322.618 43.8865C323.405 43.8865 322.618 43.5719 323.405 43.2573C323.405 43.2573 323.405 43.2573 324.034 43.2573C323.405 43.8865 321.832 44.2011 321.832 44.8303C321.832 44.2011 320.259 43.8865 320.259 43.2573C320.259 43.2573 321.36 43.2573 321.832 43.2573C321.674 43.5719 321.674 43.8865 322.618 43.8865L322.618 43.8865ZM110.738 200.659C112.311 200.135 112.311 200.135 113.098 199.611C113.098 200.135 111.682 200.659 111.682 201.184C110.738 201.184 111.839 201.184 110.738 200.659L110.738 200.659ZM896.756 36.0134C897.28 34.7927 897.28 37.234 898.329 36.0134L898.329 37.234C897.455 37.234 897.455 36.0134 896.756 36.0134L896.756 36.0134ZM1710.46 62.2903C1699.76 62.2903 1698.5 63.3914 1695.52 64.1779C1695.52 63.2341 1700.86 62.4476 1710.46 62.2903L1710.46 62.2903ZM660.18 226.876C650.9 226.614 644.136 225.041 632.968 226.089C634.698 225.827 632.968 225.565 633.754 225.565C638.316 226.352 645.709 226.614 665.371 227.138C663.955 226.876 661.596 226.876 660.18 226.876L660.18 226.876ZM281.879 234.846C284.081 233.902 279.676 233.43 271.969 233.115C276.53 232.958 281.879 232.643 284.867 233.273C288.013 233.744 284.081 234.374 281.879 234.846L281.879 234.846ZM1756.55 143.455C1758.75 142.669 1760.32 142.04 1761.27 141.253C1761.11 142.354 1758.59 142.669 1756.55 143.455L1756.55 143.455ZM881.026 227.925C881.026 228.711 879.453 228.711 879.453 229.498C879.453 228.711 879.453 228.711 879.453 227.925C879.453 227.925 881.026 227.925 881.026 227.925L881.026 227.925ZM934.508 223.992C934.98 223.205 936.238 222.419 936.238 222.419C936.238 222.419 935.137 223.205 936.238 223.992C934.98 223.992 934.98 223.992 934.508 223.992L934.508 223.992ZM338.349 233.587L338.349 233.587C341.888 233.587 338.349 233.587 338.349 233.587L338.349 233.587ZM1746.64 58.672L1746.64 58.672L1748.21 57.099C1748.21 58.672 1748.21 58.672 1746.64 58.672L1746.64 58.672ZM1234.48 209.993C1234.48 209.206 1232.12 209.206 1232.59 208.42C1233.37 209.206 1234.48 209.206 1235.1 209.206C1235.1 209.993 1235.1 209.993 1234.48 209.993L1234.48 209.993ZM764.312 189.229C764.312 189.229 764.312 189.229 765.885 189.229L764.312 189.229L764.312 189.229L764.312 189.229ZM822.984 81.0081C821.411 82.581 821.411 82.581 821.411 82.581L821.411 82.581C821.411 82.581 821.411 82.581 822.984 81.0081L822.984 81.0081L822.984 81.0081ZM891.566 64.8068C891.566 65.3311 891.566 65.3311 891.566 65.3311C891.566 65.8554 891.566 65.8554 889.993 66.3797C891.566 65.3311 889.993 65.3311 891.566 64.8068L891.566 64.8068ZM1548.6 79.2258C1546.87 79.2258 1546.87 78.1771 1545.61 78.1771C1548.6 78.7014 1549.39 79.7501 1552.37 79.2258C1551.59 79.7501 1550.64 79.2258 1550.01 79.7501C1549.39 79.7501 1549.39 79.2258 1548.6 79.2258L1548.6 79.2258ZM943.473 213.139C941.271 213.139 941.271 211.566 938.282 211.566C940.484 212.09 942.687 212.614 945.046 211.566C945.046 211.566 943.473 212.09 943.473 213.139C944.26 213.139 944.26 213.139 945.046 213.139C944.26 213.139 944.26 213.139 943.473 213.139L943.473 213.139L943.473 213.139ZM1214.66 61.0309L1215.76 61.0309C1208.68 62.2893 1212.61 63.5477 1217.17 64.806C1212.14 63.705 1209.62 62.4466 1212.61 61.1882C1213.24 61.0309 1213.87 61.0309 1214.66 61.0309L1214.66 61.0309ZM1414.42 163.748C1415.37 163.433 1413.01 163.118 1413.01 162.804C1414.42 162.175 1418.04 162.489 1420.72 162.175C1418.2 162.489 1415.84 162.804 1414.42 163.748L1414.42 163.748ZM843.904 159.973L845.477 159.973C843.904 159.973 843.904 159.973 843.904 159.973L843.904 159.973L843.904 159.973ZM354.864 227.335C354.864 227.335 354.864 227.335 354.864 227.335C354.864 225.238 355.738 225.238 356.437 227.335C355.913 227.335 355.913 227.335 354.864 227.335L354.864 227.335ZM354.392 154.624L354.864 154.624C354.392 154.624 354.392 154.624 354.392 154.624C354.392 154.624 353.291 154.624 352.819 154.624C353.291 154.624 354.392 154.624 354.392 154.624L354.392 154.624ZM1532.71 164.848C1532.71 165.477 1533.59 166.264 1534.28 166.893C1534.28 166.735 1532.71 166.735 1532.71 166.578C1532.71 165.949 1532.71 165.477 1532.71 164.848L1532.71 164.848ZM1418.83 67.7953C1418.04 67.402 1418.04 67.0088 1417.41 66.2223C1417.41 67.0088 1419.61 67.0088 1419.61 67.402C1419.61 67.7953 1418.83 67.7953 1418.83 67.7953L1418.83 67.7953ZM1582.42 145.186L1582.42 145.186L1580.84 145.186L1582.42 145.186L1582.42 145.186L1582.42 145.186ZM1168.88 189.859C1167.47 190.645 1168.1 190.645 1166.37 191.432C1167.47 190.645 1167.47 190.645 1168.1 189.859C1168.1 189.859 1168.1 189.859 1168.88 189.859L1168.88 189.859ZM1403.25 147.545C1402.31 145.972 1402.31 145.972 1401.21 145.972C1402.31 145.972 1403.73 145.972 1404.36 145.972C1403.88 147.545 1403.25 147.545 1403.25 147.545L1403.25 147.545ZM534.185 147.073C534.185 148.646 532.612 148.646 532.612 148.646L532.612 148.646L534.185 147.073L534.185 147.073C534.185 147.073 534.185 147.073 534.185 147.073C534.185 147.073 534.185 147.073 534.185 147.073L534.185 147.073ZM1167.47 118.917C1169.04 118.917 1167.47 120.49 1169.04 120.49L1169.04 120.49C1167.47 120.49 1167.47 118.917 1167.47 118.917L1167.47 118.917ZM1382.49 119.232C1379.66 118.183 1376.83 119.756 1373.68 118.707C1375.89 118.183 1377.3 117.659 1379.66 117.659C1380.6 118.183 1382.02 118.183 1382.49 119.232L1382.49 119.232ZM1253.35 129.299L1253.35 129.299C1253.98 129.299 1254.77 128.513 1255.4 128.513C1254.92 129.299 1253.98 129.299 1253.35 130.086L1253.35 129.299L1253.35 129.299ZM1393.98 138.108C1393.19 137.636 1393.98 137.164 1390.2 137.007C1382.02 136.378 1388 135.906 1393.98 135.591C1391.77 136.378 1391.77 137.164 1393.98 138.108L1393.98 138.108ZM1219.22 117.502C1222.99 119.075 1226.77 119.075 1230.54 119.075C1226.77 119.075 1222.99 117.502 1219.22 117.502L1219.22 117.502ZM1034.71 151.635C1034.71 151.006 1029.52 150.534 1031.4 149.905C1034.71 149.118 1041.47 149.433 1046.66 149.276C1039.11 149.905 1035.34 150.534 1034.71 151.635L1034.71 151.635ZM759.435 118.917C758.019 119.704 756.446 119.704 755.03 120.49C756.446 119.704 758.019 119.704 759.435 118.917L759.435 118.917L759.435 118.917ZM972.102 132.602C975.091 132.759 973.675 133.389 977.607 133.389C981.383 133.546 985 133.86 982.641 134.647C979.338 134.962 975.091 134.804 971.315 134.647C969.9 134.018 975.877 133.231 972.102 132.602L972.102 132.602ZM779.884 119.2C786.648 118.636 794.355 122.024 800.962 118.636C800.962 118.636 802.063 119.2 802.063 119.765C797.029 117.506 787.434 119.2 779.884 119.2L779.884 119.2ZM1121.22 131.344C1120.75 131.344 1119.18 131.344 1118.23 130.558C1119.18 130.558 1119.8 130.558 1121.22 129.771C1121.22 130.558 1121.22 131.344 1121.22 131.344L1121.22 131.344ZM1049.81 129.037C1049.02 128.512 1049.02 128.25 1049.02 127.726C1053.58 129.299 1065.69 129.299 1076.7 129.299C1067.74 128.512 1060.35 126.677 1049.81 129.037L1049.81 129.037ZM1016.46 131.573C1015.67 131.87 1013.47 131.275 1012.68 131.573C1015.2 130.978 1016.46 130.68 1018.98 130.086C1018.19 130.978 1017.25 131.275 1016.46 131.573L1016.46 131.573ZM1010.64 159.919C1009.54 159.919 1009.54 159.395 1008.75 159.395C1008.28 159.919 1008.75 160.444 1008.28 160.444C1007.49 159.919 1008.75 159.395 1008.28 158.871L1008.28 158.871C1008.75 158.871 1008.28 159.395 1008.75 159.395L1009.54 159.395C1009.7 158.871 1009.7 159.919 1010.64 159.919L1010.64 159.919ZM1096.68 179.162C1095.58 178.376 1095.11 178.376 1094.17 177.589C1095.11 178.376 1095.42 178.376 1096.68 179.162L1096.68 179.162ZM1337.51 145.5C1336.72 146.759 1332.31 147.262 1326.02 147.01C1330.74 146.759 1333.73 146.004 1337.51 145.5L1337.51 145.5ZM1102.34 129.771C1104.86 128.198 1107.06 128.985 1108.64 128.198C1106.91 128.198 1104.86 128.198 1102.34 129.771L1102.34 129.771ZM1031.56 125.635C1030.93 125.157 1031.56 124.679 1030.93 124.2C1031.56 124.679 1031.56 123.722 1032.35 124.2C1033.92 124.679 1030.93 125.157 1031.56 125.635L1031.56 125.635ZM745.278 124.265C743.705 124.265 743.076 125.838 742.289 125.838C743.076 124.265 743.705 124.265 745.278 124.265L745.278 124.265ZM583.89 122.063C582.475 122.063 585.463 122.85 583.419 123.636C582.632 123.636 582.003 123.636 582.003 123.636C582.475 122.85 582.475 122.063 583.89 122.063L583.89 122.063ZM925.384 161.546L924.598 161.546C924.598 159.973 922.867 159.973 922.396 159.973C922.867 159.973 922.867 159.973 922.867 159.973C923.811 159.972 924.598 161.546 925.384 161.546L925.384 161.546ZM991.45 153.366C992.551 153.628 991.45 153.89 992.551 154.152C990.191 154.152 992.551 154.939 990.191 154.939C990.821 154.414 990.821 154.152 991.45 153.366L991.45 153.366ZM1158.19 148.646C1156.77 148.017 1152.21 147.387 1158.81 146.916C1163.69 146.601 1165.11 147.388 1168.88 147.545C1163.69 147.702 1159.92 148.174 1158.19 148.646L1158.19 148.646ZM1430.78 144.085C1432.83 143.298 1435.66 143.298 1436.29 142.512C1435.66 142.905 1432.67 144.085 1430.78 144.085L1430.78 144.085ZM1421.19 129.299C1419.61 128.512 1422.13 128.119 1420.72 127.726C1421.19 127.726 1422.13 128.119 1423.39 128.119C1422.13 128.119 1422.13 128.906 1421.19 129.299L1421.19 129.299ZM1443.05 120.805L1443.05 120.805C1446.04 119.389 1446.83 117.974 1440.06 116.715C1440.06 116.715 1440.06 116.873 1440.06 116.715C1440.85 118.131 1452.02 119.389 1443.05 120.805L1443.05 120.805ZM1195.78 87.6156C1194.99 88.1399 1193.58 88.6642 1192.95 89.1886C1192.95 88.6643 1193.42 88.6643 1193.42 88.14C1194.36 88.14 1194.99 87.6156 1195.78 87.6156L1195.78 87.6156ZM1164.16 117.03C1162.59 117.03 1161.17 116.505 1158.81 116.505C1158.81 115.981 1158.19 115.981 1158.19 115.457C1159.92 116.505 1162.59 116.505 1164.16 117.03L1164.16 117.03ZM1114.3 122.221C1113.83 122.221 1112.88 122.221 1112.1 122.221C1112.1 121.697 1114.3 121.172 1114.3 120.648C1115.4 121.172 1113.83 121.697 1114.3 122.221L1114.3 122.221ZM911.07 116.401C908.867 117.187 907.294 117.974 904.148 117.974C907.137 117.974 908.867 117.187 911.07 116.401L911.07 116.401ZM622.586 108.378C622.586 108.378 621.013 107.592 622.586 107.985L622.586 107.592C621.013 107.199 621.013 107.199 621.013 106.805L622.586 107.199C622.586 107.592 622.586 107.592 622.586 107.592C622.586 107.985 622.586 108.378 622.586 108.378L622.586 108.378ZM1148.43 185.454C1148.43 183.881 1150.01 183.881 1148.43 185.454C1150.01 183.881 1150.01 183.881 1150.01 183.881C1150.01 183.881 1150.01 183.881 1148.43 185.454L1148.43 185.454ZM1435.66 149.118C1436.13 149.433 1437.07 149.747 1437.55 150.062C1437.55 150.376 1437.55 150.691 1437.55 150.691C1436.13 150.691 1434.09 150.062 1435.66 149.118L1435.66 149.118ZM1275.06 104.76C1276.11 104.76 1275.06 103.187 1276.11 103.187L1276.63 103.187C1276.11 103.187 1276.11 104.76 1275.06 104.76L1275.06 104.76ZM1269.71 80.8512C1270.5 79.9074 1263.89 80.222 1262.79 79.2782C1264.52 79.5928 1266.56 79.2782 1267.19 79.5928C1268.29 79.9074 1268.77 80.222 1270.5 80.5366L1269.71 80.8512L1269.71 80.8512ZM1220 75.1877C1220 75.1877 1220.63 74.6634 1220 74.1391C1221.58 74.1391 1222.99 73.6147 1224.41 73.6147C1222.99 74.1391 1221.58 74.6634 1220 75.1877L1220 75.1877ZM1022.75 118.445C1020.86 117.659 1019.45 117.659 1018.98 116.872C1018.98 116.872 1018.98 116.872 1019.45 116.872C1020.23 117.659 1021.97 117.659 1022.75 118.445L1022.75 118.445ZM1010.64 114.67C1009.54 114.67 1008.75 114.67 1008.28 114.67C1008.75 114.67 1009.7 113.097 1009.7 113.097C1009.7 113.097 1010.64 113.097 1010.64 114.67L1010.64 114.67ZM955.429 97.5247C953.226 97.3674 950.238 97.3674 948.036 97.2101C940.328 96.8955 943.317 96.109 942.53 95.6371C945.047 96.5809 948.665 97.2101 955.429 97.5247L955.429 97.5247ZM393.56 161.23C393.56 161.23 393.56 161.23 391.987 161.23L393.56 161.23L393.56 161.23L393.56 161.23ZM526.791 167.006C528.993 166.293 528.364 168.434 529.937 168.434C527.42 168.434 526.161 167.72 523.173 167.72C524.431 167.72 526.161 167.72 526.791 167.006L526.791 167.006ZM983.427 181.522L983.427 181.522C983.427 181.522 983.427 181.522 981.854 181.522L983.427 181.522L983.427 181.522ZM1249.58 164.534C1251.78 163.485 1253.98 162.961 1256.97 162.961C1258.54 162.961 1258.54 163.485 1259.96 164.01C1256.02 164.01 1253.35 164.534 1249.58 164.534L1249.58 164.534ZM1355.12 161.073L1355.12 161.073C1355.59 161.073 1357.17 162.185 1357.17 162.185C1356.38 163.297 1355.44 162.185 1355.12 161.073L1355.12 161.073ZM1338.13 153.68C1339.08 152.697 1343.48 152.304 1348.2 152.107C1343.48 152.5 1339.71 152.894 1338.13 153.68L1338.13 153.68ZM1549.39 108.623C1553.63 108.623 1558.19 105.083 1563.07 108.623C1558.04 108.623 1553.63 105.083 1549.39 108.623L1549.39 108.623ZM1561.5 100.042C1559.92 99.2552 1561.5 99.2552 1559.92 99.2552C1561.5 98.4688 1561.5 98.4688 1561.5 98.4688C1561.5 98.4688 1561.5 100.042 1561.5 100.042L1561.5 100.042ZM1390.2 100.513C1391.14 100.513 1391.77 100.513 1392.56 100.513C1392.56 100.513 1392.56 100.513 1392.56 102.086C1391.77 100.513 1391.14 102.086 1390.2 100.513L1390.2 100.513ZM1279.46 63.3905C1280.25 63.9148 1281.66 63.3905 1282.77 63.9148C1281.66 64.9635 1280.88 64.9635 1280.25 64.9635C1279.46 64.4392 1280.25 63.9148 1279.46 63.3905L1279.46 63.3905ZM586.407 90.9959C586.407 90.9959 586.407 90.9959 585.62 91.1853C579.643 89.2912 568.16 89.4806 556.992 89.8594C568.16 89.2912 577.126 90.2383 586.407 90.9959L586.407 90.9959ZM439.176 101.772C439.176 103.345 440.278 101.772 440.278 103.345C439.176 103.345 438.547 103.345 437.761 103.345C437.761 103.345 438.547 101.772 439.176 101.772L439.176 101.772ZM504.926 105.599C505.713 105.599 504.926 106.648 504.926 106.648C504.297 106.123 504.297 105.599 503.511 105.075C504.297 105.075 504.297 105.599 504.926 105.599L504.926 105.599ZM386.639 136.378C394.032 138.111 401.11 138.111 408.503 136.811C401.11 139.41 393.874 136.811 386.639 136.378L386.639 136.378ZM383.492 136.416C384.279 137.393 388.998 137.393 391.986 137.881C388.211 137.393 382.706 136.905 381.29 136.416C381.919 136.416 381.919 136.172 383.492 136.416L383.492 136.416ZM700.763 156.826L700.763 156.826L700.763 156.826C704.538 156.826 706.74 158.25 710.672 158.25C706.897 158.961 703.909 156.826 700.763 158.25C700.763 158.25 700.763 156.826 700.763 156.826L700.763 156.826L700.763 156.826ZM719.639 165.005C719.639 165.005 721.212 166.578 721.212 166.578C721.212 166.578 719.639 166.578 719.639 165.005L719.639 165.005ZM1179.42 174.286C1181.31 174.129 1179.42 173.972 1180.84 173.814C1179.42 174.758 1180.84 175.387 1186.81 176.016L1186.34 176.016C1179.89 175.702 1175.65 174.601 1179.42 174.286L1179.42 174.286ZM1405.14 157.613C1405.14 157.613 1406.24 157.613 1406.87 158.399C1406.24 158.399 1405.14 159.186 1403.88 159.186C1403.88 158.399 1405.14 157.613 1405.14 157.613L1405.14 157.613ZM1348.67 74.0087L1348.2 74.402C1347.42 74.402 1347.42 74.0087 1347.42 74.0087C1349.77 74.0087 1349.77 73.2222 1351.19 72.829C1351.19 73.6155 1348.67 73.6155 1348.67 74.0087L1348.67 74.0087ZM1000.1 89.4585C1000.1 88.2296 1000.1 88.2296 1000.1 88.2296C1001.52 87.0007 1003.09 89.4585 1005.29 89.4585C1003.09 89.4585 1001.99 87.0007 1000.1 89.4585L1000.1 89.4585ZM916.261 91.5475C914.845 91.1542 915.789 90.3677 914.373 90.3677C914.845 89.9745 914.845 89.9745 915.789 89.9745C917.834 90.3678 915.631 91.1542 916.261 91.5475L916.261 91.5475ZM462.928 110.895C461.355 110.895 461.827 112.468 461.355 112.468C460.569 111.682 461.827 111.682 461.827 110.895C461.827 110.895 461.827 110.895 462.928 110.895L462.928 110.895ZM570.52 190.016C568.003 190.367 568.79 190.895 565.959 191.422C558.251 190.016 560.768 191.07 558.251 190.895C562.97 190.719 566.745 190.543 570.52 190.016L570.52 190.016ZM603.553 190.173C605.912 189.859 608.114 190.802 610.946 189.859C610.474 190.802 606.07 190.488 606.07 191.432C602.766 191.117 605.283 190.488 603.553 190.173L603.553 190.173ZM1314.07 170.646C1314.85 170.145 1314.07 170.145 1314.85 169.643C1319.1 171.148 1324.14 168.639 1328.54 169.141C1324.14 169.643 1317.06 169.643 1314.07 170.646L1314.07 170.646ZM1532.71 160.601C1532.71 160.444 1532.71 160.286 1532.71 160.286C1534.91 160.444 1537.27 160.601 1539.16 160.758C1546.71 161.387 1558.04 161.545 1565.9 162.174C1556.15 161.073 1546.08 160.286 1532.71 160.601L1532.71 160.601ZM1435.66 67.4807C1435.66 66.6942 1432.67 65.9077 1434.09 65.9077C1435.66 65.9077 1437.07 66.6942 1439.59 66.6942C1437.55 66.6942 1436.13 67.4807 1435.66 67.4807L1435.66 67.4807ZM948.664 75.5031C949.753 75.5031 949.753 75.5031 949.753 75.5031C950.842 75.5031 949.753 75.5031 949.753 75.5031L948.664 75.5031L948.664 75.5031ZM889.206 82.581C888.419 82.581 888.419 82.581 887.79 82.581C888.262 82.581 889.992 82.581 889.992 81.0081C889.992 82.581 889.206 82.581 889.206 82.581L889.206 82.581ZM799.546 92.4908C800.49 90.9178 802.063 90.9178 802.535 90.9178C803.321 92.4908 803.321 92.4908 803.321 92.4908C801.905 90.9178 800.962 92.4908 799.546 92.4908L799.546 92.4908ZM789.636 84.6262C790.423 84.1019 788.85 83.5776 788.85 83.0532C789.636 83.5775 792.625 83.5775 794.355 84.1019C792.782 84.1019 791.366 84.6262 789.636 84.6262L789.636 84.6262ZM724.201 85.2558C718.853 84.4694 712.247 84.8626 706.741 84.4694C708.314 84.0761 709.73 84.0761 712.247 83.6829C715.078 83.6828 719.64 84.4694 724.201 85.2558L724.201 85.2558ZM618.812 85.8672C628.407 85.1766 638.946 84.1407 641.462 84.3133C642.878 84.486 643.665 84.3133 645.238 84.486C635.17 85.0039 626.362 85.3492 618.812 85.8672L618.812 85.8672ZM296.193 172.87C296.979 173.394 299.339 173.919 299.968 174.443C299.496 174.094 296.979 173.569 296.193 173.22C295.564 172.87 296.193 172.87 296.193 172.87L296.193 172.87ZM886.69 193.476C886.69 194.263 887.791 194.263 887.791 194.263L887.791 195.049C886.69 194.263 886.69 194.263 886.218 194.263C886.69 194.263 886.69 194.263 886.69 193.476L886.69 193.476ZM957.631 203.072L957.631 201.499L957.631 201.499L957.631 203.072L957.631 203.072ZM1625.05 153.366C1626.15 153.628 1625.05 153.89 1626.93 154.152C1625.05 154.414 1626.15 154.677 1623.79 154.939C1623.16 154.414 1625.05 153.89 1625.05 153.366L1625.05 153.366ZM1603.5 74.0875C1601.14 74.0875 1599.72 73.301 1597.99 73.301C1597.99 73.301 1597.99 73.301 1597.99 72.5145C1599.72 73.301 1601.14 73.301 1603.5 74.0875L1603.5 74.0875ZM1419.61 81.6377C1419.61 80.0647 1419.61 80.0647 1419.61 81.6377C1419.61 80.0647 1419.61 80.0647 1421.19 80.0647C1421.19 80.0647 1421.19 80.0647 1419.61 81.6377L1419.61 81.6377ZM1496.69 59.5423L1495.12 60.4411C1495.12 59.5423 1495.12 59.5423 1495.12 59.5423C1495.12 58.6434 1495.12 58.6434 1496.69 59.5423L1496.69 59.5423L1496.69 59.5423ZM1429.37 56.0767L1429.37 55.6835L1429.37 55.6835L1429.37 56.0767C1431.73 55.6835 1430.78 55.2902 1431.73 54.897C1431.73 55.2902 1430.63 55.6835 1430.63 56.47C1430.78 56.0767 1430.31 56.0767 1429.37 56.0767L1429.37 56.0767ZM734.897 69.7514C724.829 69.7514 714.133 69.309 704.695 68.4242C704.695 68.4242 705.482 68.4242 706.111 68.4242C716.178 70.1938 725.616 70.1938 734.897 69.7514L734.897 69.7514ZM434.771 66.8519C435.401 67.4811 433.985 67.7957 433.356 68.4249C432.569 68.1103 433.828 67.4811 432.569 66.8519C433.513 66.8519 433.985 66.8519 434.771 66.8519L434.771 66.8519ZM401.111 115.771C401.111 115.771 401.111 115.771 401.583 115.771C401.111 117.344 400.167 117.344 400.167 117.344C398.752 115.771 397.651 115.771 397.179 115.771C398.752 115.771 400.167 115.771 401.111 115.771L401.111 115.771ZM308.147 228.329C314.911 228.778 319.63 228.104 322.619 226.981C322.619 227.205 322.619 227.205 323.405 227.205C318.215 227.655 312.866 228.104 308.147 228.554L308.147 228.329L308.147 228.329ZM1037.7 212.824L1037.7 212.824C1045.87 212.51 1051.85 211.723 1055.78 210.937L1055.78 210.937C1043.36 210.937 1038.32 211.566 1037.7 212.824L1037.7 212.824ZM1504.55 178.061C1505.34 179.162 1511.63 179.792 1519.81 180.264C1516.04 180.264 1512.1 180.264 1508.33 180.264C1507.86 179.32 1504.55 178.848 1504.55 178.061L1504.55 178.061ZM1706.05 87.3003C1714.7 85.7273 1703.54 85.57 1702.75 84.9408C1705.27 85.8846 1709.04 86.6711 1712.03 87.6149C1709.51 87.3003 1707.63 87.3003 1706.05 87.3003L1706.05 87.3003ZM1510.06 52.3798C1513.05 53.6948 1519.03 54.3523 1522.8 53.6948C1518.55 53.6948 1514.78 53.0373 1510.06 52.3798L1510.06 52.3798ZM1242.65 50.9644C1242.65 52.5373 1241.08 52.5373 1241.08 52.5373C1240.14 50.9644 1238.88 52.5373 1238.09 50.9644C1239.67 52.5373 1241.08 50.9644 1242.65 50.9644L1242.65 50.9644ZM700.762 63.0768C699.976 63.0768 699.976 63.0768 699.976 63.0768C699.976 63.0768 699.976 63.0768 699.189 63.0768C699.189 63.0768 699.976 63.0768 699.976 61.5038C699.976 63.0768 699.976 63.0768 700.762 63.0768L700.762 63.0768ZM424.232 70.9414C416.053 72.5727 407.087 72.9352 394.817 72.0289C405.986 72.3914 416.053 72.2102 424.232 70.9414L424.232 70.9414ZM644.136 220.532C645.237 222.105 645.709 222.105 647.124 222.105C645.709 222.105 645.237 222.105 644.136 220.532L644.136 220.532L644.136 220.532ZM794.354 189.387C800.961 188.862 807.725 188.862 814.017 187.814C808.511 189.387 801.905 189.387 794.354 189.387L794.354 189.387ZM943.474 222.105C943.474 220.532 943.474 220.532 943.474 222.105L945.047 220.532C945.047 220.532 943.474 220.532 943.474 222.105L943.474 222.105ZM1035.34 216.756C1035.34 216.581 1035.34 216.581 1035.34 216.756C1039.11 216.232 1044.46 215.882 1046.66 215.183C1046.66 215.183 1046.66 215.183 1047.13 215.183C1041.47 215.358 1038.32 216.057 1035.34 216.756L1035.34 216.756ZM1589.18 182.938C1589.18 182.938 1589.18 182.938 1589.97 182.938L1589.18 182.938C1589.97 182.623 1590.75 182.623 1591.38 182.623C1590.91 182.938 1589.97 182.938 1589.97 182.938C1589.18 183.567 1592.48 183.567 1592.48 184.196C1591.23 183.881 1589.97 183.567 1589.18 182.938L1589.18 182.938ZM1767.87 54.4256C1766.3 54.4256 1766.3 54.4256 1766.3 54.4256L1766.3 52.8527L1766.3 52.8527C1766.3 52.8526 1766.3 54.4256 1767.87 54.4256L1767.87 54.4256ZM1743.65 44.2005C1743.65 43.8073 1744.12 43.8073 1744.12 43.0208L1745.85 42.6276C1744.12 43.0208 1744.12 43.414 1743.65 44.2005L1743.65 44.2005ZM1665.94 72.9857C1663.27 72.0419 1659.97 71.4127 1653.99 71.7273C1653.99 71.7273 1653.99 71.7273 1653.99 71.4127C1657.76 72.3565 1662.17 72.3565 1665.94 72.9857L1665.94 72.9857L1665.94 72.9857ZM1106.91 54.897C1104.7 55.9456 1101.87 56.47 1096.68 56.47C1094.17 56.2078 1095.58 55.9456 1095.11 55.6835C1099.36 55.6835 1103.29 55.1591 1107.85 54.897C1107.85 54.897 1107.85 54.897 1106.91 54.897L1106.91 54.897ZM851.769 60.5596C851.769 60.5596 850.196 58.9866 850.196 58.9866C850.197 60.5596 851.769 60.5596 851.769 60.5596L851.769 60.5596ZM676.067 59.3016C674.494 58.7773 672.292 58.253 669.775 57.7286C670.562 57.7286 671.506 58.253 672.292 58.253C674.337 58.253 674.337 59.3016 676.067 59.3016L676.067 59.3016ZM348.101 113.412C342.123 114.985 346.685 116.401 358.797 117.187C352.82 116.401 349.044 115.143 347.629 113.412L348.101 113.412L348.101 113.412ZM227.611 95.165C225.881 95.5583 227.611 96.3448 225.881 96.738C224.465 96.738 223.678 95.9515 222.105 95.9515C223.836 95.9515 225.251 95.5583 227.611 95.165L227.611 95.165ZM228.554 118.375C228.554 118.375 230.127 114.836 230.127 118.375C230.127 118.375 230.127 118.375 228.554 118.375L228.554 118.375L228.554 118.375ZM252.935 126.205C252.935 126.467 252.463 126.73 252.463 127.254C250.261 126.73 249.16 126.205 247.901 125.681C250.261 125.943 251.205 126.205 252.935 126.205L252.935 126.205ZM203.386 210.204C196.622 211.071 184.51 210.493 172.556 209.338C172.556 209.049 173.342 209.049 173.342 209.049C182.151 210.782 192.847 210.493 203.386 210.204L203.386 210.204ZM203.387 227.925C190.803 226.352 186.241 224.307 187.028 222.262C187.028 222.105 187.5 222.105 187.5 221.948C180.264 224.464 190.803 226.195 203.387 227.925L203.387 227.925ZM925.385 223.29C923.655 223.29 922.396 224.189 920.98 224.189C921.452 223.29 922.868 223.29 923.655 223.29C923.812 222.391 924.598 222.391 925.385 223.29L925.385 223.29ZM1123.58 217.701C1134.28 216.285 1141.04 217.229 1148.43 217.858C1148.43 218.173 1147.49 218.016 1147.49 218.173C1146.7 218.33 1147.49 218.487 1147.49 218.645C1136.01 217.701 1127.35 218.33 1119.8 219.117C1122.16 218.645 1121.22 218.016 1123.58 217.701L1123.58 217.701ZM1149.22 222.734C1149.22 222.734 1149.22 222.734 1150.09 222.734L1150.09 222.734L1150.09 222.734L1150.09 222.734C1150.09 222.734 1150.09 222.734 1150.79 222.734C1150.09 222.734 1150.09 222.734 1150.09 222.734L1149.22 222.734L1149.22 222.734ZM1539.16 191.746C1540.26 190.173 1540.89 191.746 1541.52 190.173L1541.52 191.746C1540.89 191.746 1540.26 191.746 1539.16 191.746L1539.16 191.746ZM1789.74 83.0537C1788.01 83.0537 1790.99 82.4245 1791.78 82.1099C1791.78 82.739 1792.57 83.3683 1791.78 83.6828C1790.52 83.3683 1791.78 83.3683 1789.74 83.0537L1789.74 83.0537ZM1785.02 67.1544C1785.02 67.1544 1785.02 67.1544 1785.02 66.0654C1785.65 67.1544 1787.22 67.1544 1788.79 67.1544C1787.22 68.2434 1786.75 67.1544 1785.02 67.1544L1785.02 67.1544ZM1613.09 48.447C1608.21 49.7496 1602.71 50.1838 1596.73 49.9667C1603.5 49.7496 1608.69 49.3154 1613.09 48.447L1613.09 48.447ZM1568.73 59.2053L1568.73 59.2053C1566.06 59.2053 1563.54 59.2053 1560.55 59.2053C1560.55 59.2053 1560.55 59.2053 1560.55 58.3577C1563.54 59.2053 1566.06 60.9006 1568.73 59.2053L1568.73 59.2053ZM1403.26 39.7959C1402.31 39.0968 1400.74 39.0968 1399.95 38.5725C1404.51 38.3977 1410.02 38.3977 1413.64 38.2229C1410.02 38.922 1408.45 38.922 1403.26 39.7959L1403.26 39.7959ZM1000.1 59.6162C1000.1 58.5675 997.584 58.5675 997.584 58.5675C1000.57 59.6162 1003.56 58.0432 1006.86 58.0432C1004.51 58.5675 1001.99 59.0919 1000.1 59.6162L1000.1 59.6162ZM964.394 51.9084C962.979 51.9084 962.979 51.4365 962.979 51.1219L962.979 51.1219C962.507 51.7511 966.754 52.223 969.271 52.6949C965.967 52.6949 968.327 52.0657 964.394 51.9084L964.394 51.9084ZM752.671 44.2005C753.772 44.2005 754.244 44.8297 755.659 45.3016C755.03 45.3016 754.244 45.1443 754.244 45.1443C752.042 44.8297 746.851 44.2005 742.289 43.7286C746.064 43.8859 748.266 44.2005 752.671 44.2005L752.671 44.2005ZM467.333 54.2679C468.12 53.7436 468.749 53.2193 469.692 52.6949C469.692 53.2193 468.591 53.7436 469.692 54.2679C468.591 53.7436 468.12 54.2679 467.333 54.2679L467.333 54.2679ZM373.74 63.0768L373.74 63.0768C373.74 63.0768 373.74 61.5038 375.313 61.5038L373.74 63.0768L373.74 63.0768ZM306.26 84.7831C302.957 83.9966 298.553 83.9966 294.777 83.6033C298.552 83.2101 302.328 83.9966 306.26 83.2101C306.26 83.9966 306.732 84.3898 306.26 84.7831L306.26 84.7831ZM187.027 107.12C187.027 107.277 187.027 107.277 187.027 107.434C172.555 107.749 170.196 109.165 164.376 110.266C165.792 109.794 162.017 108.85 170.196 108.693C179.477 108.693 184.038 108.064 187.027 107.12L187.027 107.12ZM200.399 122.692C202.916 123.793 208.106 123.426 211.095 124.159C208.893 124.526 208.893 123.793 205.904 124.159C205.118 124.526 202.129 123.426 199.612 122.692C200.399 122.692 200.399 122.692 200.399 122.692L200.399 122.692ZM206.375 143.771C207.162 145.343 208.105 145.343 208.892 145.343C207.319 145.343 206.375 145.343 205.903 145.343C205.903 143.771 206.375 143.771 206.375 143.771L206.375 143.771ZM607.644 230.442C607.644 228.869 608.902 229.655 609.531 228.869C609.531 229.655 607.644 228.869 608.115 230.442C607.644 230.442 607.644 230.442 607.644 230.442L607.644 230.442ZM737.571 212.037C736.784 212.561 738.357 213.61 737.571 213.61C736.784 213.086 737.571 212.561 736.155 212.037C736.784 212.037 737.571 212.037 737.571 212.037L737.571 212.037ZM1551.43 193.334C1551.43 192.855 1551.43 192.855 1551.43 192.375C1552.22 192.855 1553.63 193.334 1554.73 193.814C1553 194.293 1553 193.334 1551.43 193.334L1551.43 193.334ZM1720.15 187.027L1720.15 187.027C1720.15 186.24 1718.92 186.24 1718.92 185.454C1717.69 186.24 1720.15 186.24 1720.15 187.027L1720.15 187.027ZM1720.26 187.342C1720.26 187.342 1719.74 185.769 1719.74 185.769L1719.74 185.769C1719.74 187.342 1720.26 187.342 1721.31 187.342L1720.26 187.342L1720.26 187.342ZM1773.22 37.2839C1781.4 36.7546 1788.95 36.2253 1797.44 36.2253C1797.44 36.2253 1797.44 36.2253 1797.44 36.7546C1788.95 34.6373 1781.24 36.2253 1773.22 37.2839L1773.22 37.2839ZM1173.13 30.3581C1174.07 29.5716 1174.07 28.7852 1174.86 28.7852C1175.65 29.5716 1174.86 30.3581 1175.65 30.3581C1174.86 30.3581 1174.07 30.3581 1173.13 30.3581L1173.13 30.3581ZM524.519 233.587L525.219 235.16C524.519 235.16 524.519 233.587 523.646 233.587C524.519 233.587 524.519 233.587 524.519 233.587L524.519 233.587ZM654.203 232.16C654.675 231.071 656.405 232.16 657.664 231.071C658.45 231.071 659.079 232.16 660.18 232.16C657.821 232.16 655.619 233.249 654.203 232.16L654.203 232.16ZM1270.5 223.835C1270.97 223.049 1272.07 223.049 1273.48 222.262C1272.7 223.049 1272.07 223.049 1271.13 223.835L1270.5 223.835L1270.5 223.835ZM1822.61 147.79L1822.61 147.79C1823.56 146.02 1824.34 147.79 1824.34 147.79C1823.56 149.56 1823.56 147.79 1822.61 147.79L1822.61 147.79ZM1467.9 23.1233C1464.13 22.8087 1461.14 21.8649 1455.95 21.8649C1457.37 21.8649 1459.73 21.8649 1461.93 21.5503C1464.76 21.8649 1465.55 23.1233 1467.9 23.1233L1467.9 23.1233ZM1187.6 45.4592C1186.18 44.9349 1183.83 44.9349 1183.83 43.8862C1186.18 44.4106 1187.6 44.4106 1189.02 45.4592C1189.02 45.4592 1188.23 45.4592 1187.6 45.4592L1187.6 45.4592ZM528.364 38.6955C528.993 37.909 534.342 37.5158 539.532 37.1226C531.353 37.3192 528.836 37.909 528.364 38.6955L528.364 38.6955ZM448.457 42.7152C448.457 42.7152 448.457 42.7152 448.457 42.7152C448.457 39.1761 448.457 42.7152 450.03 42.7152C448.457 42.7152 448.457 42.7152 448.457 42.7152L448.457 42.7152ZM136.378 99.413C138.108 99.8624 138.895 100.537 140.153 100.986C139.367 100.986 139.367 100.986 138.737 100.986C140.782 100.537 137.164 100.312 136.378 99.413L136.378 99.413ZM102.56 136.692C102.56 136.692 102.56 136.692 102.56 135.119L102.56 135.119C102.56 136.692 102.56 136.692 102.56 136.692L102.56 136.692ZM152.422 225.88L152.422 225.88L150.849 225.88L152.422 225.88L152.422 225.88ZM272.125 239.879C272.125 239.879 272.125 239.879 270.552 239.879C272.125 239.879 272.125 239.879 272.125 239.879L272.125 239.879L272.125 239.879ZM1933.66 24.2235C1933.66 24.5381 1933.66 24.5381 1934.14 24.5381C1927.53 23.9089 1923.6 24.5381 1919.66 25.7965C1922.18 24.5381 1927.69 24.5381 1933.66 24.2235L1933.66 24.2235ZM109.951 111.299C102.558 111.026 97.5247 111.844 92.4912 112.662C97.3674 111.299 103.03 110.753 109.951 111.299L109.951 111.299ZM103.345 139.68C103.345 139.68 101.772 139.68 101.772 141.253C101.772 139.68 101.772 139.68 101.772 139.68L103.345 139.68L103.345 139.68ZM1354.18 218.487C1355.75 218.487 1355.75 218.487 1355.75 218.487C1355.75 220.06 1355.75 220.06 1354.18 220.06C1354.18 220.06 1354.18 220.06 1354.18 218.487L1354.18 218.487ZM29.4148 66.0654C29.4148 66.0654 27.8418 66.0654 27.8418 67.6384C27.8418 66.0654 27.8418 67.6384 27.8418 66.0654C27.8418 66.0654 27.8418 66.0654 29.4148 66.0654L29.4148 66.0654ZM206.376 254.614C202.915 254.133 198.983 253.172 194.421 253.652C200.398 253.652 206.376 253.652 212.667 255.094C210.308 255.094 208.106 254.133 206.376 254.614L206.376 254.614ZM215.656 255.609C214.083 255.609 215.656 254.036 214.083 254.036L215.656 254.036C215.656 255.609 215.656 255.609 215.656 255.609L215.656 255.609ZM1799.33 190.015C1800.12 189.491 1801.22 188.967 1801.69 188.443C1801.22 188.967 1801.69 188.967 1801.22 188.967C1801.22 190.015 1799.33 190.015 1799.33 190.015L1799.33 190.015ZM1905.82 40.1112L1907.4 40.1112C1907.4 40.1112 1907.4 40.1112 1907.4 41.6842C1907.39 40.1112 1907.39 40.1112 1905.82 40.1112L1905.82 40.1112Z" transform="translate(0 3.1461182)" id="XMLID_9_" fill="#FFFFFF" fill-rule="evenodd" stroke="none" />
      <path d="M11.3256 1.00254C9.90984 0.622254 9.90984 0.0518221 7.55037 0.0518221C6.13465 -0.138323 3.14596 0.241967 0 0.432112C0.786489 0.812402 1.57298 1.38283 3.14596 1.57298C5.03365 1.57298 8.33686 1.00254 11.3256 1.00254L11.3256 1.00254Z" transform="translate(1854.3857 12.540039)" id="XMLID_5_" fill="#FFFFFF" fill-rule="evenodd" stroke="none" />
      <path d="M0.233873 0.629191C-1.3391 2.51677 4.9528 3.46055 21.1545 3.46055L23.6713 3.14596C22.8848 1.73028 16.9074 0.629191 4.9528 0C3.22257 0.314596 1.80685 0.471894 0.233873 0.629191L0.233873 0.629191Z" transform="translate(1733.6611 0)" id="XMLID_4_" fill="#FFFFFF" fill-rule="evenodd" stroke="none" />
      <path d="M9.60346 1.17974C10.5472 0.983112 8.97422 0.589868 7.8732 0C5.98569 0.196623 2.83972 0.196623 1.26673 0.589868C-0.935499 0.983112 -0.306264 1.17974 3.46895 1.57298C5.9855 1.57298 8.97422 1.57298 9.60346 1.17974L9.60346 1.17974Z" transform="translate(1874.1973 5.977051)" id="XMLID_3_" fill="#FFFFFF" fill-rule="evenodd" stroke="none" />
    </g>
  </g>
</svg>