<?xml version="1.0" encoding="utf-8"?>
<svg width="32px" height="32px" viewBox="0 0 32 32" version="1.1" xmlns:xlink="http://www.w3.org/1999/xlink" xmlns="http://www.w3.org/2000/svg">
  <g id="Ellipse-2">
    <path d="M0 16C0 7.16344 7.16344 0 16 0C24.8366 0 32 7.16344 32 16C32 24.8366 24.8366 32 16 32C7.16344 32 0 24.8366 0 16Z" id="bg" fill="#5A6978" fill-opacity="0.2509804" fill-rule="evenodd" stroke="none" />
    <g id="bar-chart-fill" transform="translate(8 8)">
      <g id="Group">
        <path d="M0 0L14.4 0L14.4 14.4L0 14.4L0 0Z" id="Shape" fill="none" fill-rule="evenodd" stroke="none" />
        <path d="M1.7998 7.2002L4.1998 7.2002L4.1998 12.6002L1.7998 12.6002L1.7998 7.2002L1.7998 7.2002ZM10.1997 4.80029L12.5997 4.80029L12.5997 12.6003L10.1997 12.6003L10.1997 4.80029L10.1997 4.80029ZM6 1.2002L8.4 1.2002L8.4 12.6002L6 12.6002L6 1.2002L6 1.2002Z" id="Shape" fill="#5A6978" fill-rule="evenodd" stroke="none" />
      </g>
    </g>
  </g>
</svg>