<?xml version="1.0" encoding="utf-8"?>
<svg width="15px" height="14px" viewBox="0 0 15 14" version="1.1" xmlns:xlink="http://www.w3.org/1999/xlink" xmlns="http://www.w3.org/2000/svg">
  <path d="M682.599 507.061C681.787 506.24 680.658 505.731 679.411 505.731C676.935 505.731 674.928 507.738 674.928 510.214C674.928 510.47 674.72 510.678 674.464 510.678C674.208 510.678 674 510.47 674 510.214C674 507.226 676.423 504.803 679.411 504.803C681.007 504.803 682.442 505.494 683.432 506.593C683.119 506.686 682.836 506.848 682.599 507.061L682.599 507.061L682.599 507.061ZM679.411 504.494C677.618 504.494 676.165 503.04 676.165 501.247C676.165 499.454 677.618 498 679.411 498C681.205 498 682.658 499.454 682.658 501.247C682.658 503.04 681.205 504.494 679.411 504.494L679.411 504.494ZM679.411 503.566C680.692 503.566 681.731 502.528 681.731 501.247C681.731 499.966 680.692 498.928 679.411 498.928C678.131 498.928 677.092 499.966 677.092 501.247C677.092 502.528 678.131 503.566 679.411 503.566L679.411 503.566ZM681.381 508.304L680.532 509.209L683.509 512L688.268 505.881L687.289 505.12L683.365 510.165L681.381 508.304Z" id="Shape" fill="#EB8242" fill-rule="evenodd" stroke="none" />
</svg>