<?xml version="1.0" encoding="utf-8"?>
<svg width="32px" height="31px" viewBox="0 0 32 31" version="1.1" xmlns:xlink="http://www.w3.org/1999/xlink" xmlns="http://www.w3.org/2000/svg">
  <g id="Group" transform="translate(0.25 0.25)">
    <path d="M18.427 19.4172C16.6855 17.6564 14.268 16.5655 11.5958 16.5655C6.28945 16.5655 1.98784 20.8671 1.98784 26.1734C1.98784 26.7223 1.54285 27.1673 0.993922 27.1673C0.444995 27.1673 0 26.7223 0 26.1734C0 19.7692 5.1916 14.5776 11.5958 14.5776C15.0157 14.5776 18.0899 16.0582 20.2123 18.4133C19.541 18.6127 18.9334 18.9599 18.427 19.4172L18.427 19.4172L18.427 19.4172ZM11.5959 13.9149C7.75339 13.9149 4.63843 10.8 4.63843 6.95746C4.63843 3.11496 7.75339 0 11.5959 0C15.4384 0 18.5533 3.11496 18.5533 6.95746C18.5533 10.8 15.4384 13.9149 11.5959 13.9149L11.5959 13.9149ZM11.5958 11.927C14.3405 11.927 16.5654 9.70204 16.5654 6.9574C16.5654 4.21276 14.3405 1.98779 11.5958 1.98779C8.85119 1.98779 6.62622 4.21276 6.62622 6.9574C6.62622 9.70204 8.85119 11.927 11.5958 11.927L11.5958 11.927ZM15.8155 22.0804L13.9976 24.0195L20.3768 30L30.5745 16.8887L28.4764 15.2568L20.0682 26.0674L15.8155 22.0804Z" id="Shape" fill="#EB8242" fill-rule="evenodd" stroke="#FFFFFF" stroke-width="0.5" />
  </g>
</svg>