<?xml version="1.0" encoding="utf-8"?>
<svg width="74px" height="74px" viewbox="0 0 74 74" version="1.1" xmlns:xlink="http://www.w3.org/1999/xlink" xmlns="http://www.w3.org/2000/svg">
  <defs>
    <filter id="filter_1">
      <feColorMatrix in="SourceGraphic" type="matrix" values="0 0 0 0 1 0 0 0 0 1 0 0 0 0 1 0 0 0 1 0" />
    </filter>
  </defs>
  <path d="M5.999 0L68.001 0Q68.1483 0 68.2953 0.00722606Q68.4424 0.0144521 68.589 0.0288868Q68.7356 0.0433215 68.8812 0.0649301Q69.0269 0.0865387 69.1713 0.115269Q69.3158 0.143999 69.4586 0.179782Q69.6015 0.215565 69.7424 0.258315Q69.8833 0.301064 70.022 0.350677Q70.1606 0.40029 70.2967 0.456647Q70.4328 0.513003 70.5659 0.575968Q70.699 0.638933 70.8289 0.708354Q70.9588 0.777776 71.0851 0.853486Q71.2114 0.929196 71.3339 1.01101Q71.4563 1.09283 71.5746 1.18056Q71.6929 1.26828 71.8067 1.36171Q71.9206 1.45514 72.0297 1.55403Q72.1388 1.65293 72.2429 1.75707Q72.3471 1.8612 72.446 1.97032Q72.5449 2.07944 72.6383 2.19327Q72.7317 2.30711 72.8194 2.4254Q72.9072 2.54369 72.989 2.66613Q73.0708 2.78858 73.1465 2.9149Q73.2222 3.04121 73.2916 3.17109Q73.3611 3.30097 73.424 3.4341Q73.487 3.56722 73.5433 3.70328Q73.5997 3.83934 73.6493 3.978Q73.6989 4.11666 73.7417 4.25758Q73.7844 4.39851 73.8202 4.54136Q73.856 4.68422 73.8847 4.82865Q73.9135 4.97309 73.9351 5.11876Q73.9567 5.26444 73.9711 5.411Q73.9855 5.55755 73.9928 5.70464Q74 5.85173 74 5.999L74 68.001Q74 68.1483 73.9928 68.2953Q73.9855 68.4424 73.9711 68.589Q73.9567 68.7356 73.9351 68.8812Q73.9135 69.0269 73.8847 69.1713Q73.856 69.3158 73.8202 69.4586Q73.7844 69.6015 73.7417 69.7424Q73.6989 69.8833 73.6493 70.022Q73.5997 70.1606 73.5433 70.2967Q73.487 70.4328 73.424 70.5659Q73.3611 70.699 73.2916 70.8289Q73.2222 70.9588 73.1465 71.0851Q73.0708 71.2114 72.989 71.3339Q72.9072 71.4563 72.8194 71.5746Q72.7317 71.6929 72.6383 71.8067Q72.5449 71.9206 72.446 72.0297Q72.3471 72.1388 72.2429 72.2429Q72.1388 72.3471 72.0297 72.446Q71.9206 72.5449 71.8067 72.6383Q71.6929 72.7317 71.5746 72.8194Q71.4563 72.9072 71.3339 72.989Q71.2114 73.0708 71.0851 73.1465Q70.9588 73.2222 70.8289 73.2916Q70.699 73.3611 70.5659 73.424Q70.4328 73.487 70.2967 73.5433Q70.1607 73.5997 70.022 73.6493Q69.8833 73.6989 69.7424 73.7417Q69.6015 73.7844 69.4586 73.8202Q69.3158 73.856 69.1713 73.8847Q69.0269 73.9135 68.8812 73.9351Q68.7356 73.9567 68.589 73.9711Q68.4425 73.9855 68.2954 73.9928Q68.1483 74 68.001 74L5.999 74Q5.85173 74 5.70464 73.9928Q5.55755 73.9855 5.411 73.9711Q5.26444 73.9567 5.11876 73.9351Q4.97309 73.9135 4.82865 73.8847Q4.68422 73.856 4.54136 73.8202Q4.39851 73.7844 4.25758 73.7417Q4.11666 73.6989 3.978 73.6493Q3.83934 73.5997 3.70328 73.5433Q3.56722 73.487 3.4341 73.424Q3.30097 73.3611 3.17109 73.2916Q3.04121 73.2222 2.9149 73.1465Q2.78858 73.0708 2.66613 72.989Q2.54369 72.9072 2.4254 72.8194Q2.30711 72.7317 2.19327 72.6383Q2.07944 72.5449 1.97032 72.446Q1.8612 72.3471 1.75707 72.2429Q1.65293 72.1388 1.55403 72.0297Q1.45514 71.9206 1.36171 71.8067Q1.26829 71.6929 1.18056 71.5746Q1.09283 71.4563 1.01101 71.3339Q0.929196 71.2114 0.853486 71.0851Q0.777776 70.9588 0.708354 70.8289Q0.638933 70.699 0.575968 70.5659Q0.513003 70.4328 0.456647 70.2967Q0.40029 70.1607 0.350677 70.022Q0.301064 69.8833 0.258315 69.7424Q0.215565 69.6015 0.179782 69.4586Q0.143999 69.3158 0.115269 69.1713Q0.0865387 69.0269 0.0649301 68.8812Q0.0433215 68.7356 0.0288868 68.589Q0.0144521 68.4425 0.00722606 68.2954Q0 68.1483 0 68.001L0 5.999Q0 5.85173 0.00722606 5.70464Q0.0144521 5.55755 0.0288868 5.411Q0.0433215 5.26444 0.0649301 5.11876Q0.0865387 4.97309 0.115269 4.82865Q0.143999 4.68422 0.179782 4.54136Q0.215565 4.39851 0.258315 4.25758Q0.301064 4.11666 0.350677 3.978Q0.40029 3.83934 0.456647 3.70328Q0.513003 3.56722 0.575968 3.4341Q0.638933 3.30097 0.708354 3.17109Q0.777776 3.04121 0.853486 2.9149Q0.929196 2.78858 1.01101 2.66613Q1.09283 2.54369 1.18056 2.4254Q1.26828 2.30711 1.36171 2.19327Q1.45514 2.07944 1.55403 1.97032Q1.65293 1.8612 1.75707 1.75707Q1.8612 1.65293 1.97032 1.55403Q2.07944 1.45514 2.19327 1.36171Q2.30711 1.26829 2.4254 1.18056Q2.54369 1.09283 2.66613 1.01101Q2.78858 0.929196 2.9149 0.853486Q3.04121 0.777776 3.17109 0.708354Q3.30097 0.638933 3.4341 0.575968Q3.56722 0.513003 3.70328 0.456647Q3.83934 0.40029 3.978 0.350677Q4.11666 0.301064 4.25758 0.258315Q4.39851 0.215565 4.54136 0.179782Q4.68422 0.143999 4.82865 0.115269Q4.97309 0.0865387 5.11876 0.0649301Q5.26444 0.0433215 5.411 0.0288868Q5.55755 0.0144521 5.70464 0.00722606Q5.85173 0 5.999 0Z" id="Mask" fill="#F36D24" fill-rule="evenodd" stroke="none" />
  <g id="noun_innovation_3312291" transform="translate(18.765625 17)" filter="url(#filter_1)">
    <g id="Group">
      <g id="Group" transform="translate(8 8.125)">
        <path d="M10.375 0C4.625 0 0 4.65625 0 10.375C0 16.125 4.65625 20.75 10.375 20.75C16.125 20.75 20.75 16.0938 20.75 10.375C20.75 4.65625 16.0938 0 10.375 0L10.375 0ZM10.375 16.7188C6.875 16.7188 4.0625 13.875 4.0625 10.4063C4.0625 6.9375 6.875 4.0625 10.375 4.0625C13.875 4.0625 16.6875 6.90625 16.6875 10.375C16.6875 13.8438 13.8438 16.7188 10.375 16.7188L10.375 16.7188Z" id="Shape" fill="#000000" fill-rule="evenodd" stroke="none" />
      </g>
      <g id="Group" transform="translate(5.3125 5.46875)">
        <path d="M1.25 6.90625L0 6.90625L0 0L6.90625 0L6.90625 1.25L1.25 1.25L1.25 6.90625Z" id="Polygon" fill="#000000" fill-rule="evenodd" stroke="none" />
      </g>
      <g id="Group" transform="translate(24.5 24.65625)">
        <path d="M6.90625 6.90625L0 6.90625L0 5.65625L5.65625 5.65625L5.65625 0L6.90625 0L6.90625 6.90625Z" id="Polygon" fill="#000000" fill-rule="evenodd" stroke="none" />
      </g>
      <g id="Group" transform="translate(5.3125 24.65625)">
        <path d="M6.90625 6.90625L0 6.90625L0 0L1.25 0L1.25 5.65625L6.90625 5.65625L6.90625 6.90625Z" id="Polygon" fill="#000000" fill-rule="evenodd" stroke="none" />
      </g>
      <g id="Group" transform="translate(24.5 5.46875)">
        <path d="M6.90625 6.90625L5.65625 6.90625L5.65625 1.25L0 1.25L0 0L6.90625 0L6.90625 6.90625Z" id="Polygon" fill="#000000" fill-rule="evenodd" stroke="none" />
      </g>
      <g id="Group" transform="translate(0 13.5625)">
        <path d="M4.90625 9.78125L0 4.90625L4.90625 0L5.78125 0.906249L1.78125 4.90625L5.78125 8.90625L4.90625 9.78125Z" id="Polygon" fill="#000000" fill-rule="evenodd" stroke="none" />
      </g>
      <g id="Group" transform="translate(31.15625 13.5625)">
        <path d="M0.875001 9.78125L0 8.90625L4 4.90625L0 0.906249L0.875001 0L5.78125 4.90625L0.875001 9.78125Z" id="Polygon" fill="#000000" fill-rule="evenodd" stroke="none" />
      </g>
      <g id="Group" transform="translate(13.59375 0)">
        <path d="M8.875 5.78125L4.875 1.78125L0.875 5.78125L0 4.875L4.875 0L9.75 4.875L8.875 5.78125Z" id="Polygon" fill="#000000" fill-rule="evenodd" stroke="none" />
      </g>
      <g id="Group" transform="translate(17.125 17.28125)">
        <path d="M0 0L2.4375 0L2.4375 2.4375L0 2.4375L0 0Z" id="Rectangle" fill="#000000" fill-rule="evenodd" stroke="none" />
      </g>
      <g id="Group" transform="translate(13.53125 17.28125)">
        <path d="M0 0L2.4375 0L2.4375 2.4375L0 2.4375L0 0Z" id="Rectangle" fill="#000000" fill-rule="evenodd" stroke="none" />
      </g>
      <g id="Group" transform="translate(20.75 17.28125)">
        <path d="M0 0L2.4375 0L2.4375 2.4375L0 2.4375L0 0Z" id="Rectangle" fill="#000000" fill-rule="evenodd" stroke="none" />
      </g>
      <g id="Group" transform="translate(13.84375 26.75)">
        <g id="Group">
          <path d="M9.03125 0L0 0L0 8.8125L1.46875 8.8125L1.46875 4.09375L2.3125 4.09375L2.3125 8.8125L4.09375 8.8125L4.09375 4.09375L4.9375 4.09375L4.9375 8.8125L6.71875 8.8125L6.71875 4.09375L7.5625 4.09375L7.5625 8.8125L9.03125 8.8125L9.03125 0Z" id="Polygon" fill="#000000" fill-rule="evenodd" stroke="none" />
        </g>
      </g>
      <g id="Group" transform="translate(12.96875 36.375)">
        <path d="M0 0L10.75 0L10.75 1.40625L0 1.40625L0 0Z" id="Rectangle" fill="#000000" fill-rule="evenodd" stroke="none" />
      </g>
      <g id="Group" transform="translate(12.96875 38.59375)">
        <path d="M0 0L10.75 0L10.75 1.40625L0 1.40625L0 0Z" id="Rectangle" fill="#000000" fill-rule="evenodd" stroke="none" />
      </g>
    </g>
  </g>
</svg>