<?xml version="1.0" encoding="utf-8"?>
<svg width="74px" height="74px" viewbox="0 0 74 74" version="1.1" xmlns:xlink="http://www.w3.org/1999/xlink" xmlns="http://www.w3.org/2000/svg">
  <path d="M5.999 0L68.001 0Q68.1483 0 68.2953 0.00722606Q68.4424 0.0144521 68.589 0.0288868Q68.7356 0.0433215 68.8812 0.0649301Q69.0269 0.0865387 69.1713 0.115269Q69.3158 0.143999 69.4586 0.179782Q69.6015 0.215565 69.7424 0.258315Q69.8833 0.301064 70.022 0.350677Q70.1606 0.40029 70.2967 0.456647Q70.4328 0.513003 70.5659 0.575968Q70.699 0.638933 70.8289 0.708354Q70.9588 0.777776 71.0851 0.853486Q71.2114 0.929196 71.3339 1.01101Q71.4563 1.09283 71.5746 1.18056Q71.6929 1.26828 71.8067 1.36171Q71.9206 1.45514 72.0297 1.55403Q72.1388 1.65293 72.2429 1.75707Q72.3471 1.8612 72.446 1.97032Q72.5449 2.07944 72.6383 2.19327Q72.7317 2.30711 72.8194 2.4254Q72.9072 2.54369 72.989 2.66613Q73.0708 2.78858 73.1465 2.9149Q73.2222 3.04121 73.2916 3.17109Q73.3611 3.30097 73.424 3.4341Q73.487 3.56722 73.5433 3.70328Q73.5997 3.83934 73.6493 3.978Q73.6989 4.11666 73.7417 4.25758Q73.7844 4.39851 73.8202 4.54136Q73.856 4.68422 73.8847 4.82865Q73.9135 4.97309 73.9351 5.11876Q73.9567 5.26444 73.9711 5.411Q73.9855 5.55755 73.9928 5.70464Q74 5.85173 74 5.999L74 68.001Q74 68.1483 73.9928 68.2953Q73.9855 68.4424 73.9711 68.589Q73.9567 68.7356 73.9351 68.8812Q73.9135 69.0269 73.8847 69.1713Q73.856 69.3158 73.8202 69.4586Q73.7844 69.6015 73.7417 69.7424Q73.6989 69.8833 73.6493 70.022Q73.5997 70.1606 73.5433 70.2967Q73.487 70.4328 73.424 70.5659Q73.3611 70.699 73.2916 70.8289Q73.2222 70.9588 73.1465 71.0851Q73.0708 71.2114 72.989 71.3339Q72.9072 71.4563 72.8194 71.5746Q72.7317 71.6929 72.6383 71.8067Q72.5449 71.9206 72.446 72.0297Q72.3471 72.1388 72.2429 72.2429Q72.1388 72.3471 72.0297 72.446Q71.9206 72.5449 71.8067 72.6383Q71.6929 72.7317 71.5746 72.8194Q71.4563 72.9072 71.3339 72.989Q71.2114 73.0708 71.0851 73.1465Q70.9588 73.2222 70.8289 73.2916Q70.699 73.3611 70.5659 73.424Q70.4328 73.487 70.2967 73.5433Q70.1607 73.5997 70.022 73.6493Q69.8833 73.6989 69.7424 73.7417Q69.6015 73.7844 69.4586 73.8202Q69.3158 73.856 69.1713 73.8847Q69.0269 73.9135 68.8812 73.9351Q68.7356 73.9567 68.589 73.9711Q68.4425 73.9855 68.2954 73.9928Q68.1483 74 68.001 74L5.999 74Q5.85173 74 5.70464 73.9928Q5.55755 73.9855 5.411 73.9711Q5.26444 73.9567 5.11876 73.9351Q4.97309 73.9135 4.82865 73.8847Q4.68422 73.856 4.54136 73.8202Q4.39851 73.7844 4.25758 73.7417Q4.11666 73.6989 3.978 73.6493Q3.83934 73.5997 3.70328 73.5433Q3.56722 73.487 3.4341 73.424Q3.30097 73.3611 3.17109 73.2916Q3.04121 73.2222 2.9149 73.1465Q2.78858 73.0708 2.66613 72.989Q2.54369 72.9072 2.4254 72.8194Q2.30711 72.7317 2.19327 72.6383Q2.07944 72.5449 1.97032 72.446Q1.8612 72.3471 1.75707 72.2429Q1.65293 72.1388 1.55403 72.0297Q1.45514 71.9206 1.36171 71.8067Q1.26829 71.6929 1.18056 71.5746Q1.09283 71.4563 1.01101 71.3339Q0.929196 71.2114 0.853486 71.0851Q0.777776 70.9588 0.708354 70.8289Q0.638933 70.699 0.575968 70.5659Q0.513003 70.4328 0.456647 70.2967Q0.40029 70.1607 0.350677 70.022Q0.301064 69.8833 0.258315 69.7424Q0.215565 69.6015 0.179782 69.4586Q0.143999 69.3158 0.115269 69.1713Q0.0865387 69.0269 0.0649301 68.8812Q0.0433215 68.7356 0.0288868 68.589Q0.0144521 68.4425 0.00722606 68.2954Q0 68.1483 0 68.001L0 5.999Q0 5.85173 0.00722606 5.70464Q0.0144521 5.55755 0.0288868 5.411Q0.0433215 5.26444 0.0649301 5.11876Q0.0865387 4.97309 0.115269 4.82865Q0.143999 4.68422 0.179782 4.54136Q0.215565 4.39851 0.258315 4.25758Q0.301064 4.11666 0.350677 3.978Q0.40029 3.83934 0.456647 3.70328Q0.513003 3.56722 0.575968 3.4341Q0.638933 3.30097 0.708354 3.17109Q0.777776 3.04121 0.853486 2.9149Q0.929196 2.78858 1.01101 2.66613Q1.09283 2.54369 1.18056 2.4254Q1.26828 2.30711 1.36171 2.19327Q1.45514 2.07944 1.55403 1.97032Q1.65293 1.8612 1.75707 1.75707Q1.8612 1.65293 1.97032 1.55403Q2.07944 1.45514 2.19327 1.36171Q2.30711 1.26829 2.4254 1.18056Q2.54369 1.09283 2.66613 1.01101Q2.78858 0.929196 2.9149 0.853486Q3.04121 0.777776 3.17109 0.708354Q3.30097 0.638933 3.4341 0.575968Q3.56722 0.513003 3.70328 0.456647Q3.83934 0.40029 3.978 0.350677Q4.11666 0.301064 4.25758 0.258315Q4.39851 0.215565 4.54136 0.179782Q4.68422 0.143999 4.82865 0.115269Q4.97309 0.0865387 5.11876 0.0649301Q5.26444 0.0433215 5.411 0.0288868Q5.55755 0.0144521 5.70464 0.00722606Q5.85173 0 5.999 0Z" id="Mask" fill="#CF8D2C" fill-rule="evenodd" stroke="none" />
  <g id="noun_production_2484228" transform="translate(14.1427 17)">
    <path d="M1.42857 0C1.04966 -0.000106267 0.686234 0.150369 0.418301 0.418301C0.15037 0.686234 -0.000106267 1.04966 0 1.42857L0 3.92857L11.4286 3.92857L11.4286 1.42857C11.4287 1.04975 11.2783 0.686313 11.0103 0.418365C10.7424 0.150415 10.379 -8.31059e-05 10.0001 0L1.42857 0Z" transform="translate(25.713501 12.856934)" id="Shape" fill="#FFFFFF" fill-rule="evenodd" stroke="none" />
    <path d="M40 18.2143L8.92857 18.2143L8.92857 14.6429C8.92649 13.9932 8.48624 13.4267 7.85715 13.2643L7.85714 6.07143L14.4214 6.07143C14.6797 6.30009 15.0122 6.42703 15.3571 6.42857L15.3571 8.57143C15.3587 9.08009 15.6308 9.54946 16.0714 9.80358L16.0714 12.8571L14.2857 12.8571C13.9068 12.857 13.5434 13.0075 13.2754 13.2754C13.0075 13.5434 12.857 13.9068 12.8571 14.2857L12.8571 16.7857L24.2857 16.7857L24.2857 14.2857C24.2858 13.9069 24.1354 13.5435 23.8675 13.2755C23.5996 13.0076 23.2361 12.8571 22.8572 12.8571L20.3571 12.8571L20.3571 9.80357C20.7978 9.54945 21.0699 9.08007 21.0714 8.57143L21.0714 6.42857C21.4503 6.42868 21.8138 6.2782 22.0817 6.01027C22.3496 5.74234 22.5001 5.37891 22.5 5L22.5 1.42857C22.5001 1.04975 22.3497 0.686313 22.0818 0.418364C21.8138 0.150415 21.4504 -8.34465e-05 21.0715 0L15.3571 0C15.0122 0.00154427 14.6797 0.128482 14.4214 0.357143L3.57143 0.357143C3.19252 0.357036 2.82909 0.507511 2.56116 0.775444C2.29323 1.04338 2.14275 1.4068 2.14286 1.78571L2.14286 13.2643C1.51377 13.4267 1.07351 13.9931 1.07143 14.6429L1.07143 18.2143L0.714286 18.2143C0.320274 18.2154 0.00115139 18.5346 0 18.9286L0 28.9286C0.00115429 29.3226 0.320269 29.6417 0.714277 29.6429L2.5 29.6429L2.5 39.2857C2.5 39.6802 2.8198 40 3.21429 40C3.60877 40 3.92857 39.6802 3.92857 39.2857L3.92857 36.4286L39.6429 36.4286L39.6429 39.2857C39.6429 39.6802 39.9627 40 40.3571 40C40.7516 40 41.0714 39.6802 41.0714 39.2857L41.0714 29.5393C43.9665 28.9872 45.9665 26.3234 45.689 23.3893C45.4114 20.4551 42.9473 18.2136 40 18.2143L40 18.2143ZM18.9286 12.8571L17.5 12.8571L17.5 10L18.9286 10L18.9286 12.8571ZM15.3568 1.42839L21.0711 1.42839L21.0711 4.99981L15.3568 4.99981L15.3568 1.42839ZM33.2148 21.4284C34.5956 21.4284 35.7148 22.5477 35.7148 23.9284C35.7148 25.3091 34.5956 26.4284 33.2148 26.4284C31.8341 26.4284 30.7148 25.3091 30.7148 23.9284C30.7163 22.5483 31.8347 21.4299 33.2148 21.4284L33.2148 21.4284ZM26.7852 21.4284C28.1659 21.4284 29.2852 22.5477 29.2852 23.9284C29.2852 25.3091 28.1659 26.4284 26.7852 26.4284C25.4044 26.4284 24.2852 25.3091 24.2852 23.9284C24.2867 22.5483 25.4051 21.4299 26.7851 21.4284L26.7852 21.4284ZM20.3568 21.4284C21.7375 21.4284 22.8568 22.5477 22.8568 23.9284C22.8568 25.3091 21.7375 26.4284 20.3568 26.4284C18.9761 26.4284 17.8568 25.3091 17.8568 23.9284C17.8583 22.5483 18.9767 21.4299 20.3568 21.4284L20.3568 21.4284ZM13.9284 21.4284C15.3091 21.4284 16.4284 22.5477 16.4284 23.9284C16.4284 25.3091 15.3091 26.4284 13.9284 26.4284C12.5477 26.4284 11.4284 25.3091 11.4284 23.9284C11.4299 22.5483 12.5483 21.4299 13.9284 21.4284L13.9284 21.4284ZM10 23.9284C10 25.3091 8.88071 26.4284 7.5 26.4284C6.11929 26.4284 5 25.3091 5 23.9284C5 22.5477 6.11929 21.4284 7.5 21.4284C8.88008 21.4299 9.99848 22.5483 10 23.9284L10 23.9284ZM2.5 18.2147L2.5 14.6432L7.5 14.6432L7.5 18.2147L2.5 18.2147ZM39.6427 35.0004L3.92839 35.0004L3.92839 29.6432L39.6427 29.6432L39.6427 35.0004ZM40.0004 26.7859C38.4224 26.7859 37.1432 25.5067 37.1432 23.9288C37.1432 22.3508 38.4224 21.0716 40.0004 21.0716C41.5783 21.0716 42.8575 22.3508 42.8575 23.9288C42.8553 25.506 41.5773 26.7839 40.0002 26.7859L40.0004 26.7859Z" id="Shape" fill="#FFFFFF" fill-rule="evenodd" stroke="none" />
    <path d="M0 1.07143C0 0.479695 0.479695 0 1.07143 0C1.66316 0 2.14286 0.479695 2.14286 1.07143C2.14286 1.66316 1.66316 2.14286 1.07143 2.14286C0.479695 2.14286 0 1.66316 0 1.07143Z" transform="translate(19.286499 22.856934)" id="Circle" fill="#FFFFFF" fill-rule="evenodd" stroke="none" />
    <path d="M0 1.07143C0 0.479695 0.479695 0 1.07143 0C1.66316 0 2.14286 0.479695 2.14286 1.07143C2.14286 1.66316 1.66316 2.14286 1.07143 2.14286C0.479695 2.14286 0 1.66316 0 1.07143Z" transform="translate(25.713501 22.856934)" id="Circle" fill="#FFFFFF" fill-rule="evenodd" stroke="none" />
    <path d="M0 1.07143C0 0.479695 0.479695 0 1.07143 0C1.66316 0 2.14286 0.479695 2.14286 1.07143C2.14286 1.66316 1.66316 2.14286 1.07143 2.14286C0.479695 2.14286 0 1.66316 0 1.07143Z" transform="translate(12.856812 22.856934)" id="Circle" fill="#FFFFFF" fill-rule="evenodd" stroke="none" />
    <path d="M0 1.42857C0 0.639593 0.639593 0 1.42857 0C2.21755 0 2.85714 0.639593 2.85714 1.42857C2.85714 2.21755 2.21755 2.85714 1.42857 2.85714C0.639593 2.85714 0 2.21755 0 1.42857Z" transform="translate(38.571655 22.5)" id="Circle" fill="#FFFFFF" fill-rule="evenodd" stroke="none" />
    <path d="M0 1.07143C0 0.479695 0.479695 0 1.07143 0C1.66316 0 2.14286 0.479695 2.14286 1.07143C2.14286 1.66316 1.66316 2.14286 1.07143 2.14286C0.479695 2.14286 0 1.66316 0 1.07143Z" transform="translate(6.4283447 22.856934)" id="Circle" fill="#FFFFFF" fill-rule="evenodd" stroke="none" />
    <path d="M0 1.07143C0 0.479695 0.479695 0 1.07143 0C1.66316 0 2.14286 0.479695 2.14286 1.07143C2.14286 1.66316 1.66316 2.14286 1.07143 2.14286C0.479695 2.14286 0 1.66316 0 1.07143Z" transform="translate(32.14319 22.856934)" id="Circle" fill="#FFFFFF" fill-rule="evenodd" stroke="none" />
  </g>
</svg>