<?xml version="1.0" encoding="utf-8"?>
<svg width="18px" height="18px" viewbox="0 0 18 18" version="1.1" xmlns:xlink="http://www.w3.org/1999/xlink" xmlns="http://www.w3.org/2000/svg">
  <g id="Group-3">
    <path d="M8.98247 1.63281C11.3752 1.63281 11.6616 1.63281 12.6073 1.68556C13.1763 1.69052 13.74 1.79509 14.2728 1.99455C15.0527 2.29741 15.6694 2.91408 15.9722 3.69394C16.1717 4.2268 16.2762 4.79048 16.2812 5.35942C16.3264 6.3052 16.334 6.59157 16.334 8.98429C16.334 11.377 16.334 11.6634 16.2812 12.6092C16.2762 13.1781 16.1717 13.7417 15.9722 14.2746C15.6694 15.0545 15.0527 15.6712 14.2728 15.974C13.74 16.1735 13.1763 16.2781 12.6073 16.283C11.6616 16.3282 11.379 16.3358 8.98247 16.3358C6.58599 16.3358 6.30339 16.3358 5.35761 16.283C4.78866 16.2781 4.22499 16.1735 3.69213 15.974C2.91865 15.666 2.30929 15.0484 2.01157 14.2709C1.81212 13.738 1.70755 13.1743 1.70259 12.6054C1.63477 11.6596 1.63477 11.3732 1.63477 8.98052C1.63477 6.58781 1.63477 6.30143 1.68752 5.35565C1.6973 4.78579 1.80698 4.22208 2.01158 3.69015C2.31453 2.9212 2.92317 2.31257 3.69212 2.00962C4.22498 1.81017 4.78866 1.70559 5.3576 1.70064C6.30339 1.63281 6.58976 1.63281 8.98247 1.63281M8.98304 0.0188421C6.54888 0.0188421 6.24367 0.0188421 5.28658 0.0715947C4.54132 0.0918067 3.80489 0.238329 3.10864 0.504922C1.89354 0.967797 0.933881 1.92746 0.471007 3.14256C0.209561 3.8397 0.0681421 4.5761 0.0527525 5.3205C0.0113037 6.27758 0 6.58279 0 9.01696C0 11.4511 0 11.7563 0.0527525 12.7134C0.0827798 13.4483 0.235617 14.173 0.504927 14.8575C0.967805 16.0726 1.92746 17.0322 3.14256 17.4951C3.8397 17.7565 4.5761 17.8979 5.32049 17.9133C6.27758 17.9548 6.58279 17.9661 9.01696 17.9661C11.4511 17.9661 11.7563 17.9661 12.7134 17.9133C13.4578 17.8979 14.1942 17.7565 14.8914 17.4951C16.1065 17.0322 17.0661 16.0725 17.529 14.8574C17.7904 14.1603 17.9319 13.4239 17.9472 12.6795C17.9887 11.7224 18 11.4172 18 8.98304C18 6.54888 18 6.24367 17.9472 5.28658C17.9319 4.54219 17.7904 3.80579 17.529 3.10865C17.0661 1.89354 16.1065 0.933882 14.8914 0.471006C14.1942 0.209561 13.4578 0.0681413 12.7134 0.0527518C11.7563 0.0113037 11.4511 0 9.01696 0L8.98304 0.0188421Z" id="Shape" fill="#252B3B" fill-rule="evenodd" stroke="none" />
    <path d="M4.60456 2.1561e-06C2.06153 2.8748e-06 -7.187e-07 2.06154 0 4.60457C1.4374e-06 7.1476 2.06154 9.20913 4.60457 9.20913C7.1476 9.20913 9.20913 7.14759 9.20913 4.60456C9.20825 2.05995 7.14601 -0.000874657 4.60298 2.1561e-06L4.60456 2.1561e-06ZM4.60428 7.59332C2.95401 7.59332 1.61621 6.25552 1.61621 4.60526C1.61621 2.95499 2.95401 1.61719 4.60428 1.61719C6.25455 1.61719 7.59235 2.95499 7.59235 4.60526C7.59235 6.25552 6.25454 7.59332 4.60428 7.59332L4.60428 7.59332Z" transform="translate(4.3789062 4.3789062)" id="Shape-2" fill="#252B3B" fill-rule="evenodd" stroke="none" />
    <path d="M0 1.07766C0 0.482487 0.482487 0 1.07766 0C1.67284 0 2.15533 0.482487 2.15533 1.07766C2.15533 1.67284 1.67284 2.15533 1.07766 2.15533C0.482487 2.15533 0 1.67284 0 1.07766Z" transform="translate(12.691406 3.1210938)" id="Circle" fill="#252B3B" fill-rule="evenodd" stroke="none" />
  </g>
</svg>