<?xml version="1.0" encoding="utf-8"?>
<svg width="24px" height="20px" viewBox="0 0 24 20" version="1.1" xmlns:xlink="http://www.w3.org/1999/xlink" xmlns="http://www.w3.org/2000/svg">
  <g id="Group">
    <path d="M11.3184 0.165087L0.0435948 19.4864C-0.078692 19.7065 0.0680521 20 0.337083 20L22.9112 20C23.1803 20 23.327 19.731 23.2047 19.4864L11.9054 0.165087C11.7831 -0.0550291 11.4407 -0.0550291 11.3184 0.165087L11.3184 0.165087ZM15.9896 10.1926L7.23389 10.1926L8.75024 7.6001L14.4488 7.6001L15.9896 10.1926L15.9896 10.1926ZM16.8704 11.7334L18.3868 14.3259L4.8374 14.3259L6.35376 11.7334L16.8704 11.7334L16.8704 11.7334ZM13.5685 6.05928L9.65527 6.05928L11.6119 2.70862L13.5685 6.05928L13.5685 6.05928ZM3.93237 15.8667L19.2916 15.8667L20.8079 18.4592L2.41602 18.4592L3.93237 15.8667L3.93237 15.8667Z" id="Shape" fill="#87909E" fill-rule="evenodd" stroke="none" />
  </g>
</svg>