<?xml version="1.0" encoding="utf-8"?>
<svg width="19px" height="18px" viewbox="0 0 19 18" version="1.1" xmlns:xlink="http://www.w3.org/1999/xlink" xmlns="http://www.w3.org/2000/svg">
  <g id="Linkedin-2">
    <path d="M0.294922 5.96094L4.02493 5.96094L4.02493 17.9559L0.294922 17.9559L0.294922 5.96094ZM2.16166 0C3.03598 0 3.8242 0.526673 4.15878 1.33443C4.49336 2.14219 4.30842 3.07196 3.69019 3.69019C3.07196 4.30842 2.14219 4.49337 1.33443 4.15878C0.526672 3.8242 -7.20812e-07 3.03598 0 2.16166C0 0.96781 0.967809 7.20812e-07 2.16166 7.20812e-07" id="Shape" fill="#252B3B" fill-rule="evenodd" stroke="none" />
    <path d="M0 0.297538L3.57128 0.297538L3.57128 1.93768L3.6393 1.93768C4.3682 0.692185 5.72315 -0.0513665 7.16524 0.00276648C10.9444 0.00276648 11.636 2.48566 11.636 5.71304L11.636 12.2925L7.89461 12.2925L7.89461 6.4613C7.89461 5.07058 7.87193 3.27927 5.95969 3.27927C4.04745 3.27927 3.72245 4.79093 3.72245 6.35927L3.72245 12.2925L0 12.2925L0 0.297538Z" transform="translate(6.364258 5.6640625)" id="Shape" fill="#252B3B" fill-rule="evenodd" stroke="none" />
  </g>
</svg>