<?xml version="1.0" encoding="utf-8"?>
<svg width="14px" height="18px" viewBox="0 0 14 18" version="1.1" xmlns:xlink="http://www.w3.org/1999/xlink" xmlns="http://www.w3.org/2000/svg">
  <g id="Group">
    <path d="M1.36743 10.8199L6.15455 17.155C6.29601 17.3418 6.51678 17.4515 6.75107 17.4515C6.98536 17.4515 7.20613 17.3418 7.34759 17.155L12.1347 10.8199C14.2375 8.03794 13.8749 4.1121 11.2981 1.76233C8.7213 -0.587435 4.77874 -0.587445 2.20193 1.76231C-0.374884 4.11206 -0.737519 8.0379 1.36527 10.8199L1.36743 10.8199ZM6.75121 3.1828C8.67004 3.1828 10.2256 4.73832 10.2256 6.65715C10.2256 8.57598 8.67005 10.1315 6.75122 10.1315C4.83239 10.1315 3.27687 8.576 3.27686 6.65717C3.27915 4.7394 4.83325 3.18521 6.75111 3.1828L6.75121 3.1828Z" id="Shape" fill="#87909E" fill-rule="evenodd" stroke="none" />
  </g>
</svg>