<?xml version="1.0" encoding="utf-8"?>
<svg width="11px" height="18px" viewBox="0 0 11 18" version="1.1" xmlns:xlink="http://www.w3.org/1999/xlink" xmlns="http://www.w3.org/2000/svg">
  <g id="Group">
    <path d="M7.33263 7.29474L3.65684 7.29474C1.64842 7.29474 0 8.92421 0 10.9516L0 12.6758L1.57263 12.6758C1.4779 12.3158 1.57263 11.899 1.85684 11.6147L2.67158 10.8C2.88 10.5916 3.16421 10.4779 3.46737 10.4779C3.6 10.4779 3.75158 10.5158 3.88421 10.5537C4.05474 10.1558 4.45263 9.87158 4.90737 9.87158L6.06316 9.87158C6.5179 9.87158 6.91579 10.1558 7.08632 10.5537C7.21895 10.4968 7.37053 10.4779 7.50316 10.4779C7.80632 10.4779 8.07158 10.5916 8.29895 10.8L9.11369 11.6147C9.3979 11.899 9.51158 12.3158 9.3979 12.6758L10.9895 12.6758L10.9895 10.9516C10.9895 8.92421 9.36 7.29474 7.33263 7.29474L7.33263 7.29474Z" id="Shape" fill="#6D778B" fill-rule="evenodd" stroke="none" />
    <path d="M2.38739 3.10737C2.38739 1.39122 3.77861 0 5.49476 0C7.21091 0 8.60213 1.39122 8.60213 3.10737C8.60213 4.82352 7.21091 6.21474 5.49476 6.21474C3.77861 6.21474 2.38739 4.82352 2.38739 3.10737Z" id="Circle" fill="#6D778B" fill-rule="evenodd" stroke="none" />
    <path d="M8.96209 13.7368L8.10946 13.6042C8.03367 13.4147 8.01472 13.3579 7.91999 13.1495L8.43157 12.4674C8.46946 12.4105 8.46946 12.3537 8.41262 12.3158L7.59788 11.5011C7.55999 11.4632 7.4842 11.4632 7.4463 11.4821L6.7642 11.9937C6.57472 11.9179 6.51788 11.8989 6.30946 11.8042L6.17683 10.9516C6.17683 10.8947 6.11999 10.8568 6.06315 10.8568L4.9263 10.8568C4.86946 10.8568 4.81262 10.8947 4.81262 10.9516L4.67999 11.8042C4.49051 11.88 4.43367 11.8989 4.22525 11.9937L3.54314 11.4821C3.4863 11.4442 3.42946 11.4442 3.39156 11.5011L2.57683 12.3158C2.53893 12.3537 2.53893 12.4295 2.55788 12.4674L3.06946 13.1495C2.99367 13.3389 2.97472 13.3958 2.87999 13.6042L2.02735 13.7368C1.97051 13.7368 1.93262 13.7937 1.93262 13.8505L1.93262 15.0063C1.93262 15.0632 1.97051 15.12 2.02735 15.12L2.87999 15.2526C2.95578 15.4421 2.97472 15.4989 3.06946 15.7074L2.55788 16.3895C2.51999 16.4463 2.51999 16.5032 2.57683 16.5411L3.39156 17.3558C3.42946 17.3937 3.50525 17.3937 3.54314 17.3747L4.22525 16.8632C4.41472 16.939 4.47156 16.9579 4.67999 17.0526L4.81262 17.9053C4.81262 17.9621 4.86946 18 4.9263 18L6.08209 18C6.13893 18 6.19578 17.9621 6.19578 17.9053L6.32841 17.0526C6.51788 16.9768 6.57472 16.9579 6.78314 16.8632L7.46525 17.3747C7.52209 17.4126 7.57893 17.4126 7.61683 17.3558L8.43156 16.5411C8.46946 16.5032 8.46946 16.4274 8.45051 16.3895L7.93893 15.7074C8.01472 15.5179 8.03367 15.4611 8.12841 15.2526L8.98104 15.12C9.03788 15.12 9.07578 15.0632 9.07578 15.0063L9.07578 13.8505C9.07578 13.7937 9.01893 13.7368 8.96209 13.7368L8.96209 13.7368ZM5.49476 15.6505C4.81266 15.6505 4.26318 15.101 4.26318 14.4189C4.26318 13.7368 4.81266 13.1873 5.49476 13.1873C6.17687 13.1873 6.72634 13.7368 6.72634 14.4189C6.72634 15.101 6.17687 15.6505 5.49476 15.6505L5.49476 15.6505Z" id="Shape" fill="#6D778B" fill-rule="evenodd" stroke="none" />
  </g>
</svg>