<?xml version="1.0" encoding="utf-8"?>
<svg width="15px" height="16px" viewbox="0 0 15 16" version="1.1" xmlns:xlink="http://www.w3.org/1999/xlink" xmlns="http://www.w3.org/2000/svg">
  <g id="noun_management_1429053" transform="translate(0.19995117 0.19995117)">
    <g id="Group">
      <path d="M8.21682 9.74212L11.2461 5.19818C11.7342 5.8441 12.6406 5.99867 13.3151 5.55099C13.9897 5.10332 14.1993 4.20802 13.7937 3.50739C13.3881 2.80677 12.5073 2.5428 11.7832 2.90486C11.0591 3.26692 10.7418 4.12996 11.0589 4.87483L7.99558 9.48684C7.76379 9.29368 7.47906 9.17505 7.17869 9.14647L7.17869 3.05385C7.98647 2.96353 8.58303 2.25799 8.5378 1.44644C8.49258 0.634895 7.82131 -1.62301e-07 7.00851 0C6.1957 3.24602e-07 5.52444 0.634896 5.47922 1.44644C5.43399 2.25799 6.03055 2.96353 6.83833 3.05385L6.83833 9.14647C6.53796 9.17505 6.25323 9.29368 6.02144 9.48684L2.94109 4.85781C3.25823 4.11294 2.94094 3.2499 2.21684 2.88784C1.49274 2.52578 0.611923 2.78975 0.206297 3.49037C-0.199328 4.191 0.0103314 5.0863 0.684865 5.53397C1.3594 5.98165 2.26583 5.82708 2.75388 5.18116L5.76616 9.7251C5.66125 9.86364 5.58068 10.019 5.5279 10.1846L3.75798 9.40175L3.75798 9.36771C3.75837 8.56019 3.13176 7.89108 2.32595 7.83855C1.52014 7.78602 0.811961 8.36812 0.707513 9.16886C0.603064 9.9696 1.13823 10.7139 1.93055 10.8698C2.72288 11.0257 3.50016 10.5397 3.70692 9.75914L5.47684 10.542C5.47684 10.5987 5.47684 10.6554 5.47684 10.7122C5.47478 11.2064 5.68559 11.6777 6.05546 12.0056C5.01796 12.3912 4.33153 13.3835 4.33661 14.4903L4.33661 15.171L9.64638 15.171L9.64638 14.4903C9.65146 13.3835 8.96503 12.3912 7.92754 12.0056C8.26128 11.7152 8.46881 11.3062 8.50614 10.8653L10.2761 9.77615C10.5135 10.5443 11.3045 10.9981 12.0874 10.8154C12.8704 10.6328 13.3789 9.87576 13.2518 9.08185C13.1248 8.28794 12.4056 7.72738 11.6047 7.79811C10.8038 7.86885 10.1939 8.54681 10.208 9.35069C10.208 9.36771 10.208 9.38473 10.208 9.40175L8.50614 10.4739C8.47357 10.2093 8.37399 9.95744 8.21682 9.74212L8.21682 9.74212ZM12.4374 3.0708C13.0953 3.0708 13.6287 3.60416 13.6287 4.2621C13.6287 4.92003 13.0953 5.45339 12.4374 5.45339C11.7795 5.45339 11.2461 4.92003 11.2461 4.2621C11.2461 3.60416 11.7795 3.0708 12.4374 3.0708L12.4374 3.0708ZM1.54554 5.45339C0.887609 5.45339 0.354248 4.92003 0.354248 4.2621C0.354248 3.60416 0.887609 3.0708 1.54554 3.0708C2.20348 3.0708 2.73684 3.60416 2.73684 4.2621C2.72753 4.91337 2.19689 5.43644 1.54554 5.43637L1.54554 5.45339ZM2.22621 10.5591C1.56827 10.5591 1.03491 10.0257 1.03491 9.36781C1.03491 8.70988 1.56827 8.17651 2.22621 8.17651C2.88414 8.17651 3.4175 8.70988 3.4175 9.36781C3.4082 10.0191 2.87755 10.5422 2.22621 10.5421L2.22621 10.5591ZM11.7567 8.17651C12.4147 8.17651 12.948 8.70988 12.948 9.36781C12.948 10.0257 12.4147 10.5591 11.7567 10.5591C11.0988 10.5591 10.5654 10.0257 10.5654 9.36781C10.5654 8.70988 11.0988 8.17651 11.7567 8.17651L11.7567 8.17651ZM5.80017 1.5392C5.80017 0.881261 6.33353 0.3479 6.99147 0.3479C7.6494 0.3479 8.18276 0.881262 8.18276 1.5392C8.18276 2.19713 7.6494 2.73049 6.99147 2.73049C6.67254 2.73052 6.36693 2.60268 6.14302 2.37557C5.91911 2.14847 5.79561 1.84107 5.80017 1.52218L5.80017 1.5392ZM9.30608 14.4903L9.30608 14.8307L4.67705 14.8307L4.67705 14.4903C4.67036 13.4259 5.39577 12.4962 6.42993 12.2439C6.78782 12.4012 7.19529 12.4012 7.55317 12.2439C8.5803 12.507 9.30055 13.4301 9.30608 14.4903L9.30608 14.4903ZM6.99159 12.0226C6.32787 12.0226 5.80029 11.427 5.80029 10.6952C5.80029 10.0373 6.33365 9.50391 6.99159 9.50391C7.64952 9.50391 8.18288 10.0373 8.18288 10.6952C8.18288 11.427 7.65531 12.0226 6.99159 12.0226L6.99159 12.0226Z" id="Shape" fill="#87909E" fill-rule="evenodd" stroke="#87909E" stroke-width="0.4" />
    </g>
  </g>
</svg>