<?xml version="1.0" encoding="utf-8"?>
<svg width="21px" height="19px" viewbox="0 0 21 19" version="1.1" xmlns:xlink="http://www.w3.org/1999/xlink" xmlns="http://www.w3.org/2000/svg">
  <g id="noun_message_3535602" transform="translate(0.125 0.125)">
    <path d="M18.567 0L1.37071 0C0.612307 0 2.37674e-06 0.629234 2.37674e-06 1.38738L2.37674e-06 12.9751C-0.00138334 13.7336 0.612164 14.3497 1.37069 14.3516L7.77735 14.3516L7.77735 17.5189C7.7793 17.7148 7.89099 17.893 8.06642 17.9801C8.24185 18.0673 8.45134 18.0486 8.60862 17.9318L13.3757 14.3516L18.567 14.3516C19.3255 14.3496 19.9389 13.7335 19.9375 12.9751L19.9375 1.38738C19.9375 0.629234 19.3252 0 18.567 0L18.567 0ZM18.9063 12.9751C18.9073 13.0659 18.872 13.1533 18.8084 13.2181C18.7447 13.2829 18.6579 13.3197 18.5671 13.3203L13.2036 13.3203C13.0909 13.32 12.9811 13.356 12.8904 13.423L8.80863 16.4865L8.80863 13.8344C8.8101 13.6985 8.75714 13.5677 8.66154 13.4711C8.56595 13.3746 8.43569 13.3202 8.2998 13.3203L1.37074 13.3203C1.27988 13.3197 1.19299 13.283 1.12928 13.2182C1.06558 13.1534 1.03032 13.0659 1.03129 12.9751L1.03129 1.38738C1.02844 1.19598 1.17943 1.03758 1.37074 1.03125L18.5673 1.03125C18.7584 1.03781 18.9091 1.19614 18.9063 1.38737L18.9063 12.9751Z" id="Shape" fill="#252B3B" fill-rule="evenodd" stroke="#252B3B" stroke-width="0.25" />
    <path d="M0 0L5.19922 0L5.19922 1.03125L0 1.03125L0 0Z" transform="translate(4.8125 4.8554688)" id="Rectangle" fill="#252B3B" fill-rule="evenodd" stroke="none" />
    <path d="M0 0L10.3125 0L10.3125 1.03125L0 1.03125L0 0Z" transform="translate(4.8125 8.421875)" id="Rectangle" fill="#252B3B" fill-rule="evenodd" stroke="none" />
  </g>
</svg>