<?xml version="1.0" encoding="utf-8"?>
<svg width="14px" height="19px" viewbox="0 0 14 19" version="1.1" xmlns:xlink="http://www.w3.org/1999/xlink" xmlns="http://www.w3.org/2000/svg">
  <defs>
    <filter id="filter_1">
      <feColorMatrix in="SourceGraphic" type="matrix" values="0 0 0 0 0.2509804 0 0 0 0 0.2627451 0 0 0 0 0.31764707 0 0 0 1 0" />
    </filter>
  </defs>
  <g id="noun_task_1237659" filter="url(#filter_1)">
    <g id="Group">
      <path d="M6.49219 0C6.2437 0 5.99501 0.107047 5.83984 0.248047C5.68468 0.389047 5.60487 0.537803 5.53906 0.658203C5.40745 0.899003 5.33706 1.00816 5.27734 1.03906L3.42578 1.99805L1.27539 1.99805C0.577139 1.99805 0 2.57524 0 3.27344L0 17.7227C0 18.4209 0.577139 18.998 1.27539 18.998L12.7246 18.998C13.4229 18.998 14 18.4209 14 17.7227L14 3.27344C14 2.57524 13.4229 1.99805 12.7246 1.99805L10.7266 1.99805L8.81055 1.08203C8.71297 0.976131 8.625 0.810178 8.47656 0.580078C8.3966 0.456078 8.29318 0.314213 8.12891 0.195313C7.96463 0.0764124 7.73724 0 7.50781 0L6.49219 0L6.49219 0ZM6.50586 1L7.50781 1C7.55114 1 7.5333 0.999766 7.54297 1.00977C7.55267 1.01977 7.58816 1.0497 7.63672 1.125C7.73385 1.2755 7.85931 1.57726 8.14844 1.85156L8.20508 1.9043L9.99219 2.75977L9.99219 3.51758C9.99219 3.79468 9.78501 4.00195 9.50781 4.00195L4.49219 4.00195C4.25189 4.00195 4.00781 3.70088 4.00781 3.51758L4.00781 2.82617L5.73828 1.93164C6.16304 1.71184 6.31278 1.32953 6.41602 1.14063C6.46354 1.05363 6.49631 1.01471 6.50586 1.00391L6.50586 1L6.50586 1ZM1.27539 2.9707L3.00781 2.9707L3.00781 3.51367C3.00781 4.30047 3.64146 4.99805 4.49219 4.99805L9.50781 4.99805C10.3216 4.99805 10.9922 4.32747 10.9922 3.51367L10.9922 2.9707L12.7246 2.9707C12.9012 2.9707 13.0273 3.09684 13.0273 3.27344L13.0273 17.7227C13.0273 17.8993 12.9012 18.0273 12.7246 18.0273L1.27539 18.0273C1.09878 18.0273 0.972656 17.8993 0.972656 17.7227L0.972656 3.27344C0.972656 3.09684 1.09878 2.9707 1.27539 2.9707L1.27539 2.9707ZM8.73438 6.48242L6.34766 9.00586L5.22656 7.94727L4.53906 8.67383L6.38672 10.4199L9.46094 7.16992L8.73438 6.48242L8.73438 6.48242ZM3 11.998L3 12.998L11 12.998L11 11.998L3 11.998L3 11.998ZM3 14.998L3 15.998L11 15.998L11 14.998L3 14.998L3 14.998Z" id="Shape" fill="#74788D" fill-rule="evenodd" stroke="none" />
    </g>
  </g>
</svg>