<?xml version="1.0" encoding="utf-8"?>
<svg width="42px" height="42px" viewBox="0 0 42 42" version="1.1" xmlns:xlink="http://www.w3.org/1999/xlink" xmlns="http://www.w3.org/2000/svg">
  <g id="Group-3">
    <path d="M0 21C0 9.40202 9.40202 0 21 0C32.598 0 42 9.40202 42 21C42 32.598 32.598 42 21 42C9.40202 42 0 32.598 0 21Z" id="Ellipse" fill="#D3F8DA" fill-rule="evenodd" stroke="none" />
    <g id="Group-3" transform="translate(8.9782715 9.333008)">
      <path d="M16.427 5.51867C16.9434 5.90595 17.5566 6.09959 18.2343 6.09959C19.1057 6.09959 19.8802 5.74458 20.4289 5.16367C20.5257 5.09912 20.5902 4.97003 20.7193 4.84094C21.0743 4.32457 21.3002 3.74366 21.3002 3.06593C21.3002 1.35546 19.9125 0 18.2343 0C17.3629 0 16.6207 0.355002 16.072 0.903642C16.5561 1.67819 16.8143 2.61411 16.8143 3.55002C16.8143 4.26003 16.6529 4.90549 16.427 5.51867L16.427 5.51867Z" id="Shape" fill="#4EBF67" fill-rule="evenodd" stroke="none" />
      <path d="M5.93822 10.6177C6.58368 9.68177 7.22914 8.93949 8.03596 8.32631C7.29368 7.80994 6.45459 7.55176 5.74458 7.55176C3.32411 7.58403 0 10.7145 0 15.7491C0 16.3945 0.193638 16.8786 0.677732 17.3305C1.29092 17.9114 2.58184 18.3309 4.00184 18.46C3.9373 18.1696 3.87275 17.9114 3.87275 17.5886C3.84048 15.2327 4.61503 12.6186 5.93822 10.6177L5.93822 10.6177Z" id="Shape" fill="#4EBF67" fill-rule="evenodd" stroke="none" />
      <path d="M18.2342 7.58398C17.492 7.58398 16.6206 7.90671 15.7815 8.45535C16.4915 9.00399 17.1047 9.74627 17.7179 10.6176C18.6215 12.0054 19.267 13.7158 19.5897 15.394C20.0093 15.1359 20.4611 14.9422 20.9452 14.9422C22.0747 14.9422 23.1397 15.4909 23.7529 16.459L23.7529 16.4913C23.7852 16.5559 23.8175 16.6204 23.8497 16.6527C23.9788 16.3945 24.0434 16.0718 24.0434 15.749C24.0434 10.6822 20.6547 7.58398 18.2342 7.58398L18.2342 7.58398Z" id="Shape" fill="#4EBF67" fill-rule="evenodd" stroke="none" />
      <path d="M11.8441 6.84168C13.6836 6.84168 15.2004 5.35712 15.2004 3.48529C15.2004 1.64573 13.7159 0.128906 11.8441 0.128906C9.97223 0.161179 8.48767 1.67801 8.48767 3.48529C8.48767 5.32485 10.0045 6.84168 11.8441 6.84168L11.8441 6.84168Z" id="Shape" fill="#4EBF67" fill-rule="evenodd" stroke="none" />
      <path d="M14.0709 19.5899C13.5546 18.4926 13.5546 17.4276 14.0709 16.4594L14.1032 16.4271C14.7164 15.4912 15.7491 14.9103 16.9109 14.9103C17.4273 14.9103 17.8791 15.1039 18.331 15.3944C17.5564 10.973 14.4259 8.35889 12.0377 8.35889C9.32681 8.35889 5.61542 11.8121 5.61542 17.4921C5.61542 18.2021 5.84133 18.7508 6.32542 19.2349C7.32588 20.1708 9.68181 20.6226 12.07 20.6226C12.9091 20.6226 13.7805 20.5581 14.555 20.429L14.5227 20.2031C14.2968 20.0417 14.1677 19.8158 14.0709 19.5899L14.0709 19.5899Z" id="Shape" fill="#4EBF67" fill-rule="evenodd" stroke="none" />
      <path d="M3.51781 5.26044C4.06645 5.84135 4.87327 6.19636 5.71237 6.19636C6.29328 6.19636 6.87419 6.03499 7.29374 5.71226C7.00328 5.03453 6.87419 4.32453 6.87419 3.58225C6.87419 2.51724 7.19692 1.58133 7.74556 0.774504C7.19692 0.29041 6.51919 0.0322266 5.74464 0.0322266C4.03417 0.0322266 2.67871 1.41996 2.67871 3.09816C2.67871 3.77589 2.87235 4.3568 3.25962 4.87317C3.35644 5.00226 3.45326 5.13135 3.51781 5.26044L3.51781 5.26044Z" id="Shape" fill="#4EBF67" fill-rule="evenodd" stroke="none" />
      <path d="M23.0107 19.4605C23.3979 18.6537 23.3979 17.8792 22.9784 17.1691C22.5266 16.4591 21.7843 16.0073 20.8484 16.0073C20.1706 16.0073 19.5252 16.6205 19.0734 17.0401C18.6215 16.5882 17.9761 16.0396 17.2984 16.0396C16.427 16.0396 15.6524 16.4914 15.2006 17.1691L15.2006 17.1691C14.8133 17.8792 14.8133 18.6537 15.2006 19.4928C15.5556 20.2028 16.1688 20.816 16.5561 21.171C17.1047 21.7196 18.6215 22.946 18.8797 23.1719L19.0734 23.3333L19.267 23.1719C19.5897 22.8815 21.0743 21.6551 21.5907 21.1064C22.1393 20.7192 22.6879 20.106 23.0107 19.4605L23.0107 19.4605Z" id="Shape" fill="#4EBF67" fill-rule="evenodd" stroke="none" />
    </g>
  </g>
</svg>