<?xml version="1.0" encoding="utf-8"?>
<svg width="37px" height="40px" viewbox="0 0 37 40" version="1.1" xmlns:xlink="http://www.w3.org/1999/xlink" xmlns="http://www.w3.org/2000/svg">
  <defs>
    <filter id="filter_1">
      <feColorMatrix in="SourceGraphic" type="matrix" values="0 0 0 0 1 0 0 0 0 1 0 0 0 0 1 0 0 0 1 0" />
    </filter>
  </defs>
  <g id="noun_innovation_3312291" filter="url(#filter_1)">
    <g id="Group">
      <g id="Group" transform="translate(8 8.125)">
        <path d="M10.375 0C4.625 0 0 4.65625 0 10.375C0 16.125 4.65625 20.75 10.375 20.75C16.125 20.75 20.75 16.0938 20.75 10.375C20.75 4.65625 16.0938 0 10.375 0L10.375 0ZM10.375 16.7188C6.875 16.7188 4.0625 13.875 4.0625 10.4063C4.0625 6.9375 6.875 4.0625 10.375 4.0625C13.875 4.0625 16.6875 6.90625 16.6875 10.375C16.6875 13.8438 13.8438 16.7188 10.375 16.7188L10.375 16.7188Z" id="Shape" fill="#000000" fill-rule="evenodd" stroke="none" />
      </g>
      <g id="Group" transform="translate(5.3125 5.46875)">
        <path d="M1.25 6.90625L0 6.90625L0 0L6.90625 0L6.90625 1.25L1.25 1.25L1.25 6.90625Z" id="Polygon" fill="#000000" fill-rule="evenodd" stroke="none" />
      </g>
      <g id="Group" transform="translate(24.5 24.65625)">
        <path d="M6.90625 6.90625L0 6.90625L0 5.65625L5.65625 5.65625L5.65625 0L6.90625 0L6.90625 6.90625Z" id="Polygon" fill="#000000" fill-rule="evenodd" stroke="none" />
      </g>
      <g id="Group" transform="translate(5.3125 24.65625)">
        <path d="M6.90625 6.90625L0 6.90625L0 0L1.25 0L1.25 5.65625L6.90625 5.65625L6.90625 6.90625Z" id="Polygon" fill="#000000" fill-rule="evenodd" stroke="none" />
      </g>
      <g id="Group" transform="translate(24.5 5.46875)">
        <path d="M6.90625 6.90625L5.65625 6.90625L5.65625 1.25L0 1.25L0 0L6.90625 0L6.90625 6.90625Z" id="Polygon" fill="#000000" fill-rule="evenodd" stroke="none" />
      </g>
      <g id="Group" transform="translate(0 13.5625)">
        <path d="M4.90625 9.78125L0 4.90625L4.90625 0L5.78125 0.906249L1.78125 4.90625L5.78125 8.90625L4.90625 9.78125Z" id="Polygon" fill="#000000" fill-rule="evenodd" stroke="none" />
      </g>
      <g id="Group" transform="translate(31.15625 13.5625)">
        <path d="M0.875001 9.78125L0 8.90625L4 4.90625L0 0.906249L0.875001 0L5.78125 4.90625L0.875001 9.78125Z" id="Polygon" fill="#000000" fill-rule="evenodd" stroke="none" />
      </g>
      <g id="Group" transform="translate(13.59375 0)">
        <path d="M8.875 5.78125L4.875 1.78125L0.875 5.78125L0 4.875L4.875 0L9.75 4.875L8.875 5.78125Z" id="Polygon" fill="#000000" fill-rule="evenodd" stroke="none" />
      </g>
      <g id="Group" transform="translate(17.125 17.28125)">
        <path d="M0 0L2.4375 0L2.4375 2.4375L0 2.4375L0 0Z" id="Rectangle" fill="#000000" fill-rule="evenodd" stroke="none" />
      </g>
      <g id="Group" transform="translate(13.53125 17.28125)">
        <path d="M0 0L2.4375 0L2.4375 2.4375L0 2.4375L0 0Z" id="Rectangle" fill="#000000" fill-rule="evenodd" stroke="none" />
      </g>
      <g id="Group" transform="translate(20.75 17.28125)">
        <path d="M0 0L2.4375 0L2.4375 2.4375L0 2.4375L0 0Z" id="Rectangle" fill="#000000" fill-rule="evenodd" stroke="none" />
      </g>
      <g id="Group" transform="translate(13.84375 26.75)">
        <g id="Group">
          <path d="M9.03125 0L0 0L0 8.8125L1.46875 8.8125L1.46875 4.09375L2.3125 4.09375L2.3125 8.8125L4.09375 8.8125L4.09375 4.09375L4.9375 4.09375L4.9375 8.8125L6.71875 8.8125L6.71875 4.09375L7.5625 4.09375L7.5625 8.8125L9.03125 8.8125L9.03125 0Z" id="Polygon" fill="#000000" fill-rule="evenodd" stroke="none" />
        </g>
      </g>
      <g id="Group" transform="translate(12.96875 36.375)">
        <path d="M0 0L10.75 0L10.75 1.40625L0 1.40625L0 0Z" id="Rectangle" fill="#000000" fill-rule="evenodd" stroke="none" />
      </g>
      <g id="Group" transform="translate(12.96875 38.59375)">
        <path d="M0 0L10.75 0L10.75 1.40625L0 1.40625L0 0Z" id="Rectangle" fill="#000000" fill-rule="evenodd" stroke="none" />
      </g>
    </g>
  </g>
</svg>