<?xml version="1.0" encoding="utf-8"?>
<svg width="14px" height="18px" viewBox="0 0 14 18" version="1.1" xmlns:xlink="http://www.w3.org/1999/xlink" xmlns="http://www.w3.org/2000/svg">
  <g id="Group">
    <path d="M14 2.68394C14 2.39378 13.7642 2.1399 13.456 2.1399L12.9119 2.1399L9.70207 2.1399L9.70207 1.06995C9.70207 0.471503 9.21244 0 8.63212 0L5.38601 0C4.78756 0 4.31606 0.489637 4.31606 1.06995L4.31606 2.1399L1.08808 2.1399L0.544041 2.1399C0.253886 2.1399 0 2.37565 0 2.68394L0 2.68394C0 2.97409 0.235751 3.22798 0.544041 3.22798L1.08808 3.22798L1.08808 15.614C1.08808 16.5026 1.81347 17.228 2.70207 17.228L11.3161 17.228C12.2047 17.228 12.9301 16.5026 12.9301 15.614L12.9301 3.22798L13.4741 3.22798C13.7642 3.22798 14 2.97409 14 2.68394L14 2.68394L14 2.68394ZM5.38623 1.06982L8.63235 1.06982L8.63235 2.13977L5.38623 2.13977L5.38623 1.06982L5.38623 1.06982ZM11.8603 15.5959C11.8603 15.8861 11.6245 16.1399 11.3162 16.1399L2.70224 16.1399C2.41209 16.1399 2.1582 15.9042 2.1582 15.5959L2.1582 3.22803L11.8421 3.22803L11.8421 15.5959L11.8603 15.5959Z" id="Shape" fill="#EB8242" fill-rule="evenodd" stroke="none" />
    <path d="M4.29795 5.36816L4.29795 5.36816C4.5881 5.36816 4.84199 5.60392 4.84199 5.91221L4.84199 13.964C4.84199 14.2542 4.60624 14.5081 4.29795 14.5081L4.29795 14.5081C4.00779 14.5081 3.75391 14.2723 3.75391 13.964L3.75391 5.91221C3.77204 5.62205 4.00779 5.36816 4.29795 5.36816L4.29795 5.36816Z" id="Shape-2" fill="#EB8242" fill-rule="evenodd" stroke="none" />
    <path d="M7.0001 5.36816L7.0001 5.36816C7.29025 5.36816 7.54414 5.60392 7.54414 5.91221L7.54414 13.964C7.54414 14.2542 7.30839 14.5081 7.0001 14.5081L7.0001 14.5081C6.70994 14.5081 6.45605 14.2723 6.45605 13.964L6.45605 5.91221C6.47419 5.62205 6.70994 5.36816 7.0001 5.36816L7.0001 5.36816Z" id="Shape-3" fill="#EB8242" fill-rule="evenodd" stroke="none" />
    <path d="M9.72031 5.36816L9.72031 5.36816C10.0105 5.36816 10.2644 5.60392 10.2644 5.91221L10.2644 13.964C10.2644 14.2542 10.0286 14.5081 9.72031 14.5081L9.72031 14.5081C9.43016 14.5081 9.17627 14.2723 9.17627 13.964L9.17627 5.91221C9.17627 5.62205 9.41202 5.36816 9.72031 5.36816L9.72031 5.36816Z" id="Shape-4" fill="#EB8242" fill-rule="evenodd" stroke="none" />
  </g>
</svg>