<?xml version="1.0" encoding="utf-8"?>
<svg width="16px" height="16px" viewBox="0 0 16 16" version="1.1" xmlns:xlink="http://www.w3.org/1999/xlink" xmlns="http://www.w3.org/2000/svg">
  <g id="Group-4">
    <path d="M12.7529 7.78941C12.4268 7.78941 12.1551 7.51769 12.1551 7.19162C12.1551 5.39825 12.1551 3.58675 12.1551 1.79338C12.1551 1.2137 12.1189 1.17747 11.5573 1.17747C8.29663 1.17747 5.03595 1.17747 1.79337 1.17747C1.46731 1.17747 1.2137 1.43108 1.2137 1.75715C1.2137 5.88735 1.2137 10.0357 1.2137 14.1659C1.2137 14.655 1.28616 14.7274 1.77526 14.7274C5.01783 14.7274 8.2604 14.7274 11.503 14.7274C11.829 14.7274 12.1008 14.981 12.1008 15.3071L12.1008 15.3071C12.1008 15.6332 11.829 15.9049 11.503 15.9049C8.33286 15.9049 4.83668 15.9049 1.7028 15.9049C0.815169 15.9049 0.217377 15.4883 0.0543427 14.7455C0.0181129 14.5644 0.0181129 14.3832 0.0181129 14.2021C0.0181149 10.09 0.0362298 5.95981 0 1.84772C0 1.2137 0.144919 0.706482 0.543448 0.362298C0.815171 0.108689 1.19558 0 1.55788 0L11.829 0C12.2095 0 12.5718 0.126804 12.8616 0.380413C13.2601 0.742711 13.3869 1.26804 13.3869 1.90207C13.3507 3.80413 13.3688 5.3439 13.3688 7.17351C13.3688 7.51769 13.0971 7.78941 12.7529 7.78941L12.7529 7.78941L12.7529 7.78941Z" id="Shape" fill="#87909E" fill-rule="evenodd" stroke="none" />
    <path d="M15.7961 15.7057L15.7961 15.7057C15.5244 15.9775 15.0896 15.9775 14.8179 15.7057C14.0209 14.9087 13.2238 14.1116 12.4992 13.3689C11.9014 13.4595 11.4123 13.6225 10.9413 13.6044C9.58271 13.5682 8.49581 12.4451 8.44147 11.0502C8.38712 9.6916 9.43779 8.53224 10.8689 8.36921C12.1188 8.22429 13.3687 9.16626 13.6405 10.4705C13.7491 11.014 13.6948 11.5574 13.4593 12.0465C13.3687 12.2277 13.405 12.3183 13.5318 12.4632C14.2926 13.2059 15.0353 13.9667 15.7961 14.7094C16.0679 14.9993 16.0679 15.434 15.7961 15.7057L15.7961 15.7057ZM11.0499 12.5356C11.9375 12.5356 12.6077 11.8835 12.6259 11.0139C12.6259 10.1444 11.9556 9.45605 11.1042 9.45605C10.2347 9.45605 9.54632 10.1263 9.5282 10.9777C9.51009 11.8472 10.1622 12.5356 11.0499 12.5356L11.0499 12.5356Z" id="Shape" fill="#87909E" fill-rule="evenodd" stroke="none" />
    <path d="M9.70978 6.93799C9.70978 7.33652 9.70978 7.71693 9.70978 8.11546C7.24615 8.11546 4.78253 8.11546 2.30078 8.11546C2.30078 7.73504 2.30078 7.35463 2.30078 6.93799C4.74629 6.93799 7.20992 6.93799 9.70978 6.93799L9.70978 6.93799Z" id="Shape" fill="#87909E" fill-rule="evenodd" stroke="none" />
    <path d="M2.28271 4.70994C2.28271 4.32953 2.28271 3.94911 2.28271 3.53247C4.74634 3.53247 7.20997 3.53247 9.69172 3.53247C9.69172 3.91288 9.69172 4.2933 9.69172 4.70994C7.2462 4.70994 4.78257 4.70994 2.28271 4.70994L2.28271 4.70994Z" id="Shape" fill="#87909E" fill-rule="evenodd" stroke="none" />
  </g>
</svg>