<?xml version="1.0" encoding="utf-8"?>
<svg width="17px" height="17px" viewBox="0 0 17 17" version="1.1" xmlns:xlink="http://www.w3.org/1999/xlink" xmlns="http://www.w3.org/2000/svg">
  <g id="Action-icons" transform="translate(0.125 0.125)">
    <path d="M8 16.0401C5.87469 16.0401 3.82957 15.198 2.34587 13.6742C-0.781955 10.5464 -0.781955 5.45363 2.34587 2.32581C3.82957 0.842105 5.87469 0 8 0C10.1253 0 12.1704 0.842105 13.6541 2.36591C16.782 5.49374 16.782 10.5865 13.6541 13.7143C12.1704 15.198 10.1253 16.0401 8 16.0401L8 16.0401ZM8.00024 0.802002C6.07543 0.802002 4.27092 1.56391 2.90751 2.92732C0.100492 5.73433 0.100492 10.3058 2.90751 13.1529C4.27092 14.4762 6.07543 15.2381 8.00024 15.2381C9.92505 15.2381 11.7296 14.4762 13.093 13.1128L13.093 13.1128C15.9 10.3058 15.9 5.73433 13.093 2.88722C11.7296 1.56391 9.92505 0.802002 8.00024 0.802002L8.00024 0.802002ZM11.649 5.29327C11.4886 5.13287 11.248 5.17297 11.0876 5.33337L7.15779 9.8246L4.91217 7.57899C4.75177 7.41859 4.51117 7.41859 4.35077 7.57899C4.19037 7.73939 4.19037 7.97999 4.35077 8.14039L6.91719 10.7068C6.91719 10.7068 6.91719 10.7068 6.91719 10.7068C6.91719 10.7068 6.91719 10.7068 6.91719 10.7068C6.95729 10.7469 6.95729 10.7469 6.99739 10.7469C6.99739 10.7469 7.03749 10.7469 7.03749 10.787C7.07759 10.787 7.11769 10.8271 7.19789 10.8271L7.19789 10.8271L7.19789 10.8271C7.23799 10.8271 7.31819 10.8271 7.35829 10.787C7.35829 10.787 7.39839 10.7469 7.39839 10.7469C7.43849 10.7469 7.43849 10.7068 7.47859 10.7068C7.47859 10.7068 7.47859 10.7068 7.47859 10.7068C7.47859 10.7068 7.47859 10.7068 7.47859 10.7068L11.6891 5.89478C11.8094 5.69428 11.8094 5.45367 11.649 5.29327L11.649 5.29327Z" id="Shape" fill="#87909E" fill-rule="evenodd" stroke="#87909E" stroke-width="0.25" />
  </g>
</svg>