<?xml version="1.0" encoding="utf-8"?>
<svg width="15px" height="16px" viewBox="0 0 15 16" version="1.1" xmlns:xlink="http://www.w3.org/1999/xlink" xmlns="http://www.w3.org/2000/svg">
  <g id="Group-2">
    <path d="M1.97181 10.1763C2.26732 10.1763 2.50368 9.93901 2.50368 9.64315C2.50368 9.60165 2.49122 9.56228 2.48124 9.52345L12.3 0.856231L12.5446 1.0999L12.8198 0L11.7167 0.271279L12.0122 0.566783L2.24309 9.19392C2.15973 9.14744 2.07441 9.1111 1.97217 9.1111C1.67898 9.1111 1.43994 9.34871 1.43994 9.64297C1.43941 9.93901 1.6788 10.1763 1.97181 10.1763L1.97181 10.1763ZM1.97195 9.51831C2.04231 9.51831 2.0986 9.57495 2.0986 9.64282C2.0986 9.71229 2.04231 9.77142 1.97195 9.77142C1.90355 9.77142 1.84424 9.71229 1.84424 9.64282C1.84477 9.57513 1.90355 9.51831 1.97195 9.51831L1.97195 9.51831Z" id="Shape" fill="#87909E" fill-rule="evenodd" stroke="none" />
    <path d="M13.1719 15.5861L13.1719 3.09214L13.1719 3.08484C13.1719 2.59999 12.779 2.20581 12.2931 2.20581C11.8095 2.20581 11.4164 2.59982 11.4164 3.08484L11.4164 3.09214L11.4164 15.5863L10.6476 15.5863L10.6476 5.11739L10.6476 5.11062C10.6476 4.62541 10.2546 4.23212 9.76587 4.23212C9.28334 4.23212 8.89041 4.62541 8.89041 5.11062L8.89041 5.11774L8.89041 15.5861L8.11878 15.5861L8.11878 7.54803L8.11878 7.53984C8.11878 7.05571 7.72852 6.66295 7.24243 6.66295C6.759 6.66295 6.36357 7.0557 6.36357 7.53984L6.36357 7.54803L6.36357 15.5859L5.5948 15.5859L5.5948 14.2165L5.5948 9.57915L5.5948 9.5731C5.5948 9.087 5.20169 8.69549 4.71595 8.69549C4.23003 8.69549 3.83977 9.087 3.83977 9.5731L3.83977 9.57915L3.83977 15.5861L3.0685 15.5861L3.0685 12.0105L3.0685 12.0023C3.0685 11.5187 2.67824 11.1242 2.18983 11.1242C1.70605 11.1242 1.31347 11.5187 1.31347 12.0023L1.31347 12.0105L1.31347 15.5861L0 15.5861L0 15.592L0 15.9901L0 15.9999L14.6352 15.9999L14.6352 15.9901L14.6352 15.592L14.6352 15.5861L13.1719 15.5861L13.1719 15.5861ZM11.9994 15.715L11.8213 15.715L11.8213 15.5369C11.8959 15.6017 11.922 15.6548 11.9994 15.715L11.9994 15.715ZM2.65479 15.7462C2.72688 15.6743 2.78626 15.6058 2.83291 15.5681L2.83291 15.7462L2.65479 15.7462L2.65479 15.7462Z" id="Shape" fill="#87909E" fill-rule="evenodd" stroke="none" />
  </g>
</svg>