<?xml version="1.0" encoding="utf-8"?>
<svg width="16px" height="15px" viewbox="0 0 16 15" version="1.1" xmlns:xlink="http://www.w3.org/1999/xlink" xmlns="http://www.w3.org/2000/svg">
  <defs>
    <filter id="filter_1">
      <feColorMatrix in="SourceGraphic" type="matrix" values="0 0 0 0 0.12941177 0 0 0 0 0.14117648 0 0 0 0 0.15294118 0 0 0 1 0" />
    </filter>
  </defs>
  <g id="noun_product_1410036">
    <g id="Group">
      <g id="Group" filter="url(#filter_1)">
        <path d="M7.53378 0.588235L16 0.588235L16 4.82353L15.2941 4.82353L15.2941 14.4706L0.705882 14.4706L0.705882 4.82353L0 4.82353L0 0.588235L2.70588 0.588235L2.70588 0L7.53378 0L7.53378 0.588235L7.53378 0.588235ZM2.70605 1.29395L0.706055 1.29395L0.706055 4.11747L2.70605 4.11747L2.70605 1.29395L2.70605 1.29395ZM7.53369 1.29395L7.53369 4.11747L15.294 4.11747L15.294 1.29395L7.53369 1.29395L7.53369 1.29395ZM2.70574 4.82373L1.41162 4.82373L1.41162 13.7649L14.5881 13.7649L14.5881 4.82373L7.53363 4.82373L7.53363 8.85916L5.16374 7.2787L2.70574 8.84239L2.70574 4.82373L2.70574 4.82373ZM3.41162 7.55669L5.17283 6.43628L6.82775 7.53993L6.82775 0.706055L3.41162 0.706055L3.41162 7.55669L3.41162 7.55669Z" id="Shape" fill="#000000" fill-rule="evenodd" stroke="none" />
      </g>
    </g>
  </g>
</svg>