<?xml version="1.0" encoding="utf-8"?>
<svg width="19px" height="19px" viewbox="0 0 19 19" version="1.1" xmlns:xlink="http://www.w3.org/1999/xlink" xmlns="http://www.w3.org/2000/svg">
  <defs>
    <filter id="filter_1">
      <feColorMatrix in="SourceGraphic" type="matrix" values="0 0 0 0 1 0 0 0 0 1 0 0 0 0 1 0 0 0 1 0" />
    </filter>
  </defs>
  <g id="Group" filter="url(#filter_1)">
    <g id="Group" transform="translate(0 11.011719)">
      <g id="Group">
        <path d="M17.8229 0.000847785C17.6684 0.000847785 17.5157 0.000847785 17.3612 0.000847785C16.9433 0.000847785 16.5236 0.000847785 16.1057 0.000847785C15.4875 0.000847785 14.8675 0.000847785 14.2493 0.000847785C13.4937 0.000847785 12.7401 0.000847785 11.9845 0.000847785C11.1583 0.000847785 10.3303 0.000847785 9.50411 0.000847785C8.66842 0.000847785 7.83463 0.000847785 6.99893 0.000847785C6.22047 0.000847785 5.44202 0.000847785 4.66356 0.000847785C4.00531 0.000847785 3.34896 0.000847785 2.69071 0.000847785C2.21943 0.000847785 1.74816 0.000847785 1.27689 0.000847785C1.05175 0.000847785 0.826606 -0.00105973 0.601464 0.000847785C0.591925 0.000847785 0.582385 0.000847785 0.572845 0.000847785C0.273291 0.000847785 -0.0129061 0.264149 0.00044984 0.573242C0.0138057 0.884243 0.252304 1.14564 0.572845 1.14564C0.727391 1.14564 0.88003 1.14564 1.03458 1.14564C1.45242 1.14564 1.87218 1.14564 2.29003 1.14564C2.90822 1.14564 3.52831 1.14564 4.1465 1.14564C4.90206 1.14564 5.65571 1.14564 6.41127 1.14564C7.23743 1.14564 8.06549 1.14564 8.89165 1.14564C9.72735 1.14564 10.5611 1.14564 11.3968 1.14564C12.1753 1.14564 12.9537 1.14564 13.7322 1.14564C14.3905 1.14564 15.0468 1.14564 15.7051 1.14564C16.1763 1.14564 16.6476 1.14564 17.1189 1.14564C17.344 1.14564 17.5692 1.14754 17.7943 1.14564C17.8038 1.14564 17.8134 1.14564 17.8229 1.14564C18.1225 1.14564 18.4087 0.882336 18.3953 0.573242C18.382 0.264149 18.1435 0.000847785 17.8229 0.000847785L17.8229 0.000847785L17.8229 0.000847785Z" transform="translate(0 2.5625)" id="Shape" fill="#000000" fill-rule="evenodd" stroke="none" />
        <path d="M0.000449876 0.573245C0.000449876 0.859442 0.000449876 1.14755 0.000449876 1.43374C0.000449876 2.03667 0.000449876 2.63959 0.000449876 3.24251C0.000449876 3.77484 0.000449876 4.30526 0.000449876 4.83758C0.000449876 4.95588 0.000449876 5.07417 0.000449876 5.19247C0.00235787 5.64657 0.166444 6.06251 0.462182 6.40404C0.818974 6.81616 1.34939 6.98788 1.87981 6.98788C2.08969 6.98788 2.30148 6.98788 2.51136 6.98788C2.88341 6.98788 3.25547 6.98788 3.62562 6.98788C4.11978 6.98788 4.61395 6.98788 5.11003 6.98788C5.69005 6.98788 6.27008 6.98788 6.8482 6.98788C7.47402 6.98788 8.10174 6.98788 8.72756 6.98788C9.36292 6.98788 10.0002 6.98788 10.6355 6.98788C11.2423 6.98788 11.8509 6.98788 12.4577 6.98788C12.9976 6.98788 13.5395 6.98788 14.0795 6.98788C14.5164 6.98788 14.9514 6.98788 15.3883 6.98788C15.6822 6.98788 15.976 6.98788 16.2698 6.98788C16.3843 6.98788 16.4969 6.98979 16.6113 6.98788C17.1151 6.98406 17.6283 6.76846 17.9527 6.37542C18.2331 6.03389 18.3896 5.63321 18.3915 5.18865C18.3915 4.83186 18.3915 4.47507 18.3915 4.11827C18.3915 3.502 18.3915 2.88572 18.3915 2.26944C18.3915 1.77909 18.3915 1.28683 18.3915 0.796477C18.3915 0.722065 18.3915 0.647654 18.3915 0.573242C18.3915 0.264149 18.1301 0.000847785 17.8191 0.000847785C17.6646 0.000847785 17.5119 0.000847785 17.3574 0.000847785C16.9395 0.000847785 16.5198 0.000847785 16.1019 0.000847785C15.4837 0.000847785 14.8636 0.000847785 14.2455 0.000847785C13.4899 0.000847785 12.7362 0.000847785 11.9807 0.000847785C11.1545 0.000847785 10.3265 0.000847785 9.5003 0.000847785C8.6646 0.000847785 7.83081 0.000847785 6.99512 0.000847785C6.21666 0.000847785 5.4382 0.000847785 4.65974 0.000847785C4.00149 0.000847785 3.34514 0.000847785 2.68689 0.000847785C2.21562 0.000847785 1.74435 0.000847785 1.27308 0.000847785C1.04793 0.000847785 0.822791 -0.00105973 0.597649 0.000847785C0.588109 0.000847785 0.57857 0.000847785 0.56903 0.000847785C0.273291 0.000850114 -0.012906 0.264151 0.000449876 0.573245C0.0138058 0.884246 0.252304 1.14564 0.572845 1.14564C0.727391 1.14564 0.88003 1.14564 1.03458 1.14564C1.45242 1.14564 1.87218 1.14564 2.29003 1.14564C2.90822 1.14564 3.52831 1.14564 4.1465 1.14564C4.90206 1.14564 5.65571 1.14564 6.41127 1.14564C7.23743 1.14564 8.06549 1.14564 8.89165 1.14564C9.72735 1.14564 10.5611 1.14564 11.3968 1.14564C12.1753 1.14564 12.9537 1.14564 13.7322 1.14564C14.3905 1.14564 15.0468 1.14564 15.7051 1.14564C16.1763 1.14564 16.6476 1.14564 17.1189 1.14564C17.344 1.14564 17.5692 1.14946 17.7943 1.14564C17.8038 1.14564 17.8134 1.14564 17.8229 1.14564C17.6321 0.954841 17.4413 0.764043 17.2505 0.573245C17.2505 1.1113 17.2505 1.64935 17.2505 2.1874C17.2505 3.025 17.2505 3.8607 17.2505 4.6983C17.2505 4.91963 17.2658 5.14859 17.241 5.368C17.2486 5.31649 17.2543 5.26688 17.262 5.21536C17.2467 5.32603 17.2181 5.43097 17.1742 5.534C17.1933 5.48821 17.2124 5.44241 17.2314 5.39662C17.2028 5.46149 17.1704 5.52446 17.1303 5.5836C17.1284 5.58742 17.0979 5.63512 17.096 5.63512C17.0922 5.63321 17.1914 5.51873 17.1399 5.57788C17.1151 5.60459 17.0922 5.63321 17.0654 5.65992C17.0426 5.68282 17.0177 5.70572 16.9929 5.7267C16.9567 5.75914 16.9033 5.7744 17.0406 5.69045C17.0273 5.69808 17.0139 5.70953 17.0006 5.71907C16.9376 5.76105 16.8727 5.79539 16.8041 5.82592C16.8498 5.80684 16.8956 5.78776 16.9414 5.76868C16.8384 5.81065 16.7335 5.84118 16.6228 5.85644C16.6743 5.84881 16.7239 5.84309 16.7754 5.83546C16.6037 5.85644 16.4263 5.845 16.2546 5.845C15.8997 5.845 15.5448 5.845 15.188 5.845C14.6519 5.845 14.1176 5.845 13.5815 5.845C12.927 5.845 12.2745 5.845 11.6201 5.845C10.9027 5.845 10.1853 5.845 9.46786 5.845C8.74283 5.845 8.0197 5.845 7.29467 5.845C6.61924 5.845 5.94573 5.845 5.2703 5.845C4.69981 5.845 4.12933 5.845 3.56075 5.845C3.15625 5.845 2.75367 5.845 2.34918 5.845C2.16601 5.845 1.98285 5.845 1.79968 5.845C1.74244 5.845 1.6852 5.84118 1.62605 5.83546C1.67757 5.84309 1.72718 5.84881 1.77869 5.85644C1.66803 5.84118 1.56309 5.81256 1.46006 5.76868C1.50585 5.78776 1.55164 5.80684 1.59743 5.82592C1.53256 5.7973 1.4696 5.76486 1.41045 5.7248C1.40663 5.72289 1.35893 5.69236 1.35893 5.69045C1.36084 5.68664 1.47532 5.78585 1.41617 5.73433C1.38946 5.70953 1.36084 5.68664 1.33413 5.65992C1.31124 5.63703 1.28834 5.61222 1.26735 5.58742C1.23492 5.55117 1.22156 5.49774 1.3036 5.63512C1.29597 5.62176 1.28452 5.60841 1.27498 5.59505C1.23301 5.53209 1.19866 5.46722 1.16814 5.39853C1.18722 5.44432 1.2063 5.49011 1.22538 5.53591C1.1834 5.43287 1.15287 5.32793 1.13761 5.21727C1.14524 5.26879 1.15096 5.31839 1.1586 5.36991C1.13379 5.18102 1.14524 4.99022 1.14524 4.80324C1.14524 4.43691 1.14524 4.07058 1.14524 3.70424C1.14524 2.8571 1.14524 2.00996 1.14524 1.16281C1.14524 0.96629 1.14524 0.769768 1.14524 0.573245C1.14524 0.273691 0.881938 -0.012506 0.572845 0.000850114C0.261844 0.0142062 0.000449876 0.250795 0.000449876 0.573245L0.000449876 0.573245Z" transform="translate(0.001953125 0)" id="Shape" fill="#000000" fill-rule="evenodd" stroke="none" />
      </g>
    </g>
    <g id="Group" transform="translate(0 4.982422)">
      <g id="Group">
        <path d="M17.2507 1.7811C17.2507 2.32488 17.2507 2.87056 17.2507 3.41433C17.2507 4.27865 17.2507 5.14297 17.2507 6.00537C17.2507 6.20381 17.2507 6.40224 17.2507 6.60067C17.4415 6.40987 17.6323 6.21907 17.8231 6.02827C17.6686 6.02827 17.5159 6.02827 17.3614 6.02827C16.9435 6.02827 16.5238 6.02827 16.1059 6.02827C15.4877 6.02827 14.8676 6.02827 14.2495 6.02827C13.4939 6.02827 12.7402 6.02827 11.9847 6.02827C11.1585 6.02827 10.3305 6.02827 9.5043 6.02827C8.6686 6.02827 7.83481 6.02827 6.99912 6.02827C6.22066 6.02827 5.4422 6.02827 4.66375 6.02827C4.00549 6.02827 3.34915 6.02827 2.69089 6.02827C2.21962 6.02827 1.74835 6.02827 1.27708 6.02827C1.05193 6.02827 0.826793 6.02445 0.601651 6.02827C0.592111 6.02827 0.582571 6.02827 0.573031 6.02827C0.76383 6.21907 0.954628 6.40987 1.14543 6.60067C1.14543 6.04163 1.14543 5.48068 1.14543 4.92164C1.14543 4.05351 1.14543 3.18538 1.14543 2.31725C1.14543 2.08829 1.12825 1.84979 1.15497 1.62083C1.14733 1.67235 1.14161 1.72195 1.13398 1.77347C1.14924 1.66281 1.17786 1.55787 1.22175 1.45484C1.20267 1.50063 1.18359 1.54642 1.16451 1.59221C1.19313 1.52734 1.22556 1.46438 1.26563 1.40523C1.26754 1.40141 1.29806 1.35371 1.29997 1.35371C1.30379 1.35562 1.20457 1.4701 1.25609 1.41095C1.28089 1.38424 1.30379 1.35562 1.3305 1.32891C1.3534 1.30601 1.3782 1.28312 1.403 1.26213C1.43926 1.22969 1.49268 1.21634 1.3553 1.29838C1.36866 1.29075 1.38202 1.2793 1.39537 1.26976C1.45834 1.22779 1.52321 1.19344 1.59189 1.16292C1.5461 1.182 1.50031 1.20108 1.45452 1.22016C1.55755 1.17818 1.66249 1.14765 1.77315 1.13239C1.72164 1.14002 1.67203 1.14574 1.62051 1.15338C1.79223 1.13239 1.96967 1.14384 2.14139 1.14384C2.49628 1.14384 2.85116 1.14384 3.20796 1.14384C3.7441 1.14384 4.27833 1.14384 4.81448 1.14384C5.46891 1.14384 6.12145 1.14384 6.77588 1.14384C7.49328 1.14384 8.21069 1.14384 8.92809 1.14384C9.65312 1.14384 10.3762 1.14384 11.1013 1.14384C11.7767 1.14384 12.4502 1.14384 13.1257 1.14384C13.6961 1.14384 14.2666 1.14384 14.8352 1.14384C15.2397 1.14384 15.6423 1.14384 16.0468 1.14384C16.2299 1.14384 16.4131 1.14384 16.5963 1.14384C16.6535 1.14384 16.7108 1.14765 16.7699 1.15338C16.7184 1.14574 16.6688 1.14002 16.6173 1.13239C16.7279 1.14765 16.8329 1.17627 16.9359 1.22016C16.8901 1.20108 16.8443 1.182 16.7985 1.16292C16.8634 1.19154 16.9264 1.22397 16.9855 1.26404C16.9893 1.26595 17.037 1.29647 17.037 1.29838C17.0351 1.3022 16.9206 1.20298 16.9798 1.2545C17.0065 1.2793 17.0351 1.3022 17.0618 1.32891C17.0847 1.35181 17.1076 1.37661 17.1286 1.40141C17.161 1.43766 17.1744 1.49109 17.0923 1.35371C17.1 1.36707 17.1114 1.38042 17.121 1.39378C17.1629 1.45674 17.1973 1.52162 17.2278 1.5903C17.2087 1.54451 17.1897 1.49872 17.1706 1.45293C17.2125 1.55596 17.2431 1.6609 17.2583 1.77156C17.2507 1.72005 17.245 1.67044 17.2374 1.61892C17.2469 1.67616 17.2507 1.72768 17.2507 1.7811C17.2545 2.08065 17.5121 2.36685 17.8231 2.3535C18.1303 2.34014 18.3993 2.10164 18.3955 1.7811C18.3898 1.3022 18.199 0.82711 17.8479 0.497029C17.514 0.182212 17.0752 0.00667747 16.6173 0.000953758C16.5409 0.000953758 16.4646 0.000953758 16.3883 0.000953758C15.8693 0.000953758 15.3484 0.000953758 14.8295 0.000953758C13.9652 0.000953758 13.1008 0.000953758 12.2365 0.000953758C11.2024 0.000953758 10.1683 0.000953758 9.13415 0.000953758C8.10956 0.000953758 7.08498 0.000953758 6.06039 0.000953758C5.20561 0.000953758 4.35084 0.000953758 3.49606 0.000953758C2.99235 0.000953758 2.48674 0.000953758 1.98303 0.000953758C1.88572 0.000953758 1.78841 -0.00286244 1.69111 0.00476996C1.22365 0.0410215 0.756196 0.237544 0.450919 0.603876C0.16663 0.943497 0.00635996 1.34036 0.00254397 1.78492C-0.00317996 2.47942 0.00254397 3.17393 0.00254397 3.86843C0.00254397 4.72893 0.00254397 5.58944 0.00254397 6.44993C0.00254397 6.50145 0.00254397 6.55106 0.00254397 6.60257C0.00254397 6.91167 0.263938 7.17497 0.574939 7.17497C0.729485 7.17497 0.882124 7.17497 1.03667 7.17497C1.45452 7.17497 1.87428 7.17497 2.29212 7.17497C2.91031 7.17497 3.5304 7.17497 4.14859 7.17497C4.90415 7.17497 5.6578 7.17497 6.41337 7.17497C7.23952 7.17497 8.06759 7.17497 8.89374 7.17497C9.72944 7.17497 10.5632 7.17497 11.3989 7.17497C12.1774 7.17497 12.9558 7.17497 13.7343 7.17497C14.3926 7.17497 15.0489 7.17497 15.7072 7.17497C16.1784 7.17497 16.6497 7.17497 17.121 7.17497C17.3461 7.17497 17.5713 7.17688 17.7964 7.17497C17.8059 7.17497 17.8155 7.17497 17.825 7.17497C18.1341 7.17497 18.3974 6.91357 18.3974 6.60257C18.3974 6.0588 18.3974 5.51312 18.3974 4.96934C18.3974 4.10502 18.3974 3.24071 18.3974 2.3783C18.3974 2.17987 18.3974 1.98144 18.3974 1.78301C18.3974 1.48346 18.1341 1.19726 17.825 1.21062C17.5121 1.22206 17.2507 1.45865 17.2507 1.7811L17.2507 1.7811Z" id="Shape" fill="#000000" fill-rule="evenodd" stroke="none" />
      </g>
    </g>
    <g id="Group" transform="translate(8.619141 0.00390625)">
      <g id="Group">
        <path d="M4.99394 3.05663C4.99394 3.17111 4.98631 3.28559 4.97105 3.40006C4.97868 3.34855 4.9844 3.29894 4.99203 3.24743C4.96151 3.46112 4.90427 3.66718 4.82222 3.86561C4.8413 3.81982 4.86038 3.77403 4.87946 3.72824C4.81841 3.87134 4.7459 4.00871 4.66004 4.13845C4.63715 4.1728 4.61234 4.20714 4.58754 4.24148C4.57418 4.25866 4.53412 4.31208 4.59517 4.23385C4.65814 4.15181 4.60853 4.21668 4.59327 4.23385C4.54366 4.29491 4.49023 4.35406 4.43299 4.40939C4.37957 4.46281 4.32424 4.51242 4.267 4.56203C4.25937 4.56775 4.22884 4.60209 4.2193 4.60209C4.22121 4.60209 4.3395 4.51242 4.27654 4.55821C4.2422 4.58301 4.20976 4.60782 4.17351 4.63071C4.03995 4.72039 3.90067 4.7948 3.75375 4.85776C3.79954 4.83868 3.84533 4.8196 3.89113 4.80052C3.6927 4.88257 3.48663 4.93981 3.27294 4.97033C3.32446 4.9627 3.37406 4.95698 3.42558 4.94935C3.2157 4.97797 3.00391 4.97224 2.79213 4.97224C2.57271 4.97224 2.3552 4.97224 2.13578 4.97224C1.71221 4.97224 1.28673 4.97224 0.863157 4.97224C0.769665 4.97224 0.676175 4.97224 0.580775 4.97224C0.771574 5.16304 0.962372 5.35384 1.15317 5.54464C1.15317 4.84632 1.15317 4.14609 1.15317 3.44776C1.15317 3.20927 1.14363 2.96886 1.17416 2.73227C1.16653 2.78379 1.1608 2.83339 1.15317 2.88491C1.1837 2.66358 1.24094 2.44798 1.3287 2.24192C1.30963 2.28771 1.29055 2.3335 1.27147 2.37929C1.33252 2.2362 1.40693 2.09882 1.49279 1.96908C1.51569 1.93473 1.5424 1.90039 1.56529 1.86605C1.60155 1.81262 1.47943 1.97289 1.52141 1.92138C1.53477 1.90611 1.54812 1.88894 1.56148 1.87368C1.61299 1.81262 1.66642 1.75348 1.72175 1.69814C1.77517 1.64472 1.8305 1.59511 1.88965 1.54741C1.89919 1.53787 1.92399 1.50925 1.93926 1.50735C1.93735 1.50735 1.82096 1.59511 1.88393 1.55123C1.91827 1.52643 1.95261 1.50162 1.98696 1.47873C2.12052 1.38905 2.26171 1.31464 2.41053 1.25358C2.36474 1.27266 2.31895 1.29174 2.27316 1.31082C2.47159 1.22878 2.67956 1.17154 2.89325 1.14101C2.84173 1.14865 2.79213 1.15437 2.74061 1.162C2.96957 1.13147 3.20043 1.13147 3.42939 1.162C3.37788 1.15437 3.32827 1.14865 3.27675 1.14101C3.49045 1.17154 3.69651 1.22878 3.89494 1.31082C3.84915 1.29174 3.80336 1.27266 3.75757 1.25358C3.90066 1.31464 4.03804 1.38714 4.16778 1.473C4.20213 1.4959 4.23647 1.5207 4.27081 1.54551C4.28799 1.55886 4.34141 1.59893 4.26318 1.53787C4.18114 1.47491 4.2441 1.52452 4.26318 1.53978C4.32424 1.58939 4.38338 1.64281 4.43872 1.70005C4.49214 1.75348 4.54175 1.80881 4.58945 1.86605C4.59517 1.87368 4.62951 1.90421 4.62951 1.91375C4.62951 1.91184 4.53984 1.79354 4.58563 1.85651C4.61043 1.89085 4.63524 1.92329 4.65813 1.95954C4.74781 2.0931 4.82222 2.23238 4.88518 2.37929C4.8661 2.3335 4.84702 2.28771 4.82794 2.24192C4.90999 2.44035 4.96723 2.64641 4.99776 2.86011C4.99012 2.80859 4.9844 2.75898 4.97677 2.70747C4.98631 2.82576 4.99394 2.94024 4.99394 3.05663C4.99585 3.35618 5.25534 3.64238 5.56634 3.62902C5.87543 3.61567 6.14064 3.37717 6.13873 3.05663C6.13492 2.17132 5.74187 1.2803 5.04737 0.717441C4.68676 0.425519 4.28226 0.202285 3.83007 0.0897144C3.36834 -0.0247645 2.89325 -0.0266725 2.4277 0.0668186C1.56911 0.240445 0.790656 0.828104 0.376623 1.59702C0.151482 2.01487 0.0274628 2.47278 0.00647484 2.94596C-0.00688127 3.24552 0.00456674 3.54889 0.00456674 3.84844C0.00456674 4.41511 0.00456674 4.98178 0.00456674 5.54655C0.00456674 5.85564 0.265961 6.11894 0.576962 6.11894C1.25811 6.11894 1.93926 6.11894 2.6185 6.11894C3.10313 6.11894 3.58585 6.12276 4.04949 5.96058C4.62189 5.76024 5.11987 5.41108 5.49192 4.93027C5.90787 4.39222 6.13301 3.73778 6.13682 3.05854C6.13873 2.75898 5.87161 2.47278 5.56443 2.48614C5.25533 2.49759 4.99585 2.73418 4.99394 3.05663L4.99394 3.05663Z" id="Shape" fill="#000000" fill-rule="evenodd" stroke="none" />
      </g>
    </g>
    <g id="Group" transform="translate(3.6386719 0)">
      <g id="Group">
        <path d="M1.01897e-05 3.05965C0.0057342 4.22924 0.702148 5.3664 1.78588 5.83958C2.10833 5.98077 2.41933 6.06281 2.76849 6.10479C2.96502 6.12769 3.16345 6.12196 3.35997 6.12196C3.80071 6.12196 4.24336 6.12196 4.68411 6.12196C4.97603 6.12196 5.26795 6.12196 5.56178 6.12196C5.87087 6.12196 6.13417 5.86057 6.13417 5.54957C6.13417 5.06875 6.13417 4.58985 6.13417 4.10904C6.13417 3.39545 6.20286 2.63989 5.92811 1.96638C5.75449 1.53899 5.50836 1.14976 5.16683 0.834942C4.8253 0.520125 4.42653 0.285443 3.98388 0.142344C3.13673 -0.132405 2.15412 -0.00457067 1.4081 0.483873C0.539969 1.05245 0.00573391 2.01789 1.01897e-05 3.05965C-0.00189791 3.3592 0.26522 3.6454 0.572405 3.63204C0.883406 3.61869 1.14289 3.38019 1.1448 3.05965C1.1448 2.94517 1.15243 2.83069 1.1677 2.71621C1.16006 2.76773 1.15434 2.81734 1.14671 2.86885C1.17724 2.65516 1.23448 2.4491 1.31652 2.25066C1.29744 2.29646 1.27836 2.34225 1.25928 2.38804C1.32033 2.24494 1.39284 2.10757 1.4787 1.97782C1.50159 1.94348 1.5264 1.90914 1.5512 1.87479C1.56456 1.85762 1.60462 1.8042 1.54357 1.88242C1.48061 1.96447 1.53021 1.9015 1.54548 1.88242C1.59508 1.82137 1.64851 1.76222 1.70575 1.70689C1.75917 1.65347 1.8145 1.60386 1.87174 1.55616C1.87937 1.55044 1.9099 1.51609 1.91944 1.51609C1.91753 1.51609 1.79924 1.60577 1.8622 1.55998C1.89655 1.53517 1.92898 1.51037 1.96523 1.48747C2.09879 1.3978 2.23807 1.32339 2.38499 1.26042C2.3392 1.2795 2.29341 1.29858 2.24761 1.31766C2.44604 1.23562 2.65211 1.17838 2.8658 1.14785C2.81428 1.15548 2.76468 1.16121 2.71316 1.16884C2.94212 1.13831 3.17299 1.13831 3.40194 1.16884C3.35043 1.16121 3.30082 1.15548 3.24931 1.14785C3.463 1.17838 3.66906 1.23562 3.8694 1.31766C3.82361 1.29858 3.77782 1.2795 3.73202 1.26042C3.87512 1.32148 4.01441 1.39398 4.14415 1.47984C4.17849 1.50274 4.21284 1.52754 4.24718 1.55234C4.26626 1.5657 4.31778 1.60577 4.23955 1.54471C4.15751 1.48175 4.22238 1.53136 4.24146 1.54662C4.30251 1.59623 4.36166 1.64965 4.4189 1.70498C4.47232 1.75841 4.52384 1.81374 4.57154 1.87098C4.58489 1.88624 4.59825 1.90341 4.6116 1.91868C4.66121 1.97782 4.56963 1.86334 4.56772 1.86144C4.5868 1.86525 4.63068 1.9473 4.64022 1.96256C4.7299 2.09421 4.80622 2.2354 4.86918 2.38232C4.8501 2.33652 4.83102 2.29073 4.81194 2.24494C4.8978 2.451 4.95695 2.66661 4.98748 2.88793C4.97985 2.83642 4.97412 2.78681 4.96649 2.73529C4.9932 2.94517 4.98748 3.15696 4.98748 3.36874C4.98748 3.58625 4.98748 3.80567 4.98748 4.02318C4.98748 4.44103 4.98748 4.85697 4.98748 5.27482C4.98748 5.3664 4.98748 5.45608 4.98748 5.54766C5.17828 5.35686 5.36907 5.16606 5.55987 4.97526C4.85201 4.97526 4.14415 4.97526 3.43629 4.97526C3.19588 4.97526 2.95357 4.9829 2.71507 4.95237C2.76659 4.96 2.81619 4.96572 2.86771 4.97336C2.65401 4.94283 2.44795 4.88559 2.24952 4.80355C2.29531 4.82263 2.34111 4.8417 2.3869 4.86078C2.2438 4.79973 2.10642 4.72723 1.97668 4.64137C1.94234 4.61847 1.90799 4.59367 1.87365 4.56886C1.85648 4.55551 1.80305 4.51544 1.88128 4.5765C1.96333 4.63946 1.90036 4.58985 1.88128 4.57459C1.82023 4.52498 1.76108 4.47156 1.70575 4.41432C1.65232 4.36089 1.60272 4.30556 1.55502 4.24832C1.54929 4.24069 1.51495 4.21016 1.51495 4.20062C1.51495 4.20253 1.60462 4.32083 1.55883 4.25786C1.53403 4.22352 1.50922 4.19108 1.48633 4.15483C1.39665 4.02127 1.32224 3.88008 1.25928 3.73317C1.27836 3.77896 1.29744 3.82475 1.31652 3.87054C1.23448 3.67211 1.17724 3.46414 1.14671 3.25235C1.15434 3.30387 1.16006 3.35348 1.1677 3.40499C1.15243 3.29051 1.1448 3.17604 1.1448 3.06156C1.14289 2.762 0.883407 2.47581 0.572406 2.48916C0.263312 2.50061 -0.00189791 2.7372 1.01897e-05 3.05965L1.01897e-05 3.05965Z" id="Shape" fill="#000000" fill-rule="evenodd" stroke="none" />
      </g>
    </g>
  </g>
</svg>