<?xml version="1.0" encoding="utf-8"?>
<svg width="14px" height="18px" viewBox="0 0 14 18" version="1.1" xmlns:xlink="http://www.w3.org/1999/xlink" xmlns="http://www.w3.org/2000/svg">
  <g id="Group" transform="translate(0.25 0.25)">
    <path d="M0.151037 15.2936C0.229107 15.3368 0.322401 15.342 0.404765 15.3081L2.4301 14.47L2.74746 16.7285C2.76991 16.8886 2.91804 17.0002 3.07809 16.9778C3.16924 16.9651 3.24887 16.9103 3.29337 16.8296L5.7885 12.3238L5.79708 12.3291C5.86696 12.3718 5.95147 12.3835 6.03012 12.3611L6.74876 12.1568L7.46954 12.3611C7.5482 12.3833 7.63271 12.3718 7.70239 12.3291L7.71098 12.3238L10.2067 16.8296C10.2852 16.9712 10.4633 17.0221 10.6047 16.9438C10.6851 16.8993 10.7397 16.8195 10.7526 16.7285L11.0701 14.47L13.0955 15.3081C13.245 15.3697 13.4162 15.2987 13.4778 15.1492C13.5118 15.0668 13.5065 14.9735 13.4634 14.8957L10.9819 10.4179L11.0579 10.27L11.6967 9.87827C11.7656 9.83611 11.8138 9.76721 11.8302 9.68817L11.984 8.94747L12.4947 8.39435C12.5494 8.33521 12.5771 8.25616 12.5716 8.17575L12.5205 7.42296L12.8652 6.75136C12.9019 6.67973 12.9075 6.59619 12.8808 6.52046L12.6298 5.80827L12.7818 5.06757C12.798 4.98892 12.7811 4.90714 12.7352 4.84117L12.304 4.22266L12.2527 3.46967C12.2473 3.38926 12.2088 3.3145 12.1463 3.26337L11.5655 2.78675L11.3147 2.07494C11.2878 1.99863 11.2304 1.93676 11.1564 1.90416L10.47 1.60242L10.0392 0.986448C9.99258 0.919697 9.92017 0.875392 9.83937 0.864072L9.09907 0.7618L8.51881 0.285571C8.45577 0.23385 8.37379 0.210819 8.29299 0.221944L7.55249 0.324216L6.86645 0.0244256C6.83054 0.00881159 6.79189 0.000418988 6.75266 2.86647e-05L6.75266 2.86647e-05C6.71109 -0.00055682 6.66991 0.00783569 6.63185 0.0244256L5.946 0.32441L5.20746 0.222138C5.12665 0.211013 5.04468 0.234043 4.98164 0.285765L4.40138 0.761994L3.66108 0.864266C3.58047 0.875391 3.50826 0.919501 3.46161 0.986056L3.02891 1.60242L2.34403 1.90436C2.27006 1.93695 2.21287 1.99863 2.18594 2.07494L1.93514 2.78675L1.3543 3.26356C1.29184 3.3147 1.25339 3.38945 1.24793 3.46986L1.19659 4.22266L0.763694 4.84097C0.717437 4.90714 0.700457 4.98931 0.716852 5.06835L0.870455 5.80866L0.619654 6.52066C0.592916 6.59658 0.598576 6.68012 0.635269 6.75155L0.979949 7.42315L0.928618 8.17594C0.923153 8.25636 0.951063 8.3354 1.00571 8.39454L1.5161 8.94747L1.66794 9.68778C1.68434 9.76721 1.73274 9.8363 1.80203 9.87866L2.4426 10.2704L2.51852 10.4181L0.0366638 14.8957C-0.0416017 15.037 0.00953435 15.2152 0.151037 15.2936L0.151037 15.2936ZM12.5453 14.4467L10.9448 13.7845C10.7953 13.7226 10.6242 13.7937 10.5623 13.9432C10.5529 13.966 10.5463 13.9898 10.543 14.0144L10.2949 15.7804L8.21121 12.0176L8.3412 11.9379L9.08853 11.9379C9.17031 11.9379 9.24818 11.9038 9.30361 11.8439L9.81322 11.2919L10.5324 11.0893C10.5756 11.077 10.6152 11.055 10.6486 11.0249L10.6486 11.0249L12.5453 14.4467L12.5453 14.4467ZM2.216 9.44518L2.07313 8.74957C2.0624 8.69727 2.03761 8.64906 2.0015 8.60983L1.52117 8.08969L1.56938 7.38159C1.5729 7.3285 1.56197 7.27541 1.53776 7.22798L1.21358 6.5962L1.44974 5.92616C1.4675 5.87581 1.47101 5.82155 1.46028 5.76944L1.31565 5.07305L1.72279 4.49142C1.75343 4.4477 1.77139 4.39657 1.7751 4.34348L1.82331 3.63577L2.3696 3.18745C2.41098 3.15349 2.44221 3.10899 2.45997 3.05844L2.69594 2.38899L3.33963 2.1054C3.38842 2.08393 3.43058 2.04938 3.46122 2.00567L3.86758 1.42677L4.56358 1.33055C4.61705 1.32314 4.66741 1.30108 4.70918 1.26692L5.2543 0.819582L5.94776 0.915608C6.00124 0.923025 6.0557 0.915413 6.10507 0.893943L6.74935 0.612305L6.74935 0.612305L7.39362 0.893943C7.443 0.915608 7.49746 0.923025 7.55094 0.915608L8.24635 0.819582L8.79147 1.26692C8.83324 1.30108 8.8836 1.32314 8.93707 1.33055L9.63268 1.42658L10.0371 2.00508C10.0679 2.04899 10.1101 2.08374 10.1593 2.1054L10.8045 2.38899L11.0403 3.05825C11.0581 3.1086 11.0893 3.1533 11.1307 3.18726L11.677 3.63558L11.7252 4.34329C11.7289 4.39618 11.7468 4.44732 11.7771 4.49084L12.1828 5.07285L12.0398 5.77002C12.0291 5.82213 12.0328 5.876 12.0503 5.92616L12.2865 6.5962L11.9623 7.22798C11.9379 7.27541 11.9272 7.3285 11.9307 7.38159L11.9789 8.08969L11.4988 8.60983C11.4626 8.64886 11.4381 8.69688 11.4271 8.74899L11.2825 9.44538L10.6818 9.81387C10.6361 9.84197 10.5988 9.88199 10.5744 9.9298L10.2508 10.5602L9.57491 10.7507C9.5228 10.7654 9.47596 10.7942 9.43926 10.8339L8.9605 11.3524L8.25845 11.3524C8.20438 11.3524 8.15149 11.3675 8.10543 11.3956L7.50624 11.7631L6.82898 11.571C6.77667 11.5562 6.72124 11.5562 6.66913 11.571L5.99402 11.7629L5.39483 11.3956C5.34877 11.3673 5.29587 11.3524 5.24181 11.3524L4.53996 11.3524L4.06119 10.8339C4.0245 10.794 3.97766 10.7654 3.92554 10.7507L3.24965 10.5602L2.92624 9.92981C2.90165 9.88199 2.86437 9.84178 2.81851 9.81387L2.216 9.44518L2.216 9.44518ZM2.85169 11.0245L2.85169 11.0245C2.88487 11.0546 2.92469 11.0766 2.96782 11.0889L3.68704 11.2915L4.19665 11.8435C4.25208 11.9034 4.33015 11.9376 4.41173 11.9376L5.15925 11.9376L5.28924 12.0172L3.20554 15.78L2.95748 14.014C2.93503 13.854 2.78689 13.7424 2.62665 13.7648C2.60226 13.7683 2.57825 13.7748 2.55541 13.7841L0.954971 14.4466L2.85169 11.0245L2.85169 11.0245Z" id="Shape-2" fill="#87909E" fill-rule="evenodd" stroke="#87909E" stroke-width="0.5" />
    <path d="M6.73434 10.5411C9.15628 10.5411 11.1266 8.57077 11.1266 6.14883C11.1266 3.72689 9.15628 1.75659 6.73434 1.75659C4.3124 1.75659 2.3421 3.72709 2.3421 6.14902C2.3421 8.57077 4.3124 10.5411 6.73434 10.5411L6.73434 10.5411ZM6.73434 2.33997C8.8397 2.33997 10.5434 4.04346 10.5434 6.14902C10.5434 8.25457 8.8399 9.95202 6.73434 9.95202C4.62878 9.95202 2.93134 8.25438 2.93134 6.14902C2.93134 4.04346 4.62897 2.33997 6.73434 2.33997L6.73434 2.33997Z" id="Shape-3" fill="#87909E" fill-rule="evenodd" stroke="#87909E" stroke-width="0.5" />
  </g>
</svg>