<?xml version="1.0" encoding="utf-8"?>
<svg width="40px" height="21px" viewBox="0 0 40 21" version="1.1" xmlns:xlink="http://www.w3.org/1999/xlink" xmlns="http://www.w3.org/2000/svg">
  <g id="Group-2" transform="translate(0.125 0.125)">
    <path d="M32.2648 4.89107C32.7241 3.85484 32.383 2.63845 31.452 1.99204C30.5209 1.34563 29.262 1.45124 28.4516 2.24373C22.4397 -0.930274 15.2048 -0.725039 9.38252 2.78468C3.5602 6.29439 0.000445073 12.5962 0 19.3945C0 19.6557 0.211768 19.8675 0.472998 19.8675C0.734228 19.8675 0.945998 19.6557 0.945999 19.3945C0.945999 12.9528 4.31122 6.97297 9.82252 3.62703C15.3338 0.281088 22.1919 0.0543416 27.9121 3.02893C27.4784 4.05869 27.8252 5.25147 28.7433 5.8883C29.6614 6.52513 30.9001 6.432 31.7127 5.66505C35.6139 9.16244 37.8421 14.1551 37.84 19.3945C37.84 19.6557 38.0517 19.8675 38.313 19.8675C38.5742 19.8675 38.786 19.6557 38.786 19.3945C38.7879 13.849 36.4137 8.569 32.2644 4.89068L32.2648 4.89107ZM30.1026 5.35389C29.3189 5.35389 28.6836 4.7186 28.6836 3.93491C28.6836 3.15123 29.3189 2.51593 30.1026 2.51593C30.8863 2.51593 31.5216 3.15122 31.5216 3.9349C31.5207 4.71819 30.8859 5.35297 30.1026 5.35389L30.1026 5.35389Z" id="Shape" fill="#87909E" fill-rule="evenodd" stroke="#87909E" stroke-width="0.25" />
    <path d="M26.1484 8.5868L19.6855 13.3866C18.477 13.2998 17.3175 13.88 16.6626 14.8993C16.0077 15.9187 15.9618 17.2144 16.5431 18.2774C17.1244 19.3405 18.2399 20.0012 19.4516 20C19.5088 20 19.5662 19.9985 19.6237 19.9956C20.5698 19.9475 21.45 19.4964 22.0415 18.7564C22.633 18.0163 22.8791 17.0584 22.7174 16.1249L26.8368 9.20839C26.9523 9.01466 26.915 8.76633 26.7476 8.61515C26.5802 8.46397 26.3294 8.452 26.1484 8.58656L26.1484 8.5868ZM21.811 15.798C21.7482 15.9034 21.7289 16.029 21.7569 16.1483C21.9939 17.1557 21.5486 18.2001 20.6576 18.7265C19.7666 19.253 18.6369 19.1391 17.8689 18.4455C17.1009 17.7518 16.873 16.6395 17.3063 15.6997C17.7395 14.76 18.7334 14.2109 19.7596 14.3445C19.8812 14.3603 20.0042 14.3283 20.1026 14.2552L24.8139 10.7563L21.811 15.798Z" id="Shape-2" fill="#87909E" fill-rule="evenodd" stroke="#87909E" stroke-width="0.25" />
    <path d="M19.3932 15.9945C19.0274 15.9945 18.731 16.291 18.731 16.6567C18.731 17.0224 19.0274 17.3189 19.3932 17.3189C19.7589 17.3189 20.0554 17.0224 20.0554 16.6567C20.055 16.2912 19.7588 15.9949 19.3932 15.9945L19.3932 15.9945ZM19.3932 16.9405C19.2364 16.9405 19.1094 16.8135 19.1094 16.6567C19.1094 16.5 19.2364 16.3729 19.3932 16.3729C19.5499 16.3729 19.677 16.5 19.677 16.6567C19.677 16.8135 19.5499 16.9405 19.3932 16.9405L19.3932 16.9405Z" id="Shape-3" fill="#87909E" fill-rule="evenodd" stroke="none" />
  </g>
</svg>