<?xml version="1.0" encoding="utf-8"?>
<svg width="16px" height="22px" viewbox="0 0 16 22" version="1.1" xmlns:xlink="http://www.w3.org/1999/xlink" xmlns="http://www.w3.org/2000/svg">
  <defs>
    <filter id="filter_1">
      <feColorMatrix in="SourceGraphic" type="matrix" values="0 0 0 0 0.12941177 0 0 0 0 0.14117648 0 0 0 0 0.15294118 0 0 0 1 0" />
    </filter>
  </defs>
  <g id="Group" filter="url(#filter_1)">
    <path d="M3 6.66667C1.34391 6.66483 0.00183678 5.32276 0 3.66667L0 0L0.666667 0L0.666667 3.66667C0.666667 4.95533 1.71134 6 3 6C4.28866 6 5.33333 4.95533 5.33333 3.66667L5.33333 0L6 0L6 3.66667C5.9981 5.32287 4.65599 6.66489 2.99989 6.66667L3 6.66667Z" transform="translate(5 4.666504)" id="Shape" fill="#000000" fill-rule="evenodd" stroke="none" />
    <path d="M8.23567 5.90233L7.76433 5.431L8 5.19533L8 4.33333C8 2.30829 6.35838 0.666667 4.33333 0.666667C2.30829 0.666667 0.666667 2.30829 0.666667 4.33333L0.666667 5.19533L0.902334 5.431L0.431001 5.90233L0.0976677 5.569C0.0351505 5.5065 1.90735e-05 5.42173 0 5.33333L6.35783e-07 4.33333C6.35783e-07 1.9401 1.9401 0 4.33333 0C6.72657 0 8.66667 1.9401 8.66667 4.33333L8.66667 5.33333C8.66667 5.42166 8.63155 5.50644 8.56905 5.56895L8.23567 5.90233Z" transform="translate(3.666504 0)" id="Shape" fill="#000000" fill-rule="evenodd" stroke="none" />
    <path d="M1.66667 3.33333C0.746192 3.33333 0 2.58714 0 1.66667C0 0.746192 0.746192 0 1.66667 0L1.66667 0.666667C1.11438 0.666667 0.666667 1.11438 0.666667 1.66667C0.666667 2.21895 1.11438 2.66667 1.66667 2.66667L1.66667 3.33333Z" transform="translate(3.666504 5)" id="Shape" fill="#000000" fill-rule="evenodd" stroke="none" />
    <path d="M0 3.33333L0 2.66667C0.552284 2.66667 1 2.21895 1 1.66667C1 1.11438 0.552284 0.666667 0 0.666667L0 0C0.920475 0 1.66667 0.746192 1.66667 1.66667C1.66667 2.58714 0.920475 3.33333 0 3.33333L0 3.33333Z" transform="translate(10.666504 5)" id="Shape" fill="#000000" fill-rule="evenodd" stroke="none" />
    <path d="M15.6667 10.6667L0.333333 10.6667C0.149238 10.6667 0 10.5174 0 10.3333L0 3C-7.72476e-05 2.84233 0.11035 2.70616 0.264653 2.67367L6.33333 1.396L6.33333 0L7 0L7 1.66667C7.00008 1.82434 6.88965 1.96051 6.73535 1.993L0.666667 3.27067L0.666667 10L15.3333 10L15.3333 3.27067L9.26467 1.993C9.11036 1.96052 8.99993 1.82435 9 1.66667L9 0L9.66667 0L9.66667 1.396L15.7353 2.67367C15.8896 2.70615 16.0001 2.84231 16 3L16 10.3333C16 10.5174 15.8508 10.6667 15.6667 10.6667L15.6667 10.6667Z" transform="translate(0 10.666504)" id="Shape" fill="#000000" fill-rule="evenodd" stroke="none" />
    <path d="M0 0L0.666667 0L0.666667 4.33333L0 4.33333L0 0Z" transform="translate(13.333496 16.666504)" id="Rectangle" fill="#000000" fill-rule="evenodd" stroke="none" />
    <path d="M0 0L0.666667 0L0.666667 4.33333L0 4.33333L0 0Z" transform="translate(2 16.666504)" id="Rectangle" fill="#000000" fill-rule="evenodd" stroke="none" />
    <path d="M5.26033 2.20967C1.477 2.20967 0.0603333 0.491 0 0.418L0.519334 0C0.532 0.0153332 1.82433 1.543 5.26033 1.543L5.26033 2.20967Z" transform="translate(6.073242 2.7905273)" id="Shape" fill="#000000" fill-rule="evenodd" stroke="none" />
    <path d="M0 1.354L0 0.687333C1.83333 0.687333 2.30667 0.191 2.33333 0L3 0.0206668C3 0.157 2.916 1.354 0 1.354L0 1.354Z" transform="translate(4.666504 3.645996)" id="Shape" fill="#000000" fill-rule="evenodd" stroke="none" />
    <path d="M1.569 1.90233C1.4806 1.90231 1.39583 1.86718 1.33333 1.80467L0 0.471334L0.471333 0L1.569 1.09767L2.66667 0L3.138 0.471334L1.80467 1.80467C1.74217 1.86718 1.6574 1.90231 1.569 1.90233L1.569 1.90233Z" transform="translate(6.4311523 12.097656)" id="Shape" fill="#000000" fill-rule="evenodd" stroke="none" />
    <path d="M3.66667 2.66667C3.57827 2.66665 3.4935 2.63152 3.431 2.569L2.66667 1.80467L1.90233 2.569C1.77217 2.69913 1.56117 2.69913 1.431 2.569L0.0976677 1.23567C0.0351505 1.17317 1.90735e-05 1.0884 0 1L6.35783e-07 0L0.666667 0L0.666667 0.862L1.66667 1.862L2.431 1.09767C2.56117 0.96754 2.77217 0.96754 2.90233 1.09767L3.66667 1.862L4.66667 0.862L4.66667 0L5.33333 0L5.33333 1C5.33333 1.08833 5.29822 1.17311 5.23572 1.23562L3.90233 2.569C3.83984 2.63152 3.75507 2.66665 3.66667 2.66667L3.66667 2.66667Z" transform="translate(5.333496 12.333496)" id="Shape" fill="#000000" fill-rule="evenodd" stroke="none" />
    <path d="M0 0L0.666667 0L0.666667 3L0 3L0 0Z" transform="translate(7.666504 13.666504)" id="Rectangle" fill="#000000" fill-rule="evenodd" stroke="none" />
    <path d="M9 5L0.333333 5C0.149239 5 0 4.85076 0 4.66667L0 0.333333C0 0.149239 0.149239 0 0.333333 0L9 0C9.1841 0 9.33333 0.149239 9.33333 0.333333L9.33333 4.66667C9.33333 4.85076 9.1841 5 9 5L9 5ZM0.666504 4.33317L8.6665 4.33317L8.6665 0.666504L0.666504 0.666504L0.666504 4.33317Z" transform="translate(3.333496 16.333496)" id="Shape" fill="#000000" fill-rule="evenodd" stroke="none" />
    <path d="M0 0L0.666667 0L0.666667 3.66667L0 3.66667L0 0Z" transform="translate(3.333496 13)" id="Rectangle" fill="#000000" fill-rule="evenodd" stroke="none" />
    <path d="M0 0L0.666667 0L0.666667 4L0 4L0 0Z" transform="translate(4.333496 12.666504)" id="Rectangle" fill="#000000" fill-rule="evenodd" stroke="none" />
    <path d="M0 0L0.666667 0L0.666667 3.66667L0 3.66667L0 0Z" transform="translate(12 13)" id="Rectangle" fill="#000000" fill-rule="evenodd" stroke="none" />
    <path d="M0 0L0.666667 0L0.666667 4L0 4L0 0Z" transform="translate(11 12.666504)" id="Rectangle" fill="#000000" fill-rule="evenodd" stroke="none" />
    <path d="M6.66667 3.33333L6 3.33333L6 0.666667L0.666667 0.666667L0.666667 3.33333L0 3.33333L0 0.333333C0 0.149239 0.149239 0 0.333333 0L6.33333 0C6.51743 0 6.66667 0.149239 6.66667 0.333333L6.66667 3.33333Z" transform="translate(4.666504 17.666504)" id="Shape" fill="#000000" fill-rule="evenodd" stroke="none" />
  </g>
</svg>