<?xml version="1.0" encoding="utf-8"?>
<svg width="15px" height="15px" viewBox="0 0 15 15" version="1.1" xmlns:xlink="http://www.w3.org/1999/xlink" xmlns="http://www.w3.org/2000/svg">
  <g id="Settings-2" transform="translate(0.125 0.125)">
    <path d="M14.1705 5.60227L12.2591 5.60227C12.1759 5.3535 12.0746 5.11118 11.9559 4.87727L13.3103 3.52284C13.3727 3.46096 13.4078 3.37673 13.4078 3.28886C13.4078 3.20099 13.3727 3.11676 13.3103 3.05489L11.4451 1.18966C11.3832 1.12727 11.299 1.09218 11.2111 1.09218C11.1233 1.09218 11.039 1.12727 10.9772 1.18966L9.62273 2.54409C9.38882 2.42539 9.1465 2.32406 8.89773 2.24091L8.89773 0.329545C8.89773 0.147543 8.75018 0 8.56818 0L5.93182 0C5.74981 0 5.60227 0.147543 5.60227 0.329545L5.60227 2.24091C5.3535 2.32406 5.11118 2.42539 4.87727 2.54409L3.52284 1.18966C3.46096 1.12727 3.37673 1.09218 3.28886 1.09218C3.20099 1.09218 3.11676 1.12727 3.05489 1.18966L1.18966 3.05489C1.12727 3.11676 1.09218 3.20099 1.09218 3.28886C1.09218 3.37673 1.12727 3.46096 1.18966 3.52284L2.54409 4.87727C2.42539 5.11118 2.32406 5.3535 2.24091 5.60227L0.329545 5.60227C0.147543 5.60227 0 5.74981 0 5.93182L0 8.56818C0 8.75018 0.147543 8.89773 0.329545 8.89773L2.24091 8.89773C2.32405 9.1465 2.42539 9.38882 2.54409 9.62272L1.18966 10.9772C1.12727 11.039 1.09218 11.1233 1.09218 11.2111C1.09218 11.299 1.12727 11.3832 1.18966 11.4451L3.05489 13.3103C3.11676 13.3727 3.20099 13.4078 3.28886 13.4078C3.37673 13.4078 3.46096 13.3727 3.52284 13.3103L4.87727 11.9559C5.11118 12.0746 5.3535 12.1759 5.60227 12.2591L5.60227 14.1705C5.60227 14.3525 5.74982 14.5 5.93182 14.5L8.56818 14.5C8.75019 14.5 8.89773 14.3525 8.89773 14.1705L8.89773 12.2591C9.1465 12.1759 9.38882 12.0746 9.62273 11.9559L10.9772 13.3103C11.039 13.3727 11.1233 13.4078 11.2111 13.4078C11.299 13.4078 11.3832 13.3727 11.4451 13.3103L13.3103 11.4451C13.3727 11.3832 13.4078 11.299 13.4078 11.2111C13.4078 11.1233 13.3727 11.039 13.3103 10.9772L11.9559 9.62273C12.0746 9.38882 12.1759 9.1465 12.2591 8.89772L14.1705 8.89773C14.3525 8.89773 14.5 8.75018 14.5 8.56818L14.5 5.93182C14.5 5.74981 14.3525 5.60227 14.1705 5.60227L14.1705 5.60227ZM13.841 8.23872L11.9955 8.23872L11.9263 8.23872L11.8703 8.2585C11.8515 8.26867 11.8338 8.28082 11.8176 8.29475C11.8008 8.30613 11.7853 8.3194 11.7715 8.33429L11.7385 8.38373C11.7253 8.40288 11.7153 8.42402 11.7088 8.44634C11.7088 8.44634 11.7088 8.44634 11.7088 8.46282C11.6078 8.82777 11.4617 9.1787 11.2738 9.50748C11.2738 9.50748 11.2738 9.50748 11.2738 9.52725C11.2643 9.54707 11.2576 9.56816 11.2541 9.58986C11.251 9.60951 11.251 9.62953 11.2541 9.64918C11.2523 9.67001 11.2523 9.69096 11.2541 9.71179C11.2506 9.73252 11.2506 9.75368 11.2541 9.77441C11.2609 9.79291 11.2697 9.8106 11.2804 9.82714C11.2916 9.84713 11.3049 9.86591 11.32 9.88316L11.32 9.90293L12.6118 11.2046L11.2046 12.6118L9.91941 11.3167L9.89963 11.3167C9.88239 11.3016 9.86361 11.2883 9.84361 11.2771L9.79088 11.2508L9.72827 11.2508L9.66895 11.2508C9.64822 11.2473 9.62707 11.2473 9.60634 11.2508C9.58463 11.2543 9.56355 11.261 9.54372 11.2705L9.52395 11.2705C9.19517 11.4584 8.84424 11.6045 8.47929 11.7055C8.47929 11.7055 8.47929 11.7055 8.46282 11.7055C8.44049 11.712 8.41935 11.722 8.4002 11.7352L8.35077 11.7682C8.33587 11.782 8.32261 11.7975 8.31122 11.8143C8.29729 11.8305 8.28514 11.8482 8.27497 11.867C8.26693 11.8851 8.26032 11.9039 8.2552 11.923C8.25364 11.9461 8.25364 11.9692 8.2552 11.9922C8.2552 11.9922 8.2552 11.9922 8.2552 12.012L8.2552 13.841L6.26145 13.841L6.26145 12.0153C6.26145 12.0153 6.26145 12.0153 6.26145 11.9955C6.26302 11.9725 6.26302 11.9494 6.26145 11.9263C6.25634 11.9072 6.24973 11.8884 6.24168 11.8703C6.23151 11.8515 6.21936 11.8338 6.20543 11.8176C6.19405 11.8008 6.18078 11.7853 6.16588 11.7715L6.11645 11.7385C6.0973 11.7253 6.07616 11.7153 6.05384 11.7088C6.05384 11.7088 6.05384 11.7088 6.03736 11.7088C5.67241 11.6078 5.32148 11.4617 4.9927 11.2738L4.97293 11.2738C4.95311 11.2643 4.93202 11.2576 4.91032 11.2541C4.88959 11.2506 4.86843 11.2506 4.8477 11.2541L4.78838 11.2541L4.72577 11.2541L4.67304 11.2804C4.65304 11.2916 4.63427 11.3049 4.61702 11.32L4.59725 11.32L3.29554 12.6118L1.88838 11.2046L3.1835 9.91282L3.1835 9.89304C3.19859 9.8758 3.21185 9.85702 3.22304 9.83702C3.23377 9.82049 3.24262 9.8028 3.24941 9.78429C3.25285 9.76356 3.25285 9.74241 3.24941 9.72168C3.2512 9.70085 3.2512 9.6799 3.24941 9.65907C3.25249 9.63941 3.25249 9.6194 3.24941 9.59975C3.24584 9.57804 3.23918 9.55696 3.22963 9.53713C3.22963 9.53713 3.22963 9.53713 3.22963 9.51736C3.04177 9.18858 2.89564 8.83765 2.79463 8.4727C2.79463 8.4727 2.79463 8.4727 2.79463 8.45622C2.78816 8.4339 2.77814 8.41276 2.76498 8.39361L2.73202 8.34418C2.7182 8.32928 2.70272 8.31602 2.68588 8.30463C2.66909 8.29145 2.65148 8.27934 2.63316 8.26838L2.57713 8.24861L2.50463 8.23872L0.65918 8.23872L0.65918 6.26145L2.48486 6.26145C2.52542 6.26046 2.56552 6.25266 2.6035 6.23838L2.63645 6.21861C2.66031 6.20746 2.68249 6.19304 2.70236 6.17577L2.73202 6.14611C2.74823 6.12732 2.76156 6.10621 2.77157 6.0835C2.78141 6.07096 2.78818 6.05628 2.79134 6.04066C2.79134 6.04066 2.79134 6.04066 2.79134 6.02088C2.89235 5.65593 3.03847 5.305 3.22634 4.97622C3.22634 4.97623 3.22634 4.97623 3.22634 4.95645C3.23588 4.93663 3.24254 4.91555 3.24611 4.89384C3.2492 4.87419 3.2492 4.85417 3.24611 4.83452C3.2479 4.81369 3.2479 4.79274 3.24611 4.77191C3.24955 4.75118 3.24955 4.73002 3.24611 4.70929C3.23932 4.69079 3.23048 4.6731 3.21975 4.65657C3.20855 4.63657 3.1953 4.61779 3.1802 4.60054L3.1802 4.58077L1.88838 3.29554L3.29554 1.88838L4.58736 3.1835L4.58736 3.1835C4.61694 3.20928 4.65028 3.23039 4.68622 3.24611L4.71259 3.24611C4.74766 3.25803 4.78431 3.26469 4.82134 3.26588L4.82134 3.26588C4.8583 3.26409 4.89486 3.25744 4.93009 3.24611L4.95645 3.24611L4.98282 3.24611C5.3116 3.05825 5.66253 2.91212 6.02748 2.81111C6.02747 2.81111 6.02747 2.81111 6.04395 2.81111C6.06627 2.80463 6.08741 2.79462 6.10656 2.78145L6.156 2.7485C6.17089 2.73467 6.18416 2.71919 6.19554 2.70236C6.20947 2.68613 6.22163 2.66845 6.23179 2.64963C6.24437 2.62551 6.25432 2.6001 6.26145 2.57384C6.26302 2.5508 6.26302 2.52768 6.26145 2.50463C6.26145 2.50463 6.26145 2.50463 6.26145 2.48486L6.26145 0.65918L8.23872 0.65918L8.23872 2.48486C8.23872 2.48486 8.23872 2.48486 8.23872 2.50463C8.23716 2.52768 8.23716 2.5508 8.23872 2.57384C8.24384 2.593 8.25045 2.61173 8.2585 2.62986C8.26867 2.64868 8.28082 2.66636 8.29475 2.68259C8.30613 2.69942 8.3194 2.7149 8.33429 2.72873L8.38373 2.76168C8.40288 2.77485 8.42402 2.78486 8.44634 2.79134C8.44634 2.79134 8.44634 2.79134 8.46282 2.79134C8.82777 2.89235 9.1787 3.03847 9.50748 3.22634L9.53384 3.22634L9.5602 3.22634C9.59543 3.23767 9.63199 3.24432 9.66895 3.24611L9.66895 3.24611C9.70598 3.24492 9.74263 3.23826 9.7777 3.22634L9.80407 3.22634C9.84001 3.21062 9.87335 3.18951 9.90293 3.16373L9.90293 3.16373L11.2046 1.88838L12.6118 3.29554L11.3167 4.58077L11.3167 4.60054C11.3016 4.61779 11.2883 4.63657 11.2771 4.65657C11.2664 4.6731 11.2576 4.69079 11.2508 4.70929C11.2473 4.73002 11.2473 4.75118 11.2508 4.77191C11.249 4.79274 11.249 4.81369 11.2508 4.83452C11.2477 4.85417 11.2477 4.87419 11.2508 4.89384C11.2543 4.91555 11.261 4.93663 11.2705 4.95645C11.2705 4.95645 11.2705 4.95645 11.2705 4.97623C11.4584 5.30501 11.6045 5.65594 11.7055 6.02089C11.7055 6.02088 11.7055 6.02088 11.7055 6.04066C11.7087 6.05628 11.7155 6.07096 11.7253 6.0835C11.7353 6.10621 11.7486 6.12732 11.7649 6.14611L11.7945 6.17577C11.8144 6.19304 11.8366 6.20746 11.8604 6.21861L11.8934 6.23838C11.9314 6.25266 11.9715 6.26046 12.012 6.26145L13.841 6.26145L13.841 8.23872Z" id="Shape" fill="#EB8242" fill-rule="evenodd" stroke="#EB8242" stroke-width="0.25" />
    <path d="M7.2498 3.95459C5.42977 3.95459 3.95435 5.43001 3.95435 7.25004C3.95434 9.07007 5.42976 10.5455 7.24979 10.5455C9.06982 10.5455 10.5452 9.07009 10.5453 7.25006C10.5453 5.43001 9.06982 3.95458 7.24978 3.95459L7.2498 3.95459ZM7.24989 9.8865C5.79387 9.8865 4.61353 8.70616 4.61353 7.25014C4.61352 5.79412 5.79386 4.61377 7.24988 4.61377C8.7059 4.61376 9.88624 5.7941 9.88625 7.25012C9.88625 8.70616 8.7059 9.8865 7.24988 9.8865L7.24989 9.8865Z" id="Shape" fill="#EB8242" fill-rule="evenodd" stroke="#EB8242" stroke-width="0.25" />
  </g>
</svg>