<?xml version="1.0" encoding="utf-8"?>
<svg width="14px" height="14px" viewBox="0 0 14 14" version="1.1" xmlns:xlink="http://www.w3.org/1999/xlink" xmlns="http://www.w3.org/2000/svg">
  <g id="Settings" transform="translate(0.125 0.125)">
    <path d="M13.1932 5.21591L11.4136 5.21591C11.3362 4.98429 11.2419 4.75868 11.1314 4.54091L12.3924 3.27989C12.4505 3.22228 12.4831 3.14385 12.4831 3.06205C12.4831 2.98024 12.4505 2.90181 12.3924 2.8442L10.6558 1.10761C10.5982 1.04953 10.5198 1.01686 10.438 1.01686C10.3561 1.01686 10.2777 1.04953 10.2201 1.10761L8.95909 2.36864C8.74132 2.25812 8.51571 2.16378 8.28409 2.08636L8.28409 0.306818C8.28409 0.137367 8.14672 0 7.97727 0L5.52273 0C5.35328 0 5.21591 0.137367 5.21591 0.306818L5.21591 2.08636C4.98429 2.16378 4.75868 2.25812 4.54091 2.36864L3.27989 1.10761C3.22228 1.04953 3.14385 1.01686 3.06205 1.01686C2.98024 1.01686 2.90181 1.04953 2.8442 1.10761L1.10761 2.8442C1.04953 2.90182 1.01686 2.98024 1.01686 3.06205C1.01686 3.14386 1.04953 3.22228 1.10761 3.27989L2.36864 4.54091C2.25812 4.75868 2.16378 4.98429 2.08636 5.21591L0.306818 5.21591C0.137367 5.21591 0 5.35328 0 5.52273L0 7.97727C0 8.14672 0.137367 8.28409 0.306818 8.28409L2.08636 8.28409C2.16378 8.51571 2.25812 8.74131 2.36863 8.95909L1.10761 10.2201C1.04953 10.2777 1.01686 10.3561 1.01686 10.438C1.01686 10.5198 1.04953 10.5982 1.10761 10.6558L2.8442 12.3924C2.90182 12.4505 2.98024 12.4831 3.06205 12.4831C3.14386 12.4831 3.22228 12.4505 3.27989 12.3924L4.54091 11.1314C4.75868 11.2419 4.98429 11.3362 5.21591 11.4136L5.21591 13.1932C5.21591 13.3626 5.35328 13.5 5.52273 13.5L7.97727 13.5C8.14672 13.5 8.28409 13.3626 8.28409 13.1932L8.28409 11.4136C8.51571 11.3362 8.74132 11.2419 8.95909 11.1314L10.2201 12.3924C10.2777 12.4505 10.3561 12.4831 10.438 12.4831C10.5198 12.4831 10.5982 12.4505 10.6558 12.3924L12.3924 10.6558C12.4505 10.5982 12.4831 10.5198 12.4831 10.438C12.4831 10.3561 12.4505 10.2777 12.3924 10.2201L11.1314 8.95909C11.2419 8.74132 11.3362 8.51571 11.4136 8.28409L13.1932 8.28409C13.3626 8.28409 13.5 8.14672 13.5 7.97727L13.5 5.52273C13.5 5.35328 13.3626 5.21591 13.1932 5.21591L13.1932 5.21591ZM12.8865 7.67047L11.1683 7.67047L11.1039 7.67047L11.0517 7.68888C11.0342 7.69834 11.0177 7.70966 11.0026 7.72263C10.987 7.73322 10.9725 7.74558 10.9597 7.75944L10.929 7.80547C10.9167 7.8233 10.9074 7.84298 10.9014 7.86376C10.9014 7.86376 10.9014 7.86376 10.9014 7.8791C10.8073 8.21889 10.6713 8.54561 10.4964 8.85172C10.4964 8.85172 10.4964 8.85172 10.4964 8.87012C10.4875 8.88858 10.4813 8.90821 10.478 8.92842C10.4751 8.94672 10.4751 8.96535 10.478 8.98365C10.4763 9.00304 10.4763 9.02255 10.478 9.04194C10.4748 9.06124 10.4748 9.08094 10.478 9.10024C10.4843 9.11747 10.4925 9.13394 10.5025 9.14933C10.5129 9.16795 10.5253 9.18543 10.5393 9.20149L10.5393 9.2199L11.7421 10.4318L10.432 11.7419L9.23536 10.5361L9.21695 10.5361C9.20089 10.5221 9.18341 10.5098 9.16479 10.4993L9.1157 10.4748L9.05741 10.4748L9.00218 10.4748C8.98288 10.4716 8.96318 10.4716 8.94388 10.4748C8.92367 10.4781 8.90404 10.4843 8.88559 10.4932L8.86718 10.4932C8.56107 10.6681 8.23434 10.8042 7.89456 10.8982C7.89456 10.8982 7.89456 10.8982 7.87922 10.8982C7.85844 10.9042 7.83876 10.9135 7.82093 10.9258L7.77491 10.9565C7.76104 10.9694 7.74868 10.9838 7.73809 10.9994C7.72512 11.0146 7.7138 11.031 7.70434 11.0485C7.69685 11.0654 7.69069 11.0829 7.68593 11.1007C7.68447 11.1221 7.68447 11.1437 7.68593 11.1651C7.68593 11.1651 7.68593 11.1651 7.68593 11.1835L7.68593 12.8864L5.82968 12.8864L5.82968 11.1866C5.82968 11.1866 5.82968 11.1866 5.82968 11.1682C5.83114 11.1467 5.83114 11.1252 5.82968 11.1038C5.82492 11.0859 5.81876 11.0685 5.81127 11.0516C5.8018 11.0341 5.79049 11.0176 5.77752 11.0025C5.76692 10.9868 5.75457 10.9724 5.7407 10.9596L5.69468 10.9289C5.67685 10.9166 5.65717 10.9073 5.63638 10.9013C5.63638 10.9013 5.63638 10.9013 5.62104 10.9013C5.28126 10.8072 4.95453 10.6712 4.64843 10.4963L4.63002 10.4963C4.61156 10.4874 4.59193 10.4812 4.57172 10.4779C4.55242 10.4746 4.53273 10.4746 4.51343 10.4779L4.4582 10.4779L4.39991 10.4779L4.35081 10.5024C4.3322 10.5128 4.31471 10.5252 4.29866 10.5392L4.28025 10.5392L3.06832 11.7419L1.7582 10.4318L2.964 9.2291L2.964 9.21069C2.97805 9.19463 2.99039 9.17715 3.00082 9.15854C3.01081 9.14314 3.01904 9.12667 3.02536 9.10944C3.02857 9.09014 3.02857 9.07045 3.02536 9.05115C3.02703 9.03175 3.02703 9.01225 3.02536 8.99285C3.02823 8.97456 3.02823 8.95592 3.02536 8.93762C3.02204 8.91742 3.01584 8.89778 3.00695 8.87933C3.00695 8.87933 3.00695 8.87933 3.00695 8.86092C2.83204 8.55481 2.69599 8.22809 2.60195 7.8883C2.60195 7.88831 2.60195 7.88831 2.60195 7.87297C2.59592 7.85218 2.5866 7.8325 2.57434 7.81467L2.54366 7.76865C2.53079 7.75478 2.51637 7.74243 2.5007 7.73183C2.48507 7.71955 2.46867 7.70828 2.45161 7.69808L2.39945 7.67967L2.33195 7.67047L0.61377 7.67047L0.61377 5.82956L2.31354 5.82956C2.3513 5.82863 2.38864 5.82137 2.424 5.80808L2.45468 5.78967C2.47689 5.77929 2.49754 5.76587 2.51604 5.74978L2.54366 5.72217C2.55875 5.70467 2.57116 5.68502 2.58047 5.66388C2.58964 5.6522 2.59594 5.63854 2.59888 5.62399C2.59888 5.62399 2.59888 5.62399 2.59888 5.60558C2.69292 5.2658 2.82898 4.93907 3.00389 4.63296C3.00388 4.63297 3.00388 4.63297 3.00388 4.61456C3.01277 4.5961 3.01897 4.57647 3.02229 4.55626C3.02517 4.53796 3.02517 4.51933 3.02229 4.50103C3.02396 4.48164 3.02396 4.46214 3.02229 4.44274C3.0255 4.42344 3.0255 4.40374 3.02229 4.38444C3.01597 4.36721 3.00774 4.35075 2.99775 4.33535C2.98732 4.31673 2.97498 4.29925 2.96093 4.28319L2.96093 4.26478L1.7582 3.06819L3.06832 1.75808L4.27104 2.96387L4.27104 2.96387C4.29858 2.98788 4.32962 3.00753 4.36309 3.02217L4.38763 3.02217C4.42029 3.03326 4.45441 3.03947 4.48888 3.04058L4.48888 3.04058C4.52329 3.03891 4.55734 3.03272 4.59013 3.02217L4.61468 3.02217L4.63922 3.02217C4.94533 2.84726 5.27206 2.71121 5.61184 2.61717C5.61184 2.61717 5.61184 2.61717 5.62718 2.61717C5.64796 2.61114 5.66764 2.60182 5.68547 2.58956L5.7315 2.55887C5.74536 2.546 5.75772 2.53159 5.76831 2.51592C5.78128 2.50081 5.7926 2.48435 5.80207 2.46683C5.81378 2.44437 5.82303 2.42071 5.82968 2.39626C5.83114 2.37481 5.83114 2.35328 5.82968 2.33183C5.82968 2.33183 5.82968 2.33183 5.82968 2.31342L5.82968 0.613647L7.67059 0.613647L7.67059 2.31342C7.67059 2.31342 7.67059 2.31342 7.67059 2.33183C7.66913 2.35328 7.66913 2.37481 7.67059 2.39626C7.67535 2.4141 7.68151 2.43154 7.689 2.44842C7.69846 2.46594 7.70978 2.4824 7.72275 2.49751C7.73335 2.51318 7.7457 2.5276 7.75957 2.54047L7.80559 2.57115C7.82342 2.58341 7.8431 2.59273 7.86388 2.59876C7.86388 2.59876 7.86388 2.59876 7.87922 2.59876C8.21901 2.6928 8.54573 2.82885 8.85184 3.00376L8.87638 3.00376L8.90093 3.00376C8.93373 3.01431 8.96777 3.0205 9.00218 3.02217L9.00218 3.02217C9.03665 3.02106 9.07077 3.01486 9.10343 3.00376L9.12797 3.00376C9.16144 2.98913 9.19248 2.96947 9.22002 2.94547L9.22002 2.94547L10.432 1.75808L11.7421 3.06819L10.5363 4.26478L10.5363 4.28319C10.5222 4.29925 10.5099 4.31673 10.4995 4.33535C10.4895 4.35075 10.4812 4.36721 10.4749 4.38444C10.4717 4.40374 10.4717 4.42344 10.4749 4.44274C10.4732 4.46213 10.4732 4.48164 10.4749 4.50103C10.472 4.51933 10.472 4.53796 10.4749 4.55626C10.4782 4.57647 10.4844 4.5961 10.4933 4.61456C10.4933 4.61456 10.4933 4.61456 10.4933 4.63297C10.6682 4.93907 10.8043 5.2658 10.8983 5.60558C10.8983 5.60558 10.8983 5.60558 10.8983 5.62399C10.9013 5.63854 10.9076 5.6522 10.9167 5.66387C10.926 5.68502 10.9384 5.70467 10.9535 5.72217L10.9812 5.74978C10.9997 5.76587 11.0203 5.77929 11.0425 5.78967L11.0732 5.80808C11.1086 5.82137 11.1459 5.82863 11.1837 5.82956L12.8865 5.82956L12.8865 7.67047Z" id="Shape" fill="#87909E" fill-rule="evenodd" stroke="#87909E" stroke-width="0.25" />
    <path d="M6.74982 3.68182C5.05531 3.68182 3.68164 5.05549 3.68164 6.75C3.68164 8.44451 5.0553 9.81818 6.74981 9.81819C8.44432 9.81819 9.818 8.44453 9.818 6.75002C9.818 5.05549 8.44432 3.68182 6.74981 3.68182L6.74982 3.68182ZM6.74996 9.20456C5.39435 9.20456 4.29541 8.10563 4.29541 6.75002C4.29541 5.39441 5.39434 4.29548 6.74995 4.29547C8.10555 4.29547 9.20449 5.3944 9.2045 6.75C9.2045 8.10563 8.10556 9.20457 6.74994 9.20456L6.74996 9.20456Z" id="Shape" fill="#87909E" fill-rule="evenodd" stroke="#87909E" stroke-width="0.25" />
  </g>
</svg>