<?xml version="1.0" encoding="utf-8"?>
<svg width="16px" height="16px" viewBox="0 0 16 16" version="1.1" xmlns:xlink="http://www.w3.org/1999/xlink" xmlns="http://www.w3.org/2000/svg">
  <g id="noun_Share_3568868">
    <g id="Group">
      <path d="M13 10C11.8694 10 10.8837 10.629 10.3724 11.555L5.85449 8.91956C5.94815 8.62949 6 8.32083 6 8C6 7.67911 5.94812 7.37045 5.85443 7.08035L10.3723 4.44482C10.8836 5.37091 11.8694 6 13 6C14.6543 6 16 4.6543 16 3C16 1.3457 14.6543 0 13 0C11.3457 0 10 1.3457 10 3C10 3.16367 10.0167 3.32315 10.0421 3.47977L5.38968 6.19376C4.84146 5.47028 3.97574 5 3 5C1.3457 5 0 6.3457 0 8C0 9.6543 1.3457 11 3 11C3.97577 11 4.84152 10.5297 5.38974 9.80615L10.0421 12.52C10.0167 12.6767 10 12.8362 10 13C10 14.6543 11.3457 16 13 16C14.6543 16 16 14.6543 16 13C16 11.3457 14.6543 10 13 10L13 10ZM13 1C14.103 1 15 1.89722 15 3C15 4.10278 14.103 5 13 5C11.897 5 11 4.10278 11 3C11 1.89722 11.897 1 13 1L13 1ZM3 10C1.89697 10 1 9.10278 1 8C1 6.89722 1.89697 6 3 6C4.10303 6 5 6.89722 5 8C5 9.10278 4.10303 10 3 10L3 10ZM13 15C11.897 15 11 14.1028 11 13C11 11.8972 11.897 11 13 11C14.103 11 15 11.8972 15 13C15 14.1028 14.103 15 13 15L13 15Z" id="Shape" fill="#EB8242" fill-rule="evenodd" stroke="none" />
    </g>
  </g>
</svg>