<?xml version="1.0" encoding="utf-8"?>
<svg width="36px" height="36px" viewbox="0 0 36 36" version="1.1" xmlns:xlink="http://www.w3.org/1999/xlink" xmlns="http://www.w3.org/2000/svg">
  <g id="Share">
    <path d="M17.999 0L18.001 0Q18.4428 0 18.8842 0.0216806Q19.3255 0.0433612 19.7652 0.0866701Q20.2049 0.129979 20.642 0.194812Q21.0791 0.259645 21.5124 0.345846Q21.9458 0.432047 22.3744 0.539407Q22.803 0.646768 23.2258 0.775031Q23.6487 0.903293 24.0647 1.05215Q24.4807 1.201 24.8889 1.37009Q25.2971 1.53918 25.6966 1.7281Q26.096 1.91701 26.4857 2.1253Q26.8753 2.33359 27.2543 2.56074Q27.6333 2.7879 28.0007 3.03338Q28.3681 3.27886 28.723 3.54207Q29.0779 3.80528 29.4194 4.08558Q29.761 4.36589 30.0884 4.66262Q30.4158 4.95935 30.7282 5.27178Q31.0406 5.58422 31.3374 5.91161Q31.6341 6.239 31.9144 6.58055Q32.1947 6.92211 32.4579 7.27701Q32.7211 7.63191 32.9666 7.99929Q33.2121 8.36668 33.4393 8.74566Q33.6664 9.12465 33.8747 9.51433Q34.083 9.90401 34.2719 10.3034Q34.4608 10.7029 34.6299 11.1111Q34.799 11.5193 34.9478 11.9353Q35.0967 12.3513 35.225 12.7742Q35.3532 13.197 35.4606 13.6256Q35.5679 14.0542 35.6541 14.4876Q35.7403 14.9209 35.8052 15.358Q35.87 15.7951 35.9133 16.2348Q35.9566 16.6745 35.9783 17.1158Q36 17.5571 36 17.999L36 18.001Q36 18.4428 35.9783 18.8842Q35.9566 19.3255 35.9133 19.7652Q35.87 20.2049 35.8052 20.642Q35.7403 21.0791 35.6541 21.5124Q35.5679 21.9458 35.4606 22.3744Q35.3532 22.803 35.225 23.2258Q35.0967 23.6487 34.9478 24.0647Q34.799 24.4807 34.6299 24.8889Q34.4608 25.2971 34.2719 25.6966Q34.083 26.096 33.8747 26.4857Q33.6664 26.8753 33.4393 27.2543Q33.2121 27.6333 32.9666 28.0007Q32.7211 28.3681 32.4579 28.723Q32.1947 29.0779 31.9144 29.4194Q31.6341 29.761 31.3374 30.0884Q31.0406 30.4158 30.7282 30.7282Q30.4158 31.0406 30.0884 31.3374Q29.761 31.6341 29.4194 31.9144Q29.0779 32.1947 28.723 32.4579Q28.3681 32.7211 28.0007 32.9666Q27.6333 33.2121 27.2543 33.4393Q26.8753 33.6664 26.4857 33.8747Q26.096 34.083 25.6966 34.2719Q25.2971 34.4608 24.8889 34.6299Q24.4807 34.799 24.0647 34.9478Q23.6487 35.0967 23.2258 35.225Q22.803 35.3532 22.3744 35.4606Q21.9458 35.5679 21.5124 35.6541Q21.0791 35.7403 20.642 35.8052Q20.2049 35.87 19.7652 35.9133Q19.3255 35.9566 18.8842 35.9783Q18.4428 36 18.001 36L17.999 36Q17.5571 36 17.1158 35.9783Q16.6745 35.9566 16.2348 35.9133Q15.7951 35.87 15.358 35.8052Q14.9209 35.7403 14.4876 35.6541Q14.0542 35.5679 13.6256 35.4606Q13.197 35.3532 12.7742 35.225Q12.3513 35.0967 11.9353 34.9478Q11.5193 34.799 11.1111 34.6299Q10.7029 34.4608 10.3034 34.2719Q9.90401 34.083 9.51433 33.8747Q9.12465 33.6664 8.74567 33.4393Q8.36668 33.2121 7.99929 32.9666Q7.63191 32.7211 7.27701 32.4579Q6.92211 32.1947 6.58056 31.9144Q6.239 31.6341 5.91161 31.3374Q5.58422 31.0406 5.27178 30.7282Q4.95935 30.4158 4.66262 30.0884Q4.36589 29.761 4.08558 29.4194Q3.80528 29.0779 3.54207 28.723Q3.27886 28.3681 3.03338 28.0007Q2.7879 27.6333 2.56074 27.2543Q2.33359 26.8753 2.1253 26.4857Q1.91701 26.096 1.7281 25.6966Q1.53918 25.2971 1.37009 24.8889Q1.201 24.4807 1.05215 24.0647Q0.903293 23.6487 0.775031 23.2258Q0.646768 22.803 0.539407 22.3744Q0.432047 21.9458 0.345846 21.5124Q0.259645 21.0791 0.194812 20.642Q0.129979 20.2049 0.0866701 19.7652Q0.0433612 19.3255 0.0216806 18.8842Q0 18.4428 0 18.001L0 17.999Q0 17.5571 0.0216806 17.1158Q0.0433612 16.6745 0.0866701 16.2348Q0.129979 15.7951 0.194812 15.358Q0.259645 14.9209 0.345846 14.4876Q0.432047 14.0542 0.539407 13.6256Q0.646768 13.197 0.775031 12.7742Q0.903293 12.3513 1.05215 11.9353Q1.201 11.5193 1.37009 11.1111Q1.53918 10.7029 1.7281 10.3034Q1.91701 9.90401 2.1253 9.51433Q2.33359 9.12465 2.56074 8.74567Q2.7879 8.36668 3.03338 7.99929Q3.27886 7.63191 3.54207 7.27701Q3.80528 6.92211 4.08558 6.58056Q4.36589 6.239 4.66262 5.91161Q4.95935 5.58422 5.27178 5.27178Q5.58422 4.95935 5.91161 4.66262Q6.239 4.36589 6.58055 4.08558Q6.92211 3.80528 7.27701 3.54207Q7.63191 3.27886 7.99929 3.03338Q8.36668 2.7879 8.74566 2.56074Q9.12465 2.33359 9.51433 2.1253Q9.90401 1.91701 10.3034 1.7281Q10.7029 1.53918 11.1111 1.37009Q11.5193 1.201 11.9353 1.05215Q12.3513 0.903293 12.7742 0.775031Q13.197 0.646768 13.6256 0.539407Q14.0542 0.432047 14.4876 0.345846Q14.9209 0.259645 15.358 0.194812Q15.7951 0.129979 16.2348 0.0866701Q16.6745 0.0433612 17.1158 0.0216806Q17.5571 0 17.999 0Z" id="Rectangle" fill="#818F9C" fill-rule="evenodd" stroke="none" />
    <g id="noun_Share_3568868" transform="translate(10 10)">
      <g id="Group">
        <path d="M13 10C11.8694 10 10.8837 10.629 10.3724 11.555L5.85449 8.91956C5.94815 8.62949 6 8.32083 6 8C6 7.67911 5.94812 7.37045 5.85443 7.08035L10.3723 4.44482C10.8836 5.37091 11.8694 6 13 6C14.6543 6 16 4.6543 16 3C16 1.3457 14.6543 0 13 0C11.3457 0 10 1.3457 10 3C10 3.16367 10.0167 3.32315 10.0421 3.47977L5.38968 6.19376C4.84146 5.47028 3.97574 5 3 5C1.3457 5 0 6.3457 0 8C0 9.6543 1.3457 11 3 11C3.97577 11 4.84152 10.5297 5.38974 9.80615L10.0421 12.52C10.0167 12.6767 10 12.8362 10 13C10 14.6543 11.3457 16 13 16C14.6543 16 16 14.6543 16 13C16 11.3457 14.6543 10 13 10L13 10ZM13 1C14.103 1 15 1.89722 15 3C15 4.10278 14.103 5 13 5C11.897 5 11 4.10278 11 3C11 1.89722 11.897 1 13 1L13 1ZM3 10C1.89697 10 1 9.10278 1 8C1 6.89722 1.89697 6 3 6C4.10303 6 5 6.89722 5 8C5 9.10278 4.10303 10 3 10L3 10ZM13 15C11.897 15 11 14.1028 11 13C11 11.8972 11.897 11 13 11C14.103 11 15 11.8972 15 13C15 14.1028 14.103 15 13 15L13 15Z" id="Shape" fill="#FFFFFF" fill-rule="evenodd" stroke="none" />
      </g>
    </g>
  </g>
</svg>