<?xml version="1.0" encoding="utf-8"?>
<svg width="82px" height="80px" viewBox="0 0 82 80" version="1.1" xmlns:xlink="http://www.w3.org/1999/xlink" xmlns="http://www.w3.org/2000/svg">
  <g id="Group">
    <path d="M74.0262 23.3404C73.589 23.253 73.0644 23.4278 72.7146 23.7776C70.0915 27.0128 63.4462 36.5435 60.998 40.9154C60.1236 40.5656 59.2492 40.2159 58.5497 39.8661C61.2603 28.6741 65.1076 15.2961 68.0804 10.5745C68.3428 10.1373 68.3428 9.52526 68.0804 9.08807C66.3317 6.63982 63.2714 3.49206 57.6754 4.45388C57.2382 4.54131 56.8884 4.80363 56.7136 5.24081C51.6422 16.4328 48.407 26.4882 46.6582 36.1063L44.9969 35.7566C44.7346 26.051 44.6472 8.12626 46.1336 3.5795C46.3085 2.96744 46.0462 2.35537 45.5215 2.00562C41.3245 -0.442632 37.3898 -0.617507 33.5426 1.30612C33.1054 1.481 32.8431 1.91818 32.8431 2.35537C32.231 8.47601 31.7064 22.2912 32.9305 34.1827C31.6189 34.0952 30.4823 34.0952 29.6953 34.0952C26.635 24.7394 22.2631 11.3615 22.0008 10.3122C21.9134 9.78757 21.5636 9.43782 21.039 9.26295C17.3666 8.30113 13.5194 9.43782 10.6339 12.4981C10.2842 12.8479 10.1967 13.3725 10.3716 13.8097C10.6339 14.5966 10.9837 15.6459 11.3334 16.7826C13.7817 24.652 18.6782 39.9536 22.6129 49.5717C12.645 43.8008 12.0329 43.6259 9.93441 43.1888C9.75953 43.1888 9.49722 43.1013 9.32234 43.0139C4.51327 41.9646 1.36552 44.238 0.0539529 50.0089C-0.120922 50.5335 0.14139 51.1456 0.666016 51.4079C13.6942 59.2773 18.7656 64.6984 23.2249 69.9447C27.9466 75.5407 32.1436 79.7377 39.9255 80C40.1878 80 40.5376 80 40.8873 80C46.4833 80 57.9377 78.4261 61.9598 66.2723C65.4573 55.7798 77.174 36.1937 80.9338 32.0842C81.1961 31.8219 81.2835 31.4721 81.2835 31.2098C81.2835 29.0239 79.7096 24.4771 74.0262 23.3404L74.0262 23.3404ZM59.5116 65.4854C55.7517 76.6774 44.6472 77.5518 40.1004 77.4643C33.8923 77.2894 30.3948 74.3166 25.236 68.2834C20.6892 62.9497 15.5304 57.5285 2.76453 49.9214C4.07609 45.4621 6.34947 45.2873 8.71029 45.8119C8.9726 45.8993 9.14747 45.8993 9.40979 45.9868C11.4209 46.4239 11.858 46.5114 24.7988 54.031C25.3234 54.2933 25.9355 54.2933 26.3727 53.8561C26.8099 53.5064 26.8973 52.8943 26.635 52.3697C22.5254 43.5385 16.6671 25.0017 13.8691 16.0831C13.6068 15.2961 13.3445 14.5092 13.1696 13.8097C14.4812 12.5856 16.7546 11.1866 19.7274 11.6238C20.9516 15.7333 26.3727 32.1716 27.5094 35.7566C27.6843 36.2812 28.2089 36.6309 28.8209 36.6309C28.8209 36.6309 31.5315 36.5435 34.3295 36.8058C34.7667 36.8058 35.1165 36.7184 35.3788 36.3686C35.6411 36.1063 35.816 35.6691 35.7285 35.3194C34.3295 23.865 34.7667 10.0499 35.3788 3.40463C37.1275 2.61769 39.7506 2.09306 43.3356 3.92925C41.6743 11.6238 42.3738 35.7566 42.3738 36.8058C42.3738 37.4179 42.811 37.9425 43.423 38.0299L47.4452 38.9043C47.7949 38.9917 48.1447 38.9043 48.4944 38.7294C48.8442 38.5546 49.019 38.2048 49.019 37.8551C50.5929 28.2369 53.7407 18.1816 58.7246 6.98957C61.4352 6.72726 63.4462 7.60163 65.3699 9.96245C61.2603 17.3072 56.6261 36.5435 55.7517 40.3908C55.5769 41.0028 55.9266 41.6149 56.5387 41.8772C56.5387 41.8772 59.3367 43.0139 61.0854 43.8008C61.6975 44.0631 62.4844 43.8008 62.7467 43.1888C64.2332 40.2159 70.9659 30.248 74.2885 26.051C77.6986 27.1002 78.4855 29.7234 78.6604 30.7726C74.3759 35.844 63.0965 54.6431 59.5116 65.4854L59.5116 65.4854Z" id="Shape" fill="#505D69" fill-rule="evenodd" stroke="none" />
    <path d="M50.5054 44.6752C48.4943 44.6752 46.6581 45.2873 44.9968 46.424C43.4229 45.2873 41.4993 44.6752 39.4882 44.6752C34.242 44.6752 29.9575 48.9596 29.9575 54.2059C29.9575 59.1024 41.7616 69.7698 44.1224 71.8683C44.3847 72.1306 44.647 72.218 44.9968 72.218C45.3465 72.218 45.6089 72.1306 45.8712 71.8683C48.232 69.7698 60.0361 59.1024 60.0361 54.2059C60.0361 48.9596 55.7516 44.6752 50.5054 44.6752L50.5054 44.6752ZM44.9967 69.1577C39.5756 64.2612 32.5806 56.829 32.5806 54.2059C32.5806 50.3587 35.7283 47.2983 39.4881 47.2983C41.1495 47.2983 42.8108 47.9104 44.1223 49.1345C44.647 49.5717 45.3465 49.5717 45.8711 49.1345C47.1827 47.9978 48.844 47.2983 50.5053 47.2983C54.3525 47.2983 57.4129 50.4461 57.4129 54.2059C57.4129 56.829 50.4178 64.2612 44.9967 69.1577L44.9967 69.1577Z" id="Shape" fill="#505D69" fill-rule="evenodd" stroke="none" />
  </g>
</svg>