<?xml version="1.0" encoding="utf-8"?>
<svg width="92px" height="81px" viewBox="0 0 92 81" version="1.1" xmlns:xlink="http://www.w3.org/1999/xlink" xmlns="http://www.w3.org/2000/svg">
  <g id="Group-2" transform="translate(0.5 0.5)">
    <path d="M65.0851 0C80.3942 0 89.6537 16.8892 86.6499 33.3572C86.3135 35.2015 85.8047 37.0579 85.124 38.9263L77.8839 31.643C77.189 30.9435 76.0623 30.9435 75.3673 31.643C74.7496 32.2649 74.681 33.2301 75.1614 33.9283L83.6265 42.4852C83.1026 43.5842 82.5204 44.6871 81.8798 45.794L65.7327 29.5444C65.0378 28.8448 63.9111 28.8448 63.2161 29.5444C62.5984 30.1662 62.5298 31.1314 63.0102 31.8296L79.9325 48.906C79.2746 49.8844 78.5718 50.8658 77.8243 51.8502L64.2586 38.1937C63.5636 37.4941 62.4369 37.4941 61.742 38.1937C61.1242 38.8155 61.0556 39.7808 61.5361 40.4789L75.5803 54.6547C74.8294 55.5481 74.042 56.4438 73.2184 57.342L62.7844 46.843C62.0894 46.1435 60.9627 46.1435 60.2678 46.843C59.6501 47.4649 59.5814 48.4301 60.0619 49.1283L70.7508 59.9302C65.1796 65.5604 58.1971 71.283 49.817 77.0925L45.5106 80L43.1498 78.4259C34.184 72.3518 26.7375 66.3707 20.8269 60.4891L32.0758 49.1283C32.5563 48.4301 32.4876 47.4649 31.8699 46.843C31.2522 46.2212 30.2933 46.1521 29.5998 46.6358L18.3442 57.9279C17.5119 57.0364 16.7153 56.1471 15.9544 55.2602L30.6016 40.4789C31.0821 39.7808 31.0134 38.8155 30.3957 38.1937C29.778 37.5719 28.8191 37.5028 28.1256 37.9864L13.6804 52.4799C12.9244 51.5079 12.212 50.5388 11.5432 49.5726L29.1274 31.8296C29.6079 31.1314 29.5393 30.1662 28.9215 29.5444C28.3038 28.9225 27.3449 28.8534 26.6514 29.3371L9.5577 46.5007C8.90347 45.4105 8.30555 44.3241 7.76407 43.2416L16.9763 33.9283C17.4567 33.2301 17.3881 32.2649 16.7704 31.643C16.1526 31.0212 15.1938 30.9521 14.5002 31.4358L6.20582 39.7441C5.36854 37.5994 4.75673 35.4704 4.37129 33.3572C1.34292 16.7546 10.4317 0 25.9361 0C33.5994 0 40.1096 4.02651 45.2067 11.5213L45.5106 11.9841L45.8371 11.4929C50.5029 4.63855 56.3613 0.69328 63.1968 0.0833347L65.0851 0L65.0851 0ZM65.085 4.29921C59.2384 4.29921 54.1836 7.25348 49.9727 13.0505L48.8024 14.7676L45.5139 19.9004L42.2233 14.769C37.7732 7.82948 32.3237 4.29921 25.936 4.29921C13.6384 4.29921 6.05416 18.1529 8.52887 32.3405L12.1425 28.7408C14.2393 27.0192 17.3323 27.1422 19.2868 29.1097C19.5814 29.4062 19.8344 29.7288 20.0457 30.07L20.3315 30.5949L24.2937 26.6421C26.3905 24.9205 29.4835 25.0435 31.438 27.011C33.5228 29.1097 33.5228 32.5123 31.4368 34.6088C31.9703 34.8651 32.4703 35.2156 32.9122 35.6604C34.997 37.7591 34.997 41.1617 32.9074 43.2564C33.4423 43.5129 33.9436 43.8639 34.3864 44.3097C36.3409 46.2772 36.463 49.3908 34.7529 51.5016L26.4263 59.9293C31.3086 64.4655 37.1684 69.0993 44.0049 73.8153L45.5069 74.8421L46.9906 73.8312C54.1123 68.919 60.1738 64.0976 65.1751 59.3837L57.7511 51.9097C55.6663 49.811 55.6663 46.4084 57.7511 44.3097C58.1939 43.8639 58.6952 43.5129 59.2301 43.2564C57.1405 41.1617 57.1405 37.7591 59.2253 35.6604C59.6671 35.2156 60.1671 34.8651 60.7007 34.6088C58.6146 32.5123 58.6146 29.1097 60.6995 27.011C62.654 25.0435 65.7469 24.9205 67.8438 26.6421L71.806 30.5949C72.0606 30.0578 72.4088 29.5545 72.8506 29.1097C74.8051 27.1422 77.8981 27.0192 79.9949 28.7408L82.6452 31.3684C84.5794 17.6513 76.9205 4.29921 65.085 4.29921L65.085 4.29921ZM88.2657 38.1692C89.9397 40.8262 90.909 43.9774 90.909 47.3566C90.909 56.8432 83.2694 64.5337 73.8455 64.5337C73.239 64.5337 72.6399 64.5018 72.0498 64.4397L75.8518 60.5649C82.2296 59.5913 87.1171 54.0485 87.1171 47.3566C87.1171 45.9849 86.9118 44.6615 86.5303 43.4158L88.2657 38.1692L88.2657 38.1692ZM2.64331 38.1692L4.3787 43.4158C3.99725 44.6615 3.7919 45.9849 3.7919 47.3566C3.7919 53.8007 8.32415 59.1792 14.3549 60.4381L15.0572 60.5649L18.8592 64.4397C18.2691 64.5018 17.67 64.5337 17.0635 64.5337C7.6396 64.5337 0 56.8432 0 47.3566C0 44.3154 0.785142 41.4587 2.16251 38.9809L2.64331 38.1692L2.64331 38.1692Z" id="Shape" fill="#505D69" fill-rule="evenodd" stroke="#FFFFFF" stroke-width="1" />
  </g>
</svg>