<?xml version="1.0" encoding="utf-8"?>
<svg width="80px" height="80px" viewBox="0 0 80 80" version="1.1" xmlns:xlink="http://www.w3.org/1999/xlink" xmlns="http://www.w3.org/2000/svg">
  <g id="Group-2">
    <g id="Group" transform="translate(0 36.800995)">
      <g id="Group" transform="translate(43.003662 0)">
        <path d="M12.9345 43.199L1.97753 43.199L1.62819 42.5228C1.56581 42.398 -4.58267 30.0312 7.42981 21.5945C18.3044 13.9563 21.5184 9.62196 21.5508 9.57954L21.8079 9.2277L22.2296 9.10792C22.8584 8.93325 26.0774 8.14224 27.4997 9.88896C28.3506 10.9295 28.2757 12.4442 27.2776 14.3955C26.4142 16.0749 25.3886 17.5745 24.373 18.8571C26.1248 17.6369 27.7991 15.8902 28.5827 13.4448C29.3163 11.1566 29.5458 9.23019 29.7505 7.53088C30.1422 4.23206 30.4841 1.37991 34.8858 0.306925L36.1435 0L36.403 1.26762C36.5178 1.83406 39.1453 15.2165 30.6413 23.5084C27.9189 26.1609 25.0168 28.3094 22.4566 30.2034C17.3238 33.9987 13.2689 36.9956 12.9969 42.0187L12.9345 43.199L12.9345 43.199ZM3.5471 40.7037L10.6263 40.7037C11.4573 35.2314 15.8915 31.9526 20.9744 28.1946C23.592 26.2608 26.2994 24.2595 28.9021 21.7193C34.9108 15.8578 34.5589 6.68747 34.1622 3.18653C32.6899 3.93762 32.5377 5.22521 32.2258 7.82284C32.0212 9.54461 31.7642 11.6881 30.9607 14.2034C28.5153 21.8416 19.587 23.758 19.2102 23.8353L14.0125 24.9033L18.1921 21.6294C18.2346 21.5945 22.519 18.2034 25.0568 13.2527C25.7604 11.8827 25.5683 11.466 25.5658 11.4635C25.3886 11.2439 24.3356 11.194 23.2776 11.4161C22.2545 12.6688 18.4417 16.9058 8.86462 23.6332C0.00124717 29.8615 2.55146 38.2633 3.5471 40.7037L3.5471 40.7037Z" id="Shape" fill="#505D69" fill-rule="evenodd" stroke="none" />
      </g>
      <g id="Group" transform="translate(0 7.6293945E-06)">
        <path d="M34.8952 43.199L23.9382 43.199L23.8758 42.0187C23.6039 36.9931 19.549 33.9963 14.4161 30.2034C11.8559 28.3094 8.95382 26.1634 6.23143 23.5084C-2.27013 15.2165 0.357441 1.83157 0.469731 1.26762L0.729244 0L1.98689 0.306925C6.38863 1.37991 6.728 4.22957 7.12226 7.53088C7.32687 9.23019 7.55644 11.1566 8.29007 13.4448C9.0711 15.8877 10.7455 17.6369 12.4997 18.8571C11.4841 17.5746 10.4585 16.0749 9.59512 14.3955C8.59949 12.4467 8.52213 10.9295 9.37304 9.88896C10.7979 8.14224 14.0143 8.93076 14.6432 9.10793L15.0624 9.22521L15.3219 9.57955C15.3543 9.62446 18.5683 13.9588 29.4429 21.5945C41.4554 30.0312 35.3094 42.398 35.2445 42.5228L34.8952 43.199L34.8952 43.199ZM26.2465 40.7037L33.3232 40.7037C34.3114 38.2558 36.8316 29.8341 28.0082 23.6357C18.4286 16.9108 14.6183 12.6712 13.5952 11.4186C12.5372 11.194 11.4817 11.2464 11.307 11.466C11.3045 11.4685 11.1124 11.8852 11.816 13.2551C14.3638 18.2258 18.6358 21.5995 18.6807 21.6294L22.8828 24.9083L17.6626 23.8353C17.2858 23.7579 8.35752 21.839 5.91211 14.2034C5.10861 11.6881 4.8516 9.54709 4.64698 7.82282C4.33506 5.22519 4.18035 3.93511 2.71061 3.18652C2.31635 6.68496 1.96201 15.8578 7.97075 21.7193C10.5734 24.2595 13.2808 26.2583 15.8984 28.1946C20.9789 31.9526 25.4155 35.2314 26.2465 40.7037L26.2465 40.7037Z" id="Shape" fill="#505D69" fill-rule="evenodd" stroke="none" />
      </g>
    </g>
    <g id="Group" transform="translate(18.842773 0)">
      <g id="Group">
        <path d="M21.0955 2.49532C31.3513 2.49532 39.6956 10.8397 39.6956 21.0955C39.6956 31.3512 31.3513 39.6931 21.0955 39.6931C10.8397 39.6931 2.49536 31.3487 2.49536 21.093C2.49536 10.8372 10.8397 2.49532 21.0955 2.49532M21.0954 0C9.44479 0 0 9.44479 0 21.0954C0 32.7461 9.44479 42.1909 21.0954 42.1909C32.7461 42.1909 42.1909 32.7461 42.1909 21.0954C42.1909 9.44479 32.7461 0 21.0954 0L21.0954 0L21.0954 0Z" id="Shape" fill="#505D69" fill-rule="evenodd" stroke="none" />
      </g>
    </g>
    <g id="Group" transform="translate(34.33618 7.426079)">
      <g id="Group">
        <path d="M5.09295 27.3362L5.09295 23.9726C3.16157 23.9401 1.16531 23.3387 0 22.5078L0.798502 20.277C1.99875 21.0755 3.7305 21.7093 5.59201 21.7093C7.95758 21.7093 9.55458 20.3444 9.55458 18.4454C9.55458 16.6163 8.25452 15.4835 5.79164 14.4853C2.39551 13.1528 0.296942 11.6207 0.296942 8.72614C0.296942 5.96132 2.26326 3.86525 5.32501 3.36619L5.32501 0L7.38865 0L7.38865 3.22895C9.3849 3.29632 10.7523 3.82782 11.718 4.39426L10.8846 6.59264C10.1859 6.19089 8.82096 5.45976 6.68996 5.45976C4.12726 5.45976 3.16158 6.99189 3.16158 8.3219C3.16158 10.0536 4.39427 10.9195 7.28884 12.1173C10.7199 13.5172 12.4517 15.2464 12.4517 18.2109C12.4517 20.8409 10.6201 23.3038 7.18903 23.8702L7.18903 27.3337L5.09295 27.3337L5.09295 27.3362Z" id="Shape" fill="#505D69" fill-rule="evenodd" stroke="none" />
      </g>
    </g>
  </g>
</svg>