<?xml version="1.0" encoding="utf-8"?>
<svg width="28px" height="28px" viewbox="0 0 28 28" version="1.1" xmlns:xlink="http://www.w3.org/1999/xlink" xmlns="http://www.w3.org/2000/svg">
  <defs>
    <path d="M3.999 0L24.001 0Q24.1975 0 24.393 0.0192563Q24.5885 0.0385126 24.7812 0.0768396Q24.9738 0.115167 25.1618 0.172196Q25.3498 0.229224 25.5313 0.304406Q25.7129 0.379587 25.8861 0.472197Q26.0594 0.564807 26.2227 0.673953Q26.3861 0.783099 26.5379 0.907731Q26.6898 1.03236 26.8287 1.17128Q26.9676 1.3102 27.0923 1.46206Q27.2169 1.61393 27.326 1.77727Q27.4352 1.94062 27.5278 2.11388Q27.6204 2.28715 27.6956 2.46865Q27.7708 2.65015 27.8278 2.83815Q27.8848 3.02615 27.9232 3.21883Q27.9615 3.41152 27.9807 3.60703Q28 3.80254 28 3.999L28 24.001Q28 24.1975 27.9807 24.393Q27.9615 24.5885 27.9232 24.7812Q27.8848 24.9738 27.8278 25.1618Q27.7708 25.3498 27.6956 25.5313Q27.6204 25.7129 27.5278 25.8861Q27.4352 26.0594 27.326 26.2227Q27.2169 26.3861 27.0923 26.5379Q26.9676 26.6898 26.8287 26.8287Q26.6898 26.9676 26.5379 27.0923Q26.3861 27.2169 26.2227 27.326Q26.0594 27.4352 25.8861 27.5278Q25.7129 27.6204 25.5313 27.6956Q25.3498 27.7708 25.1618 27.8278Q24.9738 27.8848 24.7812 27.9232Q24.5885 27.9615 24.393 27.9807Q24.1975 28 24.001 28L3.999 28Q3.80254 28 3.60703 27.9807Q3.41152 27.9615 3.21883 27.9232Q3.02615 27.8848 2.83815 27.8278Q2.65015 27.7708 2.46865 27.6956Q2.28715 27.6204 2.11388 27.5278Q1.94062 27.4352 1.77727 27.326Q1.61393 27.2169 1.46206 27.0923Q1.3102 26.9676 1.17128 26.8287Q1.03236 26.6898 0.907731 26.5379Q0.783099 26.3861 0.673953 26.2227Q0.564807 26.0594 0.472197 25.8861Q0.379587 25.7129 0.304406 25.5313Q0.229224 25.3498 0.172196 25.1618Q0.115167 24.9738 0.0768396 24.7812Q0.0385126 24.5885 0.0192563 24.393Q0 24.1975 0 24.001L0 3.999Q0 3.80254 0.0192563 3.60703Q0.0385126 3.41152 0.0768396 3.21883Q0.115167 3.02615 0.172196 2.83815Q0.229224 2.65015 0.304406 2.46865Q0.379587 2.28715 0.472197 2.11388Q0.564807 1.94062 0.673953 1.77727Q0.783099 1.61393 0.907731 1.46206Q1.03236 1.3102 1.17128 1.17128Q1.3102 1.03236 1.46206 0.907731Q1.61393 0.783099 1.77727 0.673953Q1.94062 0.564807 2.11388 0.472197Q2.28715 0.379587 2.46865 0.304406Q2.65015 0.229224 2.83815 0.172196Q3.02615 0.115167 3.21883 0.0768396Q3.41152 0.0385126 3.60703 0.0192563Q3.80254 0 3.999 0Z" id="path_1" />
    <clipPath id="clip_1">
      <use xlink:href="#path_1" />
    </clipPath>
  </defs>
  <g id="Group">
    <g id="Rectangle-2">
      <use stroke="none" fill="#FFFFFF" xlink:href="#path_1" fill-rule="evenodd" />
      <g clip-path="url(#clip_1)">
        <use xlink:href="#path_1" fill="none" stroke="#CED4DA" stroke-width="2" />
      </g>
    </g>
    <g id="noun_sorting_357430" transform="translate(5.3632812 8.669922)">
      <path d="M0 0L10.6301 0L10.6301 0.885839L0 0.885839L0 0Z" id="Rectangle" fill="#505D69" fill-rule="evenodd" stroke="none" />
      <path d="M0 0L9.44895 0L9.44895 0.885839L0 0.885839L0 0Z" transform="translate(0 3.2480469)" id="Rectangle" fill="#505D69" fill-rule="evenodd" stroke="none" />
      <path d="M0 0L8.26784 0L8.26784 0.885839L0 0.885839L0 0Z" transform="translate(0 6.4960938)" id="Rectangle" fill="#505D69" fill-rule="evenodd" stroke="none" />
      <path d="M0 0L7.08672 0L7.08672 0.885839L0 0.885839L0 0Z" transform="translate(0 9.744141)" id="Rectangle" fill="#505D69" fill-rule="evenodd" stroke="none" />
      <path d="M0 0L0.885839 0L0.885839 10.0395L0 10.0395L0 0Z" transform="translate(13.287109 0)" id="Rectangle" fill="#505D69" fill-rule="evenodd" stroke="none" />
      <path d="M3.54336 2.92327L0.620087 0L0 0.620088L2.92327 3.54336L3.54336 4.16345L4.16345 3.54336L7.08672 0.620088L6.46663 0L3.54336 2.92327Z" transform="translate(10.1875 6.4960938)" id="Polygon" fill="#505D69" fill-rule="evenodd" stroke="none" />
    </g>
  </g>
</svg>