<?xml version="1.0" encoding="utf-8"?>
<svg width="74px" height="74px" viewbox="0 0 74 74" version="1.1" xmlns:xlink="http://www.w3.org/1999/xlink" xmlns="http://www.w3.org/2000/svg">
  <defs>
    <filter id="filter_1">
      <feColorMatrix in="SourceGraphic" type="matrix" values="0 0 0 0 1 0 0 0 0 1 0 0 0 0 1 0 0 0 1 0" />
    </filter>
  </defs>
  <path d="M5.999 0L68.001 0Q68.1483 0 68.2953 0.00722606Q68.4424 0.0144521 68.589 0.0288868Q68.7356 0.0433215 68.8812 0.0649301Q69.0269 0.0865387 69.1713 0.115269Q69.3158 0.143999 69.4586 0.179782Q69.6015 0.215565 69.7424 0.258315Q69.8833 0.301064 70.022 0.350677Q70.1606 0.40029 70.2967 0.456647Q70.4328 0.513003 70.5659 0.575968Q70.699 0.638933 70.8289 0.708354Q70.9588 0.777776 71.0851 0.853486Q71.2114 0.929196 71.3339 1.01101Q71.4563 1.09283 71.5746 1.18056Q71.6929 1.26828 71.8067 1.36171Q71.9206 1.45514 72.0297 1.55403Q72.1388 1.65293 72.2429 1.75707Q72.3471 1.8612 72.446 1.97032Q72.5449 2.07944 72.6383 2.19327Q72.7317 2.30711 72.8194 2.4254Q72.9072 2.54369 72.989 2.66613Q73.0708 2.78858 73.1465 2.9149Q73.2222 3.04121 73.2916 3.17109Q73.3611 3.30097 73.424 3.4341Q73.487 3.56722 73.5433 3.70328Q73.5997 3.83934 73.6493 3.978Q73.6989 4.11666 73.7417 4.25758Q73.7844 4.39851 73.8202 4.54136Q73.856 4.68422 73.8847 4.82865Q73.9135 4.97309 73.9351 5.11876Q73.9567 5.26444 73.9711 5.411Q73.9855 5.55755 73.9928 5.70464Q74 5.85173 74 5.999L74 68.001Q74 68.1483 73.9928 68.2953Q73.9855 68.4424 73.9711 68.589Q73.9567 68.7356 73.9351 68.8812Q73.9135 69.0269 73.8847 69.1713Q73.856 69.3158 73.8202 69.4586Q73.7844 69.6015 73.7417 69.7424Q73.6989 69.8833 73.6493 70.022Q73.5997 70.1606 73.5433 70.2967Q73.487 70.4328 73.424 70.5659Q73.3611 70.699 73.2916 70.8289Q73.2222 70.9588 73.1465 71.0851Q73.0708 71.2114 72.989 71.3339Q72.9072 71.4563 72.8194 71.5746Q72.7317 71.6929 72.6383 71.8067Q72.5449 71.9206 72.446 72.0297Q72.3471 72.1388 72.2429 72.2429Q72.1388 72.3471 72.0297 72.446Q71.9206 72.5449 71.8067 72.6383Q71.6929 72.7317 71.5746 72.8194Q71.4563 72.9072 71.3339 72.989Q71.2114 73.0708 71.0851 73.1465Q70.9588 73.2222 70.8289 73.2916Q70.699 73.3611 70.5659 73.424Q70.4328 73.487 70.2967 73.5433Q70.1607 73.5997 70.022 73.6493Q69.8833 73.6989 69.7424 73.7417Q69.6015 73.7844 69.4586 73.8202Q69.3158 73.856 69.1713 73.8847Q69.0269 73.9135 68.8812 73.9351Q68.7356 73.9567 68.589 73.9711Q68.4425 73.9855 68.2954 73.9928Q68.1483 74 68.001 74L5.999 74Q5.85173 74 5.70464 73.9928Q5.55755 73.9855 5.411 73.9711Q5.26444 73.9567 5.11876 73.9351Q4.97309 73.9135 4.82865 73.8847Q4.68422 73.856 4.54136 73.8202Q4.39851 73.7844 4.25758 73.7417Q4.11666 73.6989 3.978 73.6493Q3.83934 73.5997 3.70328 73.5433Q3.56722 73.487 3.4341 73.424Q3.30097 73.3611 3.17109 73.2916Q3.04121 73.2222 2.9149 73.1465Q2.78858 73.0708 2.66613 72.989Q2.54369 72.9072 2.4254 72.8194Q2.30711 72.7317 2.19327 72.6383Q2.07944 72.5449 1.97032 72.446Q1.8612 72.3471 1.75707 72.2429Q1.65293 72.1388 1.55403 72.0297Q1.45514 71.9206 1.36171 71.8067Q1.26829 71.6929 1.18056 71.5746Q1.09283 71.4563 1.01101 71.3339Q0.929196 71.2114 0.853486 71.0851Q0.777776 70.9588 0.708354 70.8289Q0.638933 70.699 0.575968 70.5659Q0.513003 70.4328 0.456647 70.2967Q0.40029 70.1607 0.350677 70.022Q0.301064 69.8833 0.258315 69.7424Q0.215565 69.6015 0.179782 69.4586Q0.143999 69.3158 0.115269 69.1713Q0.0865387 69.0269 0.0649301 68.8812Q0.0433215 68.7356 0.0288868 68.589Q0.0144521 68.4425 0.00722606 68.2954Q0 68.1483 0 68.001L0 5.999Q0 5.85173 0.00722606 5.70464Q0.0144521 5.55755 0.0288868 5.411Q0.0433215 5.26444 0.0649301 5.11876Q0.0865387 4.97309 0.115269 4.82865Q0.143999 4.68422 0.179782 4.54136Q0.215565 4.39851 0.258315 4.25758Q0.301064 4.11666 0.350677 3.978Q0.40029 3.83934 0.456647 3.70328Q0.513003 3.56722 0.575968 3.4341Q0.638933 3.30097 0.708354 3.17109Q0.777776 3.04121 0.853486 2.9149Q0.929196 2.78858 1.01101 2.66613Q1.09283 2.54369 1.18056 2.4254Q1.26828 2.30711 1.36171 2.19327Q1.45514 2.07944 1.55403 1.97032Q1.65293 1.8612 1.75707 1.75707Q1.8612 1.65293 1.97032 1.55403Q2.07944 1.45514 2.19327 1.36171Q2.30711 1.26829 2.4254 1.18056Q2.54369 1.09283 2.66613 1.01101Q2.78858 0.929196 2.9149 0.853486Q3.04121 0.777776 3.17109 0.708354Q3.30097 0.638933 3.4341 0.575968Q3.56722 0.513003 3.70328 0.456647Q3.83934 0.40029 3.978 0.350677Q4.11666 0.301064 4.25758 0.258315Q4.39851 0.215565 4.54136 0.179782Q4.68422 0.143999 4.82865 0.115269Q4.97309 0.0865387 5.11876 0.0649301Q5.26444 0.0433215 5.411 0.0288868Q5.55755 0.0144521 5.70464 0.00722606Q5.85173 0 5.999 0Z" id="Mask" fill="#FA9D26" fill-rule="evenodd" stroke="none" />
  <g id="noun_City_1864347" transform="translate(10.03833 17)">
    <g id="Group" filter="url(#filter_1)">
      <path d="M13.7626 0L29.2152 9.89938L29.2152 38.5512L29.9396 38.5512L29.9396 10.0603L45.7142 10.0603L45.7142 38.5512L47.1629 38.5512L47.1629 39.9999L0 39.9999L0 38.5512L1.28772 38.5512L1.28772 27.2032L13.1187 19.4768L13.1187 38.5512L13.7626 38.5512L13.7626 0L13.7626 0ZM32.2736 34.6081L35.8148 34.6081C36.2977 34.6081 36.6196 34.93 36.6196 35.3324C36.6196 35.8153 36.2977 36.1372 35.8148 36.1372L32.2736 36.1372C31.7907 36.1372 31.4688 35.8153 31.4688 35.3324C31.4688 34.93 31.7907 34.6081 32.2736 34.6081L32.2736 34.6081ZM39.8387 34.6081L43.3799 34.6081C43.8628 34.6081 44.1848 34.93 44.1848 35.3324C44.1848 35.8153 43.8628 36.1372 43.3799 36.1372L39.8387 36.1372C39.4363 36.1372 39.0339 35.8153 39.0339 35.3324C39.0339 34.93 39.4363 34.6081 39.8387 34.6081L39.8387 34.6081ZM32.2736 30.2617L35.8148 30.2617C36.2977 30.2617 36.6196 30.5837 36.6196 31.0665C36.6196 31.469 36.2977 31.7909 35.8148 31.7909L32.2736 31.7909C31.7907 31.7909 31.4688 31.469 31.4688 31.0665C31.4688 30.5837 31.7907 30.2617 32.2736 30.2617L32.2736 30.2617ZM39.8387 30.2617L43.3799 30.2617C43.8628 30.2617 44.1848 30.5837 44.1848 31.0665C44.1848 31.469 43.8628 31.7909 43.3799 31.7909L39.8387 31.7909C39.4363 31.7909 39.0339 31.469 39.0339 31.0665C39.0339 30.5837 39.4363 30.2617 39.8387 30.2617L39.8387 30.2617ZM32.2736 25.9154L35.8148 25.9154C36.2977 25.9154 36.6196 26.3178 36.6196 26.7202C36.6196 27.1226 36.2977 27.525 35.8148 27.525L32.2736 27.525C31.7907 27.525 31.4688 27.1226 31.4688 26.7202C31.4688 26.3178 31.7907 25.9154 32.2736 25.9154L32.2736 25.9154ZM39.8387 25.9154L43.3799 25.9154C43.8628 25.9154 44.1848 26.3178 44.1848 26.7202C44.1848 27.1226 43.8628 27.525 43.3799 27.525L39.8387 27.525C39.4363 27.525 39.0339 27.1226 39.0339 26.7202C39.0339 26.3178 39.4363 25.9154 39.8387 25.9154L39.8387 25.9154ZM32.2736 21.6497L35.8148 21.6497C36.2977 21.6497 36.6196 21.9717 36.6196 22.4546C36.6196 22.857 36.2977 23.1789 35.8148 23.1789L32.2736 23.1789C31.7907 23.1789 31.4688 22.857 31.4688 22.4546C31.4688 21.9717 31.7907 21.6497 32.2736 21.6497L32.2736 21.6497ZM39.8387 21.6497L43.3799 21.6497C43.8628 21.6497 44.1848 21.9717 44.1848 22.4546C44.1848 22.857 43.8628 23.1789 43.3799 23.1789L39.8387 23.1789C39.4363 23.1789 39.0339 22.857 39.0339 22.4546C39.0339 21.9717 39.4363 21.6497 39.8387 21.6497L39.8387 21.6497ZM32.2736 17.3034L35.8148 17.3034C36.2977 17.3034 36.6196 17.7058 36.6196 18.1082C36.6196 18.5106 36.2977 18.913 35.8148 18.913L32.2736 18.913C31.7907 18.913 31.4688 18.5106 31.4688 18.1082C31.4688 17.7058 31.7907 17.3034 32.2736 17.3034L32.2736 17.3034ZM39.8387 17.3034L43.3799 17.3034C43.8628 17.3034 44.1848 17.7058 44.1848 18.1082C44.1848 18.5106 43.8628 18.913 43.3799 18.913L39.8387 18.913C39.4363 18.913 39.0339 18.5106 39.0339 18.1082C39.0339 17.7058 39.4363 17.3034 39.8387 17.3034L39.8387 17.3034ZM32.2736 13.0378L35.8148 13.0378C36.2977 13.0378 36.6196 13.3597 36.6196 13.7621C36.6196 14.245 36.2977 14.5669 35.8148 14.5669L32.2736 14.5669C31.7907 14.5669 31.4688 14.245 31.4688 13.7621C31.4688 13.3597 31.7907 13.0378 32.2736 13.0378L32.2736 13.0378ZM39.8387 13.0378L43.3799 13.0378C43.8628 13.0378 44.1848 13.3597 44.1848 13.7621C44.1848 14.245 43.8628 14.5669 43.3799 14.5669L39.8387 14.5669C39.4363 14.5669 39.0339 14.245 39.0339 13.7621C39.0339 13.3597 39.4363 13.0378 39.8387 13.0378L39.8387 13.0378ZM7.96745 33.3203L10.8648 33.3203L10.8648 36.3787L7.96745 36.3787L7.96745 33.3203L7.96745 33.3203ZM7.96745 27.8477L10.8648 27.8477L10.8648 30.9865L7.96745 30.9865L7.96745 27.8477L7.96745 27.8477ZM3.54167 33.3203L6.43905 33.3203L6.43905 36.3787L3.54167 36.3787L3.54167 33.3203L3.54167 33.3203ZM3.54167 27.8477L6.43905 27.8477L6.43905 30.9865L3.54167 30.9865L3.54167 27.8477L3.54167 27.8477ZM24.7891 30.7448L27.5255 30.7448L27.5255 34.286L24.7891 34.286L24.7891 30.7448L24.7891 30.7448ZM15.4531 30.7448L18.1895 30.7448L18.1895 34.286L15.4531 34.286L15.4531 30.7448L15.4531 30.7448ZM20.1211 30.7448L22.8575 30.7448L22.8575 34.286L20.1211 34.286L20.1211 30.7448L20.1211 30.7448ZM24.7891 25.9154L27.5255 25.9154L27.5255 29.4566L24.7891 29.4566L24.7891 25.9154L24.7891 25.9154ZM15.4531 25.9154L18.1895 25.9154L18.1895 29.4566L15.4531 29.4566L15.4531 25.9154L15.4531 25.9154ZM20.1211 25.9154L22.8575 25.9154L22.8575 29.4566L20.1211 29.4566L20.1211 25.9154L20.1211 25.9154ZM24.7891 21.0065L27.5255 21.0065L27.5255 24.5478L24.7891 24.5478L24.7891 21.0065L24.7891 21.0065ZM15.4531 21.0065L18.1895 21.0065L18.1895 24.5478L15.4531 24.5478L15.4531 21.0065L15.4531 21.0065ZM20.1211 21.0065L22.8575 21.0065L22.8575 24.5478L20.1211 24.5478L20.1211 21.0065L20.1211 21.0065ZM24.7891 16.1771L27.5255 16.1771L27.5255 19.7183L24.7891 19.7183L24.7891 16.1771L24.7891 16.1771ZM15.4531 16.1771L18.1895 16.1771L18.1895 19.7183L15.4531 19.7183L15.4531 16.1771L15.4531 16.1771ZM20.1211 16.1771L22.8575 16.1771L22.8575 19.7183L20.1211 19.7183L20.1211 16.1771L20.1211 16.1771ZM24.7891 11.2682L27.5255 11.2682L27.5255 14.89L24.7891 14.89L24.7891 11.2682L24.7891 11.2682ZM15.4531 11.2682L18.1895 11.2682L18.1895 14.89L15.4531 14.89L15.4531 11.2682L15.4531 11.2682ZM20.1211 11.2682L22.8575 11.2682L22.8575 14.89L20.1211 14.89L20.1211 11.2682L20.1211 11.2682Z" transform="translate(6.760417 0)" id="Shape" fill="#000000" fill-rule="evenodd" stroke="none" />
      <path d="M4.10462 7.08248L4.10462 18.833L3.38028 18.833L3.38028 7.08248C1.77062 7.72635 0 6.5191 0 4.74848C0 3.86317 0.482897 3.05835 1.20724 2.57545C1.20724 1.20724 2.334 0 3.70221 0C5.1509 0 6.27766 1.12676 6.27766 2.57545C6.27766 2.65593 7.4849 3.29979 7.4849 4.74848C7.4849 6.5191 5.71428 7.72635 4.10462 7.08248L4.10462 7.08248Z" transform="translate(0 21.166668)" id="Shape" fill="#000000" fill-rule="evenodd" stroke="none" />
    </g>
  </g>
</svg>