<?xml version="1.0" encoding="utf-8"?>
<svg width="75px" height="75px" viewBox="0 0 75 75" version="1.1" xmlns:xlink="http://www.w3.org/1999/xlink" xmlns="http://www.w3.org/2000/svg">
  <g id="Group-2">
    <path d="M37.5 0C16.8454 0 0 16.8454 0 37.5C0 58.1546 16.8454 75 37.5 75C58.1547 75 75 58.1546 75 37.5C75 16.8454 58.1546 0 37.5 0L37.5 0ZM37.5001 72.4605C18.1998 72.4605 2.53955 56.8003 2.53955 37.5C2.53955 18.1998 18.1998 2.53955 37.5001 2.53955C56.8003 2.53955 72.4606 18.1998 72.4606 37.5C72.4606 56.8003 56.8003 72.4605 37.5001 72.4605L37.5001 72.4605Z" id="Shape" fill="#505D69" fill-rule="evenodd" stroke="none" />
    <path d="M58.2395 21.9242L29.8817 50.282L16.8456 37.1612C16.3377 36.6533 15.5759 36.6533 15.0679 37.1612C14.56 37.6691 14.56 38.431 15.0679 38.9389L29.0352 52.9908C29.2892 53.2447 29.6278 53.3294 29.9664 53.3294C29.9664 53.3294 29.9664 53.3294 29.9664 53.3294C30.305 53.3294 30.6436 53.1601 30.8975 52.9908L60.1865 23.7865C60.6944 23.2786 60.6944 22.5167 60.1865 22.0088C59.5939 21.4163 58.7474 21.4163 58.2395 21.9242L58.2395 21.9242Z" id="Shape" fill="#505D69" fill-rule="evenodd" stroke="none" />
  </g>
</svg>