<?xml version="1.0" encoding="utf-8"?>
<svg width="14px" height="13px" viewBox="0 0 14 13" version="1.1" xmlns:xlink="http://www.w3.org/1999/xlink" xmlns="http://www.w3.org/2000/svg">
  <g id="Group-2" transform="translate(0.125 0.125)">
    <g id="Group">
      <path d="M6.35663 0.496323L13.5 0.496323L13.5 4.06985L12.9044 4.06985L12.9044 12.2096L0.595588 12.2096L0.595588 4.06985L0 4.06985L0 0.496323L2.28309 0.496323L2.28309 0L6.35663 0L6.35663 0.496323L6.35663 0.496323ZM2.28308 1.09192L0.595581 1.09192L0.595581 3.47427L2.28308 3.47427L2.28308 1.09192L2.28308 1.09192ZM6.35669 1.09192L6.35669 3.47427L12.9045 3.47427L12.9045 1.09192L6.35669 1.09192L6.35669 1.09192ZM2.28307 4.06982L1.19116 4.06982L1.19116 11.6139L12.3088 11.6139L12.3088 4.06982L6.35661 4.06982L6.35661 7.47471L4.35701 6.14121L2.28307 7.46057L2.28307 4.06982L2.28307 4.06982ZM2.87866 6.37581L4.36468 5.43046L5.76102 6.36167L5.76102 0.595581L2.87866 0.595581L2.87866 6.37581L2.87866 6.37581Z" id="Shape" fill="#87909E" fill-rule="evenodd" stroke="#87909E" stroke-width="0.25" />
    </g>
  </g>
</svg>