<?xml version="1.0" encoding="utf-8"?>
<svg width="16px" height="16px" viewBox="0 0 16 16" version="1.1" xmlns:xlink="http://www.w3.org/1999/xlink" xmlns="http://www.w3.org/2000/svg">
  <defs>
    <filter id="filter_1">
      <feColorMatrix in="SourceGraphic" type="matrix" values="0 0 0 0 1 0 0 0 0 1 0 0 0 0 1 0 0 0 1 0" />
    </filter>
  </defs>
  <g id="Group" filter="url(#filter_1)">
    <path d="M7.22559 7.99999C7.22559 7.57242 7.5722 7.2258 7.99978 7.2258C8.42735 7.2258 8.77397 7.57242 8.77397 7.99999C8.77397 8.42757 8.42735 8.77419 7.99978 8.77419C7.5722 8.77419 7.22559 8.42757 7.22559 7.99999Z" id="Circle" fill="#EB8242" fill-rule="evenodd" stroke="none" />
    <path d="M7.22581 14.4026L7.22581 16L8.77419 16L8.77419 14.4026C11.722 14.0453 14.0453 11.722 14.4026 8.77419L16 8.77419L16 7.22581L14.4026 7.22581C14.0453 4.27798 11.722 1.95474 8.77419 1.59742L8.77419 0L7.22581 0L7.22581 1.59742C4.27798 1.95474 1.95474 4.27798 1.59742 7.22581L0 7.22581L0 8.77419L1.59742 8.77419C1.95474 11.722 4.27798 14.0453 7.2258 14.4026L7.22581 14.4026ZM7.99991 3.09677C9.75166 3.09677 11.3703 4.03132 12.2462 5.54838C13.1221 7.06545 13.1221 8.93455 12.2462 10.4516C11.3703 11.9687 9.75166 12.9032 7.99991 12.9032L7.99991 12.9032C6.24815 12.9032 4.62946 11.9687 3.75359 10.4516C2.87771 8.93455 2.87771 7.06545 3.75359 5.54838C4.62946 4.03132 6.24815 3.09677 7.99991 3.09677L7.99991 3.09677Z" id="Shape" fill="#EB8242" fill-rule="evenodd" stroke="none" />
  </g>
</svg>