<?xml version="1.0" encoding="utf-8"?>
<svg width="14px" height="12px" viewBox="0 0 14 12" version="1.1" xmlns:xlink="http://www.w3.org/1999/xlink" xmlns="http://www.w3.org/2000/svg">
  <g id="noun_Purse_3362984">
    <g id="Group">
      <path d="M10.1831 3.61369C10.6347 3.61369 11.0863 3.61369 11.579 3.61369C11.7843 3.61369 11.9895 3.40841 11.9895 3.16207L11.9895 2.01251L1.72561 2.01251C1.52033 2.01251 1.35611 1.88935 1.35611 1.68407C1.35611 1.47879 1.52033 1.31457 1.72561 1.31457L11.9895 1.31457L11.9895 1.15034C11.9895 0.904009 11.7843 0.69873 11.5379 0.69873L1.15083 0.69873C0.904497 0.69873 0.699219 0.904009 0.699219 1.15034L0.699219 9.93627C0.699219 10.1826 0.904497 10.3879 1.15083 10.3879L11.5379 10.3879C11.7843 10.3879 11.9895 10.1826 11.9895 9.93627L11.9895 7.88348C11.9895 7.63715 11.7843 7.43187 11.579 7.43187C11.0863 7.43187 10.6347 7.43187 10.1831 7.43187C9.5262 7.43187 9.03353 6.9392 9.03353 6.28231L9.03353 4.76325C9.03353 4.14741 9.5262 3.61369 10.1831 3.61369L10.1831 3.61369ZM12.6041 3.6129L12.8504 3.6129C13.4663 3.6129 14 4.14663 14 4.76246L14 6.28152C14 6.93842 13.4663 7.43108 12.8504 7.43108L12.6041 7.43108C12.6452 7.59531 12.6862 7.71847 12.6862 7.8827L12.6862 9.93548C12.6862 10.5513 12.1935 11.085 11.5367 11.085L1.14956 11.085C0.533724 11.085 0 10.5513 0 9.93548L0 1.14956C0 0.533724 0.533724 0 1.14956 0L11.5367 0C12.1935 0 12.6862 0.533724 12.6862 1.14956C12.6862 1.80645 12.6862 2.5044 12.6862 3.16129C12.6862 3.32551 12.6452 3.48974 12.6041 3.6129L12.6041 3.6129ZM12.8507 4.31116C11.9475 4.31116 11.0443 4.31116 10.1821 4.31116C9.93575 4.31116 9.73047 4.51644 9.73047 4.76277L9.73047 6.28183C9.73047 6.52817 9.93575 6.73344 10.1821 6.73344C11.0443 6.73344 11.9475 6.73344 12.8507 6.73344C13.097 6.73344 13.3023 6.52817 13.3023 6.28183L13.3023 4.76277C13.3023 4.51644 13.097 4.31116 12.8507 4.31116L12.8507 4.31116Z" id="Shape" fill="#87909E" fill-rule="evenodd" stroke="none" />
      <path d="M10.9608 4.63928C11.4535 4.63928 11.864 5.04984 11.864 5.54251C11.864 6.03518 11.4535 6.40468 10.9608 6.40468C10.4681 6.40468 10.0986 6.03518 10.0986 5.54251C10.0986 5.04984 10.4681 4.63928 10.9608 4.63928L10.9608 4.63928ZM10.9621 5.33801C10.88 5.33801 10.7979 5.42012 10.7979 5.54329C10.7979 5.6254 10.88 5.74857 10.9621 5.74857C11.0852 5.74857 11.1674 5.6254 11.1674 5.54329C11.1674 5.42012 11.0852 5.33801 10.9621 5.33801L10.9621 5.33801Z" id="Shape" fill="#87909E" fill-rule="evenodd" stroke="none" />
    </g>
  </g>
</svg>