<?xml version="1.0" encoding="utf-8"?>
<svg width="14px" height="14px" viewBox="0 0 14 14" version="1.1" xmlns:xlink="http://www.w3.org/1999/xlink" xmlns="http://www.w3.org/2000/svg">
  <path d="M681 498C677.134 498 674 501.134 674 505C674 508.866 677.134 512 681 512C684.866 512 688 508.866 688 505C688 501.134 684.866 498 681 498L681 498ZM682.173 508.279C681.776 508.839 681.378 509.224 680.95 509.439C680.64 509.59 680.297 509.663 679.952 509.652C679.048 509.577 678.628 508.896 679.022 507.812L680.211 504.545C680.468 503.84 680.219 503.626 680.016 503.62C679.774 503.616 679.484 503.843 679.147 504.301C679.09 504.381 678.978 504.4 678.898 504.343C678.817 504.286 678.798 504.174 678.855 504.094C679.252 503.533 679.65 503.148 680.078 502.933C680.388 502.782 680.73 502.709 681.075 502.72C681.98 502.795 682.4 503.476 682.005 504.561L680.816 507.827C680.56 508.532 680.808 508.746 681.012 508.752C681.254 508.756 681.544 508.529 681.88 508.071C681.938 507.991 682.049 507.972 682.13 508.029C682.211 508.086 682.23 508.198 682.173 508.279L682.173 508.279ZM683.126 501.479C682.967 501.918 682.482 502.144 682.043 501.984C681.604 501.825 681.378 501.34 681.537 500.901C681.697 500.462 682.182 500.236 682.621 500.395C682.832 500.472 683.003 500.629 683.098 500.833C683.193 501.036 683.203 501.268 683.126 501.479L683.126 501.479Z" id="Shape" fill="#505D69" fill-rule="evenodd" stroke="none" />
</svg>