<?xml version="1.0" encoding="utf-8"?>
<svg width="18px" height="15px" viewbox="0 0 18 15" version="1.1" xmlns:xlink="http://www.w3.org/1999/xlink" xmlns="http://www.w3.org/2000/svg">
  <defs>
    <filter id="filter_1">
      <feColorMatrix in="SourceGraphic" type="matrix" values="0 0 0 0 0.42745098 0 0 0 0 0.46666667 0 0 0 0 0.54509807 0 0 0 1 0" />
    </filter>
    <filter id="filter_2">
      <feColorMatrix in="SourceGraphic" type="matrix" values="0 0 0 0 0.96862745 0 0 0 0 0.50980395 0 0 0 0 0.22745098 0 0 0 1 0" />
    </filter>
  </defs>
  <g id="noun_Purse_3362984" filter="url(#filter_2)">
    <g id="Group" filter="url(#filter_1)">
      <path d="M13.092 4.64624C13.6726 4.64624 14.2533 4.64624 14.8867 4.64624C15.1506 4.64624 15.4146 4.38231 15.4146 4.06559L15.4146 2.58759L2.21809 2.58759C1.95416 2.58759 1.74301 2.42923 1.74301 2.1653C1.74301 1.90137 1.95416 1.69023 2.21809 1.69023L15.4146 1.69023L15.4146 1.47908C15.4146 1.16237 15.1506 0.898438 14.8339 0.898438L1.47908 0.898438C1.16237 0.898438 0.898438 1.16237 0.898438 1.47908L0.898438 12.7753C0.898438 13.092 1.16237 13.3559 1.47908 13.3559L14.8339 13.3559C15.1506 13.3559 15.4146 13.092 15.4146 12.7753L15.4146 10.136C15.4146 9.81926 15.1506 9.55533 14.8867 9.55533C14.2533 9.55533 13.6726 9.55533 13.092 9.55533C12.2474 9.55533 11.614 8.9219 11.614 8.07732L11.614 6.12424C11.614 5.33246 12.2474 4.64624 13.092 4.64624L13.092 4.64624ZM16.2053 4.64516L16.522 4.64516C17.3138 4.64516 18 5.33138 18 6.12317L18 8.07625C18 8.92082 17.3138 9.55425 16.522 9.55425L16.2053 9.55425C16.2581 9.7654 16.3109 9.92375 16.3109 10.1349L16.3109 12.7742C16.3109 13.566 15.6774 14.2522 14.8328 14.2522L1.47801 14.2522C0.686217 14.2522 0 13.566 0 12.7742L0 1.47801C0 0.686217 0.686217 0 1.47801 0L14.8328 0C15.6774 0 16.3109 0.686217 16.3109 1.47801C16.3109 2.32258 16.3109 3.21994 16.3109 4.06452C16.3109 4.27566 16.2581 4.4868 16.2053 4.64516L16.2053 4.64516ZM16.5215 5.54297C15.3602 5.54297 14.1989 5.54297 13.0904 5.54297C12.7737 5.54297 12.5098 5.8069 12.5098 6.12361L12.5098 8.07669C12.5098 8.39341 12.7737 8.65734 13.0904 8.65734C14.1989 8.65734 15.3602 8.65734 16.5215 8.65734C16.8382 8.65734 17.1021 8.39341 17.1021 8.07669L17.1021 6.12361C17.1021 5.8069 16.8382 5.54297 16.5215 5.54297L16.5215 5.54297Z" id="Shape" fill="#000000" fill-rule="evenodd" stroke="none" />
      <path d="M1.1085 0C1.74194 0 2.26979 0.527859 2.26979 1.16129C2.26979 1.79472 1.74194 2.26979 1.1085 2.26979C0.475073 2.26979 0 1.79472 0 1.16129C0 0.527859 0.475073 0 1.1085 0L1.1085 0ZM1.10958 0.898438C1.00401 0.898438 0.898438 1.00401 0.898438 1.16237C0.898438 1.26794 1.00401 1.4263 1.10958 1.4263C1.26794 1.4263 1.37351 1.26794 1.37351 1.16237C1.37351 1.00401 1.26794 0.898438 1.10958 0.898438L1.10958 0.898438Z" transform="translate(12.984375 5.9648438)" id="Shape" fill="#000000" fill-rule="evenodd" stroke="none" />
    </g>
  </g>
</svg>