<?xml version="1.0" encoding="utf-8"?>
<svg width="1265px" height="178px" viewbox="0 0 1265 178" version="1.1" xmlns:xlink="http://www.w3.org/1999/xlink" xmlns="http://www.w3.org/2000/svg">
  <defs>
    <filter id="filter_1">
      <feColorMatrix in="SourceGraphic" type="matrix" values="0 0 0 0 1 0 0 0 0 0.8039216 0 0 0 0 0.1254902 0 0 0 1 0" />
    </filter>
  </defs>
  <g id="Paper2" transform="matrix(1 0 0 -1 0 177.27924)">
    <g id="XMLID_2_" filter="url(#filter_1)">
      <path d="M1258.69 19.9792C1261.39 15.8835 1241.91 13.6858 1210.74 12.3871C1210.74 12.487 1210.34 12.5869 1209.64 12.6868C1209.64 12.5869 1209.34 12.5869 1209.34 12.5869L1210.74 12.3871C1207.25 11.4881 1201.25 10.9886 1193.56 10.7888C1178.68 10.3892 1169.08 9.19045 1157.5 8.19148L1156.7 8.29138C1156.7 8.29138 1156.7 8.29138 1156.1 8.29138C1156.7 8.19148 1157 8.19148 1157.5 8.19148C1149.11 5.1946 1140.81 2.09782 1116.04 0C1115.04 0.199792 1114.14 0.299689 1113.24 0.399584C1112.04 0.899065 1114.44 1.29865 1116.34 1.69823C1112.54 1.39855 1109.25 1.09886 1105.45 0.699273C1100.56 0.499481 1096.46 0.499481 1091.67 0.799169L1091.67 0.699273C1085.67 0.699273 1080.18 0.699273 1074.38 0.699273C1074.38 0.998962 1074.38 1.09886 1074.88 1.29865C1074.88 2.29761 1075.38 3.19668 1075.38 4.19564C1075.38 4.59522 1075.38 4.99481 1075.38 5.49429C1058.7 6.99273 1042.92 8.49117 1032.13 10.6889C1029.03 11.3882 1022.24 11.6878 1014.95 11.6878C1012.55 11.0885 1010.25 10.589 1007.85 9.98961L1008.15 9.88972C1008.15 9.78982 1008.85 9.68993 1009.25 9.49013C1006.45 8.79086 998.362 8.39128 995.865 8.99065C987.773 11.2883 970.891 10.7888 956.006 10.9886C922.141 11.4881 887.178 11.1884 853.713 12.1873C831.835 12.0874 810.657 12.487 789.479 13.1863C766.104 13.1863 743.028 13.7857 719.752 14.0854C685.288 14.385 652.222 15.6837 617.658 15.8835L616.759 15.7836C584.193 15.8835 553.025 16.8824 522.057 17.8814L522.956 18.0812C522.457 18.0812 522.457 18.0812 522.057 18.0812C522.057 17.9813 522.057 17.9813 522.057 17.8814C492.988 17.7815 466.715 19.0802 438.444 19.6795C418.565 20.0791 396.788 19.4797 379.406 21.2779C379.905 21.3778 380.305 21.3778 380.804 21.4777C380.305 21.4777 380.305 21.4777 380.305 21.4777L379.406 21.2779C365.62 21.5776 350.336 20.7784 0 0L339.247 22.1769C338.948 22.1769 338.948 22.2768 338.948 22.3767C338.248 22.1769 338.248 22.0771 338.248 22.0771C306.781 22.2768 275.214 22.2768 244.646 22.9761C183.709 24.3747 122.073 24.6744 61.1364 25.4735C40.7576 25.7732 20.4787 26.5724 0 26.2727C0 26.4725 0 26.7722 0 26.972C0 28.5703 0 30.1686 0 31.767C0 32.1666 0 32.666 0 33.1655C0 34.7639 0 36.3622 0 37.9605C0 39.0594 0 40.2582 0 41.4569C0 42.4559 0 43.255 0 44.1541C0 45.7524 0 47.3508 0 48.9491C0 49.6484 0 50.2478 0 50.947C7.59211 51.8461 7.59211 52.7452 0 53.6442C0 53.9439 0 54.1437 0 54.3435C0 57.5402 0 60.8368 0 64.0334C0 65.3321 0 66.7306 0 68.1292C0 68.329 0 68.6286 0 68.7285C4.19564 69.228 4.19564 69.7275 0 70.1271C0 70.3269 0 70.6266 0 70.8264C0 71.4257 0 72.2249 0 72.8243C0 73.5236 0 74.1229 0 74.8222C0 75.4216 0 76.2208 0 76.8201C0 79.4174 0 81.9148 0 84.4122C0 85.3113 0 86.3103 0 87.1094C0 87.4091 0 87.6089 0 87.8087C0 90.406 0 92.9034 0 95.4008C0 96.3998 0 97.2988 0 98.098C0 100.196 0 102.294 0 104.292C8.49117 105.69 8.49117 107.089 0 108.487C0 108.687 0 108.987 0 109.087C0 109.886 0 110.485 0 111.184C0 112.283 0 113.482 0 114.581C0 117.178 0 119.676 0 122.173C0 125.37 0 128.566 0 131.763C0 133.361 0 134.96 0 136.558C0 139.255 0 141.952 0 144.75C0 149.145 0 153.44 0 157.736C0 159.135 0 160.433 0 161.932C0 162.131 0 162.431 0 162.631C0 162.831 0 163.13 0 163.33C17.6816 163.33 35.4631 163.13 51.0469 162.231C51.5464 162.231 52.2457 162.231 52.5454 162.231L52.5454 162.231C54.4434 162.032 57.4403 162.231 59.3383 162.032L59.3383 161.932C61.0365 161.732 63.1344 161.432 65.0324 161.232C79.7171 160.233 78.0189 162.032 82.8139 162.631L82.8139 162.531C88.4081 163.03 94.8014 163.03 100.296 162.631C102.394 162.531 104.691 162.531 106.689 162.531C109.486 162.032 114.681 162.231 118.177 161.932C124.371 161.932 130.065 161.932 136.358 161.832C136.658 161.832 137.457 161.732 137.757 161.532C137.757 161.532 137.457 161.532 137.457 161.432C138.356 161.332 137.457 161.232 138.356 161.232C138.656 161.232 139.954 161.232 140.754 161.332C143.551 161.132 145.449 160.733 144.55 160.433C144.05 160.133 142.152 160.233 141.053 159.934C140.754 159.634 145.948 159.434 143.451 159.035C137.757 158.036 136.758 157.236 142.052 156.337C148.346 155.938 150.543 154.839 159.734 154.939C159.734 154.939 160.233 154.939 160.233 154.839C160.233 154.939 160.233 154.939 160.233 154.939C164.029 154.939 168.025 154.939 171.721 154.939C176.017 154.939 180.013 154.939 183.609 154.939C183.609 154.939 183.609 154.939 183.609 154.839C183.609 154.939 183.609 154.939 183.609 154.939C183.609 155.538 185.207 156.038 189.503 156.337C187.105 157.936 197.095 158.535 208.184 158.635C209.882 158.735 214.777 158.435 214.777 158.235C216.675 156.737 202.29 157.336 197.694 156.637C196.596 156.537 196.096 156.437 195.597 156.337C197.694 156.138 199.592 155.938 201.49 155.638C211.58 155.638 221.07 155.638 231.16 155.838C235.455 155.838 240.75 156.138 237.853 156.937C235.455 157.436 230.261 157.936 237.853 158.136C241.649 158.235 250.14 157.736 250.14 157.536C249.84 155.139 268.821 155.338 278.81 154.34L277.911 154.24L277.911 154.24C278.411 154.24 278.411 154.34 278.81 154.34C291.497 154.04 303.784 154.639 316.771 154.439C368.817 153.44 419.264 151.542 471.81 150.643C495.685 150.344 517.962 149.544 539.839 151.542C543.135 151.842 549.429 152.142 553.025 152.042C585.791 150.643 618.857 152.541 652.222 151.742C677.196 151.143 704.268 152.142 729.242 150.643C734.936 150.344 740.63 150.743 746.024 150.743C768.501 150.643 791.577 150.543 807.161 148.246C807.161 148.146 806.861 148.146 806.262 148.146L806.262 148.146L807.161 148.246C819.848 148.046 827.44 146.947 836.331 146.248C837.729 146.148 839.328 146.148 841.226 146.148C843.923 145.948 846.42 145.748 848.518 145.549L848.518 145.549C851.615 145.149 857.109 145.249 860.505 144.749L860.505 144.849C864.301 144.45 868.098 144.45 872.393 144.749C874.691 145.249 876.189 145.748 878.687 146.248C890.574 148.845 899.165 148.945 920.243 146.847C919.644 146.847 918.845 146.747 918.345 146.648L918.345 146.648L920.243 146.847C931.232 146.747 937.026 146.048 938.125 144.849L936.526 144.65C936.526 144.55 937.026 144.55 937.026 144.55C937.326 144.65 938.125 144.749 938.125 144.749C944.119 144.65 949.513 144.45 953.609 143.85C972.389 141.353 996.964 139.655 1020.84 137.857C1025.73 137.457 1030.33 137.157 1032.73 136.458C1032.03 136.358 1031.73 136.258 1030.83 136.258C1031.13 136.258 1031.13 136.258 1031.13 136.258L1032.63 136.458C1037.42 136.158 1038.32 135.659 1038.72 135.06C1037.82 135.06 1037.42 135.06 1036.82 135.06C1036.82 135.06 1036.82 134.96 1037.52 134.96L1038.82 135.06C1040.82 134.86 1042.82 134.66 1044.71 134.36L1043.72 134.26C1043.72 134.26 1043.72 134.26 1044.31 134.16C1044.31 134.26 1044.31 134.36 1044.71 134.36C1046.61 134.16 1048.51 133.861 1050.41 133.661L1049.51 133.561C1049.51 133.461 1049.91 133.461 1049.91 133.461C1050.41 133.561 1050.41 133.561 1050.41 133.661C1052.31 133.461 1054.7 133.261 1056.7 132.962L1055.7 132.862C1055.7 132.862 1055.7 132.862 1055.7 132.762C1056.4 132.862 1056.4 132.962 1056.7 132.962C1059.7 132.862 1063.99 132.862 1064.79 132.662C1078.68 130.065 1107.45 128.966 1119.34 126.169C1121.23 125.669 1126.13 125.27 1129.93 125.07C1158.7 123.272 1169.98 120.275 1168.09 116.978C1165.39 110.885 1178.18 105.191 1195.26 99.6963C1200.65 97.998 1198.35 96.1 1205.45 95.0011C1213.94 93.6026 1213.14 92.6036 1212.04 91.2051C1210.64 88.9075 1209.64 86.6099 1212.04 84.4121C1213.14 83.0136 1213.94 81.3154 1208.74 80.4163C1196.36 78.4184 1194.36 76.1208 1187.67 73.923C1187.17 74.0229 1186.77 74.0229 1186.37 74.0229L1186.37 74.0229C1185.17 73.923 1183.27 73.8232 1182.87 73.5235C1182.87 73.4236 1182.87 73.4236 1182.87 73.4236C1184.77 73.6234 1182.87 74.0229 1186.37 74.0229L1187.67 73.923C1182.47 69.4277 1177.58 64.9324 1172.38 60.4371C1168.98 57.4402 1166.19 54.4433 1168.09 51.3465C1169.98 48.949 1171.08 46.4516 1165.39 43.9542C1161.39 42.256 1163.79 40.3579 1163.49 38.5598C1163.49 37.5608 1167.79 37.0614 1176.28 37.0614C1180.97 37.0614 1185.77 37.0614 1190.66 36.8616C1220.53 36.2622 1225.63 34.3642 1205.05 31.5671C1206.05 30.1685 1199.75 29.5692 1190.16 28.9698C1183.37 28.5702 1172.48 28.4703 1172.48 27.1717C1183.47 25.7731 1197.46 26.0728 1210.84 26.0728C1210.84 25.9729 1211.34 25.873 1211.64 25.7731C1211.64 25.873 1212.24 25.873 1212.24 25.873L1210.84 26.0728C1214.14 26.9719 1220.03 27.3714 1228.42 27.4713C1228.42 27.3714 1229.12 27.3714 1229.12 27.2715L1229.42 27.2715L1228.32 27.4713C1230.22 27.6711 1232.32 27.9708 1234.22 28.1706C1245.61 29.2695 1254.1 28.6701 1251 27.1717C1246.2 25.1737 1246.5 23.6753 1261.39 22.2767C1267.28 21.7774 1265.19 20.7784 1258.69 19.9792L1258.69 19.9792ZM1073.78 129.865C1073.78 128.866 1074.78 128.866 1074.78 128.866C1074.78 129.865 1073.78 129.865 1074.78 129.865C1073.78 129.865 1073.78 129.865 1073.78 129.865L1073.78 129.865ZM290.998 150.743C290.665 150.993 289.999 151.492 289.999 151.742C290.554 151.492 289.999 150.993 290.998 150.743L290.998 150.743ZM1167.79 18.3809C1168.09 18.281 1169.58 18.281 1170.98 18.1812C1167.99 18.4808 1165.69 18.7805 1166.69 19.28C1165.69 19.0802 1164.69 18.9803 1164.69 18.7805C1165.29 18.6806 1166.69 18.4808 1167.79 18.3809L1167.79 18.3809ZM1172.38 12.5869C1174.58 12.5869 1175.38 12.5869 1177.28 12.5869C1175.78 12.7867 1175.78 12.9865 1175.38 13.5859C1174.58 12.9865 1173.38 12.7867 1172.38 12.5869L1172.38 12.5869ZM135.959 28.8701L135.959 28.8701C135.459 29.3696 135.459 29.8691 134.061 29.8691C135.06 29.8691 135.06 29.3696 135.959 28.8701L135.959 28.8701ZM204.887 27.8713C205.387 27.8713 204.887 27.6715 205.387 27.4717C205.387 27.4717 205.387 27.4717 205.786 27.4717C205.387 27.8713 204.388 28.0711 204.388 28.4706C204.388 28.0711 203.389 27.8713 203.389 27.4717C203.389 27.4717 204.088 27.4717 204.388 27.4717C204.288 27.6715 204.288 27.8713 204.887 27.8713L204.887 27.8713ZM70.3274 127.434C71.3264 127.101 71.3264 127.101 71.8258 126.768C71.8258 127.101 70.9268 127.434 70.9268 127.767C70.3274 127.767 71.0267 127.767 70.3274 127.434L70.3274 127.434ZM569.508 22.8712C569.841 22.096 569.841 23.6464 570.507 22.8712L570.507 23.6464C569.952 23.6464 569.952 22.8712 569.508 22.8712L569.508 22.8712ZM1086.27 39.5591C1079.48 39.5591 1078.68 40.2584 1076.78 40.7578C1076.78 40.1585 1080.18 39.659 1086.27 39.5591L1086.27 39.5591ZM419.264 144.083C413.371 143.917 409.075 142.918 401.982 143.584C403.081 143.417 401.982 143.251 402.482 143.251C405.379 143.75 410.074 143.917 422.561 144.25C421.662 144.083 420.164 144.083 419.264 144.083L419.264 144.083ZM179.014 149.145C180.413 148.545 177.616 148.246 172.721 148.046C175.618 147.946 179.014 147.746 180.912 148.146C182.91 148.445 180.413 148.845 179.014 149.145L179.014 149.145ZM1115.54 91.1051C1116.94 90.6056 1117.94 90.206 1118.54 89.7065C1118.44 90.4058 1116.84 90.6056 1115.54 91.1051L1115.54 91.1051ZM559.519 144.75C559.519 145.249 558.52 145.249 558.52 145.748C558.52 145.249 558.52 145.249 558.52 144.75C558.52 144.75 559.519 144.75 559.519 144.75L559.519 144.75ZM593.483 142.252C593.783 141.752 594.582 141.253 594.582 141.253C594.582 141.253 593.883 141.752 594.582 142.252C593.783 142.252 593.783 142.252 593.483 142.252L593.483 142.252ZM214.877 148.346L214.877 148.346C217.125 148.346 214.877 148.346 214.877 148.346L214.877 148.346ZM1109.25 37.2612L1109.25 37.2612L1110.25 36.2622C1110.25 37.2612 1110.25 37.2612 1109.25 37.2612L1109.25 37.2612ZM783.985 133.361C783.985 132.862 782.487 132.862 782.786 132.362C783.286 132.862 783.985 132.862 784.385 132.862C784.385 133.361 784.385 133.361 783.985 133.361L783.985 133.361ZM485.396 120.175C485.396 120.175 485.396 120.175 486.395 120.175L485.396 120.175L485.396 120.175L485.396 120.175ZM522.657 51.4463C521.658 52.4453 521.658 52.4453 521.658 52.4453L521.658 52.4453C521.658 52.4453 521.658 52.4453 522.657 51.4463L522.657 51.4463L522.657 51.4463ZM566.212 41.1572C566.212 41.4902 566.212 41.4902 566.212 41.4902C566.212 41.8232 566.212 41.8232 565.213 42.1562C566.212 41.4902 565.213 41.4902 566.212 41.1572L566.212 41.1572ZM983.478 50.3144C982.379 50.3144 982.379 49.6484 981.58 49.6484C983.478 49.9814 983.977 50.6474 985.875 50.3144C985.376 50.6474 984.777 50.3144 984.377 50.6474C983.977 50.6474 983.977 50.3144 983.478 50.3144L983.478 50.3144ZM599.177 135.359C597.779 135.359 597.779 134.36 595.881 134.36C597.279 134.693 598.678 135.026 600.176 134.36C600.176 134.36 599.177 134.693 599.177 135.359C599.677 135.359 599.677 135.359 600.176 135.359C599.677 135.359 599.677 135.359 599.177 135.359L599.177 135.359L599.177 135.359ZM771.399 38.7593L772.098 38.7593C767.603 39.5584 770.1 40.3576 772.997 41.1568C769.8 40.4575 768.202 39.6583 770.1 38.8592C770.5 38.7593 770.899 38.7593 771.399 38.7593L771.399 38.7593ZM898.267 103.992C898.866 103.792 897.367 103.593 897.367 103.393C898.267 102.993 900.564 103.193 902.262 102.993C900.664 103.193 899.166 103.393 898.267 103.992L898.267 103.992ZM535.943 101.595L536.942 101.595C535.943 101.595 535.943 101.595 535.943 101.595L535.943 101.595L535.943 101.595ZM225.366 144.375C225.366 144.375 225.366 144.375 225.366 144.375C225.366 143.043 225.921 143.043 226.365 144.375C226.032 144.375 226.032 144.375 225.366 144.375L225.366 144.375ZM225.066 98.1978L225.366 98.1978C225.066 98.1978 225.066 98.1978 225.066 98.1978C225.066 98.1978 224.367 98.1978 224.067 98.1978C224.367 98.1978 225.066 98.1978 225.066 98.1978L225.066 98.1978ZM973.388 104.691C973.388 105.091 973.943 105.59 974.387 105.99C974.387 105.89 973.388 105.89 973.388 105.79C973.388 105.39 973.388 105.09 973.388 104.691L973.388 104.691ZM901.064 43.0551C900.564 42.8054 900.564 42.5556 900.165 42.0562C900.165 42.5556 901.563 42.5556 901.563 42.8054C901.563 43.0551 901.064 43.0551 901.064 43.0551L901.064 43.0551ZM1004.96 92.2041L1004.96 92.2041L1003.96 92.2041L1004.96 92.2041L1004.96 92.2041L1004.96 92.2041ZM742.329 120.575C741.429 121.074 741.829 121.074 740.73 121.574C741.43 121.074 741.43 121.074 741.829 120.575C741.829 120.575 741.829 120.575 742.329 120.575L742.329 120.575ZM891.174 93.7026C890.575 92.7036 890.575 92.7036 889.875 92.7036C890.575 92.7036 891.474 92.7036 891.873 92.7036C891.573 93.7026 891.174 93.7026 891.174 93.7026L891.174 93.7026ZM339.248 93.4028C339.248 94.4018 338.249 94.4018 338.249 94.4018L338.249 94.4018L339.248 93.4028L339.248 93.4028C339.248 93.4028 339.248 93.4028 339.248 93.4028C339.248 93.4028 339.248 93.4028 339.248 93.4028L339.248 93.4028ZM741.429 75.5215C742.428 75.5215 741.429 76.5204 742.428 76.5204L742.428 76.5204C741.429 76.5204 741.429 75.5215 741.429 75.5215L741.429 75.5215ZM877.987 75.7211C876.189 75.0552 874.391 76.0541 872.393 75.3881C873.792 75.0552 874.691 74.7222 876.189 74.7222C876.789 75.0552 877.688 75.0552 877.987 75.7211L877.987 75.7211ZM795.973 82.1147L795.973 82.1147C796.372 82.1147 796.872 81.6152 797.272 81.6152C796.972 82.1147 796.372 82.1147 795.973 82.6142L795.973 82.1147L795.973 82.1147ZM885.28 87.7092C884.781 87.4095 885.28 87.1098 882.883 87.0099C877.688 86.6103 881.484 86.3106 885.28 86.1108C883.882 86.6103 883.882 87.1098 885.28 87.7092L885.28 87.7092ZM774.295 74.6226C776.693 75.6215 779.09 75.6215 781.488 75.6215C779.09 75.6216 776.693 74.6226 774.295 74.6226L774.295 74.6226ZM657.117 96.2997C657.117 95.9001 653.821 95.6004 655.019 95.2009C657.117 94.7014 661.413 94.9012 664.709 94.8013C659.914 95.2009 657.517 95.6004 657.117 96.2997L657.117 96.2997ZM482.299 75.5215C481.4 76.021 480.401 76.021 479.502 76.5204C480.401 76.021 481.4 76.021 482.299 75.5215L482.299 75.5215L482.299 75.5215ZM617.359 84.2124C619.257 84.3123 618.357 84.7119 620.855 84.7119C623.252 84.8118 625.55 85.0116 624.052 85.5111C621.954 85.7108 619.257 85.6109 616.859 85.5111C615.96 85.1115 619.756 84.612 617.359 84.2124L617.359 84.2124ZM495.285 75.7013C499.581 75.3427 504.476 77.4945 508.672 75.3427C508.672 75.3427 509.371 75.7013 509.371 76.0599C506.174 74.6254 500.08 75.7013 495.285 75.7013L495.285 75.7013ZM712.06 83.4135C711.76 83.4135 710.762 83.4135 710.162 82.914C710.761 82.914 711.161 82.914 712.06 82.4146C712.06 82.914 712.06 83.4135 712.06 83.4135L712.06 83.4135ZM666.707 81.9482C666.208 81.6152 666.208 81.4487 666.208 81.1157C669.105 82.1147 676.797 82.1147 683.789 82.1147C678.095 81.6152 673.4 80.4498 666.707 81.9482L666.707 81.9482ZM645.529 83.5587C645.03 83.7476 643.631 83.3698 643.132 83.5587C644.73 83.1809 645.529 82.992 647.128 82.6143C646.628 83.1809 646.029 83.3698 645.529 83.5587L645.529 83.5587ZM641.833 101.561C641.134 101.561 641.134 101.228 640.634 101.228C640.335 101.561 640.634 101.894 640.335 101.894C639.835 101.561 640.634 101.228 640.335 100.895L640.335 100.895C640.634 100.895 640.335 101.228 640.634 101.228L641.134 101.228C641.234 100.895 641.234 101.561 641.833 101.561L641.833 101.561ZM696.476 113.782C695.777 113.282 695.477 113.282 694.878 112.783C695.477 113.282 695.677 113.282 696.476 113.782L696.476 113.782ZM849.417 92.4038C848.918 93.203 846.121 93.5226 842.125 93.3628C845.122 93.203 847.02 92.7235 849.417 92.4038L849.417 92.4038ZM700.073 82.4145C701.671 81.4155 703.069 81.915 704.068 81.4155C702.97 81.4155 701.671 81.4155 700.073 82.4145L700.073 82.4145ZM655.119 79.788C654.72 79.4843 655.119 79.1805 654.72 78.8768C655.119 79.1805 655.119 78.573 655.619 78.8768C656.618 79.1805 654.72 79.4843 655.119 79.788L655.119 79.788ZM473.308 78.918C472.309 78.918 471.91 79.9169 471.41 79.9169C471.91 78.918 472.309 78.918 473.308 78.918L473.308 78.918ZM370.815 77.5195C369.916 77.5195 371.814 78.019 370.515 78.5185C370.016 78.5185 369.616 78.5185 369.616 78.5185C369.916 78.019 369.916 77.5195 370.815 77.5195L370.815 77.5195ZM587.69 102.594L587.19 102.594C587.19 101.595 586.091 101.595 585.792 101.595C586.091 101.595 586.091 101.595 586.091 101.595C586.691 101.595 587.19 102.594 587.69 102.594L587.69 102.594ZM629.646 97.3989C630.345 97.5654 629.646 97.7319 630.345 97.8984C628.846 97.8984 630.345 98.3979 628.846 98.3979C629.246 98.0649 629.246 97.8984 629.646 97.3989L629.646 97.3989ZM735.536 94.4014C734.637 94.0018 731.74 93.6023 735.935 93.3026C739.032 93.1028 739.931 93.6023 742.329 93.7022C739.032 93.8021 736.635 94.1017 735.536 94.4014L735.536 94.4014ZM908.656 91.5048C909.954 91.0053 911.753 91.0053 912.152 90.5059C911.753 90.7556 909.854 91.5048 908.656 91.5048L908.656 91.5048ZM902.562 82.1147C901.563 81.6152 903.161 81.3655 902.262 81.1157C902.562 81.1157 903.161 81.3655 903.961 81.3655C903.161 81.3655 903.161 81.865 902.562 82.1147L902.562 82.1147ZM916.448 76.7203L916.448 76.7203C918.346 75.8213 918.845 74.9222 914.55 74.123C914.55 74.123 914.55 74.2229 914.55 74.123C915.049 75.0221 922.142 75.8213 916.448 76.7203L916.448 76.7203ZM759.411 55.6426C758.911 55.9756 758.012 56.3085 757.613 56.6415C757.613 56.3086 757.912 56.3086 757.912 55.9756C758.512 55.9756 758.911 55.6426 759.411 55.6426L759.411 55.6426ZM739.332 74.3227C738.333 74.3227 737.434 73.9897 735.935 73.9897C735.935 73.6567 735.536 73.6567 735.536 73.3237C736.635 73.9897 738.333 73.9897 739.332 74.3227L739.332 74.3227ZM707.665 77.6196C707.365 77.6196 706.766 77.6196 706.266 77.6196C706.266 77.2866 707.665 76.9536 707.665 76.6206C708.364 76.9536 707.365 77.2866 707.665 77.6196L707.665 77.6196ZM578.599 73.9233C577.2 74.4228 576.201 74.9223 574.203 74.9223C576.101 74.9223 577.2 74.4228 578.599 73.9233L578.599 73.9233ZM395.389 68.8286C395.389 68.8286 394.39 68.3291 395.389 68.5788L395.389 68.3291C394.39 68.0793 394.39 68.0793 394.39 67.8296L395.389 68.0793C395.389 68.3291 395.389 68.3291 395.389 68.3291C395.389 68.5788 395.389 68.8286 395.389 68.8286L395.389 68.8286ZM729.342 117.777C729.342 116.778 730.341 116.778 729.342 117.777C730.341 116.778 730.341 116.778 730.341 116.778C730.341 116.778 730.341 116.778 729.342 117.777L729.342 117.777ZM911.753 94.7012C912.052 94.901 912.652 95.1008 912.951 95.3006C912.951 95.5003 912.951 95.7001 912.951 95.7001C912.052 95.7001 910.754 95.3005 911.753 94.7012L911.753 94.7012ZM809.759 66.5307C810.424 66.5307 809.759 65.5317 810.424 65.5317L810.758 65.5317C810.425 65.5317 810.425 66.5307 809.759 66.5307L809.759 66.5307ZM806.362 51.3466C806.862 50.7472 802.666 50.947 801.967 50.3477C803.065 50.5474 804.364 50.3477 804.764 50.5474C805.463 50.7472 805.763 50.947 806.861 51.1468L806.362 51.3466L806.362 51.3466ZM774.795 47.7499C774.795 47.7499 775.195 47.417 774.795 47.084C775.794 47.084 776.693 46.751 777.592 46.751C776.693 47.084 775.794 47.417 774.795 47.7499L774.795 47.7499ZM649.525 75.2216C648.326 74.7221 647.427 74.7221 647.128 74.2227C647.128 74.2227 647.128 74.2227 647.427 74.2227C647.927 74.7221 649.026 74.7221 649.525 75.2216L649.525 75.2216ZM641.833 72.8242C641.134 72.8242 640.634 72.8242 640.335 72.8242C640.634 72.8242 641.234 71.8252 641.234 71.8252C641.234 71.8252 641.833 71.8252 641.833 72.8242L641.833 72.8242ZM606.769 61.9356C605.371 61.8357 603.473 61.8357 602.074 61.7358C597.179 61.536 599.077 61.0365 598.578 60.7368C600.176 61.3362 602.474 61.7358 606.769 61.9356L606.769 61.9356ZM249.94 102.394C249.94 102.394 249.94 102.394 248.941 102.394L249.94 102.394L249.94 102.394L249.94 102.394ZM334.552 106.062C335.951 105.609 335.551 106.968 336.55 106.968C334.952 106.968 334.153 106.515 332.255 106.515C333.054 106.515 334.153 106.515 334.552 106.062L334.552 106.062ZM624.551 115.28L624.551 115.28C624.551 115.28 624.551 115.28 623.552 115.28L624.551 115.28L624.551 115.28ZM793.575 104.492C794.974 103.826 796.372 103.493 798.271 103.493C799.27 103.493 799.27 103.826 800.169 104.159C797.671 104.159 795.973 104.492 793.575 104.492L793.575 104.492ZM860.606 102.293L860.606 102.293C860.905 102.293 861.904 103 861.904 103C861.405 103.706 860.806 103 860.606 102.293L860.606 102.293ZM849.817 97.5986C850.416 96.9742 853.213 96.7245 856.21 96.5996C853.213 96.8494 850.816 97.0991 849.817 97.5986L849.817 97.5986ZM983.977 68.9838C986.674 68.9838 989.571 66.736 992.668 68.9838C989.472 68.9838 986.674 66.736 983.977 68.9838L983.977 68.9838ZM991.669 63.5341C990.67 63.0346 991.669 63.0346 990.67 63.0346C991.669 62.5352 991.669 62.5352 991.669 62.5352C991.669 62.5352 991.669 63.5341 991.669 63.5341L991.669 63.5341ZM882.883 63.8335C883.482 63.8335 883.882 63.8335 884.381 63.8335C884.381 63.8335 884.381 63.8335 884.381 64.8325C883.882 63.8335 883.482 64.8325 882.883 63.8335L882.883 63.8335ZM812.556 40.2578C813.055 40.5908 813.954 40.2578 814.653 40.5908C813.954 41.2568 813.455 41.2568 813.055 41.2568C812.556 40.9238 813.055 40.5908 812.556 40.2578L812.556 40.2578ZM372.413 57.7893C372.413 57.7893 372.413 57.7893 371.914 57.9096C368.118 56.7067 360.825 56.827 353.733 57.0676C360.825 56.7067 366.519 57.3082 372.413 57.7893L372.413 57.7893ZM278.91 64.6328C278.91 65.6318 279.61 64.6328 279.61 65.6318C278.91 65.6318 278.511 65.6318 278.011 65.6318C278.011 65.6319 278.511 64.6328 278.91 64.6328L278.91 64.6328ZM320.667 67.0635C321.166 67.0635 320.667 67.7294 320.667 67.7294C320.267 67.3965 320.267 67.0635 319.768 66.7305C320.267 66.7305 320.267 67.0635 320.667 67.0635L320.667 67.0635ZM245.545 86.6104C250.24 87.7108 254.736 87.7108 259.431 86.8855C254.736 88.5361 250.14 86.8855 245.545 86.6104L245.545 86.6104ZM243.547 86.6348C244.047 87.2549 247.044 87.2549 248.942 87.5649C246.544 87.2549 243.048 86.9448 242.149 86.6348C242.548 86.6348 242.548 86.4798 243.547 86.6348L243.547 86.6348ZM445.038 99.5967L445.038 99.5967L445.038 99.5967C447.435 99.5967 448.834 100.501 451.331 100.501C448.934 100.953 447.036 99.5967 445.038 100.501C445.038 100.501 445.038 99.5967 445.038 99.5967L445.038 99.5967L445.038 99.5967ZM457.025 104.791C457.025 104.791 458.024 105.79 458.024 105.79C458.024 105.79 457.025 105.79 457.025 104.791L457.025 104.791ZM749.022 110.685C750.22 110.585 749.022 110.485 749.921 110.385C749.022 110.985 749.921 111.384 753.717 111.784L753.417 111.784C749.321 111.584 746.624 110.885 749.022 110.685L749.022 110.685ZM892.373 100.096C892.373 100.096 893.072 100.096 893.472 100.596C893.072 100.596 892.373 101.095 891.573 101.095C891.574 100.596 892.373 100.096 892.373 100.096L892.373 100.096ZM856.51 47.0012L856.21 47.2509C855.711 47.2509 855.711 47.0012 855.711 47.0012C857.209 47.0012 857.209 46.5017 858.108 46.252C858.108 46.7514 856.51 46.7514 856.51 47.0012L856.51 47.0012ZM635.14 56.8129C635.14 56.0325 635.14 56.0325 635.14 56.0325C636.039 55.2521 637.038 56.8129 638.437 56.8129C637.038 56.8129 636.339 55.2521 635.14 56.8129L635.14 56.8129ZM581.895 58.1396C580.996 57.8899 581.596 57.3904 580.697 57.3904C580.996 57.1406 580.996 57.1406 581.596 57.1406C582.894 57.3904 581.496 57.8899 581.895 58.1396L581.895 58.1396ZM293.995 70.4268C292.996 70.4268 293.295 71.4257 292.996 71.4257C292.496 70.9262 293.295 70.9262 293.295 70.4268C293.295 70.4268 293.295 70.4268 293.995 70.4268L293.995 70.4268ZM362.324 120.674C360.726 120.898 361.225 121.233 359.427 121.568C354.532 120.674 356.13 121.344 354.532 121.233C357.529 121.121 359.926 121.009 362.324 120.674L362.324 120.674ZM383.302 120.775C384.8 120.575 386.199 121.174 387.997 120.575C387.697 121.174 384.9 120.974 384.9 121.574C382.802 121.374 384.401 120.974 383.302 120.775L383.302 120.775ZM834.533 108.373C835.032 108.055 834.533 108.055 835.032 107.736C837.73 108.692 840.926 107.099 843.723 107.417C840.926 107.736 836.431 107.736 834.533 108.373L834.533 108.373ZM973.388 101.994C973.388 101.894 973.388 101.794 973.388 101.794C974.787 101.894 976.285 101.994 977.484 102.094C982.279 102.493 989.472 102.593 994.466 102.993C988.273 102.293 981.88 101.794 973.388 101.994L973.388 101.994ZM911.752 42.8554C911.752 42.3559 909.854 41.8564 910.753 41.8564C911.752 41.8564 912.651 42.3559 914.25 42.3559C912.951 42.3559 912.052 42.8554 911.752 42.8554L911.752 42.8554ZM602.474 47.9502C603.166 47.9502 603.166 47.9502 603.166 47.9502C603.857 47.9502 603.166 47.9502 603.166 47.9502L602.474 47.9502L602.474 47.9502ZM564.713 52.4453C564.214 52.4453 564.214 52.4453 563.814 52.4453C564.114 52.4453 565.213 52.4453 565.213 51.4463C565.213 52.4453 564.713 52.4453 564.713 52.4453L564.713 52.4453ZM507.772 58.7387C508.372 57.7397 509.371 57.7397 509.671 57.7397C510.17 58.7387 510.17 58.7387 510.17 58.7387C509.271 57.7397 508.672 58.7387 507.772 58.7387L507.772 58.7387ZM501.479 53.7441C501.978 53.4111 500.979 53.0781 500.979 52.7451C501.479 53.0781 503.377 53.0781 504.476 53.4111C503.477 53.4111 502.578 53.7441 501.479 53.7441L501.479 53.7441ZM459.922 54.144C456.526 53.6445 452.33 53.8942 448.834 53.6445C449.833 53.3948 450.732 53.3948 452.33 53.145C454.128 53.145 457.025 53.6445 459.922 54.144L459.922 54.144ZM392.992 54.5322C399.086 54.0936 405.779 53.4357 407.377 53.5453C408.276 53.655 408.776 53.5453 409.774 53.655C403.381 53.9839 397.787 54.2032 392.992 54.5322L392.992 54.5322ZM188.105 109.786C188.604 110.119 190.103 110.452 190.502 110.785C190.203 110.563 188.604 110.23 188.105 110.008C187.705 109.786 188.105 109.786 188.105 109.786L188.105 109.786ZM563.115 122.872C563.115 123.372 563.814 123.372 563.814 123.372L563.814 123.871C563.115 123.372 563.115 123.372 562.815 123.372C563.115 123.372 563.115 123.372 563.115 122.872L563.115 122.872ZM608.168 128.966L608.168 127.967L608.168 127.967L608.168 128.966L608.168 128.966ZM1032.03 97.3989C1032.73 97.5654 1032.03 97.7319 1033.23 97.8984C1032.03 98.0649 1032.73 98.2314 1031.23 98.3979C1030.83 98.0649 1032.03 97.7319 1032.03 97.3989L1032.03 97.3989ZM1018.34 47.0512C1016.84 47.0512 1015.94 46.5517 1014.85 46.5517C1014.85 46.5517 1014.85 46.5517 1014.85 46.0522C1015.94 46.5517 1016.84 46.5517 1018.34 47.0512L1018.34 47.0512ZM901.563 51.8461C901.563 50.8472 901.563 50.8472 901.563 51.8461C901.563 50.8472 901.563 50.8472 902.562 50.8472C902.562 50.8472 902.562 50.8472 901.563 51.8461L901.563 51.8461ZM950.512 37.8139L949.513 38.3847C949.513 37.8139 949.513 37.8139 949.513 37.8139C949.513 37.243 949.513 37.243 950.512 37.8139L950.512 37.8139L950.512 37.8139ZM907.757 35.613L907.757 35.3633L907.757 35.3633L907.757 35.613C909.255 35.3633 908.656 35.1135 909.255 34.8638C909.255 35.1135 908.556 35.3633 908.556 35.8627C908.656 35.613 908.356 35.613 907.757 35.613L907.757 35.613ZM466.715 44.2975C460.322 44.2975 453.529 44.0165 447.535 43.4546C447.535 43.4546 448.034 43.4546 448.434 43.4546C454.827 44.5784 460.821 44.5784 466.715 44.2975L466.715 44.2975ZM276.113 42.4561C276.513 42.8556 275.614 43.0554 275.214 43.455C274.715 43.2552 275.514 42.8556 274.715 42.4561C275.314 42.4561 275.614 42.4561 276.113 42.4561L276.113 42.4561ZM254.735 73.5234C254.735 73.5234 254.735 73.5234 255.035 73.5234C254.735 74.5224 254.136 74.5224 254.136 74.5224C253.237 73.5234 252.538 73.5234 252.238 73.5234C253.237 73.5234 254.136 73.5234 254.735 73.5234L254.735 73.5234ZM195.697 145.006C199.993 145.292 202.989 144.863 204.887 144.15C204.887 144.293 204.887 144.293 205.387 144.293C202.09 144.578 198.694 144.863 195.697 145.149L195.697 145.006L195.697 145.006ZM659.015 135.16L659.015 135.16C664.21 134.96 668.006 134.46 670.503 133.961L670.503 133.961C662.611 133.961 659.415 134.361 659.015 135.16L659.015 135.16ZM955.507 113.083C956.007 113.782 960.002 114.181 965.197 114.481C962.799 114.481 960.302 114.481 957.905 114.481C957.605 113.882 955.507 113.582 955.507 113.083L955.507 113.083ZM1083.47 55.4423C1088.97 54.4433 1081.88 54.3434 1081.38 53.9438C1082.97 54.5432 1085.37 55.0427 1087.27 55.6421C1085.67 55.4423 1084.47 55.4423 1083.47 55.4423L1083.47 55.4423ZM959.003 33.2651C960.901 34.1003 964.698 34.5178 967.095 34.1003C964.398 34.1003 962 33.6827 959.003 33.2651L959.003 33.2651ZM789.18 32.3662C789.18 33.3652 788.181 33.3652 788.181 33.3652C787.582 32.3662 786.782 33.3652 786.283 32.3662C787.282 33.3652 788.181 32.3662 789.18 32.3662L789.18 32.3662ZM445.038 40.0585C444.538 40.0585 444.538 40.0585 444.538 40.0585C444.538 40.0585 444.538 40.0585 444.039 40.0585C444.039 40.0585 444.538 40.0585 444.538 39.0596C444.538 40.0585 444.538 40.0585 445.038 40.0585L445.038 40.0585ZM269.42 45.0532C264.225 46.0892 258.531 46.3194 250.74 45.7439C257.832 45.9741 264.226 45.859 269.42 45.0532L269.42 45.0532ZM409.075 140.055C409.774 141.054 410.074 141.054 410.973 141.054C410.074 141.054 409.774 141.054 409.075 140.055L409.075 140.055L409.075 140.055ZM504.476 120.275C508.671 119.942 512.967 119.942 516.963 119.276C513.466 120.275 509.271 120.275 504.476 120.275L504.476 120.275ZM599.177 141.054C599.177 140.055 599.177 140.055 599.177 141.054L600.176 140.055C600.176 140.055 599.177 140.055 599.177 141.054L599.177 141.054ZM657.517 137.657C657.517 137.546 657.517 137.546 657.517 137.657C659.914 137.324 663.311 137.102 664.709 136.658C664.709 136.658 664.709 136.658 665.009 136.658C661.413 136.769 659.415 137.213 657.517 137.657L657.517 137.657ZM1009.25 116.179C1009.25 116.179 1009.25 116.179 1009.75 116.179L1009.25 116.179C1009.75 115.979 1010.25 115.979 1010.65 115.979C1010.35 116.179 1009.75 116.179 1009.75 116.179C1009.25 116.579 1011.35 116.579 1011.35 116.978C1010.55 116.779 1009.75 116.579 1009.25 116.179L1009.25 116.179ZM1122.73 34.5644C1121.73 34.5644 1121.73 34.5644 1121.73 34.5644L1121.73 33.5654L1121.73 33.5654C1121.73 33.5654 1121.73 34.5644 1122.73 34.5644L1122.73 34.5644ZM1107.35 28.0707C1107.35 27.821 1107.65 27.821 1107.65 27.3215L1108.75 27.0718C1107.65 27.3215 1107.65 27.5713 1107.35 28.0707L1107.35 28.0707ZM1058 46.3515C1056.3 45.7521 1054.2 45.3525 1050.41 45.5523C1050.41 45.5523 1050.41 45.5523 1050.41 45.3525C1052.81 45.9519 1055.6 45.9519 1058 46.3515L1058 46.3515L1058 46.3515ZM702.969 34.8638C701.571 35.5297 699.773 35.8627 696.476 35.8627C694.878 35.6962 695.777 35.5297 695.477 35.3633C698.174 35.3633 700.672 35.0303 703.569 34.8638C703.569 34.8638 703.569 34.8638 702.969 34.8638L702.969 34.8638ZM540.938 38.4599C540.938 38.4599 539.939 37.4609 539.939 37.4609C539.939 38.4599 540.938 38.4599 540.938 38.4599L540.938 38.4599ZM429.354 37.6611C428.355 37.3281 426.957 36.9951 425.358 36.6621C425.858 36.6621 426.457 36.9951 426.957 36.9951C428.255 36.9951 428.255 37.6611 429.354 37.6611L429.354 37.6611ZM221.071 72.0254C217.274 73.0244 220.171 73.9234 227.863 74.4229C224.067 73.9234 221.67 73.1242 220.771 72.0254L221.071 72.0254L221.071 72.0254ZM144.55 60.437C143.451 60.6867 144.55 61.1862 143.451 61.436C142.552 61.436 142.052 60.9365 141.053 60.9365C142.152 60.9365 143.051 60.6867 144.55 60.437L144.55 60.437ZM145.149 75.1772C145.149 75.1772 146.148 72.9294 146.148 75.1772C146.148 75.1772 146.148 75.1772 145.149 75.1772L145.149 75.1772L145.149 75.1772ZM160.633 80.1499C160.633 80.3164 160.334 80.4829 160.334 80.8159C158.935 80.4829 158.236 80.1499 157.437 79.8169C158.935 79.9834 159.535 80.1499 160.633 80.1499L160.633 80.1499ZM129.166 133.496C124.87 134.046 117.178 133.679 109.586 132.945C109.586 132.762 110.086 132.762 110.086 132.762C115.68 133.863 122.473 133.679 129.166 133.496L129.166 133.496ZM129.166 144.75C121.174 143.751 118.277 142.452 118.777 141.153C118.777 141.053 119.076 141.053 119.076 140.954C114.481 142.552 121.174 143.651 129.166 144.75L129.166 144.75ZM587.689 141.806C586.591 141.806 585.791 142.377 584.892 142.377C585.192 141.806 586.091 141.806 586.591 141.806C586.69 141.235 587.19 141.235 587.689 141.806L587.689 141.806ZM713.559 138.257C720.352 137.358 724.647 137.957 729.342 138.357C729.342 138.556 728.743 138.456 728.743 138.556C728.243 138.656 728.743 138.756 728.743 138.856C721.45 138.257 715.956 138.656 711.161 139.156C712.659 138.856 712.06 138.456 713.559 138.257L713.559 138.257ZM729.842 141.453C729.842 141.453 729.842 141.453 730.397 141.453L730.397 141.453L730.397 141.453L730.397 141.453C730.397 141.453 730.397 141.453 730.841 141.453C730.397 141.453 730.397 141.453 730.397 141.453L729.842 141.453L729.842 141.453ZM977.484 121.773C978.183 120.774 978.583 121.773 978.983 120.774L978.983 121.773C978.583 121.773 978.183 121.773 977.484 121.773L977.484 121.773ZM1136.62 52.7454C1135.52 52.7454 1137.42 52.3458 1137.92 52.146C1137.92 52.5456 1138.42 52.9452 1137.92 53.145C1137.12 52.9452 1137.92 52.9452 1136.62 52.7454L1136.62 52.7454ZM1133.62 42.6481C1133.62 42.6481 1133.62 42.6481 1133.62 41.9565C1134.02 42.6481 1135.02 42.6481 1136.02 42.6481C1135.02 43.3397 1134.72 42.6481 1133.62 42.6481L1133.62 42.6481ZM1024.44 30.7676C1021.34 31.5948 1017.84 31.8706 1014.05 31.7327C1018.34 31.5948 1021.64 31.3191 1024.44 30.7676L1024.44 30.7676ZM996.265 37.5998L996.265 37.5998C994.566 37.5998 992.968 37.5998 991.07 37.5998C991.07 37.5998 991.07 37.5998 991.07 37.0615C992.968 37.5998 994.566 38.6765 996.265 37.5998L996.265 37.5998ZM891.174 25.2734C890.574 24.8294 889.575 24.8294 889.076 24.4964C891.973 24.3854 895.469 24.3854 897.767 24.2744C895.469 24.7184 894.47 24.7184 891.174 25.2734L891.174 25.2734ZM635.14 37.8608C635.14 37.1948 633.542 37.1948 633.542 37.1948C635.44 37.8608 637.338 36.8618 639.436 36.8618C637.937 37.1948 636.339 37.5278 635.14 37.8608L635.14 37.8608ZM612.464 32.9658C611.565 32.9658 611.565 32.6661 611.565 32.4663L611.565 32.4663C611.265 32.8659 613.962 33.1656 615.56 33.4653C613.463 33.4653 614.961 33.0657 612.464 32.9658L612.464 32.9658ZM478.004 28.0707C478.703 28.0707 479.003 28.4703 479.902 28.77C479.502 28.77 479.003 28.6701 479.003 28.6701C477.604 28.4703 474.307 28.0707 471.41 27.771C473.808 27.8709 475.206 28.0707 478.004 28.0707L478.004 28.0707ZM296.792 34.4643C297.291 34.1313 297.691 33.7983 298.29 33.4653C298.29 33.7983 297.591 34.1313 298.29 34.4643C297.591 34.1313 297.291 34.4643 296.792 34.4643L296.792 34.4643ZM237.354 40.0585L237.354 40.0585C237.354 40.0585 237.354 39.0596 238.352 39.0596L237.354 40.0585L237.354 40.0585ZM194.498 53.8437C192.4 53.3442 189.603 53.3442 187.206 53.0945C189.603 52.8447 192.001 53.3442 194.498 52.8447C194.498 53.3442 194.798 53.5939 194.498 53.8437L194.498 53.8437ZM118.777 68.0293C118.777 68.1292 118.777 68.1292 118.777 68.2291C109.586 68.4289 108.088 69.3279 104.392 70.0272C105.291 69.7275 102.893 69.1282 108.088 69.0283C113.982 69.0283 116.879 68.6287 118.777 68.0293L118.777 68.0293ZM127.268 77.9189C128.866 78.6177 132.163 78.3848 134.061 78.8507C132.662 79.0836 132.662 78.6177 130.764 78.8507C130.265 79.0836 128.367 78.3848 126.769 77.9189C127.268 77.9189 127.268 77.9189 127.268 77.9189L127.268 77.9189ZM131.064 91.3052C131.564 92.3041 132.163 92.3041 132.662 92.3041C131.663 92.3041 131.064 92.3041 130.764 92.3041C130.764 91.3052 131.064 91.3052 131.064 91.3052L131.064 91.3052ZM385.899 146.348C385.899 145.349 386.698 145.849 387.098 145.349C387.098 145.849 385.899 145.349 386.199 146.348C385.899 146.348 385.899 146.348 385.899 146.348L385.899 146.348ZM468.413 134.66C467.914 134.993 468.913 135.659 468.413 135.659C467.914 135.326 468.413 134.993 467.514 134.66C467.914 134.66 468.413 134.66 468.413 134.66L468.413 134.66ZM985.276 122.782C985.276 122.477 985.276 122.477 985.276 122.173C985.776 122.477 986.675 122.782 987.374 123.087C986.275 123.391 986.275 122.782 985.276 122.782L985.276 122.782ZM1092.42 118.776L1092.42 118.776C1092.42 118.277 1091.64 118.277 1091.64 117.777C1090.86 118.277 1092.42 118.277 1092.42 118.776L1092.42 118.776ZM1092.5 118.977C1092.5 118.977 1092.16 117.978 1092.16 117.978L1092.16 117.978C1092.16 118.977 1092.5 118.977 1093.16 118.977L1092.5 118.977L1092.5 118.977ZM1126.13 23.6782C1131.32 23.342 1136.12 23.0058 1141.51 23.0058C1141.51 23.0058 1141.51 23.0058 1141.51 23.342C1136.12 21.9973 1131.22 23.0058 1126.13 23.6782L1126.13 23.6782ZM745.026 19.2797C745.625 18.7802 745.625 18.2808 746.125 18.2808C746.624 18.7802 746.125 19.2797 746.624 19.2797C746.125 19.2797 745.625 19.2797 745.026 19.2797L745.026 19.2797ZM333.11 148.346L333.554 149.345C333.11 149.345 333.11 148.346 332.555 148.346C333.11 148.346 333.11 148.346 333.11 148.346L333.11 148.346ZM415.469 147.439C415.768 146.748 416.867 147.439 417.666 146.748C418.166 146.748 418.565 147.439 419.265 147.439C417.766 147.439 416.368 148.131 415.469 147.439L415.469 147.439ZM806.862 142.152C807.161 141.653 807.861 141.653 808.76 141.153C808.26 141.653 807.861 141.653 807.261 142.152L806.862 142.152L806.862 142.152ZM1157.5 93.8579L1157.5 93.8579C1158.1 92.734 1158.6 93.8579 1158.6 93.8579C1158.1 94.9818 1158.1 93.8579 1157.5 93.8579L1157.5 93.8579ZM932.231 14.685C929.834 14.4852 927.936 13.8858 924.639 13.8858C925.538 13.8858 927.037 13.8858 928.435 13.686C930.233 13.8858 930.733 14.685 932.231 14.685L932.231 14.685ZM754.216 28.8701C753.317 28.5371 751.819 28.5371 751.819 27.8711C753.317 28.2041 754.216 28.2041 755.115 28.8701C755.115 28.8701 754.616 28.8701 754.216 28.8701L754.216 28.8701ZM335.552 24.5746C335.951 24.0752 339.348 23.8254 342.644 23.5757C337.45 23.7006 335.851 24.0752 335.552 24.5746L335.552 24.5746ZM284.804 27.1274C284.804 27.1274 284.804 27.1274 284.804 27.1274C284.804 24.8798 284.804 27.1274 285.803 27.1274C284.804 27.1274 284.804 27.1274 284.804 27.1274L284.804 27.1274ZM86.6101 63.1348C87.709 63.4202 88.2084 63.8483 89.0076 64.1337C88.5081 64.1337 88.5081 64.1337 88.1086 64.1337C89.4072 63.8483 87.1096 63.7056 86.6101 63.1348L86.6101 63.1348ZM65.1326 86.8095C65.1326 86.8095 65.1326 86.8095 65.1326 85.8105L65.1326 85.8105C65.1326 86.8095 65.1326 86.8095 65.1326 86.8095L65.1326 86.8095ZM96.7997 143.451L96.7997 143.451L95.8008 143.451L96.7997 143.451L96.7997 143.451ZM172.82 152.341C172.82 152.341 172.82 152.341 171.822 152.341C172.82 152.341 172.82 152.341 172.82 152.341L172.82 152.341L172.82 152.341ZM1228.02 15.3838C1228.02 15.5836 1228.02 15.5836 1228.32 15.5836C1224.13 15.184 1221.63 15.5836 1219.13 16.3828C1220.73 15.5836 1224.23 15.5836 1228.02 15.3838L1228.02 15.3838ZM69.8277 70.6831C65.1326 70.5098 61.9359 71.0295 58.7393 71.5493C61.836 70.6831 65.4323 70.3366 69.8277 70.6831L69.8277 70.6831ZM65.632 88.7075C65.632 88.7075 64.6331 88.7075 64.6331 89.7065C64.6331 88.7075 64.6331 88.7075 64.6331 88.7075L65.632 88.7075L65.632 88.7075ZM860.006 138.756C861.005 138.756 861.005 138.756 861.005 138.756C861.005 139.755 861.005 139.755 860.006 139.755C860.006 139.755 860.006 139.755 860.006 138.756L860.006 138.756ZM18.6808 41.9565C18.6808 41.9565 17.6819 41.9565 17.6819 42.9555C17.6819 41.9565 17.6819 42.9555 17.6819 41.9565C17.6819 41.9565 17.6819 41.9565 18.6808 41.9565L18.6808 41.9565ZM131.064 161.699C128.866 161.394 126.369 160.783 123.472 161.089C127.268 161.089 131.064 161.089 135.06 162.004C133.561 162.004 132.163 161.394 131.064 161.699L131.064 161.699ZM136.958 162.331C135.959 162.331 136.958 161.333 135.959 161.333L136.958 161.333C136.958 162.331 136.958 162.331 136.958 162.331L136.958 162.331ZM1142.71 120.674C1143.21 120.341 1143.91 120.008 1144.21 119.675C1143.91 120.008 1144.21 120.008 1143.91 120.008C1143.91 120.674 1142.71 120.674 1142.71 120.674L1142.71 120.674ZM1210.34 25.4736L1211.34 25.4736C1211.34 25.4736 1211.34 25.4736 1211.34 26.4726C1211.34 25.4736 1211.34 25.4736 1210.34 25.4736L1210.34 25.4736Z" transform="translate(0 1.9980469)" id="XMLID_9_" fill="#FFFFFF" fill-rule="evenodd" stroke="none" />
      <path d="M0.234193 0.799184C0.733674 0.998973 4.23004 1.09887 5.5287 1.19876C9.82423 1.19876 11.8222 0.998973 11.8222 0.59938C11.8222 0.29969 9.42466 0 6.62756 0C2.6317 0.0999171 -0.964559 0.299706 0.234193 0.799184L0.234193 0.799184Z" transform="translate(157.20215 159.93457)" id="XMLID_8_" fill="#FFFFFF" fill-rule="evenodd" stroke="none" />
      <path d="M0 0.599382C3.79605 0.899073 7.09261 1.09886 10.3892 1.29865C14.3851 1.49844 15.7837 1.19875 14.6848 0.799171C13.7857 0.399593 11.0885 0.099902 6.69306 0C5.79397 1.52429e-05 4.39546 0.199804 0 0.599382L0 0.599382Z" transform="translate(552.7256 175.91699)" id="XMLID_7_" fill="#FFFFFF" fill-rule="evenodd" stroke="none" />
      <path d="M0 0.757454C1.59835 0.757454 3.29657 0.998962 4.89491 0.998962C5.79397 0.878199 6.49326 0.515945 6.79294 0.274418C5.19459 0.153654 3.29657 -0.0878549 1.99793 0.0329087C0.899061 0.153672 0.599384 0.395181 0 0.757454L0 0.757454Z" transform="translate(263.62598 158.80762)" id="XMLID_6_" fill="#FFFFFF" fill-rule="evenodd" stroke="none" />
      <path d="M7.19263 0.636692C6.29353 0.395178 6.29353 0.032911 4.79508 0.032911C3.89599 -0.0878456 1.99793 0.153668 0 0.274424C0.499483 0.515937 0.998966 0.878205 1.99793 0.998961C3.19676 0.998959 5.29457 0.636692 7.19263 0.636692L7.19263 0.636692Z" transform="translate(1177.6758 7.963867)" id="XMLID_5_" fill="#FFFFFF" fill-rule="evenodd" stroke="none" />
      <path d="M0.148527 0.399584C-0.850434 1.59834 3.14541 2.19772 13.4348 2.19772L15.0331 1.99792C14.5336 1.09886 10.7375 0.399584 3.14541 0C2.04658 0.199792 1.14749 0.299689 0.148527 0.399584L0.148527 0.399584Z" transform="translate(1101.0068 0)" id="XMLID_4_" fill="#FFFFFF" fill-rule="evenodd" stroke="none" />
      <path d="M6.09894 0.749221C6.6983 0.624351 5.69933 0.374611 5.0001 0C3.80138 0.124871 1.80344 0.124871 0.804469 0.374611C-0.594115 0.624351 -0.194502 0.749221 2.20305 0.998961C3.80126 0.998963 5.69933 0.998963 6.09894 0.749221L6.09894 0.749221Z" transform="translate(1190.2578 3.7958984)" id="XMLID_3_" fill="#FFFFFF" fill-rule="evenodd" stroke="none" />
    </g>
  </g>
</svg>